<?xml version="1.0" encoding="utf-8"?>
<!-- Generator: Adobe Illustrator 20.1.0, SVG Export Plug-In . SVG Version: 6.00 Build 0)  -->
<svg version="1.1" id="Ebene_1" xmlns="http://www.w3.org/2000/svg" xmlns:xlink="http://www.w3.org/1999/xlink" x="0px" y="0px"
	 viewBox="0 0 1410.7 1854.5" style="enable-background:new 0 0 1410.7 1854.5;" xml:space="preserve">
<style type="text/css">
	.st0{fill:#1A1B19;}
	.st1{fill:#FFFFFF;}
	.st2{fill:#5CCCBB;}
	.st3{fill:#FFB039;}
	.st4{fill:#FCE000;}
	.st5{fill:#5DC3D7;}
	.st6{fill:#6ED685;}
	.st7{fill:#B0DA50;}
	.st8{fill:#FFB039;stroke:#000000;stroke-miterlimit:10;}
	.st9{fill:#5DC3D7;stroke:#000000;stroke-miterlimit:10;}
	.st10{fill:#B0DA50;stroke:#000000;stroke-miterlimit:10;}
</style>
<title>hero-stage-pfeile</title>
<path class="st0" d="M44,1521.7l-18.8,9l-8.6-19.6l18.8-9L44,1521.7z M44,1521.7l-18.8,9l8.6,19.6l18.7-9.1L44,1521.7z M52.7,1541.3
	l-18.7,9.1l8.6,19.6l18.8-9L52.7,1541.3z M61.3,1561l-18.8,9l8.6,19.6l18.8-9.1L61.3,1561z M70,1580.5l-18.8,9.1l8.7,19.6l18.8-9.1
	L70,1580.5z M78.7,1600.1l-18.9,9.1l8.6,19.6l18.8-9.1L78.7,1600.1z M87.3,1619.8l-18.8,9.1l8.6,19.6l18.8-9.1L87.3,1619.8z
	 M96,1639.4l-18.8,9.1l8.7,19.6l18.8-9L96,1639.4z M104.6,1659l-18.8,9l8.6,19.6l18.8-9L104.6,1659z M113.3,1678.6l-18.8,9l8.6,19.6
	l18.8-9L113.3,1678.6z M122,1698.2l-18.8,9l8.7,19.6l18.7-9.1L122,1698.2z M130.6,1717.8l-18.7,9.1l8.6,19.6l18.8-9.1L130.6,1717.8z
	 M139.3,1737.4l-18.8,9.1l8.6,19.6l18.8-9.1L139.3,1737.4z M147.9,1757l-18.8,9.1l8.7,19.6l18.8-9.1L147.9,1757z M156.6,1776.6
	l-18.8,9.1l8.6,19.6l18.8-9L156.6,1776.6z M165.2,1796.2l-18.8,9l8.7,19.6l18.8-9.1L165.2,1796.2z M173.9,1815.8l-18.8,9.1l8.6,19.6
	l18.8-9L173.9,1815.8z M192.6,1806.8l-18.8,9l8.6,19.6l18.8-9L192.6,1806.8z M202.7,1778.1l-18.8,9.1l8.6,19.6l18.8-9.1
	L202.7,1778.1z M212.8,1749.5l-18.8,9l8.8,19.7l18.8-9L212.8,1749.5z M223,1720.8l-18.8,9l8.6,19.6l18.8-9L223,1720.8z
	 M250.4,1731.4l-18.8,9.1l8.6,19.6l18.8-9L250.4,1731.4z M259,1751.1l-18.8,9l8.6,19.6l18.8-9L259,1751.1z M286.4,1761.6l-18.8,9
	l8.6,19.6l18.8-9L286.4,1761.6z M295.1,1781.2l-18.8,9l8.7,19.6l18.8-9.1L295.1,1781.2z M322.5,1791.8l-18.8,9l8.6,19.6l18.8-9
	L322.5,1791.8z M341.3,1782.7l-18.8,9l8.6,19.6l18.8-9L341.3,1782.7z M351.3,1754.1l-18.8,9l8.7,19.6l18.8-9L351.3,1754.1z
	 M342.7,1734.4l-18.8,9.1l8.6,19.6l18.8-9L342.7,1734.4z M315.3,1723.9l-18.8,9l8.6,19.6l18.8-9L315.3,1723.9z M306.7,1704.3
	l-18.8,9l8.6,19.6l18.8-9L306.7,1704.3z M279.3,1693.7l-18.8,9l8.6,19.6l18.8-9L279.3,1693.7z M270.6,1674.2l-18.8,9l8.7,19.6
	l18.8-9L270.6,1674.2z M289.3,1665.2l-18.8,9l8.6,19.6l18.8-9L289.3,1665.2z M308.1,1656.1l-18.8,9.1l8.6,19.6l18.8-9.1
	L308.1,1656.1z M326.9,1647.1l-18.8,9l8.6,19.6l18.8-9L326.9,1647.1z M345.6,1638.1l-18.8,9l8.6,19.6l18.8-9L345.6,1638.1z
	 M336.8,1618.3l-18.8,9l8.7,19.6l18.8-9L336.8,1618.3z M309.4,1607.7l-18.8,9l8.7,19.6l18.8-9.1L309.4,1607.7z M282,1597.2l-18.8,9
	l8.6,19.6l18.8-9.1L282,1597.2z M254.6,1586.6l-18.8,9.1l8.7,19.6l18.8-9L254.6,1586.6z M227.2,1576.1l-18.8,9l8.7,19.6l18.8-9
	L227.2,1576.1z M199.8,1565.5l-18.8,9l8.6,19.6l18.8-9.1L199.8,1565.5z M172.4,1554.9l-18.8,9l8.6,19.6l18.8-9L172.4,1554.9z
	 M145,1544.3l-18.8,9l8.7,19.6l18.8-9L145,1544.3z M117.6,1533.7l-18.8,9l8.6,19.6l18.8-9L117.6,1533.7z M90.2,1523.1l-18.8,9
	l8.6,19.6l18.8-9L90.2,1523.1z M62.8,1512.5l-18.8,9.1l8.6,19.6l18.8-9L62.8,1512.5z"/>
<polygon class="st1" points="52.7,1541.3 71.4,1532.3 80.1,1551.9 98.9,1542.9 107.5,1562.5 126.3,1553.4 134.9,1573 153.7,1564 
	162.4,1583.6 181.1,1574.6 189.8,1594.2 208.5,1585.1 217.2,1604.7 235.9,1595.7 244.6,1615.3 263.4,1606.2 272,1625.8 
	290.8,1616.8 299.4,1636.4 318.2,1627.4 326.9,1647 251.8,1683.2 269.2,1722.4 287.9,1713.3 305.2,1752.6 324,1743.5 341.3,1782.7 
	303.8,1800.8 286.4,1761.6 267.7,1770.7 250.4,1731.4 231.6,1740.5 223,1720.9 204.2,1729.9 212.8,1749.5 194.1,1758.6 
	202.7,1778.2 184,1787.3 192.6,1806.9 173.9,1815.9 "/>
<path class="st0" d="M22.2,1134.5l11.2,11.9l-11.3,11.7L11,1146.4L22.2,1134.5z M22.2,1134.5l11.2,11.9l11.3-11.7l-11.2-11.8
	L22.2,1134.5z M33.5,1122.7l11.2,11.8l11.3-11.7L44.8,1111L33.5,1122.7z M44.8,1111l11.2,11.8l11.3-11.7l-11.2-11.8L44.8,1111z
	 M56,1099.2l11.2,11.8l11.3-11.8l-11.3-11.8L56,1099.2z M67.3,1087.5l11.3,11.8l11.3-11.7l-11.2-11.8L67.3,1087.5z M78.6,1075.7
	l11.2,11.8l11.3-11.7L89.9,1064L78.6,1075.7z M89.9,1064l11.3,11.8l11.3-11.7l-11.2-11.8L89.9,1064z M101.2,1052.2l11.2,11.8
	l11.3-11.7l-11.2-11.8L101.2,1052.2z M112.5,1040.5l11.2,11.8l11.3-11.7l-11.3-12L112.5,1040.5z M123.7,1028.6l11.2,11.8l11.3-11.8
	l-11.2-11.8L123.7,1028.6z M135,1016.8l11.2,11.8l11.3-11.7l-11.3-11.8L135,1016.8z M146.2,1005.1l11.3,11.8l11.3-11.7l-11.3-11.8
	L146.2,1005.1z M157.5,993.4l11.3,11.8l11.3-11.7l-11.2-11.8L157.5,993.4z M168.8,981.6l11.2,11.8l11.3-11.7l-11.2-11.8L168.8,981.6
	z M180.1,969.9l11.2,11.8l11.3-11.8l-11.2-11.8L180.1,969.9z M191.4,958.1l11.2,11.8l11.3-11.7l-11-11.7L191.4,958.1z M180.1,946.3
	l11.2,11.8l11.3-11.7l-11.2-11.8L180.1,946.3z M157.6,946.3l11.2,11.8l11.3-11.7l-11.2-11.8L157.6,946.3z M135.1,946.3l11.2,11.8
	l11.3-11.7l-11.2-11.8L135.1,946.3z M112.6,946.3l11.2,11.8l11.3-11.7l-11.2-11.8L112.6,946.3z M112.6,922.8l11.3,11.8l11.3-11.7
	l-11.2-11.8L112.6,922.8z M123.9,911.1l11.2,11.8l11.3-11.7l-11.2-11.8L123.9,911.1z M123.9,887.5l11.3,11.8l11.3-11.7l-11.1-11.8
	L123.9,887.5z M135.1,875.8l11.2,11.8l11.3-11.8L146.4,864L135.1,875.8z M135.1,852.2l11.3,11.8l11.3-11.7l-11.2-11.8L135.1,852.2z
	 M123.9,840.4l11.2,11.8l11.3-11.7l-11.2-11.8L123.9,840.4z M101.4,840.4l11.2,11.8l11.3-11.8l-11.2-11.8L101.4,840.4z M90.2,852.1
	l11.3,11.8l11.3-11.7l-11.2-11.8L90.2,852.1z M90.2,875.7l11.2,11.8l11.3-11.7l-11.2-11.8L90.2,875.7z M78.9,887.4l11.2,11.8
	l11.3-11.7l-11.2-11.7L78.9,887.4z M78.9,911l11.2,11.8l11.3-11.9L90.2,899L78.9,911z M67.6,922.7l11.2,11.8l11.3-11.8l-11.2-11.9
	L67.6,922.7z M56.5,910.8l11.2,11.8L79,910.9l-11.2-11.8L56.5,910.8z M45.2,899l11.3,11.8l11.3-11.7l-11.3-11.8L45.2,899z M34,887.2
	L45.2,899l11.3-11.7l-11.2-11.8L34,887.2z M22.7,875.5L34,887.2l11.3-11.7l-11.2-11.8L22.7,875.5z M11.4,887.2L22.7,899l11.3-11.8
	l-11.2-11.8L11.4,887.2z M11.4,910.8l11.2,11.8L34,910.8L22.7,899L11.4,910.8z M11.4,934.3l11.2,11.8L34,934.4l-11.2-11.8
	L11.4,934.3z M11.4,957.9l11.2,11.8L34,957.9l-11.3-11.8L11.4,957.9z M11.4,981.4l11.2,11.8l11.3-11.7l-11.2-11.8L11.4,981.4z
	 M11.4,1004.9l11.2,11.8L34,1005l-11.3-11.8L11.4,1004.9z M11.4,1028.5l11.2,11.8l11.3-11.7l-11.2-11.8L11.4,1028.5z M11.4,1052
	l11.2,11.8l11.3-11.7l-11.2-11.8L11.4,1052z M11.4,1075.6l11.2,11.8l11.3-11.7l-11.3-11.8L11.4,1075.6z M11.4,1099.1l11.2,11.8
	l11.3-11.7l-11.2-11.8L11.4,1099.1z M11.4,1122.6l11.3,11.8l11.3-11.8l-11.2-11.8L11.4,1122.6z"/>
<polygon class="st2" points="33.5,1122.7 22.3,1111 33.6,1099.2 22.3,1087.4 33.6,1075.7 22.4,1063.9 33.7,1052.1 22.4,1040.3 
	33.7,1028.6 22.5,1016.8 33.8,1005 22.5,993.2 33.8,981.5 22.5,969.7 33.8,957.9 22.6,946.1 33.9,934.4 22.6,922.6 33.9,910.9 
	22.7,899.1 34,887.3 78.9,934.5 101.5,911 90.2,899.2 112.8,875.7 101.6,863.9 124.1,840.4 146.6,864 124,887.5 135.3,899.3 
	112.7,922.8 124,934.6 112.7,946.3 123.9,958.1 135.2,946.4 146.4,958.2 157.7,946.4 168.9,958.2 180.2,946.5 191.5,958.2 "/>
<path class="st0" d="M150.6,1315.6l0.9,12l-11.5,1l-0.9-12L150.6,1315.6z M150.6,1315.6l0.9,12l11.4-1l-0.9-12L150.6,1315.6z
	 M162,1314.7l0.9,12l11.4-1l-0.9-12L162,1314.7z M173.5,1313.7l0.9,12l11.4-1l-0.9-12L173.5,1313.7z M184.9,1312.7l0.9,12l11.5-1
	l-0.9-12L184.9,1312.7z M196.4,1311.8l0.9,12l11.4-1l-0.9-12L196.4,1311.8z M207.8,1310.8l0.9,12l11.4-1l-0.9-12L207.8,1310.8z
	 M219.3,1309.8l0.9,12l11.4-1l-0.9-12L219.3,1309.8z M230.7,1308.8l0.9,12l11.4-1l-0.9-12L230.7,1308.8z M242.2,1307.9l0.9,12
	l11.4-1l-0.9-12L242.2,1307.9z M253.6,1306.9l0.9,12l11.5-1l-0.9-11.9L253.6,1306.9z M265.1,1305.9l0.9,11.9l11.4-1l-0.9-12
	L265.1,1305.9z M276.5,1304.9l0.9,12l11.4-1l-0.9-12L276.5,1304.9z M288,1304l0.9,12l11.4-1l-0.9-11.9L288,1304z M299.4,1303
	l0.9,11.9l11.4-1l-0.9-12L299.4,1303z M310.9,1302l0.9,12l11.4-1l-0.9-12L310.9,1302z M322.3,1301.1l0.9,12l11.4-1l-0.9-12
	L322.3,1301.1z M321.4,1289.1l0.9,12l11.4-1l-0.9-12L321.4,1289.1z M309,1278.1l0.9,12l11.4-1l-0.9-12L309,1278.1z M296.6,1267.1
	l0.9,12l11.5-1l-0.9-12L296.6,1267.1z M284.2,1256.1l0.9,12l11.4-1l-0.9-12L284.2,1256.1z M294.8,1243.1l0.9,12l11.4-1l-0.9-12
	L294.8,1243.1z M306.2,1242.1l0.9,12l11.4-1l-0.9-12L306.2,1242.1z M316.7,1229.2l0.9,12l11.4-1l-0.9-12L316.7,1229.2z
	 M328.2,1228.2l0.9,12l11.5-1l-0.9-12L328.2,1228.2z M338.7,1215.2l0.9,12l11.4-1l-0.9-12L338.7,1215.2z M337.8,1203.2l0.9,12
	l11.5-1l-0.9-12L337.8,1203.2z M325.4,1192.2l0.9,12l11.4-1l-0.9-12L325.4,1192.2z M313.9,1193.2l0.9,12l11.4-1l-0.9-12
	L313.9,1193.2z M303.3,1206.1l0.9,12l11.4-1l-0.9-12L303.3,1206.1z M291.9,1207.1l0.9,12l11.4-1l-0.9-12L291.9,1207.1z
	 M281.4,1220.1l0.9,12l11.4-1l-0.9-12L281.4,1220.1z M269.9,1221l0.9,12l11.4-1l-0.9-12L269.9,1221z M269,1209.1l0.9,12l11.4-1
	l-0.9-12L269,1209.1z M268,1197.1l0.9,12l11.4-1l-0.9-12L268,1197.1z M267.1,1185.1l0.9,12l11.5-1l-0.9-12L267.1,1185.1z
	 M266.2,1173.1l0.9,12l11.4-1l-0.9-12L266.2,1173.1z M254.7,1174.1l0.9,12l11.4-1l-0.9-12L254.7,1174.1z M244.2,1187.1l0.9,12
	l11.4-1l-0.9-12L244.2,1187.1z M233.7,1200l0.9,12l11.4-1l-0.9-12L233.7,1200z M223.2,1213l0.9,12l11.4-1l-0.9-12L223.2,1213z
	 M212.7,1225.9l0.9,12l11.5-1l-0.9-12L212.7,1225.9z M202.2,1238.9l0.9,12l11.4-1l-0.9-12L202.2,1238.9z M191.7,1251.9l0.9,12
	l11.4-1l-0.9-12L191.7,1251.9z M181.2,1264.8l0.9,12l11.4-1l-0.9-12L181.2,1264.8z M170.6,1277.8l0.9,12l11.4-1l-0.9-12
	L170.6,1277.8z M160.2,1290.7l0.9,12l11.4-1l-0.9-12L160.2,1290.7z M149.7,1303.6l0.9,12l11.4-1l-0.9-12L149.7,1303.6z"/>
<polygon class="st1" points="162,1314.7 161.1,1302.7 172.5,1301.7 171.6,1289.7 183,1288.7 182.1,1276.8 193.6,1275.8 
	192.6,1263.8 204.1,1262.8 203.2,1250.9 214.6,1249.9 213.7,1237.9 225.1,1236.9 224.2,1225 235.7,1224 234.7,1212 246.2,1211 
	245.2,1199 256.7,1198.1 255.8,1186.1 267.2,1185.1 270.9,1233 293.9,1231.1 292.9,1219.1 315.9,1217.1 314.9,1205.2 337.8,1203.2 
	339.7,1227.2 316.8,1229.1 317.7,1241.1 294.8,1243 295.7,1255 284.3,1256 285.2,1268 296.7,1267 297.6,1279 309.1,1278 310,1290 
	321.5,1289 322.4,1301 "/>
<path class="st0" d="M417.5,1211.2l0.6,11.4l-10.9,0.7l-0.7-11.4L417.5,1211.2z M417.5,1211.2l0.6,11.4l10.9-0.7l-0.7-11.4
	L417.5,1211.2z M428.4,1210.5l0.7,11.4l10.9-0.7l-0.6-11.4L428.4,1210.5z M439.3,1209.9l0.6,11.4l10.9-0.7l-0.6-11.4L439.3,1209.9z
	 M450.2,1209.2l0.6,11.4l10.9-0.7l-0.7-11.4L450.2,1209.2z M461,1208.5l0.7,11.4l10.9-0.7l-0.7-11.4L461,1208.5z M471.9,1207.8
	l0.7,11.4l10.9-0.7l-0.7-11.4L471.9,1207.8z M482.8,1207.1l0.7,11.4l10.9-0.7l-0.7-11.4L482.8,1207.1z M493.7,1206.4l0.7,11.4
	l10.9-0.7l-0.7-11.4L493.7,1206.4z M504.6,1205.7l0.7,11.4l10.9-0.7l-0.7-11.4L504.6,1205.7z M515.5,1205l0.7,11.4l10.9-0.7
	l-0.7-11.4L515.5,1205z M526.3,1204.3l0.7,11.4l10.9-0.7l-0.7-11.4L526.3,1204.3z M537.2,1203.6l0.7,11.4l10.9-0.7l-0.7-11.4
	L537.2,1203.6z M548.1,1202.9l0.7,11.4l10.9-0.7l-0.7-11.4L548.1,1202.9z M559,1202.2l0.7,11.4l10.9-0.7l-0.6-11.4L559,1202.2z
	 M569.9,1201.6l0.6,11.4l10.9-0.7l-0.7-11.4L569.9,1201.6z M580.8,1200.9l0.7,11.4l10.9-0.7l-0.6-11.4L580.8,1200.9z M580.1,1189.5
	l0.7,11.4l10.9-0.7l-0.6-11.4L580.1,1189.5z M568.6,1178.8l0.7,11.4l10.9-0.7l-0.7-11.4L568.6,1178.8z M557,1168.1l0.7,11.4
	l10.9-0.7l-0.7-11.4L557,1168.1z M545.5,1157.4l0.7,11.4l10.9-0.7l-0.7-11.4L545.5,1157.4z M555.7,1145.4l0.6,11.4l10.9-0.7
	l-0.6-11.4L555.7,1145.4z M566.6,1144.7l0.6,11.4l10.9-0.7l-0.7-11.4L566.6,1144.7z M576.8,1132.6l0.6,11.4l10.9-0.7l-0.6-11.4
	L576.8,1132.6z M587.7,1131.9l0.6,11.4l10.9-0.7l-0.6-11.4L587.7,1131.9z M597.9,1119.9l0.7,11.4l10.9-0.7l-0.7-11.4L597.9,1119.9z
	 M597.3,1108.5l0.6,11.4l10.9-0.7l-0.7-11.4L597.3,1108.5z M585.8,1097.8l0.7,11.4l10.9-0.7l-0.7-11.4L585.8,1097.8z M574.9,1098.5
	l0.7,11.4l10.9-0.7l-0.7-11.4L574.9,1098.5z M564.6,1110.6l0.6,11.4l10.9-0.7l-0.6-11.4L564.6,1110.6z M553.8,1111.3l0.7,11.4
	l10.9-0.7l-0.6-11.4L553.8,1111.3z M543.5,1123.3l0.7,11.4l10.9-0.7l-0.7-11.4L543.5,1123.3z M532.7,1124l0.6,11.4l10.9-0.7
	l-0.7-11.4L532.7,1124z M532,1112.6l0.7,11.4l10.9-0.7l-0.6-11.4L532,1112.6z M531.3,1101.2l0.7,11.4l10.9-0.7l-0.7-11.4
	L531.3,1101.2z M530.7,1089.8l0.6,11.4l10.9-0.7l-0.7-11.4L530.7,1089.8z M530,1078.5l0.6,11.4l10.9-0.7l-0.6-11.4L530,1078.5z
	 M519.2,1079.1l0.6,11.4l10.9-0.7l-0.6-11.4L519.2,1079.1z M508.9,1091.2l0.7,11.4l10.9-0.7l-0.6-11.4L508.9,1091.2z M498.7,1103.3
	l0.7,11.4l10.9-0.7l-0.7-11.4L498.7,1103.3z M488.5,1115.3l0.7,11.4l10.9-0.7l-0.7-11.4L488.5,1115.3z M478.2,1127.4l0.6,11.4
	l10.9-0.7l-0.6-11.4L478.2,1127.4z M468,1139.5l0.7,11.4l10.9-0.7l-0.7-11.4L468,1139.5z M457.8,1151.6l0.6,11.4l10.9-0.7l-0.7-11.4
	L457.8,1151.6z M447.6,1163.6l0.6,11.4l10.9-0.7l-0.7-11.4L447.6,1163.6z M437.4,1175.7l0.6,11.3l10.9-0.7l-0.6-11.4L437.4,1175.7z
	 M427.1,1187.7l0.7,11.4l10.9-0.7L438,1187L427.1,1187.7z M416.9,1199.8l0.7,11.4l10.9-0.7l-0.6-11.4L416.9,1199.8z"/>
<polygon class="st1" points="428.4,1210.5 427.8,1199.1 438.7,1198.5 438,1187.1 448.9,1186.4 448.2,1175 459.1,1174.3 458.5,1163 
	469.3,1162.3 468.7,1150.9 479.6,1150.2 478.9,1138.9 489.8,1138.2 489.1,1126.8 500,1126.1 499.3,1114.7 510.2,1114 509.6,1102.7 
	520.4,1102 519.8,1090.6 530.7,1089.9 533.3,1135.4 555.1,1134 554.4,1122.7 576.2,1121.3 575.5,1109.9 597.3,1108.6 598.6,1131.3 
	576.8,1132.7 577.5,1144.1 555.7,1145.4 556.4,1156.8 545.5,1157.5 546.1,1168.9 557,1168.2 557.7,1179.5 568.6,1178.9 
	569.2,1190.2 580.1,1189.6 580.8,1200.9 "/>
<path class="st0" d="M1020.1,760.2l4.2,6.7l-6.5,4.4l-4.2-6.7L1020.1,760.2z M1020.1,760.2l4.2,6.7l6.5-4.4l-4.2-6.7L1020.1,760.2z
	 M1026.6,755.8l4.2,6.7l6.4-4.5l-4.2-6.8L1026.6,755.8z M1033.1,751.3l4.1,6.7l6.5-4.4l-4.2-6.8L1033.1,751.3z M1039.5,747l4.2,6.8
	l6.5-4.4l-4.2-6.7L1039.5,747z M1046,742.6l4.2,6.7l6.5-4.4l-4.2-6.7L1046,742.6z M1052.4,738.2l4.2,6.7l6.5-4.4l-4.2-6.7
	L1052.4,738.2z M1058.9,733.7l4.2,6.7l6.5-4.4l-4.1-6.7L1058.9,733.7z M1065.3,729.4l4.2,6.7l6.5-4.4l-4.2-6.7L1065.3,729.4z
	 M1071.8,725l4.2,6.7l6.5-4.4l-4.2-6.7L1071.8,725z M1078.3,720.6l4.2,6.7l6.5-4.3l-4.2-6.7L1078.3,720.6z M1084.7,716.2l4.2,6.8
	l6.5-4.4l-4.2-6.7L1084.7,716.2z M1091.2,711.8l4.2,6.7l6.5-4.4l-4.2-6.7L1091.2,711.8z M1097.6,707.4l4.2,6.7l6.5-4.4l-4.1-6.8
	L1097.6,707.4z M1104.1,703l4.2,6.7l6.5-4.4l-4.2-6.8L1104.1,703z M1110.5,698.6l4.2,6.8l6.5-4.4l-4.2-6.8L1110.5,698.6z
	 M1117,694.2l4.2,6.8l6.5-4.4l-4.2-6.7L1117,694.2z M1112.8,687.4l4.2,6.7l6.5-4.4l-4.1-6.8L1112.8,687.4z M1102.1,685.1l4.2,6.7
	l6.5-4.4l-4.2-6.7L1102.1,685.1z M1091.4,682.7l4.2,6.8l6.5-4.4l-4-6.8L1091.4,682.7z M1080.7,680.3l4.2,6.7l6.5-4.4l-4.2-6.7
	L1080.7,680.3z M1083,669.2l4.2,6.7l6.5-4.4l-4.2-6.7L1083,669.2z M1089.4,664.8l4.2,6.7l6.5-4.4l-4.2-6.7L1089.4,664.8z
	 M1091.7,653.6l4.2,6.8l6.5-4.4l-4.2-6.7L1091.7,653.6z M1098.2,649.2l4.2,6.7l6.5-4.4l-4.2-6.8L1098.2,649.2z M1100.4,638.1
	l4.2,6.7l6.5-4.4l-4-6.8L1100.4,638.1z M1096.2,631.3l4.2,6.7l6.5-4.4l-4.2-6.7L1096.2,631.3z M1085.5,629l4.2,6.8l6.5-4.4l-4.1-7
	L1085.5,629z M1079.1,633.4l4.2,6.7l6.5-4.4l-4.2-6.8L1079.1,633.4z M1076.8,644.5l4.2,6.8l6.5-4.4l-4.2-6.7L1076.8,644.5z
	 M1070.7,648.9l4.2,6.8l6.5-4.4l-4.2-6.8L1070.7,648.9z M1068.4,660l4.2,6.7l6.5-4.4l-4.2-6.7L1068.4,660z M1062,664.4l4.2,6.7
	l6.5-4.4l-4.2-6.7L1062,664.4z M1057.7,657.6l4.2,6.8l6.5-4.4l-4.2-6.7L1057.7,657.6z M1053.5,650.9l4.2,6.7l6.5-4.4l-4.4-6.6
	L1053.5,650.9z M1049.3,644.1l4.2,6.8l6.5-4.4l-4.2-6.7L1049.3,644.1z M1045.1,637.4l4.2,6.7l6.5-4.4l-4.2-6.7L1045.1,637.4z
	 M1038.7,641.8l4.2,6.8l6.5-4.4l-4.2-6.7L1038.7,641.8z M1036.4,652.9l4.2,6.7l6.5-4.4l-4.2-6.7L1036.4,652.9z M1034.2,664.1
	l4.2,6.7l6.5-4.4l-4.2-6.8L1034.2,664.1z M1031.9,675.3l4.2,6.8l6.5-4.4l-4.2-6.7L1031.9,675.3z M1029.7,686.4l4.2,6.8l6.5-4.4
	l-4.2-6.7L1029.7,686.4z M1027.4,697.6l4.2,6.8l6.5-4.4l-4.2-6.7L1027.4,697.6z M1025.1,708.8l4.2,6.7l6.5-4.4l-4.2-6.7
	L1025.1,708.8z M1022.9,719.9l4.2,6.7l6.5-4.4l-4.2-6.7L1022.9,719.9z M1020.6,731.1l4.2,6.7l6.5-4.4l-4.2-6.8L1020.6,731.1z
	 M1018.4,742.3l4.2,6.7l6.5-4.4l-4.2-6.8L1018.4,742.3z M1016.1,753.4l4.2,6.7l6.5-4.4l-4.2-6.8L1016.1,753.4z"/>
<polygon class="st1" points="1026.6,755.8 1022.4,749 1028.9,744.6 1024.7,737.8 1031.1,733.5 1026.9,726.7 1033.4,722.3 
	1029.2,715.5 1035.6,711.1 1031.4,704.4 1037.9,699.9 1033.7,693.2 1040.2,688.8 1035.9,682 1042.4,677.6 1038.2,670.9 
	1044.7,666.5 1040.5,659.7 1046.9,655.3 1042.7,648.5 1049.2,644.1 1066,671.2 1078.9,662.4 1074.7,655.6 1087.7,646.8 
	1083.5,640.1 1096.4,631.2 1104.8,644.7 1091.9,653.6 1096.1,660.3 1083.1,669.1 1087.4,675.9 1080.9,680.3 1085.1,687.1 
	1091.6,682.7 1095.8,689.4 1102.3,685 1106.5,691.8 1113,687.4 1117.2,694.1 "/>
<path class="st0" d="M759.3,876.3l2.6,6l-5.7,2.7l-2.6-6L759.3,876.3z M759.3,876.3l2.6,6l5.7-2.7l-2.6-6L759.3,876.3z M765,873.6
	l2.6,6l5.7-2.7l-2.6-6L765,873.6z M770.7,871l2.6,6l5.7-2.7l-2.6-6L770.7,871z M776.4,868.3l2.6,6l5.7-2.7l-2.6-5.9L776.4,868.3z
	 M782.1,865.6l2.6,5.9l5.7-2.7l-2.6-6L782.1,865.6z M787.8,862.9l2.6,6l5.7-2.7l-2.4-6L787.8,862.9z M793.5,860.2l2.6,6l5.7-2.7
	l-2.6-6L793.5,860.2z M799.1,857.5l2.6,6l5.7-2.7l-2.6-6L799.1,857.5z M804.8,854.8l2.6,6l5.7-2.7l-2.6-6L804.8,854.8z M810.5,852.1
	l2.6,6l5.7-2.7l-2.6-6L810.5,852.1z M816.2,849.4l2.6,6l5.7-2.7l-2.6-5.9L816.2,849.4z M821.9,846.7l2.6,5.9l5.7-2.7l-2.6-6
	L821.9,846.7z M827.6,844l2.6,6l5.7-2.7l-2.6-5.9L827.6,844z M833.3,841.4l2.6,5.9l5.7-2.7l-2.6-6L833.3,841.4z M839,838.6l2.6,6
	l5.7-2.7l-2.6-5.9L839,838.6z M844.7,836l2.6,5.9l5.7-2.7l-2.6-6L844.7,836z M842.1,830l2.6,6l5.7-2.7l-2.6-5.9L842.1,830z
	 M833.8,826.8l2.6,6l5.7-2.7l-2.6-6L833.8,826.8z M825.6,823.6l2.6,6l5.7-2.7l-2.6-5.9L825.6,823.6z M817.3,820.5l2.6,6l5.7-2.7
	l-2.6-6L817.3,820.5z M820.3,811.8l2.6,6l5.7-2.7l-2.6-6L820.3,811.8z M826,809.1l2.6,6l5.7-2.7l-2.6-6L826,809.1z M829.1,800.5
	l2.6,6l5.7-2.7l-2.6-6L829.1,800.5z M834.8,797.8l2.6,6l5.7-2.7l-2.6-6L834.8,797.8z M837.8,789.1l2.6,6l5.7-2.7l-2.6-6L837.8,789.1
	z M835.2,783.2l2.6,6l5.7-2.7l-2.6-6L835.2,783.2z M826.9,780l2.6,6l5.7-2.7l-2.4-6.1L826.9,780z M821.3,782.7l2.6,6l5.7-2.7l-2.6-6
	L821.3,782.7z M818.2,791.3l2.6,6l5.7-2.7l-2.6-5.9L818.2,791.3z M812.5,794l2.6,6l5.7-2.7l-2.6-6L812.5,794z M809.5,802.7l2.6,6
	l5.8-2.8l-2.6-6L809.5,802.7z M803.8,805.3l2.6,6l5.7-2.7l-2.6-6L803.8,805.3z M801.3,799.4l2.6,6l5.7-2.7l-2.6-6L801.3,799.4z
	 M798.7,793.4l2.6,6l5.7-2.7l-2.6-6L798.7,793.4z M796.1,787.5l2.6,5.9l5.7-2.7l-2.6-6L796.1,787.5z M793.5,781.6l2.6,6l5.7-2.7
	l-2.6-6L793.5,781.6z M787.9,784.3l2.6,5.6l5.7-2.7l-2.6-6L787.9,784.3z M784.8,792.9l2.6,6l5.7-2.7l-2.6-6.3L784.8,792.9z
	 M781.8,801.5l2.6,6l5.7-2.7l-2.6-6L781.8,801.5z M778.7,810.2l2.6,6l5.7-2.7l-2.6-6L778.7,810.2z M775.3,818.5l2.6,6l5.7-2.7
	l-2.6-5.9L775.3,818.5z M772.3,827.2l2.6,6l5.7-2.7l-2.6-6L772.3,827.2z M769.2,835.8l2.6,6l5.7-2.7l-2.6-6L769.2,835.8z
	 M766.2,844.5l2.6,6l5.7-2.7l-2.6-6L766.2,844.5z M763.1,853.1l2.6,6l5.7-2.7l-2.6-6L763.1,853.1z M760.1,861.8l2.6,6l5.7-2.7
	l-2.6-6L760.1,861.8z M757,870.4l2.6,6l5.7-2.7l-2.6-6L757,870.4z"/>
<polygon class="st1" points="765,873.7 762.5,867.7 768.1,865 765.6,859.1 771.3,856.4 768.7,850.4 774.4,847.8 771.8,841.8 
	777.5,839.1 774.9,833.2 780.6,830.5 778,824.5 783.7,821.8 781.1,815.9 786.8,813.2 784.2,807.2 789.9,804.5 787.4,798.6 
	793.1,795.9 790.4,789.9 796.2,787.3 806.5,811.1 817.8,805.6 815.3,799.7 826.6,794.3 824.1,788.4 835.4,783 840.6,794.9 
	829.2,800.3 831.8,806.2 820.4,811.6 823,817.6 817.3,820.3 819.9,826.2 825.6,823.5 828.1,829.5 833.8,826.8 836.4,832.7 
	842.1,830 844.7,836 "/>
<path class="st0" d="M644.6,511.2l1.5,9.1l-8.7,1.6l-1.5-9L644.6,511.2z M644.6,511.2l1.5,9.1l8.7-1.6l-1.5-9.1L644.6,511.2z
	 M653.3,509.7l1.5,9.1l8.7-1.6l-1.5-9.1L653.3,509.7z M662,508.1l1.5,9.1l8.7-1.6l-1.5-9.1L662,508.1z M670.7,506.5l1.5,9.1l8.7-1.6
	l-1.5-9.1L670.7,506.5z M679.4,504.9l1.5,9.1l8.7-1.6l-1.5-9.1L679.4,504.9z M688.1,503.4l1.5,9.1l8.7-1.6l-1.5-9.1L688.1,503.4z
	 M696.8,501.8l1.5,9.1l8.7-1.6l-1.5-9.1L696.8,501.8z M705.5,500.2l1.5,9.1l8.7-1.6l-1.5-9.1L705.5,500.2z M714.2,498.6l1.5,9.1
	l8.7-1.6L723,497L714.2,498.6z M722.9,497l1.5,9.1l8.7-1.6l-1.5-9.1L722.9,497z M731.6,495.5l1.5,9.1l8.7-1.6l-1.5-9.1L731.6,495.5z
	 M740.3,493.9l1.5,9.1l8.7-1.6l-1.5-9.1L740.3,493.9z M749.1,492.3l1.5,9.1l8.7-1.6l-1.5-9.1L749.1,492.3z M757.8,490.7l1.5,9.1
	l8.7-1.6l-1.5-9.1L757.8,490.7z M766.5,489.2l1.5,9.1l8.7-1.6l-1.5-9.1L766.5,489.2z M775.2,487.6l1.5,9.1l8.7-1.6L784,486
	L775.2,487.6z M773.7,478.5l1.5,9.1l8.7-1.6l-1.5-9.1L773.7,478.5z M763.5,471l1.5,9.1l8.7-1.6l-1.5-9.1L763.5,471z M753.3,463.4
	l1.5,9.1l8.7-1.6l-1.5-9.2L753.3,463.4z M743.1,455.9l1.5,9.1l8.7-1.6l-1.5-9.1L743.1,455.9z M750.3,445.2l1.5,9.1l8.7-1.6l-1.5-9.1
	L750.3,445.2z M759,443.6l1.5,9.1l8.7-1.6l-1.5-9.1L759,443.6z M766.2,432.9l1.5,9.1l8.7-1.6l-1.5-9.1L766.2,432.9z M774.9,431.3
	l1.5,9.1l8.7-1.6l-1.5-9.1L774.9,431.3z M782.1,420.7l1.5,9.1l8.7-1.6l-1.5-9.1L782.1,420.7z M780.6,411.6l1.5,9.1l8.7-1.6l-1.5-9.1
	L780.6,411.6z M770.4,404l1.5,9.1l8.7-1.6l-1.5-9.1L770.4,404z M761.7,405.6l1.5,9.1l8.7-1.6l-1.5-9.1L761.7,405.6z M754.5,416.3
	l1.5,9.1l8.7-1.6l-1.5-9.1L754.5,416.3z M745.8,417.9l1.5,9.1l8.7-1.6l-1.5-9.1L745.8,417.9z M738.8,428.6l1.5,9.1l8.7-1.6l-1.5-9.1
	L738.8,428.6z M730.1,430.2l1.5,9.1l8.7-1.6l-1.5-9.1L730.1,430.2z M728.5,421l1.5,9.1l8.7-1.6l-1.5-9.1L728.5,421z M727,411.9
	l1.5,9.1l8.7-1.6l-1.5-9.1L727,411.9z M725.6,402.8l1.5,9.1l8.7-1.6l-1.5-9.1L725.6,402.8z M724.1,393.7l1.5,9.1l8.7-1.6l-1.6-9.3
	L724.1,393.7z M715.4,395.3l1.5,9.1l8.7-1.6l-1.5-9.1L715.4,395.3z M708.1,405.9l1.5,9.1l8.7-1.6l-1.5-9.1L708.1,405.9z
	 M700.9,416.6l1.5,9.1l8.7-1.6l-1.5-9.1L700.9,416.6z M693.7,427.3l1.5,9.1l8.7-1.6l-1.5-9.1L693.7,427.3z M686.5,438l1.5,9.1
	l8.7-1.6l-1.5-9.1L686.5,438z M679.3,448.7l1.5,9.1l8.7-1.6l-1.5-9.1L679.3,448.7z M671.8,459.4l1.5,9.1l8.7-1.6l-1.5-9.1
	L671.8,459.4z M664.6,470.1l1.5,9.1l8.7-1.6l-1.5-9.1L664.6,470.1z M657.3,480.8l1.5,9.1l8.7-1.6l-1.5-9.1L657.3,480.8z
	 M650.1,491.4l1.5,9.1l8.7-1.6l-1.5-9.1L650.1,491.4z M642.9,502.1l1.5,9.1l8.7-1.6l-1.5-9.1L642.9,502.1z"/>
<polygon class="st3" points="653.3,509.7 651.8,500.6 660.5,499 659,489.9 667.7,488.3 666.2,479.2 674.9,477.6 673.4,468.5 
	682.2,466.9 680.6,457.8 689.4,456.2 687.9,447.1 696.6,445.5 695.1,436.4 703.8,434.9 702.3,425.7 711,424.2 709.5,415.1 
	718.2,413.5 716.7,404.4 725.4,402.8 731.4,439.3 748.9,436.1 747.4,427 764.8,423.9 763.3,414.8 780.8,411.6 783.8,429.9 
	766.3,433 767.8,442.1 750.4,445.3 751.9,454.4 743.2,455.9 744.7,465 753.4,463.5 754.9,472.6 763.6,471 765.1,480.1 773.8,478.6 
	775.3,487.7 "/>
<path class="st0" d="M386.5,1161.3l1.5,3.6l-3.4,1.6l-1.5-3.6L386.5,1161.3z M386.5,1161.3l1.5,3.6l3.4-1.6l-1.5-3.6L386.5,1161.3z
	 M390,1159.7l1.5,3.6l3.5-1.6l-1.5-3.6L390,1159.7z M393.4,1158.2l1.5,3.6l3.4-1.6l-1.5-3.6L393.4,1158.2z M396.9,1156.6l1.5,3.6
	l3.5-1.6l-1.5-3.6L396.9,1156.6z M400.3,1155.1l1.5,3.6l3.5-1.6l-1.5-3.6L400.3,1155.1z M403.8,1153.5l1.5,3.6l3.4-1.6l-1.5-3.6
	L403.8,1153.5z M407.2,1151.9l1.5,3.6l3.4-1.6l-1.5-3.6L407.2,1151.9z M410.7,1150.4l1.5,3.6l3.4-1.6l-1.5-3.6L410.7,1150.4z
	 M414.1,1148.8l1.5,3.6l3.4-1.6l-1.5-3.6L414.1,1148.8z M417.6,1147.3l1.5,3.6l3.4-1.6l-1.5-3.6L417.6,1147.3z M421,1145.7l1.5,3.6
	l3.4-1.5l-1.5-3.6L421,1145.7z M424.5,1144.1l1.5,3.6l3.4-1.6l-1.5-3.6L424.5,1144.1z M427.9,1142.6l1.5,3.6l3.4-1.6l-1.5-3.6
	L427.9,1142.6z M431.4,1141l1.5,3.6l3.4-1.6l-1.5-3.6L431.4,1141z M434.8,1139.4l1.5,3.6l3.4-1.6l-1.5-3.6L434.8,1139.4z
	 M438.2,1137.9l1.5,3.6l3.4-1.6l-1.5-3.6L438.2,1137.9z M436.7,1134.3l1.5,3.6l3.4-1.6l-1.3-3.6L436.7,1134.3z M431.8,1132.2
	l1.5,3.6l3.4-1.6l-1.5-3.6L431.8,1132.2z M426.9,1130.2l1.5,3.6l3.5-1.6l-1.5-3.6L426.9,1130.2z M421.9,1128.1l1.5,3.6l3.4-1.6
	l-1.5-3.6L421.9,1128.1z M423.9,1123l1.5,3.6l3.4-1.6l-1.5-3.6L423.9,1123z M427.3,1121.4l1.5,3.6l3.5-1.6l-1.5-3.6L427.3,1121.4z
	 M429.3,1116.3l1.5,3.6l3.4-1.6l-1.5-3.6L429.3,1116.3z M432.7,1114.7l1.5,3.6l3.4-1.6l-1.5-3.6L432.7,1114.7z M434.7,1109.5
	l1.5,3.6l3.4-1.6l-1.5-3.6L434.7,1109.5z M433.2,1105.9l1.5,3.6l3.4-1.6l-1.5-3.6L433.2,1105.9z M428.2,1103.8l1.5,3.6l3.5-1.6
	l-1.5-3.6L428.2,1103.8z M424.8,1105.4l1.5,3.6l3.5-1.6l-1.5-3.6L424.8,1105.4z M422.8,1110.6l1.5,3.6l3.5-1.6l-1.5-3.6
	L422.8,1110.6z M419.4,1112.1l1.5,3.6l3.4-1.6l-1.5-3.6L419.4,1112.1z M417.4,1117.3l1.6,3.6l3.4-1.6l-1.5-3.6L417.4,1117.3z
	 M414,1118.8l1.5,3.6l3.6-1.6l-1.5-3.6L414,1118.8z M412.5,1115.2l1.5,3.6l3.4-1.6l-1.5-3.6L412.5,1115.2z M411,1111.6l1.5,3.6
	l3.5-1.6l-1.5-3.6L411,1111.6z M409.5,1108l1.5,3.6l3.4-1.6l-1.5-3.6L409.5,1108z M408,1104.4l1.5,3.6l3.4-1.6l-1.5-3.6L408,1104.4z
	 M404.6,1106l1.5,3.6l3.4-1.6l-1.5-3.6L404.6,1106z M402.6,1111.1l1.5,3.6l3.4-1.6l-1.5-3.6L402.6,1111.1z M400.7,1116.3l1.5,3.6
	l3.4-1.5l-1.5-3.6L400.7,1116.3z M398.7,1121.5l1.5,3.6l3.4-1.6l-1.5-3.6L398.7,1121.5z M396.7,1126.6l1.5,3.6l3.4-1.6l-1.5-3.6
	L396.7,1126.6z M394.8,1131.8l1.5,3.6l3.4-1.6l-1.5-3.6L394.8,1131.8z M392.8,1137l1.5,3.6l3.4-1.6l-1.5-3.6L392.8,1137z
	 M390.9,1142.2l1.5,3.6l3.4-1.6l-1.5-3.6L390.9,1142.2z M388.9,1147.3l1.5,3.6l3.4-1.6l-1.5-3.6L388.9,1147.3z M387,1152.5l1.5,3.6
	l3.4-1.6l-1.5-3.6L387,1152.5z M385,1157.7l1.5,3.6l3.4-1.6l-1.5-3.6L385,1157.7z"/>
<polygon class="st4" points="390,1159.7 388.5,1156.1 392,1154.6 390.5,1151 393.9,1149.4 392.4,1145.8 395.9,1144.2 394.4,1140.6 
	397.8,1139.1 396.3,1135.4 399.8,1133.9 398.3,1130.3 401.8,1128.7 400.3,1125.1 403.7,1123.5 402.2,1119.9 405.7,1118.4 
	404.2,1114.8 407.6,1113.2 406.1,1109.6 409.6,1108 415.5,1122.5 422.4,1119.3 421,1115.7 427.9,1112.6 426.4,1109 433.3,1105.9 
	436.3,1113.1 429.4,1116.2 430.9,1119.8 424,1123 425.4,1126.6 422,1128.1 423.5,1131.7 426.9,1130.2 428.4,1133.8 431.9,1132.2 
	433.4,1135.8 436.8,1134.3 438.3,1137.9 "/>
<path class="st0" d="M251.6,1088.9l1.7,3.8l-3.6,1.8l-1.7-3.8L251.6,1088.9z M251.6,1088.9l1.7,3.8l3.6-1.8l-1.7-3.8L251.6,1088.9z
	 M255.2,1087.1l1.7,3.8l3.8-1.8l-1.7-3.8L255.2,1087.1z M258.8,1085.3l1.9,3.8l3.6-1.8l-1.7-3.8L258.8,1085.3z M262.4,1083.5
	l1.7,3.8l3.6-1.8l-1.7-3.8L262.4,1083.5z M266,1081.7l1.7,3.8l3.6-1.8l-1.7-3.8L266,1081.7z M269.6,1080l1.7,3.8l3.6-1.8l-1.7-3.8
	L269.6,1080z M273.2,1078.2l1.7,3.8l3.6-1.8l-1.7-3.8L273.2,1078.2z M276.8,1076.4l1.7,3.8l3.6-1.8l-1.7-3.8L276.8,1076.4z
	 M280.4,1074.6l1.7,3.8l3.6-1.8l-1.7-3.8L280.4,1074.6z M284,1072.8l1.7,3.8l3.6-1.8l-1.7-3.8L284,1072.8z M287.6,1071.1l1.7,3.8
	l3.6-1.8l-1.7-3.8L287.6,1071.1z M291.2,1069.3l1.7,3.8l3.6-1.8l-1.7-3.8L291.2,1069.3z M294.8,1067.5l1.7,3.8l3.6-1.8l-1.7-3.8
	L294.8,1067.5z M298.4,1065.7l1.7,3.8l3.6-1.8l-1.7-3.8L298.4,1065.7z M302,1063.9l1.7,3.8l3.6-1.8l-1.7-3.8L302,1063.9z
	 M305.6,1062.1l1.7,3.8l3.6-1.8l-1.5-3.7L305.6,1062.1z M303.9,1058.4l1.7,3.8l3.8-1.7l-1.7-3.8L303.9,1058.4z M298.6,1056.4
	l1.7,3.8l3.6-1.8l-1.7-3.8L298.6,1056.4z M293.3,1054.4l1.7,3.8l3.6-1.8l-1.7-3.8L293.3,1054.4z M288,1052.5l1.7,3.8l3.6-1.8
	l-1.7-3.8L288,1052.5z M289.9,1046.9l1.7,3.8l3.6-1.8l-1.7-3.8L289.9,1046.9z M293.5,1045.1l1.7,3.8l3.6-1.8l-1.7-3.8L293.5,1045.1z
	 M295.4,1039.6l1.7,3.8l3.6-1.8l-1.7-3.8L295.4,1039.6z M299,1037.8l1.7,3.8l3.6-1.8l-1.7-3.8L299,1037.8z M300.9,1032.3l1.7,3.8
	l3.6-1.8l-1.7-3.8L300.9,1032.3z M299.2,1028.5l1.7,3.8l3.6-1.8l-1.7-3.8L299.2,1028.5z M293.9,1026.5l1.7,3.8l3.6-1.8l-1.7-3.8
	L293.9,1026.5z M290.3,1028.3l1.7,3.8l3.6-1.8l-1.7-3.8L290.3,1028.3z M288.4,1033.9l1.7,3.8l3.6-1.8l-1.7-3.8L288.4,1033.9z
	 M284.8,1035.7l1.7,3.8l3.6-1.8l-1.7-3.8L284.8,1035.7z M282.9,1041.2l1.7,3.8l3.6-1.8l-1.7-3.8L282.9,1041.2z M279.3,1043l1.7,3.8
	l3.6-1.8l-1.7-3.8L279.3,1043z M277.6,1039.3l1.7,3.8l3.6-1.8l-1.7-3.8L277.6,1039.3z M275.9,1035.5l1.7,3.8l3.6-1.8l-1.7-3.8
	L275.9,1035.5z M274.2,1031.7l1.7,3.8l3.6-1.8l-1.7-3.8L274.2,1031.7z M272.5,1028l1.7,3.8l3.6-1.8l-1.7-3.8L272.5,1028z
	 M268.8,1029.7l1.7,3.8l3.6-1.8l-1.7-3.8L268.8,1029.7z M267,1035.3l1.7,3.8l3.6-1.8l-1.7-3.8L267,1035.3z M265.1,1040.8l1.7,3.7
	l3.6-1.8l-1.7-3.8L265.1,1040.8z M263.2,1046.4l1.7,3.8l3.6-1.8l-1.7-3.9L263.2,1046.4z M261.3,1052l1.7,3.8l3.6-1.8l-1.7-3.8
	L261.3,1052z M259.4,1057.5l1.7,3.8l3.6-1.8l-1.7-3.8L259.4,1057.5z M257.5,1063.1l1.7,3.8l3.6-1.8l-1.7-3.8L257.5,1063.1z
	 M255.6,1068.6l1.7,3.8l3.6-1.8l-1.7-3.8L255.6,1068.6z M253.7,1074.2l1.7,3.8l3.6-1.8l-1.7-3.8L253.7,1074.2z M251.9,1079.7
	l1.7,3.8l3.6-1.8l-1.7-3.8L251.9,1079.7z M250,1085.3l1.7,3.8l3.6-1.8l-1.7-3.8L250,1085.3z"/>
<polygon class="st1" points="255.3,1087.1 253.6,1083.3 257.2,1081.6 255.4,1077.8 259.1,1076 257.4,1072.2 261,1070.4 
	259.3,1066.7 262.8,1064.9 261.1,1061.1 264.8,1059.3 263,1055.6 266.7,1053.8 264.9,1050 268.5,1048.2 266.8,1044.4 270.4,1042.7 
	268.7,1038.9 272.3,1037.1 270.6,1033.3 274.2,1031.6 281,1046.6 288.3,1043 286.5,1039.3 293.8,1035.7 292,1032 299.2,1028.4 
	302.7,1035.9 295.5,1039.5 297.2,1043.3 290,1046.8 291.7,1050.6 288.1,1052.4 289.8,1056.1 293.4,1054.4 295.1,1058.1 
	298.7,1056.3 300.4,1060.1 304,1058.3 305.7,1062.1 "/>
<path class="st0" d="M1038,413.1l3,3.2l-3,3.2l-3-3.2L1038,413.1z M1038,413.1l3,3.2l3-3.2l-3-3.2L1038,413.1z M1041.1,410l3,3.2
	l3-3.2l-3-3.2L1041.1,410z M1044.1,406.8l3,3.2l3-3.2l-3-3.2L1044.1,406.8z M1047.2,403.6l3,3.2l3-3.2l-3-3.2L1047.2,403.6z
	 M1050.2,400.4l3,3.2l3-3.2l-3-3.2L1050.2,400.4z M1053.3,397.2l3,3.2l3-3.2l-3-3.2L1053.3,397.2z M1056.3,394l3,3.2l3-3.2l-3-3.2
	L1056.3,394z M1059.4,390.9l3,3.2l3-3.2l-3-3.2L1059.4,390.9z M1062.4,387.7l3,3.2l3-3.2l-3-3.2L1062.4,387.7z M1065.5,384.5l3,3.2
	l3-3.2l-3-3.2L1065.5,384.5z M1068.5,381.3l3,3.2l3-3.2l-3-3.2L1068.5,381.3z M1071.5,378.1l3,3.2l3-3.2l-3-3.2L1071.5,378.1z
	 M1074.6,374.9l3,3.2l3-3.2l-3-3.2L1074.6,374.9z M1077.6,371.8l3,3.2l3-3.2l-3-3.2L1077.6,371.8z M1080.7,368.6l3,3.2l3-3.2l-3-3.2
	L1080.7,368.6z M1083.7,365.4l3,3.2l3-3.2l-3-3.2L1083.7,365.4z M1080.7,362.2l3,3.2l3-3.2l-3-3.2L1080.7,362.2z M1074.6,362.2
	l3,3.2l3-3.2l-3-3.2L1074.6,362.2z M1068.5,362.2l3,3.2l3-3.2l-3-3.2L1068.5,362.2z M1062.4,362.2l3,3.2l3-3.2l-3-3.2L1062.4,362.2z
	 M1062.4,355.8l3,3.2l3-3.2l-3-3.2L1062.4,355.8z M1065.5,352.7l3,3.2l3-3.2l-3-3.2L1065.5,352.7z M1065.5,346.3l3,3.2l3-3.2l-3-3.2
	L1065.5,346.3z M1068.5,343.1l3,3.2l3-3.2l-3-3.2L1068.5,343.1z M1068.5,336.7l3,3.2l3-3.2l-3-3.2L1068.5,336.7z M1065.5,333.6
	l3,3.2l3-3.2l-3-3.2L1065.5,333.6z M1059.4,333.6l3,3.2l3-3.2l-3-3.2L1059.4,333.6z M1056.3,336.7l3,3.2l3-3.2l-3-3.2L1056.3,336.7z
	 M1056.3,343.1l3,3.2l3-3.2l-3-3.2L1056.3,343.1z M1053.3,346.3l3,3.2l3-3.2l-3-3.2L1053.3,346.3z M1053.3,352.7l3,3.2l3-3.2l-3-3.2
	L1053.3,352.7z M1050.2,355.8l3,3.2l3-3.2l-3-3.2L1050.2,355.8z M1047.2,352.7l3,3.2l3-3.2l-3-3.2L1047.2,352.7z M1044.1,349.5
	l3,3.2l3-3.2l-3-3.2L1044.1,349.5z M1041.1,346.3l3,3.2l3-3.2l-3-3.2L1041.1,346.3z M1038,343.1l3,3.2l3-3.2l-3-3.2L1038,343.1z
	 M1035,346.3l3,3.2l3-3.2l-3-3.2L1035,346.3z M1035,352.7l3,3.2l3-3.2l-3-3.2L1035,352.7z M1035,359l3,3.2l3-3.2l-3-3.2L1035,359z
	 M1035,365.4l3,3.2l3-3.2l-3-3.2L1035,365.4z M1035,371.8l3,3.2l3-3.2l-3-3.2L1035,371.8z M1035,378.1l3,3.2l3-3.2l-3-3.2
	L1035,378.1z M1035,384.5l3,3.2l3-3.2l-3-3.2L1035,384.5z M1035,390.9l3,3.2l3-3.2l-3-3.2L1035,390.9z M1035,397.2l3,3.2l3-3.2
	l-3-3.2L1035,397.2z M1035,403.6l3,3.2l3-3.2l-3-3.2L1035,403.6z M1035,410l3,3.2l3-3.2l-3-3.2L1035,410z"/>
<polygon class="st1" points="1041.2,409.9 1038,406.6 1041.1,403.4 1038,400.2 1041.1,396.9 1038,393.7 1041.1,390.4 1037.9,387.2 
	1041,384 1037.9,380.7 1041,377.5 1037.9,374.2 1040.9,371 1037.8,367.8 1040.9,364.5 1037.8,361.3 1040.9,358 1037.8,354.8 
	1040.9,351.6 1037.7,348.3 1040.8,345.1 1053.3,358 1059.5,351.5 1056.3,348.2 1062.5,341.7 1059.4,338.5 1065.5,332 1071.8,338.4 
	1065.6,345 1068.7,348.2 1062.6,354.7 1065.7,357.9 1062.6,361.2 1065.7,364.4 1068.8,361.1 1071.9,364.3 1075,361.1 1078.1,364.3 
	1081.2,361.1 1084.3,364.3 "/>
<path class="st0" d="M973.8,633.3l3.8,5.7l-5.5,4l-3.8-5.7L973.8,633.3z M973.8,633.3l3.8,5.7l5.5-4l-3.8-5.7L973.8,633.3z
	 M979.3,629.3l3.8,5.8l5.5-4l-3.8-5.8L979.3,629.3z M984.8,625.3l3.8,5.8l5.5-4l-3.8-5.8L984.8,625.3z M990.3,621.3l3.8,5.8l5.5-4
	l-3.8-5.8L990.3,621.3z M995.8,617.3l3.8,5.8l5.5-4l-3.8-5.8L995.8,617.3z M1001.3,613.3l3.8,5.8l5.5-4l-3.9-5.7L1001.3,613.3z
	 M1006.8,609.3l3.8,5.8l5.5-4l-3.9-5.8L1006.8,609.3z M1012.4,605.3l3.8,5.8l5.5-4l-3.8-5.8L1012.4,605.3z M1017.9,601.3l3.8,5.8
	l5.5-4l-3.8-5.7L1017.9,601.3z M1023.4,597.3l3.8,5.7l5.5-4l-3.8-5.7L1023.4,597.3z M1028.9,593.3l3.8,5.7l5.5-4l-3.8-5.7
	L1028.9,593.3z M1034.4,589.3l3.8,5.7l5.5-4l-3.8-5.8L1034.4,589.3z M1039.9,585.3l3.8,5.8l5.5-4l-3.8-5.8L1039.9,585.3z
	 M1045.4,581.3l3.8,5.8l5.5-4l-3.8-5.8L1045.4,581.3z M1050.9,577.3l3.8,5.8l5.5-4l-3.9-5.6L1050.9,577.3z M1056.4,573.3l3.8,5.8
	l5.5-4l-3.8-5.7L1056.4,573.3z M1052.6,567.5l3.8,5.7l5.5-4l-3.8-5.8L1052.6,567.5z M1043.3,565.8l3.8,5.7l5.5-4l-3.8-5.8
	L1043.3,565.8z M1033.9,564l3.8,5.8l5.5-4l-3.8-5.8L1033.9,564z M1024.6,562.3l3.8,5.7l5.5-4l-3.8-5.8L1024.6,562.3z M1026.3,552.5
	l3.8,5.8l5.5-4l-3.8-5.8L1026.3,552.5z M1031.8,548.5l3.8,5.8l5.5-4l-4-5.5L1031.8,548.5z M1033.5,538.8l3.7,6l5.5-4l-3.8-5.8
	L1033.5,538.8z M1039,534.8l3.8,5.8l5.5-4l-3.8-5.7L1039,534.8z M1040.7,525l3.8,5.8l5.5-4l-3.8-5.8L1040.7,525z M1036.8,519.3
	l3.8,5.7l5.5-4l-3.8-5.7L1036.8,519.3z M1027.5,517.5l3.8,5.7l5.5-4l-3.8-5.7L1027.5,517.5z M1021.9,521.7l3.8,5.8l5.5-4l-3.8-5.7
	L1021.9,521.7z M1020.3,531.4l3.8,5.8l5.5-4l-3.8-5.8L1020.3,531.4z M1014.8,535.4l3.8,5.7l5.5-4l-3.8-5.8L1014.8,535.4z
	 M1013.1,545.1l3.8,5.7l5.5-4l-3.8-5.7L1013.1,545.1z M1007.6,549.1l3.8,5.8l5.5-4l-3.8-5.7L1007.6,549.1z M1003.8,543.4l3.8,5.7
	l5.5-4l-3.8-5.8L1003.8,543.4z M999.9,537.7l3.8,5.7l5.5-4l-3.8-5.8L999.9,537.7z M996.1,532l3.8,5.8l5.5-4l-3.8-5.8L996.1,532z
	 M992.2,526.3l3.8,5.8l5.5-4l-3.8-5.7L992.2,526.3z M986.7,530.3l3.8,5.8l5.5-4l-3.8-5.8L986.7,530.3z M985,540.1l3.8,5.7l5.5-4
	l-3.8-5.8L985,540.1z M983.4,549.8l3.8,5.7l5.5-4l-3.8-5.8L983.4,549.8z M981.7,559.6l3.8,5.7l5.5-4l-3.8-5.8L981.7,559.6z
	 M980,569.3l3.8,5.7l5.5-4l-3.9-5.9L980,569.3z M978.3,579l3.8,5.7l5.5-4l-3.8-5.8L978.3,579z M976.7,588.8l3.8,5.8l5.5-4l-3.8-5.8
	L976.7,588.8z M975,598.5l3.8,5.8l5.5-4l-3.8-5.8L975,598.5z M973.2,608.1l3.8,5.7l5.5-4l-3.8-5.8L973.2,608.1z M971.5,617.8
	l3.8,5.8l5.5-4l-3.8-5.8L971.5,617.8z M969.8,627.6l3.8,5.8l5.5-4l-3.8-5.8L969.8,627.6z"/>
<polygon class="st1" points="979.3,629.4 975.5,623.6 981,619.6 977.2,613.9 982.7,609.9 978.8,604.1 984.3,600.1 980.5,594.4 
	986,590.4 982.2,584.6 987.7,580.6 983.8,574.9 989.3,570.9 985.5,565.1 991,561.1 987.2,555.4 992.7,551.4 988.9,545.6 
	994.4,541.6 990.6,535.9 996.1,531.9 1011.3,554.9 1022.4,546.9 1018.5,541.1 1029.5,533.1 1025.7,527.4 1036.7,519.4 1044.4,530.9 
	1033.4,538.9 1037.2,544.7 1026.2,552.6 1030,558.4 1024.5,562.4 1028.3,568.1 1033.8,564.1 1037.7,569.9 1043.2,565.9 1047,571.6 
	1052.5,567.6 1056.3,573.4 "/>
<path class="st0" d="M881.2,1007.4l-1.7,10l-9.6-1.8l1.7-10L881.2,1007.4z M881.2,1007.4l-1.7,10l9.5,1.8l1.7-10L881.2,1007.4z
	 M890.7,1009.1l-1.7,10l9.6,1.8l1.7-10L890.7,1009.1z M900.3,1010.9l-1.7,10l9.5,1.8l1.7-10L900.3,1010.9z M909.8,1012.6l-1.7,10
	l9.6,1.8l1.7-10L909.8,1012.6z M919.4,1014.4l-1.7,10l9.5,1.8l1.7-10L919.4,1014.4z M928.9,1016.1l-1.7,10l9.5,1.8l1.7-10
	L928.9,1016.1z M938.4,1017.9l-1.7,10l9.5,1.8l1.7-10L938.4,1017.9z M948,1019.7l-1.7,10l9.5,1.8l1.7-10L948,1019.7z M957.5,1021.4
	l-1.7,10l9.5,1.8l1.7-10L957.5,1021.4z M967,1023.2l-1.7,10l9.6,1.8l1.7-10L967,1023.2z M976.6,1025l-1.7,10l9.5,1.8l1.7-10
	L976.6,1025z M986.1,1026.7l-1.7,10l9.5,1.8l1.7-10L986.1,1026.7z M995.6,1028.5l-1.7,10l9.6,1.8l1.6-10L995.6,1028.5z
	 M1005.2,1030.2l-1.6,10l9.5,1.8l1.7-10L1005.2,1030.2z M1014.7,1032l-1.7,10l9.5,1.8l1.7-10L1014.7,1032z M1024.3,1033.7l-1.7,10
	l9.5,1.8l1.7-10L1024.3,1033.7z M1025.9,1023.7l-1.7,10l9.5,1.8l1.7-10L1025.9,1023.7z M1018.1,1012l-1.7,10l9.5,1.8l1.7-10
	L1018.1,1012z M1010.2,1000.3l-1.7,10l9.6,1.8l1.7-10L1010.2,1000.3z M1002.4,988.5l-1.7,10l9.5,1.8l1.7-10L1002.4,988.5z
	 M1013.6,980.3l-1.7,10l9.5,1.8l1.7-10L1013.6,980.3z M1023.1,982.1l-1.7,10l9.6,1.8l1.7-10L1023.1,982.1z M1034.4,973.8l-1.7,10
	l9.5,1.8l1.7-10L1034.4,973.8z M1043.9,975.6l-1.7,10l9.6,1.8l1.7-10L1043.9,975.6z M1055.1,967.4l-1.7,10l9.5,1.8l1.7-10
	L1055.1,967.4z M1056.8,957.4l-1.7,10l9.5,1.8l1.7-10L1056.8,957.4z M1049,945.7l-1.7,10l9.6,1.8l1.7-10L1049,945.7z M1039.4,943.9
	l-1.7,10l9.5,1.8l1.7-10L1039.4,943.9z M1028.3,952.2l-1.7,10l9.5,1.8l1.7-10L1028.3,952.2z M1018.7,950.4l-1.7,10l9.5,1.8l1.7-10
	L1018.7,950.4z M1007.5,958.6l-1.7,10l9.5,1.8l1.7-10L1007.5,958.6z M998,956.8l-1.7,10l9.6,1.8l1.7-10L998,956.8z M999.7,946.8
	l-1.7,10l9.5,1.8l1.7-10L999.7,946.8z M1001.4,936.9l-1.7,10l9.6,1.8l1.7-10L1001.4,936.9z M1003.1,926.9l-1.7,10l9.6,1.8l1.7-10
	L1003.1,926.9z M1004.7,916.9l-1.7,10l9.5,1.8l1.7-10L1004.7,916.9z M995.2,915.1l-1.7,10l9.6,1.8l1.7-10L995.2,915.1z M984,923.4
	l-1.7,10l9.6,1.8l1.7-10L984,923.4z M972.8,931.6l-1.7,10l9.5,1.8l1.7-10L972.8,931.6z M961.6,939.8l-1.7,10l9.6,1.8l1.7-10
	L961.6,939.8z M950.3,948.1l-1.7,10l9.5,1.8l1.7-10L950.3,948.1z M939.1,956.3l-1.7,10l9.5,1.8l1.7-10L939.1,956.3z M927.9,964.5
	l-1.7,10l9.5,1.8l1.7-10L927.9,964.5z M916.6,972.7l-1.7,10l9.5,1.8l1.7-10L916.6,972.7z M905.3,980.8l-1.7,9.9l9.5,1.8l1.7-10
	L905.3,980.8z M894.1,989.2l-1.7,10l9.5,1.8l1.7-10L894.1,989.2z M882.9,997.4l-1.7,10l9.5,1.7l1.7-10L882.9,997.4z"/>
<polygon class="st5" points="890.8,1009.1 892.4,999.1 902,1000.9 903.7,990.9 913.2,992.7 914.9,982.7 924.4,984.4 926.1,974.5 
	935.7,976.2 937.4,966.2 946.9,968 948.6,958 958.1,959.8 959.8,949.8 969.4,951.6 971,941.6 980.6,943.3 982.3,933.4 991.8,935.1 
	993.5,925.1 1003,926.9 996.3,966.8 1015.4,970.3 1017.1,960.3 1036.2,963.9 1037.9,953.9 1057,957.4 1053.6,977.3 1034.5,973.8 
	1032.8,983.8 1013.7,980.3 1012,990.3 1002.5,988.5 1000.8,998.5 1010.4,1000.3 1008.7,1010.2 1018.2,1012 1016.6,1022 
	1026.1,1023.7 1024.4,1033.7 "/>
<path class="st0" d="M796.3,1247.5l3.4,9.9l-9.4,3.6l-3.4-9.8L796.3,1247.5z M796.3,1247.5l3.4,9.9l9.4-3.6l-3.4-9.9L796.3,1247.5z
	 M805.7,1243.9l3.4,9.9l9.4-3.5l-3.4-9.8L805.7,1243.9z M815.1,1240.4l3.4,9.8l9.4-3.5l-3.4-9.9L815.1,1240.4z M824.6,1236.8
	l3.4,9.9l9.4-3.6l-3.4-9.9L824.6,1236.8z M834,1233.2l3.4,9.9l9.4-3.6l-3.4-9.9L834,1233.2z M843.4,1229.7l3.4,9.9l9.4-3.6l-3.4-9.9
	L843.4,1229.7z M852.9,1226.1l3.4,9.9l9.4-3.5l-3.4-9.9L852.9,1226.1z M862.3,1222.6l3.4,9.9l9.4-3.6l-3.4-9.9L862.3,1222.6z
	 M871.7,1219l3.4,9.9l9.4-3.5l-3.4-9.9L871.7,1219z M881.2,1215.4l3.4,9.9l9.4-3.6l-3.4-9.8L881.2,1215.4z M890.6,1211.9l3.4,9.8
	l9.4-3.5l-3.4-9.9L890.6,1211.9z M900.1,1208.3l3.4,9.9l9.4-3.6l-3.4-9.9L900.1,1208.3z M909.5,1204.8l3.4,9.9l9.4-3.6l-3.4-9.8
	L909.5,1204.8z M918.9,1201.2l3.4,9.8l9.4-3.5l-3.4-9.9L918.9,1201.2z M928.3,1197.7l3.4,9.9l9.4-3.6l-3.4-9.9L928.3,1197.7z
	 M937.8,1194.1l3.4,9.9l9.4-3.6l-3.4-9.8L937.8,1194.1z M934.4,1184.2l3.4,9.9l9.4-3.6l-3.4-9.9L934.4,1184.2z M921.6,1177.9
	l3.4,9.9l9.4-3.5l-3.4-9.9L921.6,1177.9z M908.7,1171.5l3.4,9.9l9.5-3.6l-3.4-9.9L908.7,1171.5z M895.9,1165.1l3.4,9.9l9.4-3.6
	l-3.4-9.9L895.9,1165.1z M902,1151.7l3.4,9.9l9.4-3.6l-3.4-9.9L902,1151.7z M911.4,1148.2l3.4,9.9l9.4-3.5l-3.4-9.9L911.4,1148.2z
	 M917.5,1134.7l3.4,9.9l9.4-3.6l-3.4-9.9L917.5,1134.7z M926.9,1131.2l3.4,9.9l9.4-3.6l-3.4-9.9L926.9,1131.2z M933,1117.8l3.4,9.9
	l9.4-3.5l-3.4-9.9L933,1117.8z M929.6,1107.9l3.4,9.9l9.4-3.6l-3.4-9.9L929.6,1107.9z M916.8,1101.5l3.4,9.8l9.4-3.5l-3.4-9.9
	L916.8,1101.5z M907.3,1105.1l3.4,9.9l9.4-3.6l-3.6-9.5L907.3,1105.1z M901.2,1118.5l3.4,9.9l9.4-3.6l-3.4-9.9L901.2,1118.5z
	 M891.8,1122l3.4,9.8l9.4-3.5l-3.4-9.9L891.8,1122z M885.7,1135.5l3.4,9.8l9.4-3.6l-3.4-9.9L885.7,1135.5z M876.3,1139l3.4,9.9
	l9.4-3.6l-3.4-9.8L876.3,1139z M872.7,1129.4l3.4,9.8l9.4-3.5l-3.4-9.9L872.7,1129.4z M869.3,1119.5l3.4,9.9l9.4-3.6l-3.4-9.9
	L869.3,1119.5z M866,1109.7l3.4,9.9l9.4-3.6l-3.4-9.9L866,1109.7z M862.5,1099.8l3.4,9.9l9.4-3.6l-3.4-9.9L862.5,1099.8z
	 M853.1,1103.4l3.4,9.9l9.4-3.6l-3.4-9.9L853.1,1103.4z M847,1116.8l3.4,9.8l9.4-3.6l-3.4-9.8L847,1116.8z M840.9,1130.2l3.4,9.8
	l9.4-3.5l-3.4-9.9L840.9,1130.2z M834.8,1143.7l3.4,9.9l9.4-3.6l-3.4-9.9L834.8,1143.7z M828.7,1157.1l3.4,9.8l9.4-3.5l-3.4-9.9
	L828.7,1157.1z M822.7,1170.5l3.4,9.9l9.4-3.6l-3.4-9.9L822.7,1170.5z M816.6,1183.9l3.4,9.8l9.4-3.6l-3.4-9.8L816.6,1183.9z
	 M810.5,1197.3l3.4,9.9l9.4-3.6l-3.4-9.9L810.5,1197.3z M804.4,1210.8l3.4,9.8l9.4-3.5l-3.4-9.9L804.4,1210.8z M798.3,1224.2
	l3.4,9.9l9.4-3.6l-3.4-9.9L798.3,1224.2z M792.2,1237.6l3.4,9.9l9.4-3.6l-3.4-9.8L792.2,1237.6z"/>
<polygon class="st1" points="805.7,1243.9 802.3,1234 811.7,1230.5 808.3,1220.6 817.8,1217.1 814.4,1207.2 823.8,1203.6 
	820.4,1193.7 829.8,1190.2 826.4,1180.3 835.9,1176.8 832.5,1166.9 841.9,1163.3 838.5,1153.5 847.9,1149.9 844.5,1140 854,1136.5 
	850.5,1126.6 860,1123.1 856.6,1113.2 866,1109.7 879.7,1149.1 898.5,1142 895.1,1132.1 914,1125 910.6,1115.1 929.5,1108 
	936.3,1127.7 917.4,1134.9 920.8,1144.7 901.9,1151.8 905.3,1161.7 895.9,1165.3 899.3,1175.2 908.7,1171.6 912.1,1181.5 
	921.6,1177.9 925,1187.7 934.4,1184.2 937.8,1194.1 "/>
<path class="st0" d="M1168.4,912.4l4.3,14.3l-13.7,4.4l-4.2-14.3L1168.4,912.4z M1168.4,912.4l4.3,14.3l13.7-4.5L1182,908
	L1168.4,912.4z M1182,908l4.3,14.3l13.7-4.4l-4.3-14.3L1182,908z M1195.7,903.5l4.3,14.3l13.7-4.4l-4.2-14.3L1195.7,903.5z
	 M1209.4,899.1l4.2,14.3l13.7-4.5l-4.3-14.3L1209.4,899.1z M1223.1,894.6l4.3,14.3l13.7-4.5l-4.2-14.3L1223.1,894.6z M1236.8,890.2
	l4.2,14.3l13.7-4.4l-4.3-14.3L1236.8,890.2z M1250.4,885.7l4.3,14.3l13.7-4.5l-4.3-14.3L1250.4,885.7z M1264.1,881.3l4.3,14.3
	l13.7-4.4l-4.3-14.3L1264.1,881.3z M1277.8,876.9l4.3,14.3l13.7-4.5l-4.3-14.3L1277.8,876.9z M1291.5,872.4l4.3,14.3l13.7-4.5
	l-4.3-14.3L1291.5,872.4z M1305.2,868l4.3,14.3l13.7-4.4l-4.3-14.3L1305.2,868z M1318.8,863.5l4.3,14.3l13.7-4.4l-4.3-14.3
	L1318.8,863.5z M1332.5,859.1l4.3,14.3l13.7-4.5l-4.3-14.3L1332.5,859.1z M1346.2,854.6l4.3,14.3l13.7-4.5l-4.2-14.3L1346.2,854.6z
	 M1359.9,850.1l4.2,14.3l13.7-4.5l-4.3-14.3L1359.9,850.1z M1373.6,845.7l4.3,14.3l13.7-4.4l-4.3-14.3L1373.6,845.7z M1369.3,831.4
	l4.3,14.3l13.7-4.5l-4.2-14.3L1369.3,831.4z M1351.4,821.6l4.3,14.3l13.7-4.4l-4.3-14.3L1351.4,821.6z M1333.4,811.7l4.3,14.3
	l13.7-4.5l-4.3-14.3L1333.4,811.7z M1315.5,801.9l4.3,14.3l13.7-4.5l-4.2-14.3L1315.5,801.9z M1324.9,783.1l4.3,14.3l13.7-4.4
	l-4.3-14.3L1324.9,783.1z M1338.6,778.7l4.3,14.3l13.7-4.4l-4.3-14.3L1338.6,778.7z M1348,759.9l4.2,14.3l13.7-4.4l-4.3-14.3
	L1348,759.9z M1361.7,755.5l4.3,14.3l13.7-4.5l-4.3-14.3L1361.7,755.5z M1371.1,736.7l4.3,14.3l13.7-4.5l-4.3-14.3L1371.1,736.7z
	 M1366.9,722.4l4.2,14.3l13.7-4.5l-4.3-14.3L1366.9,722.4z M1348.9,712.6l4.2,14.3l13.7-4.4l-4.3-14.3L1348.9,712.6z M1335.2,717
	l4.3,14.3l13.7-4.5l-4.2-14.3L1335.2,717z M1325.8,735.7l4.3,14.3l13.7-4.4l-4.2-14.3L1325.8,735.7z M1312.2,740.2l4.3,14.3
	l13.7-4.4l-4.3-14.3L1312.2,740.2z M1302.7,759l4.3,14.3l13.7-4.5l-4.3-14.3L1302.7,759z M1289,763.4l4.2,14.3l13.7-4.5l-4.3-14.3
	L1289,763.4z M1284.8,749.1l4.3,14.3l13.7-4.4l-4.2-14.3L1284.8,749.1z M1280.5,734.8l4.3,14.3l13.7-4.4l-4.3-14.3L1280.5,734.8z
	 M1276.3,720.5l4.2,14.3l13.7-4.5l-4.3-14.3L1276.3,720.5z M1272,706.1l4.3,14.3l13.7-4.5l-4.2-14.3L1272,706.1z M1258.3,710.6
	l4.2,14.3l13.7-4.5l-4.3-14.3L1258.3,710.6z M1248.9,729.4l4.3,14.3l13.7-4.5l-4.4-14.3L1248.9,729.4z M1239.5,748.1l4.3,14.3
	l13.7-4.4l-4.3-14.3L1239.5,748.1z M1230.1,766.9l4.3,14.3l13.7-4.5l-4.3-14.3L1230.1,766.9z M1220.7,785.7l4.3,14.3l13.6-4.5
	l-4.2-14.3L1220.7,785.7z M1211.3,804.4l4.3,14.3l13.7-4.4L1225,800L1211.3,804.4z M1201.9,823.1l4.3,14.3l13.7-4.5l-4.3-14.3
	L1201.9,823.1z M1192.5,841.9l4.3,14.3l13.7-4.5l-4.3-14.3L1192.5,841.9z M1183,860.7l4.3,14.3l13.7-4.4l-4.2-14.3L1183,860.7z
	 M1173.6,879.4l4.3,14.3l13.7-4.4l-4.3-14.3L1173.6,879.4z M1164.1,898.1l4.3,14.3l13.7-4.5l-4.3-14.3L1164.1,898.1z"/>
<polygon class="st1" points="1182,908 1177.8,893.7 1191.5,889.2 1187.2,874.9 1200.9,870.5 1196.7,856.2 1210.3,851.7 
	1206.1,837.4 1219.8,833 1215.5,818.7 1229.2,814.2 1224.9,799.9 1238.6,795.5 1234.4,781.2 1248,776.7 1243.8,762.4 1257.5,758 
	1253.2,743.7 1266.9,739.2 1262.6,724.9 1276.3,720.5 1293.3,777.7 1320.7,768.8 1316.4,754.5 1343.8,745.6 1339.5,731.3 
	1366.9,722.4 1375.4,751 1348.1,759.9 1352.3,774.2 1324.9,783.1 1329.2,797.4 1315.5,801.9 1319.8,816.2 1333.4,811.7 1337.7,826 
	1351.4,821.6 1355.6,835.9 1369.3,831.4 1373.6,845.7 "/>
<path class="st0" d="M1276.6,303.8l8.9,1.2l-1.2,9.3l-8.9-1.2L1276.6,303.8z M1276.6,303.8l8.9,1.2l1.2-9.4l-9-1.2L1276.6,303.8z
	 M1277.7,294.5l9,1.2l1.2-9.3l-9-1.2L1277.7,294.5z M1278.9,285.1l9,1.2l1.2-9.3l-9-1.2L1278.9,285.1z M1280.1,275.8l9,1.2l1.2-9.4
	l-8.9-1.2L1280.1,275.8z M1281.2,266.5l8.9,1.2l1.2-9.4l-9-1.2L1281.2,266.5z M1282.4,257.1l9,1.2l1.2-9.4l-9-1.2L1282.4,257.1z
	 M1283.6,247.8l9,1.2l1.2-9.3l-9-1.2L1283.6,247.8z M1284.7,238.4l9,1.2l1.2-9.4l-8.9-1.2L1284.7,238.4z M1285.9,229.1l8.9,1.2
	l1.2-9.3l-9-1.2L1285.9,229.1z M1287.1,219.7l9,1.2l1.2-9.4l-9-1.2L1287.1,219.7z M1288.2,210.4l9,1.2l1.2-9.4l-8.9-1.2
	L1288.2,210.4z M1289.4,201.1l9,1.2l1.2-9.4l-9-1.2L1289.4,201.1z M1290.6,191.7l9,1.2l1.2-9.3l-8.9-1.2L1290.6,191.7z
	 M1291.8,182.4l8.9,1.2l1.2-9.3l-8.9-1.3L1291.8,182.4z M1292.9,173l9,1.2l1.2-9.4l-9-1.2L1292.9,173z M1294.1,163.6l9,1.2l1.2-9.4
	l-8.9-1.2L1294.1,163.6z M1285.2,162.4l9,1.2l1.2-9.3l-9-1.2L1285.2,162.4z M1275.1,170.5l9,1.2l1.2-9.3l-9-1.2L1275.1,170.5z
	 M1265,178.7l9,1.2l1.2-9.4l-9-1.4L1265,178.7z M1254.9,186.8l9,1.2l1.2-9.4l-8.9-1.2L1254.9,186.8z M1247.1,176.3l9,1.2l1.2-9.3
	l-9-1.2L1247.1,176.3z M1248.3,166.9l9,1.2l1.2-9.4l-9-1.2L1248.3,166.9z M1240.5,156.4l9,1.2l1.2-9.4l-8.9-1.4L1240.5,156.4z
	 M1241.7,147.1l9,1.2l1.2-9.4l-9-1.2L1241.7,147.1z M1233.9,136.5l9,1.2l1.2-9.4l-8.9-1.4L1233.9,136.5z M1224.9,135.3l9,1.2
	l1.2-9.3l-8.9-1.2L1224.9,135.3z M1214.8,143.4l9,1.2l1.2-9.4l-9-1.2L1214.8,143.4z M1213.8,152.6l9,1.2l1.2-9.4l-9-1.2
	L1213.8,152.6z M1221.5,163.2l9,1.2l1.2-9.4l-9-1.2L1221.5,163.2z M1220.4,172.5l9,1.2l1.2-9.3l-9-1.2L1220.4,172.5z M1228.1,183.1
	l9,1.2l1.2-9.4l-9-1.2L1228.1,183.1z M1227,192.4l9,1.2l1.2-9.4l-9-1.2L1227,192.4z M1218,191.2l9,1.2l1.2-9.3l-9-1.2L1218,191.2z
	 M1209.1,190l8.9,1.2l1.2-9.4l-9-1.2L1209.1,190z M1200.2,188.7l9,1.2l1.2-9.3l-8.9-1.2L1200.2,188.7z M1191.2,187.5l9,1.2l1.2-9.4
	l-8.9-1.2L1191.2,187.5z M1190.1,196.9l9,1.2l1.2-9.4l-9-1.2L1190.1,196.9z M1197.7,207.4l9,1.2l1.2-9.4l-9-1.2L1197.7,207.4z
	 M1205.5,217.9l8.9,1.2l1.2-9.3l-9-1.2L1205.5,217.9z M1213.3,228.5l9,1.2l1.2-9.3l-9-1.2L1213.3,228.5z M1221,239.2l9,1.2l1.2-9.4
	l-9-1.2L1221,239.2z M1228.8,249.8l9,1.2l1.2-9.3l-9-1.2L1228.8,249.8z M1236.5,260.3l9,1.2l1.2-9.4l-9-1.2L1236.5,260.3z
	 M1244.2,271l9,1.2l1.2-9.3l-9-1.2L1244.2,271z M1252,281.6l9,1.2l1.2-9.3l-8.9-1.2L1252,281.6z M1259.7,292.2l9,1.2l1.2-9.3l-9-1.2
	L1259.7,292.2z M1267.5,302.8l9,1.2l1.2-9.3l-8.9-1.2L1267.5,302.8z"/>
<polygon class="st1" points="1277.7,294.5 1268.8,293.2 1270,283.9 1261.1,282.7 1262.2,273.3 1253.3,272.1 1254.5,262.7 
	1245.5,261.5 1246.7,252.2 1237.7,251 1238.9,241.6 1230,240.4 1231.2,231 1222.2,229.8 1223.4,220.5 1214.4,219.2 1215.6,209.9 
	1206.7,208.7 1207.8,199.3 1198.9,198.1 1200.1,188.8 1235.8,193.7 1238.2,175 1229.2,173.7 1231.6,155.1 1222.7,153.8 1225,135.2 
	1242.8,137.6 1240.5,156.3 1249.5,157.5 1247.1,176.2 1256.1,177.4 1254.9,186.8 1263.8,188 1265,178.6 1273.9,179.9 1275.1,170.5 
	1284,171.7 1285.2,162.4 1294.2,163.6 "/>
<path class="st0" d="M1048.1,846.8l9,12.1l-11.6,9.4l-9-12.1L1048.1,846.8z M1048.1,846.8l9,12.1l11.6-9.4l-9-12L1048.1,846.8z
	 M1059.7,837.5l9,12.1l11.6-9.4l-9-12.2L1059.7,837.5z M1071.3,828.1l9,12.1l11.6-9.4l-9-12.2L1071.3,828.1z M1082.9,818.8l9,12.2
	l11.6-9.5l-9-12.1L1082.9,818.8z M1094.4,809.4l9,12.1l11.6-9.4l-9-12.1L1094.4,809.4z M1106,800l9,12.1l11.6-9.4l-9-12.1L1106,800z
	 M1117.6,790.7l9,12.1l11.6-9.4l-9-12.1L1117.6,790.7z M1129.2,781.1l9,12.1l11.6-9.4l-9.1-12L1129.2,781.1z M1140.8,771.8l9,12.1
	l11.6-9.4l-9-12.1L1140.8,771.8z M1152.4,762.4l9,12.1l11.6-9.5l-9-12.1L1152.4,762.4z M1164,753.1l9,12.1l11.6-9.3l-9-12.1
	L1164,753.1z M1175.5,743.7l9,12.1l11.6-9.4l-9-12.1L1175.5,743.7z M1187.1,734.3l9,12.1l11.6-9.4l-9-12.1L1187.1,734.3z
	 M1198.7,725l9,12.1l11.6-9.4l-9-12.1L1198.7,725z M1210.3,715.6l9,12.1l11.6-9.5l-9-12.1L1210.3,715.6z M1221.8,706.2l9,12.1
	l11.6-9.4l-9-12.1L1221.8,706.2z M1212.9,694.1l9,12.1l11.6-9.4l-8.9-12.1L1212.9,694.1z M1192.3,691.4l9,12.1l11.6-9.4l-9-12.1
	L1192.3,691.4z M1171.8,688.6l9,12.1l11.6-9.4l-9-12L1171.8,688.6z M1151.2,685.9l9,12.1l11.6-9.4l-9-12.1L1151.2,685.9z
	 M1153.8,664.4l9,12.1l11.6-9.4l-9-12.1L1153.8,664.4z M1165.4,655.1l9,12.1l11.6-9.4l-9-12.1L1165.4,655.1z M1168.1,633.6l9,12.1
	l11.6-9.4l-8.9-12L1168.1,633.6z M1179.6,624.2l9,12.1l11.6-9.4l-8.9-12.2L1179.6,624.2z M1182.3,602.7l9,12.1l11.6-9.4l-9-12.1
	L1182.3,602.7z M1173.3,590.6l9,12.1l11.6-9.4l-9-12.1L1173.3,590.6z M1152.8,587.9l9,12.1l11.6-9.4l-9-12.1L1152.8,587.9z
	 M1141.1,597.2l9,12.1l11.6-9.4l-9-12.1L1141.1,597.2z M1138.5,618.7l9,12.1l11.6-9.4l-9-12.1L1138.5,618.7z M1127,628.1l9,12.1
	l11.6-9.4l-9-12.1L1127,628.1z M1124.3,649.6l9,12.1l11.6-9.4l-9-12.1L1124.3,649.6z M1112.7,658.9l9,12.1l11.6-9.4l-9-12.1
	L1112.7,658.9z M1103.8,646.8l9,12.1l11.6-9.4l-9-12.1L1103.8,646.8z M1095,634.8l9,12.1l11.6-9.4l-9-12.1L1095,634.8z
	 M1085.9,622.6l9,12.1l11.6-9.4l-9-12.1L1085.9,622.6z M1076.9,610.5l9,12.1l11.6-9.4l-9-12.1L1076.9,610.5z M1065.3,619.9l9,12.1
	l11.6-9.4l-9-12.1L1065.3,619.9z M1062.7,641.4l9,12.1l11.6-9.4l-9-12.1L1062.7,641.4z M1060.1,662.9l9,12.1l11.6-9.4l-9-12.1
	L1060.1,662.9z M1057.5,684.4l9,12.1l11.6-9.4l-9-12.1L1057.5,684.4z M1054.8,705.9l9,12.1l11.6-9.4l-9-12.1L1054.8,705.9z
	 M1052.2,727.3l9,12.1l11.6-9.4l-9-12.1L1052.2,727.3z M1049.6,748.8l9,12.1l11.6-9.5l-9-12.1L1049.6,748.8z M1047,770.3l9,12.1
	l11.6-9.4l-9-12.2L1047,770.3z M1044.4,791.8l9,12.1l11.6-9.4l-9-12.1L1044.4,791.8z M1041.7,813.3l9.1,12.1l11.6-9.3l-9-12.1
	L1041.7,813.3z M1039.1,834.7l9.1,12.1l11.6-9.4l-9-12.1L1039.1,834.7z"/>
<polygon class="st1" points="1059.7,837.4 1050.8,825.4 1062.3,816 1053.4,803.9 1065,794.5 1056,782.4 1067.6,773 1058.6,760.9 
	1070.2,751.5 1061.3,739.4 1072.9,730.1 1063.9,718 1075.5,708.6 1066.5,696.4 1078.1,687.1 1069.1,675 1080.7,665.6 1071.8,653.5 
	1083.3,644.1 1074.4,632 1086,622.7 1121.8,671.1 1145,652.4 1136,640.3 1159.2,621.5 1150.3,609.4 1173.4,590.7 1191.4,614.9 
	1168.2,633.6 1177.1,645.7 1154,664.5 1162.9,676.6 1151.4,686 1160.3,698.1 1171.9,688.7 1180.8,700.8 1192.4,691.4 1201.4,703.6 
	1213,694.2 1221.9,706.3 "/>
<path class="st0" d="M1223.8,518.7l10.6,4.1l-4,11.1l-10.5-4.1L1223.8,518.7z M1223.8,518.7l10.6,4.1l4-11.1l-10.6-4.1L1223.8,518.7
	z M1227.7,507.6l10.6,4.1l4-11.1l-10.6-4.2L1227.7,507.6z M1231.7,496.5l10.6,4.2l4-11.1l-10.6-4.2L1231.7,496.5z M1235.6,485.4
	l10.6,4.2l4-11.1l-10.6-4.1L1235.6,485.4z M1239.6,474.3l10.6,4.1l4-11.1l-10.6-4.2L1239.6,474.3z M1243.6,463.2l10.6,4.2l4-11.1
	l-10.6-4.1L1243.6,463.2z M1247.5,452.1l10.6,4.1l3.9-11.1l-10.6-4.2L1247.5,452.1z M1251.5,441l10.6,4.2l4-11.1l-10.6-4.1
	L1251.5,441z M1255.5,429.9l10.6,4.1l4-11.1l-10.6-4.1L1255.5,429.9z M1259.4,418.8l10.6,4.1l4-11.1l-10.6-4.1L1259.4,418.8z
	 M1263.4,407.7l10.6,4.1l4-11.1l-10.6-4.1L1263.4,407.7z M1267.4,396.6l10.6,4.1l4-11.1l-10.6-4.1L1267.4,396.6z M1271.3,385.5
	l10.6,4.1l3.9-11.1l-10.6-4.1L1271.3,385.5z M1275.3,374.4l10.6,4.1l4-11.1l-10.7-4.1L1275.3,374.4z M1279.3,363.3l10.6,4.2l4-11.1
	l-10.6-4.1L1279.3,363.3z M1283.2,352.2l10.6,4.1l4-11.1l-10.7-4.2L1283.2,352.2z M1272.6,348l10.6,4.1l4-11.1l-10.6-4.1L1272.6,348
	z M1258,355l10.6,4.1l4-11.1l-10.7-4.1L1258,355z M1243.5,362l10.6,4.1l4-11.1l-10.6-4.1L1243.5,362z M1228.9,368.9l10.6,4.1l4-11.1
	l-10.6-4.2L1228.9,368.9z M1222.1,353.8l10.6,4.1l4-11.1l-10.6-4.1L1222.1,353.8z M1226.1,342.7l10.6,4.1l4-11.1l-10.6-4.1
	L1226.1,342.7z M1219.5,327.5l10.6,4.1l4-11.1l-10.6-4.2L1219.5,327.5z M1223.4,316.3l10.6,4.2l4.1-11.3l-10.6-4.1L1223.4,316.3z
	 M1216.8,301l10.6,4.1l4-11.1l-10.6-4.1L1216.8,301z M1206.2,296.9l10.6,4.1l4-11.1l-10.6-4.1L1206.2,296.9z M1191.6,303.8l10.6,4.2
	l4-11.1l-10.7-4.1L1191.6,303.8z M1187.7,314.9l10.6,4.1l4-11.1l-10.6-4.2L1187.7,314.9z M1194.3,330.2l10.6,4.1l4-11.1l-10.6-4.1
	L1194.3,330.2z M1190.4,341.3l10.6,4.1l4-11.1l-10.6-4.1L1190.4,341.3z M1197,356.5l10.6,4.1l4-11.1l-10.6-4.1L1197,356.5z
	 M1193.1,367.6l10.6,4.1l3.9-11.1l-10.6-4.1L1193.1,367.6z M1182.4,363.5l10.6,4.1l4-11.1l-10.6-4.1L1182.4,363.5z M1171.8,359.3
	l10.6,4.1l4-11.1l-10.6-4.1L1171.8,359.3z M1161.2,355.2l10.6,4.2l4-11.1l-10.7-4L1161.2,355.2z M1150.6,351l10.6,4.1l3.9-10.9
	l-10.6-4.1L1150.6,351z M1146.6,362.1l10.6,4.1l4-11.1l-10.6-4.1L1146.6,362.1z M1153.2,377.4l10.6,4.1l4-11.1l-10.6-4.1
	L1153.2,377.4z M1159.9,392.6l10.6,4.1l4-11.1l-10.6-4.1L1159.9,392.6z M1166.6,407.9l10.6,4.1l4-11.1l-10.6-4.2L1166.6,407.9z
	 M1173.2,423.1l10.6,4.1l4-11.1l-10.6-4.2L1173.2,423.1z M1179.9,438.3l10.6,4.1l4-11.1l-10.6-4.1L1179.9,438.3z M1186.5,453.6
	l10.6,4.1l4-11.1l-10.6-4.1L1186.5,453.6z M1193.2,468.8l10.6,4.1l3.8-10.9l-10.6-4.1L1193.2,468.8z M1199.9,484l10.6,4.2l4-11.1
	l-10.6-4.2L1199.9,484z M1206.5,499.3l10.6,4.1l4-11.1l-10.6-4.1L1206.5,499.3z M1213.2,514.5l10.6,4.1l3.9-11.1l-10.6-4.1
	L1213.2,514.5z"/>
<polygon class="st4" points="1227.7,507.6 1217.1,503.4 1221.1,492.4 1210.4,488.2 1214.4,477.1 1203.8,473 1207.7,461.9 
	1197.1,457.7 1201.1,446.7 1190.5,442.5 1194.4,431.4 1183.8,427.3 1187.8,416.2 1177.2,412 1181.1,400.9 1170.5,396.8 
	1174.5,385.7 1163.8,381.6 1167.8,370.4 1157.2,366.3 1161.1,355.2 1203.6,371.8 1211.5,349.5 1200.9,345.4 1208.8,323.2 
	1198.2,319.1 1206.1,296.9 1227.4,305.2 1219.5,327.4 1230.1,331.5 1222.1,353.7 1232.8,357.9 1228.8,369 1239.4,373.1 1243.4,362 
	1254,366.1 1258,355.1 1268.6,359.2 1272.6,348.1 1283.2,352.2 "/>
<path class="st0" d="M418,1372.5l0.9,6.8l-6.5,1l-0.9-6.8L418,1372.5z M418,1372.5l0.9,6.8l6.5-1l-0.9-6.8L418,1372.5z
	 M424.5,1371.6l0.9,6.8l6.5-1l-0.9-6.8L424.5,1371.6z M431,1370.6l0.9,6.8l6.5-1l-0.9-6.8L431,1370.6z M437.5,1369.7l0.9,6.8l6.5-1
	l-0.9-6.8L437.5,1369.7z M444,1368.7l0.9,6.8l6.5-1l-0.9-6.8L444,1368.7z M450.5,1367.8l0.9,6.8l6.5-0.9l-0.9-6.8L450.5,1367.8z
	 M457.1,1366.8l0.9,6.8l6.5-1l-0.9-6.8L457.1,1366.8z M463.6,1365.8l0.9,6.8l6.5-1l-0.9-6.8L463.6,1365.8z M470.1,1364.9l0.9,6.8
	l6.5-1l-0.9-6.8L470.1,1364.9z M476.6,1363.9l0.9,6.8l6.5-1l-1-7L476.6,1363.9z M483,1362.8l0.9,6.8l6.5-1l-0.9-6.8L483,1362.8z
	 M489.5,1361.9l0.9,6.8l6.5-1l-0.9-6.8L489.5,1361.9z M496,1360.9l0.9,6.8l6.5-1l-0.9-6.8L496,1360.9z M502.5,1360l0.9,6.8l6.5-0.9
	l-0.9-6.8L502.5,1360z M509,1359l0.9,6.8l6.5-1l-0.9-6.8L509,1359z M515.5,1358l0.9,6.8l6.5-1l-0.9-6.8L515.5,1358z M514.6,1351.2
	l0.9,6.8l6.5-1l-0.9-6.8L514.6,1351.2z M507.4,1345.5l0.9,6.8l6.5-1l-0.9-6.8L507.4,1345.5z M499.9,1339.7l0.9,6.8l6.5-1l-0.9-6.8
	L499.9,1339.7z M492.5,1333.9l0.9,6.8l6.5-1l-0.9-6.8L492.5,1333.9z M498.1,1326.1l0.9,6.8l6.5-1l-0.9-6.8L498.1,1326.1z
	 M504.6,1325.1l0.9,6.8l6.5-1l-0.9-6.8L504.6,1325.1z M510.2,1317.4l0.9,6.8l6.5-1l-0.9-6.8L510.2,1317.4z M516.7,1316.4l0.9,6.8
	l6.5-1l-0.9-6.8L516.7,1316.4z M522.3,1308.7l0.9,6.8l6.5-1l-0.9-6.8L522.3,1308.7z M521.4,1301.9l0.9,6.8l6.5-1l-0.9-6.8
	L521.4,1301.9z M514,1296l0.9,6.8l6.5-1l-0.9-6.8L514,1296z M507.4,1296.9l0.9,6.8l6.5-1l-0.9-6.8L507.4,1296.9z M501.8,1304.7
	l0.9,6.8l6.5-1l-0.9-6.8L501.8,1304.7z M495.4,1305.6l0.9,6.8l6.5-1l-0.9-6.8L495.4,1305.6z M489.8,1313.4l0.9,6.8l6.5-1l-0.9-6.8
	L489.8,1313.4z M483.2,1314.4l0.9,6.8l6.5-1l-0.9-6.8L483.2,1314.4z M482.3,1307.6l0.9,6.8l6.5-1l-0.9-6.8L482.3,1307.6z
	 M481.4,1300.7l0.9,6.8l6.5-1l-0.9-6.8L481.4,1300.7z M480.5,1293.9l0.9,6.8l6.5-1l-0.9-6.8L480.5,1293.9z M479.6,1287.1l0.9,6.8
	l6.5-1l-0.9-6.8L479.6,1287.1z M473.1,1288.1l0.9,6.8l6.5-1l-0.9-6.8L473.1,1288.1z M467.5,1296l0.9,6.8l6.5-1l-0.9-6.8L467.5,1296z
	 M461.9,1303.7l0.9,6.8l6.5-1l-0.9-6.8L461.9,1303.7z M456.3,1311.5l0.9,6.8l6.5-1l-0.9-6.8L456.3,1311.5z M450.7,1319.2l0.9,6.8
	l6.5-1l-0.9-6.8L450.7,1319.2z M445.1,1327l0.9,6.8l6.5-1l-0.9-6.8L445.1,1327z M439.5,1334.8l0.9,6.8l6.5-1l-0.9-6.8L439.5,1334.8z
	 M433.8,1342.5l0.9,6.8l6.5-1l-0.9-6.8L433.8,1342.5z M428.2,1350.1l0.9,6.8l6.5-1l-0.9-6.8L428.2,1350.1z M422.6,1357.9l0.9,6.8
	l6.5-1l-0.9-6.8L422.6,1357.9z M417,1365.6l0.9,6.8l6.5-1l-0.9-6.8L417,1365.6z"/>
<polygon class="st1" points="424.5,1371.6 423.6,1364.8 430.1,1363.8 429.2,1357 435.7,1356.1 434.8,1349.3 441.3,1348.3 
	440.4,1341.5 446.9,1340.5 446,1333.7 452.5,1332.8 451.6,1326 458.1,1325 457.2,1318.2 463.7,1317.2 462.8,1310.4 469.3,1309.5 
	468.4,1302.7 474.9,1301.7 474,1294.9 480.5,1293.9 484.2,1321.2 497.2,1319.3 496.2,1312.5 509.3,1310.6 508.4,1303.7 
	521.4,1301.8 523.2,1315.5 510.2,1317.4 511.1,1324.2 498.1,1326.1 499,1332.9 492.5,1333.9 493.4,1340.7 499.9,1339.7 
	500.8,1346.5 507.4,1345.5 508.3,1352.3 514.8,1351.4 515.7,1358.2 "/>
<path class="st0" d="M639.5,1254.6l0.7,5.2l-5,0.7l-0.7-5.2L639.5,1254.6z M639.5,1254.6l0.7,5.2l5-0.7l-0.7-5.2L639.5,1254.6z
	 M644.4,1253.9l0.7,5.2l4.9-0.7l-0.7-5.2L644.4,1253.9z M649.4,1253.1l0.7,5.2l5-0.7l-0.7-5.2L649.4,1253.1z M654.3,1252.4l0.7,5.2
	l5-0.7l-0.7-5.2L654.3,1252.4z M659.3,1251.7l0.7,5.2l4.9-0.7l-0.7-5.2L659.3,1251.7z M664.3,1250.9l0.7,5.2l5-0.7l-0.7-5.2
	L664.3,1250.9z M669.2,1250.2l0.7,5.2l4.9-0.8l-0.7-5.2L669.2,1250.2z M674.2,1249.5l0.7,5.1l5-0.7l-0.7-5.2L674.2,1249.5z
	 M679.1,1248.7l0.7,5.2l4.9-0.7l-0.8-5L679.1,1248.7z M684,1248.2l0.7,5.2l5-0.7l-0.7-5.2L684,1248.2z M688.9,1247.5l0.7,5.2l5-0.7
	l-0.7-5.2L688.9,1247.5z M693.9,1246.7l0.7,5.2l4.9-0.7l-0.7-5.2L693.9,1246.7z M698.8,1246l0.7,5.2l5-0.7l-0.7-5.2L698.8,1246z
	 M703.8,1245.3l0.7,5.2l4.9-0.7l-0.7-5.2L703.8,1245.3z M708.7,1244.5l0.7,5.2l5-0.7l-0.7-5.2L708.7,1244.5z M713.7,1243.8l0.7,5.2
	l5-0.7l-0.7-5.2L713.7,1243.8z M713,1238.6l0.7,5.2l4.9-0.7l-0.7-5.2L713,1238.6z M707.3,1234.2l0.7,5.2l5-0.7l-0.7-5.2
	L707.3,1234.2z M701.7,1229.7l0.7,5.2l5-0.7l-0.7-5.2L701.7,1229.7z M696,1225.2l0.7,5.2l5-0.7l-0.7-5.2L696,1225.2z M700.3,1219.4
	l0.7,5.2l5-0.7l-0.7-5.2L700.3,1219.4z M705.2,1218.6l0.7,5.2l5-0.7l-0.7-5.2L705.2,1218.6z M709.5,1212.7l0.7,5.2l5-0.7l-0.7-5.2
	L709.5,1212.7z M714.4,1212l0.7,5.2l4.9-0.7l-0.7-5.2L714.4,1212z M718.7,1206.1l0.7,5.2l4.9-0.7l-0.7-5.2L718.7,1206.1z
	 M718,1200.9l0.7,5.2l5-0.7l-0.7-5.2L718,1200.9z M712.4,1196.5l0.7,5.2l5-0.7l-0.7-5.2L712.4,1196.5z M707.4,1197.2l0.7,5.2l5-0.7
	l-0.7-5.2L707.4,1197.2z M703.1,1203.1l0.7,5.2l5-0.7l-0.7-5.2L703.1,1203.1z M698.2,1203.9l0.7,5.2l4.9-0.7l-0.7-5.2L698.2,1203.9z
	 M693.9,1209.7l0.7,5.2l5-0.7l-0.7-5.2L693.9,1209.7z M689,1210.5l0.7,5.2l5-0.7l-0.7-5.2L689,1210.5z M688.3,1205.3l0.7,5.2l5-0.8
	l-0.7-5.2L688.3,1205.3z M687.6,1200.1l0.7,5.2l5-0.7l-0.7-5.2L687.6,1200.1z M686.8,1194.9l0.7,5.2l4.9-0.7l-0.7-5.2L686.8,1194.9z
	 M686.1,1189.8l0.7,5.2l5-0.7l-0.7-5.2L686.1,1189.8z M681.2,1190.5l0.7,5.2l5-0.7l-0.7-5.2L681.2,1190.5z M676.9,1196.4l0.7,5.2
	l5-0.7l-0.7-5.2L676.9,1196.4z M672.7,1202.3l0.7,5.2l4.9-0.7l-0.7-5.2L672.7,1202.3z M668.4,1208.2l0.7,5.2l4.9-0.7l-0.7-5.2
	L668.4,1208.2z M664.1,1214.1l0.7,5.2l5-0.7l-0.7-5.2L664.1,1214.1z M659.9,1220l0.7,5.2l5-0.7l-0.7-5.2L659.9,1220z M655.6,1225.9
	l0.7,5.2l5-0.7l-0.7-5.2L655.6,1225.9z M651.4,1231.8l0.7,5.2l5-0.7l-0.7-5.2L651.4,1231.8z M647.1,1237.8l0.7,5.2l4.9-0.7l-0.7-5.2
	L647.1,1237.8z M642.9,1243.6l0.7,5.2l4.9-0.7l-0.7-5.2L642.9,1243.6z M638.6,1249.6l0.7,5.2l4.9-0.7l-0.7-5.2L638.6,1249.6z"/>
<polygon class="st6" points="644.4,1253.9 643.8,1248.7 648.7,1248 648,1242.8 653,1242.1 652.3,1236.9 657.2,1236.2 656.5,1231 
	661.5,1230.3 660.8,1225.1 665.7,1224.4 665,1219.2 670,1218.4 669.3,1213.3 674.2,1212.5 673.6,1207.4 678.5,1206.6 677.8,1201.5 
	682.8,1200.7 682.1,1195.5 687,1194.8 689.8,1215.5 699.8,1214.1 699,1208.9 709,1207.4 708.3,1202.3 718.2,1200.8 719.6,1211.2 
	709.7,1212.6 710.3,1217.8 700.4,1219.3 701.1,1224.4 696.2,1225.2 696.9,1230.3 701.8,1229.6 702.5,1234.8 707.5,1234.1 
	708.2,1239.2 713.1,1238.5 713.8,1243.7 "/>
<path class="st0" d="M114.4,1426l-5.1,6l-5.7-5.3l5.1-6L114.4,1426z M114.4,1426l-5.1,6l5.7,5.3l5.1-6L114.4,1426z M120.1,1431.3
	l-5.1,6l5.6,5.1l5.1-6L120.1,1431.3z M125.8,1436.6l-5.1,5.8l5.7,5.3l5.1-6L125.8,1436.6z M131.5,1441.9l-5.1,6l5.7,5.3l5-6
	L131.5,1441.9z M137.2,1447.1l-5,6l5.7,5.3l5-5.9L137.2,1447.1z M142.9,1452.4l-5.1,5.9l5.7,5.3l5.1-6L142.9,1452.4z M148.6,1457.6
	l-5.1,6l5.7,5.3l5-6L148.6,1457.6z M154.3,1462.9l-5,6l5.7,5.3l5.1-6L154.3,1462.9z M160,1468.2l-5.1,6l5.7,5.3l5-6L160,1468.2z
	 M165.7,1473.5l-5,6l5.7,5.3l5-6L165.7,1473.5z M171.3,1478.7l-5,6l5.7,5.3l5-6L171.3,1478.7z M177,1484l-5,6l5.7,5.3l5.1-6
	L177,1484z M182.7,1489.3l-5.1,6l5.7,5.3l5-6L182.7,1489.3z M188.4,1494.5l-5,6l5.7,5.3l5.1-6L188.4,1494.5z M194.2,1499.8l-5.1,6
	l5.7,5.3l5.1-6L194.2,1499.8z M199.8,1505.1l-5.1,6l5.7,5.3l5.1-5.9L199.8,1505.1z M204.9,1499.1l-5.1,5.9l5.7,5.3l5.1-6
	L204.9,1499.1z M204.2,1487.9l-5,6l5.7,5.3l5.1-6L204.2,1487.9z M203.6,1476.7l-5.1,6l5.7,5.3l5.1-6L203.6,1476.7z M202.9,1465.5
	l-5.1,6l5.7,5.3l5.1-6L202.9,1465.5z M213.7,1464.8l-5.1,6l5.7,5.3l5.1-6L213.7,1464.8z M219.4,1470.1l-5.1,6l5.7,5.3l5.1-6
	L219.4,1470.1z M230.1,1469.4l-5,5.9l5.7,5.3l5.1-6L230.1,1469.4z M235.8,1474.7l-5.1,5.9l5.7,5.3l5.1-6L235.8,1474.7z M246.5,1474
	l-5.1,5.9l5.7,5.3l5.1-6L246.5,1474z M251.6,1467.9l-5,6l5.7,5.3l5-6L251.6,1467.9z M250.9,1456.7l-5,6l5.7,5.3l5.1-6L250.9,1456.7z
	 M245.2,1451.4l-5.1,6l5.7,5.3l5-6L245.2,1451.4z M234.5,1452l-5.1,6.3l5.7,5.3l5.1-6L234.5,1452z M228.8,1446.8l-5,6l5.6,5.6l5-6
	L228.8,1446.8z M218.1,1447.5l-5,6l5.7,5.3l5.1-6L218.1,1447.5z M212.3,1442.4l-5.1,6l5.7,5.3l5-6L212.3,1442.4z M217.3,1436.4
	l-5.1,6l5.7,5.3l5-6L217.3,1436.4z M222.4,1430.5l-5.1,6l5.7,5.3l5.1-6L222.4,1430.5z M227.4,1424.5l-5.1,6l5.7,5.3l5.1-6
	L227.4,1424.5z M232.5,1418.6l-5.1,6l5.7,5.3l5.1-6L232.5,1418.6z M226.8,1413.3l-5.1,6l5.7,5.3l5.1-6L226.8,1413.3z M216,1414
	l-5.1,6l5.7,5.3l5.1-6L216,1414z M205.3,1414.7l-5.1,6l5.7,5.3l5.1-6L205.3,1414.7z M194.5,1415.3l-5.1,6l5.7,5.3l5-6L194.5,1415.3z
	 M183.8,1416l-5.1,6l5.7,5.3l5-6L183.8,1416z M173.1,1416.7l-5.1,6l5.7,5.3l5-6L173.1,1416.7z M162.3,1417.4l-5.1,5.9l5.7,5.3l5-6
	L162.3,1417.4z M151.6,1418.1l-5,6l5.7,5.3l5-6L151.6,1418.1z M140.8,1418.8l-5,5.9l5.7,5.3l5.1-6L140.8,1418.8z M130.1,1419.4l-5,6
	l5.7,5.3l5.1-6L130.1,1419.4z M119.4,1420.1l-5.1,6l5.7,5.3l5.1-6L119.4,1420.1z"/>
<polygon class="st7" points="120.1,1431.3 125.2,1425.4 130.8,1430.6 135.9,1424.7 141.6,1429.9 146.6,1424 152.3,1429.2 
	157.3,1423.3 163,1428.6 168.1,1422.6 173.8,1427.9 178.8,1422 184.5,1427.2 189.5,1421.3 195.2,1426.5 200.3,1420.6 206,1425.9 
	211,1419.9 216.7,1425.2 221.7,1419.2 227.4,1424.5 207.2,1448.3 218.7,1458.8 223.7,1452.9 235,1463.4 240.1,1457.5 251.5,1468 
	241.4,1479.9 230,1469.4 225,1475.3 213.6,1464.8 208.6,1470.8 202.9,1465.5 197.8,1471.4 203.5,1476.7 198.5,1482.6 204.2,1487.9 
	199.1,1493.9 204.8,1499.1 199.8,1505.1 "/>
<path class="st0" d="M78.5,1197.6l2.2,4.5l-4.3,2.3l-2.2-4.5L78.5,1197.6z M78.5,1197.6l2.2,4.5l4.3-2.3l-2.2-4.5L78.5,1197.6z
	 M82.8,1195.3l2.2,4.5l4.3-2.3l-2.2-4.5L82.8,1195.3z M87.1,1193l2.2,4.5l4.3-2.3l-2.2-4.5L87.1,1193z M91.4,1190.6l2.2,4.5l4.3-2.3
	l-2.2-4.5L91.4,1190.6z M95.7,1188.3l2.2,4.5l4.3-2.3l-2.2-4.5L95.7,1188.3z M99.9,1186l2.2,4.5l4.3-2.3l-2.2-4.5L99.9,1186z
	 M104.2,1183.7l2.2,4.5l4.3-2.3l-2.3-4.5L104.2,1183.7z M108.5,1181.4l2.2,4.5l4.3-2.3l-2.2-4.5L108.5,1181.4z M112.8,1179.1
	l2.2,4.5l4.3-2.3l-2.2-4.5L112.8,1179.1z M117.1,1176.7l2.2,4.5l4.3-2.3l-2.2-4.5L117.1,1176.7z M121.4,1174.4l2.2,4.5l4.3-2.3
	l-2.2-4.5L121.4,1174.4z M125.6,1172.1l2.2,4.5l4.3-2.3l-2.2-4.5L125.6,1172.1z M129.9,1169.8l2.2,4.5l4.3-2.3l-2.2-4.5
	L129.9,1169.8z M134.2,1167.4l2.2,4.5l4.3-2.3l-2.2-4.5L134.2,1167.4z M138.5,1165.1l2.2,4.5l4.3-2.3l-2.2-4.5L138.5,1165.1z
	 M142.8,1162.8l2.2,4.5l4.3-2.3l-2.2-4.5L142.8,1162.8z M140.6,1158.3l2.2,4.5l4.3-2.3l-2.1-4.6L140.6,1158.3z M134.1,1156.1
	l2.2,4.5l4.3-2.3l-2.2-4.5L134.1,1156.1z M127.6,1154l2.2,4.5l4.3-2.3l-2.2-4.5L127.6,1154z M121,1151.8l2.3,4.5l4.3-2.3l-2.2-4.5
	L121,1151.8z M123.1,1145l2.2,4.5l4.3-2.3l-2.2-4.5L123.1,1145z M127.4,1142.7l2.2,4.5l4.3-2.3l-2.2-4.5L127.4,1142.7z
	 M129.5,1135.9l2.2,4.5l4.3-2.3l-2.2-4.5L129.5,1135.9z M133.8,1133.6l2.2,4.5l4.3-2.3l-2.2-4.5L133.8,1133.6z M135.9,1126.8
	l2.2,4.5l4.3-2.3l-2.2-4.5L135.9,1126.8z M133.7,1122.3l2.2,4.5l4.3-2.3l-2.2-4.5L133.7,1122.3z M127.2,1120.1l2.2,4.5l4.3-2.3
	l-2.2-4.5L127.2,1120.1z M122.9,1122.4l2.2,4.5l4.3-2.3l-2.2-4.5L122.9,1122.4z M120.8,1129.2l2.2,4.5l4.3-2.3l-2.2-4.5
	L120.8,1129.2z M116.5,1131.5l2.2,4.5l4.3-2.3l-2.2-4.5L116.5,1131.5z M114.4,1138.3l2.2,4.5l4.3-2.3l-2.2-4.5L114.4,1138.3z
	 M110.1,1140.7l2.2,4.5l4.3-2.3l-2.2-4.5L110.1,1140.7z M107.9,1136.2l2.2,4.5l4.3-2.3l-2.2-4.5L107.9,1136.2z M105.7,1131.7
	l2.2,4.5l4.3-2.3l-2.2-4.5L105.7,1131.7z M103.4,1127.2l2.2,4.5l4.3-2.3l-2.2-4.5L103.4,1127.2z M101.2,1122.7l2.2,4.5l4.3-2.3
	l-2.2-4.5L101.2,1122.7z M96.9,1125l2.2,4.5l4.3-2.3l-2.2-4.5L96.9,1125z M94.9,1131.9l2.2,4.5l4.3-2.3l-2-4.5L94.9,1131.9z
	 M92.8,1138.7l2.2,4.5l4.3-2.3l-2.2-4.5L92.8,1138.7z M90.7,1145.5l2.2,4.5l4.3-2.3l-2.2-4.5L90.7,1145.5z M88.6,1152.3l2.2,4.5
	l4.3-2.3l-2.2-4.5L88.6,1152.3z M86.6,1159.1l2.2,4.5l4.3-2.3l-2.2-4.5L86.6,1159.1z M84.5,1165.9l2.2,4.5l4.3-2.3l-2.2-4.5
	L84.5,1165.9z M82.4,1172.7l2.2,4.5l4.3-2.3l-2.2-4.5L82.4,1172.7z M80.3,1179.5l2.2,4.5l4.3-2.3l-2.2-4.5L80.3,1179.5z
	 M78.3,1186.3l2.2,4.5l4.3-2.3l-2.2-4.5L78.3,1186.3z M76.2,1193.2l2.2,4.5l4.3-2.3l-2.2-4.5L76.2,1193.2z"/>
<polygon class="st1" points="82.8,1195.3 80.5,1190.8 84.8,1188.5 82.6,1184 86.9,1181.7 84.7,1177.1 89,1174.9 86.8,1170.3 
	91.1,1168 88.9,1163.5 93.2,1161.2 90.9,1156.7 95.3,1154.4 93,1149.9 97.3,1147.6 95.1,1143.1 99.4,1140.8 97.2,1136.3 101.5,1134 
	99.2,1129.5 103.6,1127.2 112.4,1145.2 121,1140.5 118.8,1136 127.4,1131.4 125.2,1126.9 133.8,1122.2 138.2,1131.2 129.6,1135.9 
	131.8,1140.4 123.2,1145 125.5,1149.5 121.2,1151.8 123.4,1156.3 127.7,1154 129.9,1158.5 134.2,1156.1 136.4,1160.6 140.7,1158.3 
	142.9,1162.8 "/>
<path class="st8" d="M692.3,1096.5c1.6,0,1.8-1.7,3-2.7c4.4-3.4,6.5-1.4,9.8-4c4.3-2.9,7.7-7,9.8-11.8c0.8-2.2,1.3-4.5,1.5-6.8
	c0.2-3.1-0.2-6.2-1-9.2c-0.7-3-4.1-8.7-2.1-9.8c2-1.1,4.8,4.4,6.4,8.1c1.5,4.3,2.4,8.7,2.7,13.2c0.2,3,3.3,16.3,12.4,19.6
	c3.7,1.4,13.7,5.2,15.8,4c2.1-1.2,3-6.7,3.6-10c1.1-3.6,1.5-7.3,1.2-11.1c-0.1-2.4-0.8-4.7-1.9-6.7c-2.8-5.2-6.8-9.5-11.6-12.7
	c-2.1-1.6-3.9-3.6-5.3-5.8c-2.4-3.4-5.9-8.8-3.6-10.2c2.3-1.4,4.2,3.8,7.7,7.7c3.7,4.4,9,7.1,14.6,7.3c4.6,0,9.1-1.1,13.2-3.2
	c2.6-1.3,2.9-3.4,5.2-4.8c1.8-1.3,3.8-2.2,5.9-2.6c2.2-0.4-1.8-6.4-5.8-8.4c-9.5-4.6-15,5.7-22.9,3c-2.3-0.8-5.2-2.7-5-4.4
	c0.3-1.8,3.8,0.4,4.3-4.9c-0.8-3-2.6-5.7-5.1-7.4c-4-2.8-6.3-0.7-6.9-2.3c-0.7-4.6-1-9.3-0.6-14c0.5-4.5,1.7-9,3.7-13.1
	c1.1-3.1,3.1-5.7,5.7-7.6c2.9-2.6,6.9-3.5,10.6-2.5c4.1,1.4,5.7,3.5,7.8,8.8c1.6,4,1.3,8.3,3.9,11.5c1.5,1.8,5.6,5.5,8.6,3.3
	c1.8-1.3-1.7-2.5-0.9-9c0.5-4.4,8.3-11.2,8.7-19.1c0.5-5-0.6-9.9-3.2-14.1c-3.8-6.6-10.2-10.9-17.5-11.8
	c-10.4-1.5-20.9,2.4-28.2,10.3c-2.8,2.8-5.2,6-7,9.5c-4.5,6.8-6.9,14.9-7,23.2c-0.3,5.6,0.2,11.2,1.5,16.7
	c1.7,7.3,6.1,15.1,2.5,16.7c-2.8,1.3-6.1-11.5-9.1-18.1c-2.9-7.4-4.6-15.4-4.9-23.4c-0.4-8.7,0.2-15.4-2.3-24.9
	c-0.8-4.9-2.6-9.5-5.3-13.5c-3.2-4.5-7.3-8.4-11.9-11.3c-4.5-2.7-9.4-4.4-14.4-5.3c-5.7-1.6-11.2-3.9-16.4-6.7
	c-7.7-3.6-6.4-4.3-7.2,4.1c-0.5,5.5-0.9,7.8-1.7,12.5c-0.8,5.2-2.8,9.5-3.6,13.8c-1,4.7-1.1,9.6-0.5,14.3c0.8,5.2,2.7,10.2,5.5,14.6
	c4,5.4,8.7,10.3,13.9,14.3c5.6,3.4,11.1,7.1,16.3,11.2c5.5,4.7,10.4,10.2,14.6,16.2c3.3,4.5,9.6,12,7.5,13.7
	c-3.4,2.7-5.1-4-12.2-10.7c-3.8-4-8.1-7.3-12.9-10c-9.8-5.2-15.2-6.4-27.6-5.6c-7.6,0.4-14.8,3.4-20.6,8.4
	c-4.8,4.1-8.3,9.7-10.1,15.9c-1.2,4.4-1.1,9.1,0.2,13.4c2.4,8.5,7,14.1,15.2,16.3c6.7,1.8,13-1.1,17.4,1.1c5.1,2.6,4.7,7.4,7.1,4.5
	c0.9-1.3,1.4-3,1.4-4.6c0-2.8-0.9-5.5-2.6-7.7c-1.6-2.7-3.8-3.2-5.5-5.8c-2.3-2.7-3.5-6.2-3.3-9.8c0.5-5.4,4.1-8.5,9-10.4
	c2.8-1,5.8-1.1,8.7-0.5c3.5,0.2,6.8,1.1,10,2.6c4,1.9,7.8,4.3,11.2,7.2c4.2,2.9-0.3,2.3,0,7.6c-0.1,2.7,0.6,5.3,2,7.5
	c5.1,6.8,6.5-0.9,8.1,0.7c0.9,1.7,1.3,3.7,0.9,5.7c-1.4,8.4-9.1,8.2-13.1,15.4c-3,5.5,0.4,14.4,2.2,14.3"/>
<path class="st9" d="M341.8,1527.7c0,0-17.4-8.9-10-37.6c5-19.1,24.4-16.8,24.4-16.8s3.5-26.6,27.1-27.9
	c22.5-1.1,24.6,19.1,24.6,19.1s19.6-27.5,45.4-10.8c34.1,22.1,13.2,51.2,13.2,51.2s27.6,8.5,22.1,32.6c-0.5,2.2-7.7,30-27.1,24.5
	L341.8,1527.7z"/>
<path class="st6" d="M1132.8,131.8c-2.8-7-4.1-14.5-3.9-22.1c-0.2-32.9,25.2-59.6,56.6-59.8c0.1,0,0.2,0,0.3,0
	c7.3-0.2,14.5,1.2,21.3,4l0.9,0.4l-0.3,22.3l-2.3-1.4c-5.9-3.7-12.6-5.6-19.5-5.6c-10.3-0.1-20.2,4.2-27.4,11.8
	c-12.2,13-14.6,33-5.7,48.7l1.4,2.4l-21.3,0.4L1132.8,131.8z M1096,132.7l-0.3-1.2c-1.5-7.1-2.3-14.4-2.3-21.7
	c0.1-53.6,41.7-97.1,93-97.1c6.9,0.1,13.9,1,20.6,2.6l1.2,0.3v20.4l-1.9-0.6c-6.5-1.9-13.3-2.8-20-2.9
	c-40.8,0.1-73.8,34.6-73.9,77.3c0,7.1,0.9,14.1,2.7,20.9l0.6,2L1096,132.7z M1186.1,132.7c-12.1,0-22-10.3-22-23
	c0-12.7,9.8-23,22-23c12.1,0,22,10.3,22,23c0,0,0,0,0,0C1207.9,122.4,1198.1,132.6,1186.1,132.7L1186.1,132.7z"/>
<path d="M1186.4,14.3L1186.4,14.3c6.8,0.1,13.6,1,20.3,2.5v17c-6.7-1.9-13.5-2.9-20.4-2.9c-41.7,0-75.4,35.3-75.4,78.9
	c0,7.2,1,14.4,2.8,21.4h-16.3c-1.5-7-2.2-14.2-2.3-21.4C1095.2,57.1,1136,14.4,1186.4,14.3 M1185.8,51.4h0.2c7-0.1,14,1.2,20.6,3.9
	l-0.3,18.4c-6.1-3.8-13.1-5.9-20.3-5.8c-21.9-0.1-39.8,18.4-39.9,41.3c0,0.1,0,0.3,0,0.4c0,7.5,1.9,14.9,5.6,21.3l-17.6,0.3
	c-2.7-6.8-4-14.1-3.7-21.5c-0.3-32,24.3-58.1,54.9-58.4C1185.5,51.4,1185.7,51.4,1185.8,51.4 M1186.1,88.2
	c11.3,0,20.4,9.6,20.4,21.4c0,11.8-9.1,21.4-20.4,21.4c-11.3,0-20.4-9.6-20.4-21.4c0,0,0,0,0,0C1165.7,97.8,1174.8,88.3,1186.1,88.2
	 M1186.4,11.1L1186.4,11.1c-52.1,0-94.4,44.2-94.4,98.7c0.1,7.4,0.8,14.8,2.3,22.1l0.5,2.5h22.8l-1.3-4.1
	c-1.8-6.7-2.7-13.6-2.7-20.5c0.1-41.8,32.4-75.6,72.4-75.6c6.6,0,13.2,1,19.6,2.8l3.9,1.2V14.2l-2.4-0.6c-6.9-1.6-13.9-2.5-20.9-2.6
	L1186.4,11.1z M1185.8,48.2c-32.3,0-58.4,27.3-58.5,61.1c0,0.1,0,0.2,0,0.4c-0.2,7.8,1.1,15.5,4,22.7l0.8,2h2.1l17.6-0.3h5.3
	l-2.7-4.7c-8.5-15-6.3-34.2,5.4-46.7c6.9-7.3,16.4-11.4,26.2-11.4c6.6,0,13.1,1.8,18.7,5.4l4.5,2.8v-5.5l0.3-18.4v-2.2l-1.9-0.8
	c-6.9-2.9-14.3-4.3-21.7-4.1L1185.8,48.2z M1186.1,85.1L1186.1,85.1c-13,0-23.5,11-23.4,24.6c0,13.6,10.5,24.5,23.5,24.5
	c12.9,0,23.4-11,23.4-24.5C1209.6,96.1,1199.1,85.1,1186.1,85.1z"/>
<path class="st3" d="M1236.7,1260.1c-2.6-0.1-5.1-0.8-7.3-2.1l-62.3-32.5l-77.2,26.5c-14.2,4.8-29.4-3.2-34-18l-33.5-106.9
	c-4.6-14.8,3.1-30.7,17.2-35.6l168.5-57.7c14.2-4.8,29.4,3.2,34,18l33.5,106.9c4.6,14.8-3.1,30.7-17.2,35.6l-30.4,10.5l14.5,41.4
	c1.6,5,1.5,9-0.2,11.5C1240.9,1259.4,1238.8,1260.3,1236.7,1260.1z"/>
<path d="M1216.4,1034c11.1-0.1,20.9,7.3,24.4,18.3l33.5,106.9c4.3,14-2.9,29-16.3,33.6l-32.1,10.9l15.2,42.8c2.4,7.6,0.6,12-4.3,12
	c-2.3-0.1-4.6-0.8-6.7-1.9l-63.1-32.6l-77.7,26.6c-2.5,0.9-5.2,1.3-7.9,1.3c-11.1,0-20.9-7.4-24.4-18.3l-33.5-106.9
	c-4.3-14,3.1-29.1,16.5-33.6l168.5-57.7c2.5-0.9,5.2-1.3,7.9-1.3 M1216.5,1030.9L1216.5,1030.9c-3,0-6,0.5-8.8,1.5l-168.6,57.7
	c-15,5.1-23.1,21.9-18.3,37.6l33.5,106.9c4.9,15.7,21,24.2,36,19.1l76.5-26.2l61.7,32.1c2.5,1.4,5.2,2.1,8,2.3
	c2.6,0.1,5.1-1,6.7-3.2c1.4-2,2.6-5.9,0.5-12.7l-14-39.8l29-10c15-5.1,23.1-21.9,18.3-37.6l-33.5-106.9
	c-3.8-12.3-14.8-20.5-27.1-20.5L1216.5,1030.9z"/>
<path class="st1" d="M461.5,784.7c12.3-1.8,23.6,7.2,25.3,20.1l25.1,188.7c1.7,12.8-6.9,24.7-19.1,26.5c0,0,0,0,0,0l-77.6,11.3
	c-12.3,1.8-23.6-7.2-25.4-20c0,0,0,0,0,0l-25.1-188.7c-1.7-12.8,6.9-24.7,19.2-26.5c0,0,0,0,0,0L461.5,784.7z"/>
<path class="st10" d="M461.5,784.7c12.3-1.8,23.6,7.2,25.3,20.1l25.1,188.7c1.7,12.8-6.9,24.7-19.1,26.5c0,0,0,0,0,0l-77.6,11.3
	c-12.3,1.8-23.6-7.2-25.4-20c0,0,0,0,0,0l-25.1-188.7c-1.7-12.8,6.9-24.7,19.2-26.5c0,0,0,0,0,0L461.5,784.7z M494.5,972.5
	l-19.3-144.9l-93.5,13.6l19.3,144.9L494.5,972.5z M462.6,997.1c-0.9-7-7.1-11.9-13.9-11c-6.7,1-11.4,7.5-10.5,14.5
	c0.9,7,7.1,11.9,13.9,11C458.8,1010.7,463.5,1004.2,462.6,997.1z"/>
</svg>
