<svg id="Ebene_1" data-name="Ebene 1" xmlns="http://www.w3.org/2000/svg" viewBox="0 0 329.66 321.1"><defs><style>.cls-1{fill:#1a1b19;}.cls-2{fill:#fff;}.cls-3{fill:#5cccbb;}.cls-4{fill:none;}.cls-5{fill:#fce000;}.cls-6{fill:#6ed685;}.cls-7{fill:#b0da50;}</style></defs><title>kontakt-pfeile-rechts</title><path class="cls-1" d="M96.76,260.34l-6.42,2.19-2.19-6.43,6.42-2.19Zm0,0-6.42,2.19L92.53,269l6.41-2.2Zm2.19,6.42L92.53,269l2.19,6.42,6.42-2.19Zm2.19,6.43-6.42,2.19,2.19,6.42,6.43-2.2Zm2.2,6.42-6.43,2.2,2.2,6.42,6.42-2.2Zm2.19,6.42-6.42,2.2,2.19,6.43,6.42-2.2Zm2.18,6.43-6.42,2.2,2.19,6.42,6.43-2.2Zm2.2,6.42-6.43,2.2,2.19,6.43,6.42-2.19Zm2.19,6.43-6.42,2.19,2.19,6.42,6.42-2.19Zm2.18,6.42-6.42,2.19,2.19,6.42,6.43-2.19Zm2.2,6.42-6.43,2.19,2.2,6.42,6.41-2.2Zm2.19,6.41-6.41,2.2,2.19,6.42,6.42-2.2Zm2.2,6.42-6.42,2.2,2.19,6.42,6.43-2.2Zm2.19,6.42-6.43,2.2,2.2,6.42,6.42-2.2Zm2.19,6.42-6.42,2.2,2.18,6.41,6.43-2.19Zm2.19,6.42L121,352.44l2.2,6.43,6.42-2.2Zm2.19,6.42-6.42,2.2,2.19,6.41,6.42-2.19Zm6.42-2.19-6.42,2.19,2.19,6.42,6.43-2.18Zm4.23-8.61-6.42,2.2,2.19,6.42,6.43-2.2Zm4.23-8.61-6.42,2.18,2.19,6.43,6.42-2.19Zm4.23-8.62-6.42,2.19,2.19,6.42,6.42-2.19Zm8.62,4.23-6.42,2.2,2.19,6.42,6.42-2.19Zm2.18,6.43-6.42,2.19,2.19,6.42,6.42-2.19Zm8.62,4.24-6.42,2.19,2.19,6.42,6.43-2.19Zm2.2,6.41-6.43,2.19,2.2,6.43,6.42-2.2Zm8.62,4.23-6.42,2.19,2.19,6.42,6.42-2.19Zm6.42-2.19L179,354.17l2.19,6.42,6.43-2.19Zm4.22-8.61-6.42,2.19,2.2,6.42,6.42-2.19Zm-2.18-6.43-6.42,2.2,2.19,6.41,6.42-2.19Zm-8.62-4.23-6.42,2.19,2.19,6.42,6.43-2.19Zm-2.19-6.42-6.42,2.19,2.19,6.42,6.42-2.19ZM168,322.06l-6.42,2.19,2.19,6.42,6.42-2.19Zm-2.19-6.42-6.42,2.18,2.2,6.42,6.42-2.19Zm6.42-2.19-6.42,2.19,2.19,6.42,6.42-2.19Zm6.42-2.2-6.42,2.2,2.19,6.42,6.42-2.2Zm6.43-2.19-6.43,2.19,2.19,6.42,6.42-2.19Zm6.42-2.18-6.42,2.18,2.19,6.42,6.42-2.19Zm-2.19-6.42-6.42,2.19,2.19,6.42,6.42-2.18Zm-8.61-4.24-6.42,2.19,2.19,6.43,6.42-2.2ZM172.1,292l-6.42,2.19,2.18,6.42,6.43-2.2Zm-8.62-4.23-6.42,2.2,2.2,6.42,6.42-2.19Zm-8.61-4.23-6.42,2.19,2.19,6.42,6.42-2.19Zm-8.62-4.23-6.42,2.19,2.19,6.42,6.43-2.2Zm-8.61-4.23-6.42,2.19,2.19,6.41,6.42-2.18ZM129,270.84,122.6,273l2.19,6.42,6.42-2.19Zm-8.62-4.23L114,268.81l2.18,6.42L122.6,273Zm-8.6-4.23-6.43,2.19,2.19,6.42,6.43-2.19Zm-8.61-4.24-6.43,2.2,2.19,6.42,6.43-2.19Z" transform="translate(-88.15 -44.18)"/><polygon class="cls-2" points="10.8 222.58 17.22 220.39 19.41 226.81 25.84 224.62 28.02 231.04 34.45 228.85 36.65 235.27 43.07 233.08 45.26 239.49 51.68 237.31 53.87 243.73 60.3 241.54 62.49 247.96 68.91 245.77 71.11 252.19 77.53 250 79.71 256.42 86.14 254.22 88.33 260.65 94.75 258.46 96.95 264.88 71.25 273.64 75.64 286.49 82.06 284.3 86.44 297.15 92.87 294.96 97.25 307.8 84.41 312.18 80.02 299.34 73.6 301.53 69.22 288.68 62.8 290.88 60.6 284.45 54.18 286.64 56.37 293.07 49.95 295.25 52.14 301.68 45.72 303.88 47.91 310.3 41.49 312.49 10.8 222.58"/><path class="cls-1" d="M102.2,138.6l3.29,4.07L101.43,146l-3.3-4.07Zm0,0,3.29,4.07,4.07-3.29-3.29-4.07Zm4.07-3.29,3.29,4.07,4.07-3.29L110.33,132Zm4.06-3.28,3.29,4.06,4.07-3.28-3.29-4.07Zm4.07-3.29,3.29,4.07,4.07-3.29-3.3-4.07Zm4.06-3.29,3.3,4.07,4.07-3.29-3.29-4.06Zm4.08-3.29,3.29,4.06,4.06-3.29-3.3-4.06Zm4.06-3.29,3.3,4.06,4.06-3.28-3.29-4.07Zm4.07-3.29,3.29,4.07,4.07-3.29-3.29-4.06Zm4.07-3.28,3.29,4.06,4.06-3.28L138.8,109ZM138.8,109l3.29,4.07,4.07-3.3-3.29-4.06Zm4.07-3.29,3.29,4.06,4.07-3.29-3.3-4.06Zm4.07-3.29,3.3,4.06,4.07-3.29L151,99.13ZM151,99.13l3.3,4.07,4.06-3.29-3.29-4.07Zm4.07-3.29,3.29,4.07,4.06-3.28-3.28-4.07Zm4.07-3.29,3.28,4.07,4.08-3.3-3.29-4.07Zm4.07-3.29,3.29,4.07L170.55,90,167.26,86Zm-3.29-4.06,3.29,4.06L167.26,86,164,81.9Zm-7.36-.78,3.29,4.07,4.07-3.29-3.29-4.07Zm-7.35-.78,3.28,4.07,4.07-3.29-3.29-4.06Zm-7.36-.78,3.29,4.07,4.07-3.29-3.29-4.07Zm.77-7.35,3.3,4.06L146,76.29l-3.29-4.06Zm4.07-3.29L146,76.29,150,73l-3.28-4.06Zm.78-7.36,3.29,4.07,4.06-3.29-3.29-4.07Zm4.06-3.29,3.29,4.07,4.07-3.3-3.29-4.07Zm.78-7.35,3.3,4.06L155.67,55l-3.29-4.07ZM145,50.15l3.29,4.07,4.07-3.29-3.29-4.07Zm-7.35-.77L141,53.45l4.06-3.3-3.29-4.06Zm-4.08,3.28,3.3,4.07L141,53.45l-3.29-4.06ZM132.82,60l3.29,4.06,4.06-3.28-3.29-4.08Zm-4.07,3.28L132,67.38l4.07-3.29L132.82,60ZM128,70.67l3.29,4.06,4.07-3.29L132,67.38ZM123.92,74,127.2,78l4.07-3.3L128,70.67Zm-3.29-4.07L123.92,74,128,70.67l-3.28-4.07Zm-3.3-4.06,3.3,4.06,4.06-3.28-3.3-4.07ZM114,61.75l3.29,4.07,4.06-3.29-3.28-4.07Zm-3.29-4.06L114,61.75l4.07-3.29-3.28-4.06ZM106.69,61,110,65,114,61.75l-3.29-4.06Zm-.78,7.35,3.29,4.07,4.07-3.3L110,65Zm-.78,7.36,3.29,4.06,4.07-3.27-3.29-4.07Zm-.78,7.36,3.29,4.06,4.08-3.29-3.3-4.07Zm-.77,7.35,3.29,4.06,4.07-3.29-3.29-4.06Zm-.78,7.36,3.29,4.06,4.08-3.28-3.3-4.07Zm-.77,7.36,3.29,4.06,4.06-3.29-3.29-4.07Zm-.78,7.35,3.29,4.07,4.07-3.28-3.29-4.07Zm-.78,7.36,3.29,4.06,4.07-3.28-3.3-4.07Zm-.77,7.35,3.29,4.07L107,128l-3.29-4.07Zm-.79,7.35,3.3,4.07,4.07-3.29L103,131.25Z" transform="translate(-88.15 -44.18)"/><polygon class="cls-3" points="18.12 91.12 14.84 87.06 18.89 83.77 15.61 79.7 19.68 76.42 16.38 72.35 20.45 69.06 17.16 64.99 21.22 61.7 17.94 57.64 22.01 54.35 18.71 50.28 22.78 46.99 19.49 42.93 23.57 39.64 20.27 35.57 24.34 32.29 21.05 28.22 25.12 24.92 21.83 20.86 25.89 17.57 39.05 33.84 47.18 27.26 43.89 23.2 52.03 16.62 48.74 12.54 56.87 5.96 63.45 14.1 55.31 20.68 58.61 24.75 50.46 31.33 53.76 35.4 49.69 38.68 52.98 42.75 57.05 39.46 60.33 43.53 64.4 40.24 67.69 44.3 71.76 41.02 75.05 45.08 18.12 91.12"/><rect class="cls-4" x="130.7" y="161.5" width="80.18" height="52.14" transform="translate(-137 16.47) rotate(-17.66)"/><rect class="cls-4" x="131.27" y="162.41" width="79.05" height="50.33" transform="translate(-139.86 21.54) rotate(-18.98)"/><path class="cls-1" d="M138.24,199.55l-.08,3.77-3.78-.08.09-3.77Zm0,0-.08,3.77,3.77.08.08-3.77Zm3.77.08-.08,3.77,3.77.09.09-3.77Zm3.78.09-.09,3.77,3.77.08.09-3.78Zm3.78.08-.09,3.78,3.78.08.08-3.78Zm3.77.08-.08,3.78,3.77.08.08-3.77Zm3.78.08-.08,3.77,3.78.09.08-3.78Zm3.77.08-.08,3.78,3.78.08.08-3.77Zm3.78.09-.08,3.77,3.78.09.08-3.77Zm3.77.09-.08,3.77,3.77.09.09-3.78Zm3.78.08-.09,3.78,3.78.08.08-3.77Zm3.77.09-.08,3.77,3.77.09.08-3.78Zm3.77.08-.08,3.78,3.78.08.08-3.78Zm3.78.09-.08,3.78,3.78.07.08-3.77Zm3.78.08-.08,3.77,3.77.09.08-3.78Zm3.77.08-.08,3.78,3.78.08.08-3.77Zm3.78.09-.08,3.77,3.77.08.08-3.77Zm.08-3.77-.08,3.77,3.77.08.09-3.78Zm-3.69-3.86-.08,3.77,3.78.09.09-3.78Zm-3.69-3.86-.08,3.77,3.78.08.08-3.78Zm-3.69-3.86-.08,3.78,3.77.08.08-3.77Zm3.86-3.69-.09,3.78,3.78.08.09-3.77Zm3.78.08-.09,3.77,3.78.08.09-3.77Zm3.86-3.69-.08,3.77L199,182l.09-3.78Zm3.77.08L199,182l3.78.08.08-3.78Zm3.86-3.69-.08,3.77,3.78.09.09-3.78Zm.08-3.77-.08,3.77,3.78.08.08-3.77Zm-3.69-3.86-.08,3.77,3.78.08.09-3.78Zm-3.78-.08-.07,3.77,3.77.08.08-3.77Zm-3.85,3.69-.08,3.77,3.78.08.09-3.78Zm-3.77-.09-.08,3.77,3.77.09.08-3.77Zm-3.86,3.69L184,177.9l3.78.08.09-3.78Zm-3.77-.08-.09,3.77,3.78.08.08-3.77Zm.08-3.77-.08,3.77,3.77.08.08-3.77Zm.08-3.77-.08,3.77,3.78.08.09-3.78Zm.09-3.78-.09,3.78,3.78.08.08-3.77Zm.09-3.77-.09,3.77,3.77.08.08-3.77Zm-3.78-.09-.09,3.78,3.78.08.09-3.77Zm-3.86,3.7-.08,3.77,3.78.08.09-3.77Zm-3.85,3.69L169.1,170l3.77.09.08-3.78Zm-3.86,3.69-.08,3.77,3.78.08.08-3.77Zm-3.85,3.69-.09,3.78,3.78.08.08-3.77Zm-3.85,3.69-.09,3.78,3.78.09.08-3.78Zm-3.86,3.7-.08,3.77,3.77.08.08-3.77Zm-3.85,3.69-.08,3.77,3.77.08.08-3.77ZM146,188.4l-.08,3.77,3.77.09.09-3.78Zm-3.86,3.69-.08,3.77,3.78.09.09-3.78Zm-3.85,3.69-.09,3.78,3.77.08.08-3.77Z" transform="translate(-88.15 -44.18)"/><polygon class="cls-2" points="53.87 155.45 53.95 151.68 57.72 151.76 57.81 147.98 61.58 148.07 61.66 144.29 65.44 144.38 65.52 140.6 69.29 140.69 69.38 136.91 73.15 137 73.23 133.22 77.01 133.3 77.09 129.53 80.87 129.61 80.95 125.83 84.72 125.92 84.8 122.14 88.58 122.23 88.66 118.45 92.44 118.53 92.1 133.63 99.65 133.8 99.74 130.02 107.28 130.19 107.37 126.41 114.91 126.58 114.75 134.13 107.2 133.97 107.12 137.74 99.57 137.57 99.48 141.35 95.71 141.26 95.63 145.04 99.4 145.12 99.32 148.89 103.09 148.98 103.01 152.75 106.78 152.84 106.71 156.61 53.87 155.45"/><path class="cls-1" d="M228.85,176l-.16,3.58-3.57-.16.15-3.58Zm0,0-.16,3.58,3.58.15.15-3.58Zm3.58.15-.15,3.58,3.57.16.16-3.58Zm3.58.16-.16,3.58,3.57.15.16-3.58Zm3.58.15-.16,3.58,3.58.15.15-3.57Zm3.58.15-.15,3.57,3.57.15.15-3.57Zm3.57.15-.15,3.57,3.58.16.15-3.58Zm3.59.15-.15,3.58,3.58.15.15-3.58Zm3.57.16-.15,3.58,3.58.15.15-3.58Zm3.58.15-.15,3.58,3.58.15.15-3.58Zm3.58.15-.15,3.58,3.58.15.15-3.57Zm3.57.16-.15,3.57,3.58.16.15-3.58Zm3.58.15-.15,3.58,3.57.16.15-3.58Zm3.58.15-.15,3.58,3.58.15.15-3.58Zm3.58.15-.15,3.58,3.58.15.16-3.57Zm3.58.16-.16,3.57,3.58.16.15-3.58Zm3.57.15-.15,3.58,3.57.15.16-3.57Zm.15-3.58-.15,3.58,3.58.15.16-3.58ZM279.23,171l-.15,3.57,3.57.16.16-3.58Zm-3.42-3.74-.15,3.58,3.57.16.16-3.58Zm-3.43-3.73-.15,3.58,3.58.15.15-3.58Zm3.74-3.42-.16,3.58,3.57.16.16-3.57Zm3.57.16-.16,3.57,3.58.15.15-3.57Zm3.73-3.42-.16,3.58,3.58.15L287,157ZM287,157l-.16,3.58,3.58.16.16-3.59Zm3.73-3.42-.15,3.57,3.57.16.15-3.58Zm.16-3.58-.16,3.58,3.58.15.15-3.58Zm-3.43-3.73-.15,3.58,3.58.16.15-3.58Zm-3.58-.16-.15,3.59,3.58.15.15-3.58Zm-3.73,3.43L280,153.1l3.58.15.16-3.58Zm-3.57-.16-.15,3.58,3.57.16.16-3.58Zm-3.73,3.43-.15,3.57,3.58.15.15-3.57Zm-3.57-.16-.16,3.58,3.58.15.15-3.57Zm.15-3.58-.15,3.58,3.57.16.16-3.58Zm.15-3.57-.15,3.57,3.58.16.15-3.58Zm.16-3.58-.16,3.58,3.58.15.15-3.57Zm.16-3.57-.16,3.57,3.57.16.16-3.58Zm-3.57-.16-.16,3.58,3.58.15.16-3.57Zm-3.74,3.42-.15,3.58,3.58.15.16-3.58ZM258.85,145l-.15,3.57,3.57.16.16-3.58Zm-3.73,3.42L255,152l3.57.15.16-3.58Zm-3.73,3.43-.16,3.57,3.58.16L255,152Zm-3.73,3.42-.15,3.58,3.58.15.15-3.58Zm-3.73,3.42-.16,3.58,3.58.15.15-3.57Zm-3.73,3.42-.16,3.58,3.58.16.15-3.58Zm-3.73,3.43-.16,3.57,3.57.16.16-3.58ZM232.73,169l-.15,3.57,3.57.16.15-3.59ZM229,172.4l-.15,3.58,3.58.15.16-3.58Z" transform="translate(-88.15 -44.18)"/><polygon class="cls-2" points="144.27 131.94 144.43 128.37 148 128.53 148.15 124.94 151.73 125.1 151.89 121.52 155.47 121.68 155.62 118.1 159.2 118.25 159.35 114.68 162.93 114.83 163.08 111.25 166.66 111.41 166.82 107.83 170.39 107.98 170.55 104.4 174.12 104.56 174.28 100.98 177.85 101.14 178.01 97.56 181.59 97.71 180.97 112.03 188.13 112.33 188.28 108.76 195.43 109.07 195.59 105.49 202.75 105.8 202.44 112.95 195.28 112.64 195.12 116.22 187.97 115.91 187.81 119.49 184.23 119.33 184.08 122.91 187.66 123.07 187.5 126.64 191.08 126.8 190.93 130.37 194.5 130.53 194.35 134.11 144.27 131.94"/><rect class="cls-4" x="216.05" y="143.66" width="26.24" height="17.06" transform="translate(-133.75 121.5) rotate(-36.4)"/><rect class="cls-4" x="216.23" y="143.96" width="25.87" height="16.47" transform="translate(-133.37 127.82) rotate(-37.72)"/><path class="cls-1" d="M220.34,159.33l.37,1.18-1.18.37-.37-1.18Zm0,0,.37,1.18,1.18-.38-.37-1.18Zm1.18-.38.37,1.18,1.18-.37-.37-1.18Zm1.18-.37.37,1.18,1.17-.37-.37-1.18Zm1.18-.37.37,1.18,1.18-.38-.37-1.18Zm1.18-.37.37,1.18,1.18-.37-.37-1.18Zm1.18-.37.37,1.18,1.18-.37-.38-1.18Zm1.17-.37.38,1.18,1.18-.37-.37-1.18Zm1.18-.37.37,1.18,1.18-.37-.37-1.18Zm1.18-.37.37,1.18,1.18-.37-.37-1.18Zm1.18-.37.37,1.18,1.18-.38-.37-1.17Zm1.18-.37.37,1.17,1.18-.36-.37-1.18Zm1.18-.37.37,1.18,1.18-.37-.37-1.18Zm1.18-.37.37,1.18,1.18-.37-.37-1.18Zm1.18-.38.37,1.18,1.18-.37-.37-1.18Zm1.18-.37.37,1.18,1.18-.37-.37-1.18Zm1.18-.37.37,1.18,1.18-.38-.37-1.18Zm-.37-1.18.37,1.18,1.18-.38-.37-1.18Zm-1.55-.81.37,1.18,1.18-.37-.37-1.18Zm-1.55-.81.36,1.18,1.18-.37-.37-1.18Zm-1.55-.81.38,1.18,1.18-.37-.37-1.18Zm.81-1.55.37,1.18,1.18-.37-.37-1.18Zm1.18-.37.37,1.18,1.18-.37-.37-1.18Zm.81-1.55.37,1.18,1.18-.37-.37-1.18Zm1.18-.37.37,1.18,1.18-.37-.37-1.18Zm.81-1.55.37,1.18,1.18-.37L239,144.4Zm-.37-1.18.37,1.18,1.18-.38-.37-1.18Zm-1.55-.81.37,1.18,1.18-.37-.38-1.17Zm-1.17.37.36,1.18,1.18-.37-.37-1.18Zm-.81,1.55.37,1.18,1.18-.37-.37-1.18Zm-1.18.37.37,1.18,1.17-.37-.37-1.18Zm-.81,1.55.37,1.18,1.17-.37-.36-1.18Zm-1.17.37.37,1.18,1.18-.37-.37-1.18Zm-.37-1.18.37,1.18,1.17-.37-.37-1.18Zm-.37-1.17.37,1.17,1.18-.37-.37-1.18Zm-.37-1.18.37,1.18,1.18-.38-.37-1.18Zm-.37-1.17.37,1.17,1.18-.37-.37-1.18Zm-1.18.37.37,1.18,1.18-.37-.37-1.17Zm-.81,1.55.37,1.18,1.18-.37-.37-1.18Zm-.81,1.55.37,1.17,1.18-.36-.37-1.19Zm-.81,1.55.37,1.18,1.18-.37-.37-1.18Zm-.8,1.55.37,1.18,1.18-.37-.37-1.18ZM224,150.4l.37,1.18,1.18-.37-.37-1.18ZM223.2,152l.37,1.17,1.18-.37-.37-1.18Zm-.81,1.55.37,1.18,1.18-.37-.37-1.18Zm-.81,1.55.37,1.18,1.18-.37-.37-1.18Zm-.81,1.55.37,1.18,1.18-.37-.37-1.18Zm-.81,1.55.37,1.18,1.18-.38-.37-1.18Z" transform="translate(-88.15 -44.18)"/><polygon class="cls-5" points="133.37 114.77 133 113.59 134.17 113.22 133.8 112.05 134.98 111.67 134.61 110.5 135.79 110.13 135.42 108.95 136.59 108.58 136.22 107.4 137.4 107.03 137.03 105.85 138.21 105.48 137.84 104.3 139.01 103.93 138.64 102.75 139.82 102.38 139.45 101.2 140.63 100.83 140.26 99.65 141.44 99.28 142.92 103.99 145.27 103.25 144.91 102.07 147.26 101.33 146.89 100.15 149.25 99.41 149.99 101.77 147.64 102.51 148.01 103.69 145.65 104.43 146.02 105.6 144.84 105.97 145.22 107.15 146.39 106.78 146.76 107.96 147.94 107.59 148.31 108.77 149.49 108.4 149.86 109.58 133.37 114.77"/><rect class="cls-4" x="173.82" y="115.2" width="27.81" height="18.08" transform="translate(-124.73 99.19) rotate(-38.37)"/><polygon class="cls-4" points="94.6 95.53 115.69 78.02 104.55 64.58 83.44 82.1 94.6 95.53"/><path class="cls-1" d="M178.63,132.12l.44,1.23-1.23.44-.43-1.23Zm0,0,.44,1.23,1.23-.43-.44-1.23Zm1.23-.44.44,1.23,1.24-.44-.44-1.23Zm1.24-.44.44,1.23,1.23-.43-.43-1.24Zm1.23-.44.43,1.24,1.24-.44-.44-1.24Zm1.23-.44.44,1.24,1.23-.44-.43-1.23Zm1.23-.43.43,1.23,1.24-.43-.44-1.24Zm1.23-.43.44,1.24,1.23-.44-.44-1.23Zm1.23-.44.44,1.23,1.24-.43-.44-1.24Zm1.24-.44.44,1.24,1.23-.44-.43-1.24Zm1.24-.44.43,1.24,1.24-.44-.44-1.23Zm1.23-.43.44,1.23,1.23-.44-.44-1.23Zm1.23-.44.44,1.23,1.23-.43-.44-1.24Zm1.24-.44.44,1.24,1.23-.44-.43-1.24Zm1.24-.43.43,1.24,1.24-.44-.43-1.24Zm1.23-.44.43,1.24,1.23-.44-.43-1.24Zm1.23-.43.43,1.24,1.23-.44-.43-1.24Zm-.44-1.23.44,1.23,1.24-.44-.44-1.23Zm-1.67-.79.43,1.23,1.24-.43-.44-1.23Zm-1.67-.8.43,1.23,1.24-.43-.44-1.24Zm-1.67-.8.44,1.23,1.23-.43-.43-1.24Zm.8-1.67.43,1.24,1.23-.44-.43-1.23Zm1.23-.43.43,1.23,1.24-.43-.44-1.23Zm.8-1.68.43,1.24,1.24-.44-.44-1.24Zm1.23-.44.44,1.24,1.23-.44L197,117.3Zm.8-1.67.44,1.23,1.23-.43-.44-1.24Zm-.44-1.24.44,1.24,1.23-.44-.43-1.23Zm-1.67-.79.44,1.23,1.23-.44-.44-1.23Zm-1.24.43.44,1.24,1.24-.44-.44-1.23Zm-.8,1.67.44,1.23,1.24-.43-.44-1.24Zm-1.23.43.44,1.24,1.23-.44-.44-1.23Zm-.8,1.68.44,1.23,1.24-.44-.44-1.23Zm-1.23.43.43,1.24,1.24-.44-.44-1.23Zm-.44-1.24.44,1.24,1.23-.43L190,117Zm-.44-1.23.44,1.23L190,117l-.44-1.24Zm-.43-1.24.43,1.24,1.23-.44-.44-1.23Zm-.44-1.23.44,1.23,1.23-.44-.43-1.24Zm-1.24.43.44,1.24,1.24-.44-.44-1.23Zm-.8,1.68.44,1.23,1.24-.43-.44-1.24Zm-.8,1.67.43,1.23,1.23-.43-.44-1.24Zm-.8,1.67.44,1.23,1.23-.44-.43-1.23Zm-.8,1.67.44,1.24,1.23-.44-.44-1.23Zm-.8,1.67.44,1.23,1.24-.43-.44-1.23Zm-.8,1.67.43,1.23,1.24-.43-.44-1.24Zm-.8,1.67.43,1.24,1.24-.44-.44-1.24Zm-.8,1.67.43,1.23,1.24-.44-.44-1.23Zm-.8,1.67.44,1.23,1.23-.43-.44-1.24Zm-.8,1.67.44,1.24,1.23-.44-.43-1.24Z" transform="translate(-88.15 -44.18)"/><polygon class="cls-2" points="91.71 87.5 91.28 86.27 92.51 85.84 92.07 84.6 93.31 84.16 92.88 82.93 94.11 82.49 93.67 81.25 94.91 80.82 94.47 79.58 95.71 79.15 95.27 77.91 96.51 77.47 96.07 76.24 97.3 75.8 96.87 74.57 98.1 74.14 97.66 72.9 98.9 72.46 98.46 71.23 99.7 70.79 101.44 75.73 103.92 74.86 103.48 73.63 105.95 72.75 105.51 71.52 107.98 70.64 108.85 73.11 106.39 73.99 106.82 75.22 104.36 76.09 104.79 77.33 103.55 77.77 103.99 79 105.22 78.57 105.66 79.8 106.89 79.37 107.33 80.59 108.56 80.16 109 81.39 91.71 87.5"/><rect class="cls-4" x="341.08" y="159.86" width="69.99" height="45.5" transform="translate(-127.1 188.8) rotate(-32.82)"/><rect class="cls-4" x="341.57" y="160.64" width="68.99" height="43.93" transform="matrix(0.83, -0.56, 0.56, 0.83, -125.83, 198.34)"/><path class="cls-1" d="M351.39,200.13l.79,3.2-3.2.79-.79-3.19Zm0,0,.79,3.2,3.2-.8-.79-3.2Zm3.2-.8.79,3.2,3.2-.79-.79-3.19Zm3.2-.78.79,3.19,3.19-.79-.79-3.2Zm3.2-.8.79,3.2,3.2-.8-.79-3.2Zm3.19-.8.79,3.2,3.19-.79-.79-3.19Zm3.2-.79.79,3.19,3.2-.79-.79-3.2Zm3.2-.79.79,3.2,3.2-.79-.79-3.2Zm3.2-.79.79,3.2,3.2-.8-.79-3.2Zm3.2-.79.79,3.2,3.19-.79-.79-3.2Zm3.2-.79.79,3.2,3.2-.8-.8-3.19Zm3.2-.79.8,3.19,3.2-.79-.79-3.2Zm3.2-.8.79,3.2,3.2-.79-.8-3.2Zm3.19-.79.8,3.2,3.19-.8-.79-3.19Zm3.2-.79.79,3.19,3.2-.79-.79-3.2Zm3.2-.79.79,3.2,3.2-.79-.79-3.2Zm3.2-.79.79,3.2,3.19-.8-.79-3.19Zm-.79-3.2.79,3.2,3.2-.79-.79-3.2Zm-4-2.41.79,3.19,3.2-.79-.79-3.2Zm-4-2.41.79,3.2,3.21-.8-.79-3.2Zm-4-2.41.79,3.2,3.19-.8-.79-3.2Zm2.41-4,.79,3.2,3.19-.79-.79-3.2Zm3.2-.79.79,3.2,3.2-.79-.79-3.2Zm2.41-4,.79,3.2,3.2-.79-.79-3.2Zm3.19-.79.79,3.2,3.2-.79-.79-3.2Zm2.41-4,.79,3.2,3.2-.79-.79-3.2Zm-.79-3.2.79,3.2,3.2-.79-.79-3.2Zm-4-2.4.79,3.19,3.2-.79-.79-3.2Zm-3.2.79.8,3.2,3.2-.8-.79-3.19Zm-2.41,4,.79,3.2,3.2-.79-.79-3.2Zm-3.19.79.79,3.19,3.19-.79-.79-3.2Zm-2.41,4,.79,3.19,3.2-.79-.79-3.2ZM381,169l.79,3.21,3.19-.8-.79-3.19Zm-.79-3.19L381,169l3.2-.79-.79-3.2Zm-.79-3.2.79,3.2,3.2-.79-.79-3.2Zm-.79-3.2.79,3.2,3.2-.79-.79-3.2Zm-.79-3.2.79,3.2,3.2-.79-.79-3.2Zm-3.2.79.79,3.2,3.2-.79-.79-3.2Zm-2.41,4,.79,3.19,3.2-.79-.79-3.19Zm-2.4,4,.79,3.19,3.2-.79-.79-3.2Zm-2.41,4,.8,3.2,3.2-.8-.79-3.2ZM365,173l.79,3.19,3.2-.79-.79-3.2Zm-2.41,4,.8,3.2,3.2-.79-.79-3.2Zm-2.4,4,.79,3.19,3.2-.79-.79-3.19Zm-2.41,4,.79,3.2,3.2-.8-.79-3.2Zm-2.41,4,.79,3.19,3.2-.79-.79-3.2Zm-2.41,4,.8,3.2,3.2-.79-.79-3.21Zm-2.41,4,.8,3.2,3.2-.8-.79-3.19Z" transform="translate(-88.15 -44.18)"/><polygon class="cls-2" points="266.43 155.15 265.64 151.96 268.84 151.17 268.04 147.96 271.24 147.18 270.45 143.98 273.65 143.18 272.86 139.98 276.06 139.19 275.26 136 278.46 135.2 277.67 132 280.87 131.21 280.08 128.02 283.27 127.22 282.48 124.02 285.68 123.23 284.89 120.03 288.09 119.24 287.29 116.05 290.49 115.25 293.66 128.05 300.06 126.46 299.27 123.26 305.66 121.68 304.87 118.48 311.27 116.9 312.85 123.29 306.46 124.88 307.24 128.07 300.85 129.66 301.64 132.86 298.44 133.65 299.24 136.85 302.43 136.06 303.22 139.26 306.43 138.46 307.22 141.66 310.41 140.87 311.21 144.07 266.43 155.15"/><rect class="cls-4" x="219.02" y="203.57" width="45.87" height="29.83" transform="translate(-150.35 56.95) rotate(-20.98)"/><rect class="cls-4" x="219.35" y="204.08" width="45.22" height="28.79" transform="translate(-152.97 63.99) rotate(-22.3)"/><path class="cls-1" d="M223.77,226.4l.08,2.16-2.16.08-.08-2.16Zm0,0,.08,2.16,2.16-.08-.08-2.16Zm2.16-.08.08,2.16,2.16-.07-.08-2.16Zm2.16-.07.08,2.16,2.15-.08-.08-2.16Zm2.16-.08.08,2.16,2.16-.08-.08-2.16Zm2.16-.08.08,2.16,2.16-.08-.08-2.16Zm2.15-.08.08,2.16,2.16-.07-.08-2.16Zm2.16-.08.08,2.16,2.15-.08-.08-2.16Zm2.16-.08.08,2.16,2.16-.07-.08-2.16Zm2.16-.08.08,2.16,2.16-.08-.08-2.16Zm2.15-.08.08,2.16,2.16-.08-.08-2.16Zm2.16-.08.08,2.16,2.16-.07-.08-2.16Zm2.16-.07.08,2.16,2.15-.08-.08-2.16Zm2.16-.07.08,2.16,2.16-.08-.08-2.16Zm2.15-.08.08,2.16,2.15-.07-.08-2.16Zm2.16-.08.08,2.16,2.16-.09-.08-2.15Zm2.16-.07.08,2.15,2.15-.08-.08-2.16Zm-.08-2.16.08,2.16,2.15-.08-.08-2.16ZM253.83,221l.08,2.15,2.16-.08-.08-2.16Zm-2.24-2.08.08,2.16,2.17-.08-.08-2.16Zm-2.24-2.08.08,2.16,2.15-.08-.08-2.16Zm2.08-2.24.08,2.15,2.16-.08-.07-2.15Zm2.16-.07.07,2.15,2.16-.08-.08-2.16Zm2.08-2.24.07,2.16,2.16-.07-.08-2.16Zm2.15-.08.08,2.16,2.16-.08-.08-2.16Zm2.08-2.24.08,2.16,2.16-.08-.08-2.15Zm-.07-2.16.07,2.16,2.16-.07-.09-2.16Zm-2.24-2.08.08,2.16,2.16-.08-.08-2.16Zm-2.16.08.08,2.16,2.16-.08-.08-2.16ZM253.35,208l.08,2.16,2.16-.07-.08-2.16Zm-2.15.08.08,2.16,2.15-.08-.08-2.16Zm-2.08,2.24.08,2.16,2.16-.08-.08-2.16Zm-2.16.08.08,2.16,2.16-.08-.08-2.16Zm-.08-2.16.08,2.16,2.16-.08L249,208.2Zm-.08-2.16.08,2.16,2.16-.08L249,206Zm-.07-2.16.07,2.16L249,206l-.08-2.15Zm-.08-2.16.08,2.16,2.15-.07-.08-2.16Zm-2.15.08.08,2.16,2.16-.08-.08-2.16Zm-2.09,2.24.08,2.15,2.16-.08-.08-2.16Zm-2.08,2.23.08,2.16,2.16-.08-.08-2.16Zm-2.08,2.24.08,2.15,2.16-.08-.08-2.16Zm-2.08,2.23.08,2.16,2.16-.08-.08-2.16Zm-2.08,2.24.08,2.16,2.16-.08-.08-2.16ZM232,215.3l.08,2.15,2.16-.08-.08-2.16Zm-2.08,2.24.08,2.16,2.16-.08-.08-2.16Zm-2.08,2.24.08,2.16,2.16-.08-.08-2.15ZM225.77,222l.08,2.16,2.16-.08-.08-2.16Zm-2.08,2.23.08,2.16,2.16-.08-.08-2.15Z" transform="translate(-88.15 -44.18)"/><polygon class="cls-2" points="137.77 182.13 137.7 179.98 139.85 179.91 139.77 177.74 141.93 177.66 141.85 175.51 144.01 175.43 143.94 173.27 146.1 173.19 146.02 171.03 148.18 170.96 148.09 168.8 150.25 168.72 150.18 166.56 152.33 166.48 152.26 164.32 154.41 164.25 154.33 162.09 156.49 162.01 156.42 159.85 158.58 159.77 158.89 168.41 163.21 168.25 163.12 166.09 167.44 165.94 167.36 163.78 171.68 163.62 171.84 167.94 167.52 168.1 167.59 170.25 163.28 170.41 163.36 172.57 161.2 172.65 161.28 174.81 163.44 174.72 163.51 176.89 165.68 176.81 165.75 178.96 167.91 178.89 167.99 181.05 137.77 182.13"/><rect class="cls-4" x="296.33" y="179.68" width="34.91" height="22.7" transform="translate(-135.75 80.85) rotate(-20.98)"/><rect class="cls-4" x="296.58" y="180.08" width="34.42" height="21.92" transform="translate(-137.17 89.18) rotate(-22.3)"/><path class="cls-1" d="M299.94,197.06l.06,1.65-1.64.05-.06-1.64Zm0,0,.06,1.65,1.65-.06-.06-1.64Zm1.64-.06.06,1.64,1.64-.06-.06-1.64Zm1.64-.06.06,1.64,1.65-.06-.06-1.65Zm1.64-.06.06,1.65,1.65-.06-.06-1.64Zm1.64-.06.06,1.64,1.64-.06-.06-1.64Zm1.64-.06.06,1.64,1.64-.06-.06-1.65Zm1.64-.06.06,1.65,1.64-.06-.06-1.64Zm1.64-.06.06,1.64,1.64-.06-.06-1.64Zm1.64-.06.06,1.64,1.64-.06-.06-1.64Zm1.64-.05.06,1.64,1.65-.06-.06-1.65Zm1.65-.07.06,1.65,1.64-.06-.06-1.64Zm1.64-.06.06,1.64,1.64-.06-.05-1.64Zm1.65-.06.05,1.64,1.65-.06-.06-1.64Zm1.64-.06.06,1.64,1.64-.06-.05-1.64Zm1.64-.06.05,1.64,1.65-.06-.06-1.64Zm1.64-.06.06,1.64,1.64-.06-.06-1.64Zm-.06-1.64.06,1.64,1.64-.06-.06-1.65Zm-1.7-1.58.06,1.64,1.64-.06-.06-1.65Zm-1.7-1.59.06,1.64,1.64-.06-.06-1.65Zm-1.7-1.58.06,1.64,1.64-.06-.06-1.64Zm1.58-1.7.06,1.64,1.64-.06-.06-1.64Zm1.64-.06.06,1.64,1.64-.06-.06-1.64Zm1.59-1.7.06,1.64,1.65-.06-.06-1.64Zm1.64-.06.06,1.64,1.64-.06-.06-1.65Zm1.59-1.7.06,1.64,1.64-.06-.06-1.64Zm-.06-1.65.06,1.65,1.64-.06-.06-1.64Zm-1.7-1.58.06,1.65,1.64-.06-.06-1.64Zm-1.64.06.06,1.64,1.64-.06-.06-1.65Zm-1.58,1.7.06,1.65,1.65-.06L324.1,183Zm-1.64.06.06,1.64,1.64-.06-.06-1.65Zm-1.58,1.7.06,1.65,1.65-.06-.06-1.64Zm-1.64.07.06,1.64,1.65-.06-.06-1.65Zm-.06-1.65.06,1.65,1.64-.07-.06-1.64Zm-.06-1.64.06,1.64,1.64-.06-.06-1.64Zm-.06-1.64.06,1.64,1.64-.06-.06-1.64Zm-.06-1.64.06,1.64,1.64-.06-.06-1.64Zm-1.64.06.06,1.64,1.64-.06-.06-1.64Zm-1.59,1.7.06,1.64,1.64-.06-.06-1.65Zm-1.58,1.7.06,1.64,1.64-.06-.06-1.64Zm-1.58,1.7.06,1.64,1.64-.06-.05-1.64Zm-1.59,1.7.06,1.64,1.65-.06-.06-1.64Zm-1.58,1.7.06,1.64,1.64-.06-.06-1.65Zm-1.58,1.7.06,1.64,1.64-.06-.06-1.64Zm-1.58,1.7.06,1.64,1.65-.06-.06-1.64ZM303,192l.06,1.64,1.64-.06-.06-1.65Zm-1.59,1.7.06,1.64,1.64-.06-.06-1.64Zm-1.58,1.7.06,1.64,1.64-.06-.06-1.64Z" transform="translate(-88.15 -44.18)"/><polygon class="cls-6" points="213.43 152.82 213.37 151.17 215.01 151.12 214.96 149.47 216.59 149.42 216.54 147.77 218.18 147.71 218.12 146.07 219.76 146.01 219.7 144.37 221.35 144.31 221.28 142.66 222.93 142.6 222.87 140.96 224.51 140.9 224.46 139.26 226.09 139.2 226.03 137.56 227.68 137.5 227.62 135.86 229.26 135.8 229.5 142.37 232.79 142.25 232.72 140.61 236.01 140.49 235.95 138.85 239.23 138.72 239.35 142.01 236.07 142.13 236.13 143.78 232.84 143.9 232.9 145.53 231.26 145.59 231.32 147.23 232.96 147.18 233.02 148.82 234.66 148.76 234.72 150.4 236.36 150.34 236.43 151.99 213.43 152.82"/><rect class="cls-4" x="126.24" y="216.36" width="34.48" height="53.04" transform="translate(-226.59 208.7) rotate(-61.46)"/><rect class="cls-4" x="126.83" y="216.74" width="33.3" height="52.29" transform="translate(-226.29 215.16) rotate(-62.77)"/><path class="cls-1" d="M122.86,232.82,121,234.51l-1.69-1.84,1.84-1.69Zm0,0L121,234.51l1.69,1.84,1.84-1.69Zm1.69,1.84-1.84,1.69,1.69,1.84,1.84-1.69Zm1.69,1.84-1.84,1.69,1.69,1.84,1.84-1.69Zm1.69,1.84L126.08,240l1.69,1.84,1.84-1.69Zm1.69,1.84-1.84,1.69,1.69,1.84L131.3,242ZM131.3,242l-1.84,1.68,1.68,1.84,1.85-1.69Zm1.69,1.84-1.85,1.69,1.7,1.84,1.83-1.69Zm1.68,1.84-1.83,1.69,1.69,1.84,1.84-1.69Zm1.69,1.84-1.84,1.69,1.68,1.84,1.84-1.69Zm1.68,1.84-1.84,1.69,1.69,1.84,1.84-1.69Zm1.69,1.84-1.84,1.69,1.68,1.84,1.84-1.7Zm1.68,1.84-1.84,1.7,1.68,1.84,1.84-1.69Zm1.69,1.85-1.84,1.69,1.69,1.84,1.83-1.69Zm1.68,1.84L143,258.43l1.69,1.84,1.84-1.68Zm1.69,1.84-1.84,1.68,1.69,1.84,1.84-1.69Zm1.69,1.84-1.84,1.69,1.69,1.84,1.84-1.68Zm1.84-1.69-1.84,1.69,1.69,1.84,1.84-1.69Zm.15-3.52-1.83,1.69,1.68,1.84,1.84-1.69Zm.15-3.53-1.84,1.69,1.69,1.84,1.84-1.69Zm.15-3.53-1.84,1.69,1.69,1.84,1.84-1.69Zm3.53.15L152.17,250l1.69,1.84,1.84-1.69Zm1.69,1.84-1.84,1.69,1.69,1.84,1.84-1.69Zm3.52.15L157.38,252l1.69,1.84,1.84-1.69Zm1.69,1.83-1.84,1.69,1.69,1.84L162.6,254Zm3.53.16L162.6,254l1.69,1.84,1.84-1.69Zm1.83-1.69-1.83,1.69,1.69,1.84,1.84-1.69Zm.15-3.53-1.84,1.69,1.68,1.84,1.84-1.69Zm-1.68-1.84-1.84,1.69,1.69,1.84,1.84-1.69Zm-3.53-.15-1.84,1.69,1.68,1.84,1.84-1.69Zm-1.69-1.84-1.83,1.69,1.68,1.84,1.84-1.69Zm-3.53-.15-1.84,1.69,1.69,1.84,1.84-1.69Zm-1.69-1.84-1.84,1.69,1.69,1.84,1.84-1.69Zm1.84-1.69-1.84,1.69,1.69,1.84,1.84-1.69Zm1.84-1.69-1.84,1.69,1.69,1.84,1.84-1.69Zm1.84-1.69L158,237.86l1.69,1.84,1.84-1.69Zm1.84-1.69-1.84,1.69,1.69,1.84,1.84-1.69ZM160,232.65l-1.84,1.69,1.69,1.84,1.84-1.69Zm-3.53-.16-1.84,1.69L156.3,236l1.84-1.69Zm-3.53-.15L151.08,234l1.69,1.84,1.84-1.69Zm-3.53-.15-1.84,1.69,1.69,1.84,1.84-1.69Zm-3.53-.15L144,233.73l1.7,1.84,1.83-1.69Zm-3.53-.15-1.84,1.69,1.68,1.84,1.84-1.69Zm-3.53-.15L137,233.43l1.69,1.84,1.84-1.69Zm-3.53-.15-1.83,1.69,1.68,1.84,1.84-1.69Zm-3.53-.15-1.83,1.68L131.6,235l1.84-1.69Zm-3.52-.16L126.39,233l1.68,1.84,1.84-1.69Zm-3.53-.15-1.84,1.69,1.69,1.84,1.84-1.69Z" transform="translate(-88.15 -44.18)"/><polygon class="cls-7" points="36.4 190.48 38.24 188.79 39.92 190.63 41.77 188.94 43.45 190.78 45.29 189.09 46.98 190.93 48.82 189.24 50.51 191.09 52.35 189.4 54.03 191.23 55.87 189.55 57.57 191.39 59.4 189.7 61.09 191.54 62.93 189.85 64.62 191.69 66.46 190 68.15 191.84 69.99 190.15 71.68 191.99 64.31 198.74 67.69 202.42 69.54 200.74 72.91 204.41 74.75 202.72 78.12 206.41 74.45 209.78 71.07 206.11 69.23 207.79 65.85 204.11 64.01 205.8 62.33 203.96 60.48 205.65 62.17 207.49 60.33 209.18 62.02 211.02 60.19 212.71 61.87 214.54 60.03 216.24 36.4 190.48"/><polygon class="cls-4" points="46.84 86.85 21.12 108.66 35.3 125.39 61.03 103.57 46.84 86.85"/><rect class="cls-4" x="112.6" y="139.72" width="33.25" height="21.17" transform="translate(-155.36 79.6) rotate(-41.62)"/><path class="cls-1" d="M118.53,160.22l.58,1.48-1.48.58-.58-1.48Zm0,0,.58,1.48,1.48-.58-.58-1.48Zm1.48-.58.58,1.48,1.48-.57-.58-1.48Zm1.48-.57.58,1.48,1.48-.58-.58-1.48Zm1.48-.58.58,1.48,1.48-.58-.58-1.48Zm1.48-.58.58,1.48,1.48-.58-.58-1.48Zm1.48-.58.58,1.48,1.48-.58-.58-1.48Zm1.48-.58.58,1.48,1.48-.58-.58-1.48Zm1.48-.58.58,1.48,1.48-.58-.57-1.48Zm1.48-.58.57,1.48,1.48-.58-.58-1.48Zm1.48-.58.58,1.48,1.48-.58-.58-1.48Zm1.48-.58.58,1.48,1.48-.58-.58-1.48Zm1.48-.58.58,1.48,1.48-.58-.58-1.48Zm1.48-.58.58,1.48,1.48-.58-.58-1.48Zm1.48-.58.58,1.48,1.48-.58-.58-1.48Zm1.48-.58.58,1.48,1.48-.58-.58-1.48Zm1.48-.58.58,1.48,1.48-.58-.58-1.47Zm-.58-1.48.58,1.48,1.48-.58-.58-1.48Zm-2.06-.9.58,1.47,1.48-.57-.58-1.48Zm-2.06-.9.58,1.48,1.48-.58-.58-1.48Zm-2.06-.9.59,1.48,1.47-.58-.58-1.48Zm.9-2.06.58,1.48,1.48-.58-.58-1.47Zm1.48-.58.58,1.47,1.48-.58-.58-1.48Zm.9-2.06.58,1.48,1.48-.58-.58-1.48Zm1.48-.58.58,1.48,1.48-.58-.58-1.48Zm.9-2.06.58,1.48,1.48-.58-.58-1.48Zm-.58-1.48.58,1.48,1.48-.58-.58-1.48Zm-2.05-.9.57,1.48,1.48-.58-.58-1.47Zm-1.48.58.57,1.48,1.48-.58-.57-1.48Zm-.91,2.06.58,1.48,1.48-.58-.58-1.48Zm-1.47.58.58,1.48,1.48-.58-.58-1.48Zm-.9,2.06.58,1.48,1.48-.58-.57-1.48Zm-1.48.58.58,1.48,1.47-.58-.58-1.48Zm-.58-1.48.58,1.48,1.48-.58-.58-1.48Zm-.58-1.48.58,1.48,1.48-.58-.58-1.48Zm-.58-1.48.58,1.48,1.48-.58-.58-1.48Zm-.58-1.48.58,1.48,1.48-.58L129.9,137Zm-1.48.58.58,1.48,1.48-.58-.58-1.48Zm-.9,2.06.58,1.48,1.48-.58-.58-1.48Zm-.9,2.06.58,1.48,1.48-.58-.58-1.48Zm-.9,2.06.58,1.48,1.48-.58-.58-1.48Zm-.9,2.06.58,1.48,1.48-.58-.58-1.48Zm-.9,2.05.58,1.48,1.48-.58-.58-1.48Zm-.9,2.06.58,1.48,1.48-.58-.58-1.48Zm-.9,2.06.58,1.48,1.48-.58-.58-1.48Zm-.9,2.06.58,1.48,1.48-.57-.58-1.49Zm-.9,2.06.58,1.48,1.48-.57-.58-1.48Zm-.9,2.06.58,1.48,1.48-.58-.58-1.48Z" transform="translate(-88.15 -44.18)"/><polygon class="cls-2" points="31.86 115.45 31.28 113.98 32.75 113.41 32.17 111.92 33.65 111.35 33.08 109.86 34.55 109.29 33.98 107.81 35.45 107.23 34.88 105.75 36.35 105.17 35.77 103.69 37.25 103.11 36.67 101.64 38.15 101.06 37.57 99.58 39.05 99 38.47 97.52 39.95 96.94 39.37 95.46 40.85 94.88 43.17 100.8 46.12 99.64 45.55 98.16 48.5 97 47.92 95.52 50.88 94.36 52.04 97.33 49.08 98.48 49.66 99.96 46.7 101.12 47.28 102.6 45.8 103.17 46.39 104.66 47.86 104.08 48.44 105.55 49.92 104.98 50.5 106.45 51.98 105.88 52.56 107.35 31.86 115.45"/><path class="cls-2" d="M257,44.19a7.38,7.38,0,0,1,7.63,7.12l2.08,59.8a7.38,7.38,0,0,1-7.12,7.64l-25.73.89a7.38,7.38,0,0,1-7.64-7.12l-2.08-59.81a7.38,7.38,0,0,1,7.12-7.63Z" transform="translate(-88.15 -44.18)"/></svg>