<svg id="Ebene_2" data-name="Ebene 2" xmlns="http://www.w3.org/2000/svg" viewBox="0 0 252.43 205.64"><defs><style>.cls-1{fill:none;}.cls-2{fill:#1a1b19;}.cls-3{fill:#fff;}.cls-4{fill:#5dc3d7;}.cls-5{fill:#fce000;}</style></defs><title>kontakt-pfeile-links</title><polygon class="cls-1" points="108.29 72.86 160.85 84.45 153.32 118.63 100.75 107.05 108.29 72.86"/><rect class="cls-1" x="176.63" y="119.89" width="33.79" height="53.06" transform="translate(-57.4 248.95) rotate(-76.26)"/><path class="cls-2" d="M218.53,152.15l.29,2.52-2.52.29-.28-2.52Zm-5,.58.28,2.52,2.52-.28-.28-2.52ZM211,153l.29,2.53,2.51-.29-.28-2.52Zm-2.52.28.29,2.52,2.52-.28L211,153Zm-2.52.29.28,2.52,2.52-.28-.29-2.52Zm-2.51.29.29,2.51,2.51-.28-.28-2.52Zm-2.52.28.28,2.52,2.52-.29-.29-2.51Zm-2.52.29.28,2.52,2.52-.29-.28-2.52Zm-2.52.29.29,2.51,2.52-.28-.28-2.52Zm-2.52.28.29,2.52,2.51-.29-.29-2.51Zm-2.52.28.28,2.52,2.52-.29-.29-2.52Zm-2.52.29.29,2.52,2.51-.29-.28-2.52Zm-2.52.29.28,2.52,2.52-.29-.29-2.52Zm-2.52.28.28,2.52,2.52-.28-.28-2.52Zm-2.52.29.29,2.52,2.51-.29-.28-2.52Zm-2.52.29.29,2.52,2.52-.29-.29-2.52Zm-2.52.29.29,2.51,2.52-.28-.29-2.52Zm-.29-2.52.29,2.52,2.52-.29-.29-2.51Zm2.24-2.8.28,2.52,2.52-.29-.29-2.51Zm2.22-2.8.29,2.52,2.52-.29-.29-2.52Zm2.23-2.8.29,2.52,2.52-.28-.28-2.52Zm-2.8-2.23.29,2.52,2.51-.29-.28-2.52Zm-2.51.29.28,2.51,2.52-.28-.29-2.52ZM174,141.91l.29,2.51,2.52-.28-.29-2.52Zm-2.52.28.29,2.52,2.52-.29-.29-2.51ZM168.69,140l.29,2.52,2.52-.29-.28-2.52Zm-.28-2.52.28,2.52,2.52-.29-.29-2.51Zm2.23-2.8.29,2.52,2.52-.29-.29-2.52Zm2.52-.29.29,2.52,2.51-.29-.29-2.52Zm2.81,2.24.29,2.52,2.52-.29-.29-2.52Zm2.52-.29.29,2.52,2.51-.29L181,136Zm2.8,2.24.29,2.52,2.52-.29-.28-2.51Zm2.52-.28.28,2.51,2.52-.28-.29-2.51Zm-.28-2.52.28,2.52,2.52-.28-.29-2.52Zm-.29-2.52.29,2.52,2.51-.29-.28-2.52Zm-.28-2.52.28,2.52,2.52-.29-.29-2.52Zm-.29-2.51.29,2.51,2.51-.29-.29-2.52Zm2.52-.29.29,2.52,2.52-.29-.29-2.52Zm2.8,2.23.29,2.52,2.52-.29-.29-2.52Zm2.81,2.23.29,2.52,2.51-.29-.28-2.52Zm2.8,2.23.28,2.52,2.52-.29-.29-2.52Zm2.81,2.23.29,2.52,2.52-.29-.29-2.51ZM199.2,139l.28,2.52,2.52-.28-.29-2.52Zm2.8,2.24.29,2.51,2.52-.28-.28-2.51Zm2.8,2.23.29,2.52,2.52-.29-.29-2.51Zm2.8,2.23.29,2.52,2.52-.29-.28-2.51Zm2.8,2.23.29,2.52,2.51-.29-.28-2.52Zm2.8,2.23.29,2.52,2.52-.29-.29-2.52Z" transform="translate(-62.72 -50.68)"/><polygon class="cls-3" points="150.78 102.05 150.49 99.53 147.97 99.82 147.68 97.3 145.17 97.59 144.88 95.07 142.36 95.36 142.08 92.84 139.56 93.12 139.27 90.61 136.76 90.89 136.47 88.37 133.95 88.66 133.66 86.14 131.14 86.43 130.86 83.91 128.35 84.2 128.06 81.67 125.54 81.96 125.25 79.44 122.73 79.73 123.88 89.8 118.84 90.38 118.56 87.86 113.52 88.43 113.23 85.92 108.2 86.49 108.77 91.52 113.81 90.95 114.1 93.47 119.13 92.89 119.41 95.41 121.94 95.13 122.22 97.64 119.7 97.93 119.99 100.45 117.47 100.74 117.76 103.25 115.24 103.54 115.52 106.05 150.78 102.05"/><rect class="cls-1" x="272.4" y="102.18" width="28.34" height="43.58" transform="translate(81.59 351.24) rotate(-86.29)"/><polygon class="cls-1" points="244.05 88.8 201.25 85.03 203.65 57.79 246.44 61.54 244.05 88.8"/><path class="cls-2" d="M307.29,125.48l.54,2-2,.54-.54-2Zm-4,1.07.53,2,2-.54-.54-2Zm-2,.54.54,2,2-.54-.53-2Zm-2,.54.54,2,2-.54-.54-2Zm-2,.54.53,2,2-.53-.54-2Zm-2,.54.54,2,2-.54-.53-2Zm-2,.54.54,2,2-.54-.54-2Zm-2,.54.54,2,2-.54-.54-2Zm-2,.54.54,2,2-.54-.54-2Zm-2,.53.54,2,2-.54-.54-2Zm-2,.53.53,2,2-.54-.54-2Zm-2,.54.53,2,2-.53-.53-2Zm-2,.54.54,2,2-.54-.53-2Zm-2,.55.53,2,2-.54-.54-2Zm-2,.53.54,2,2-.54-.53-2Zm-2,.54.54,2,2-.53-.54-2Zm-2,.53.54,2,2-.54-.54-2Zm-.54-2,.54,2,2-.53-.54-2Zm1.45-2.52.54,2,2-.54-.54-2Zm1.44-2.52.53,2,2-.54-.54-2Zm1.43-2.52.54,2,2-.54-.54-2Zm-2.51-1.44.54,2,2-.54-.54-2Zm-2,.54.54,2,2-.54-.54-2Zm-2.52-1.44.54,2,2-.54-.54-2Zm-2,.54.54,2,2-.54-.54-2Zm-2.52-1.44.54,2,2-.54-.54-2Zm-.54-2,.54,2,2-.54-.54-2Zm1.45-2.52.54,2,2-.54-.54-2Zm2-.54.54,2,2-.54-.55-2Zm2.52,1.44.53,2,2-.53-.54-2Zm2-.54.54,2,2-.54-.53-2Zm2.51,1.44.55,2,2-.54-.54-2Zm2-.54.54,2,2-.54-.55-2Zm-.54-2,.54,2,2-.54-.54-2Zm-.54-2,.54,2,2-.54-.54-2Zm-.54-2,.54,2,2-.54-.54-2Zm-.53-2,.53,2,2-.53-.54-2Zm2-.54.54,2,2-.55-.54-2Zm2.52,1.44.53,2,2-.54-.54-2Zm2.52,1.44.54,2,2-.54-.54-2Zm2.51,1.44.54,2,2-.53-.54-2Zm2.52,1.45.54,2,2-.54-.54-2Zm2.52,1.44.54,2,2-.54-.54-2Zm2.52,1.44.53,2,2-.54-.54-2Zm2.51,1.45.54,2,2-.54-.54-2Zm2.52,1.44.54,2,2-.54-.54-2Zm2.52,1.44.54,2,2-.54-.54-2Zm2.52,1.44.54,2,2-.53-.53-2Z" transform="translate(-62.72 -50.68)"/><polygon class="cls-3" points="240.61 75.88 240.07 73.9 238.09 74.44 237.55 72.46 235.57 73 235.03 71.02 233.05 71.56 232.52 69.58 230.54 70.11 230 68.13 228.02 68.67 227.48 66.69 225.5 67.23 224.96 65.26 222.98 65.79 222.44 63.81 220.47 64.35 219.93 62.37 217.94 62.91 217.41 60.92 215.43 61.47 217.59 69.39 213.62 70.46 213.08 68.48 209.12 69.56 208.59 67.58 204.63 68.65 205.7 72.61 209.66 71.54 210.2 73.52 214.16 72.44 214.7 74.42 216.68 73.88 217.22 75.86 215.23 76.4 215.78 78.38 213.8 78.92 214.33 80.9 212.36 81.44 212.89 83.42 240.61 75.88"/><polygon class="cls-1" points="57.81 0 85.6 12.76 77.3 30.82 49.52 18.07 57.81 0"/><rect class="cls-1" x="120.69" y="51.02" width="19.19" height="30.14" transform="translate(-48.91 103.6) rotate(-64.03)"/><path class="cls-2" d="M143.48,72.28l-.15,1.44-1.43-.15.15-1.43ZM140.61,72l-.14,1.43,1.43.14.15-1.43Zm-1.43-.14L139,73.28l1.43.14.14-1.43Zm-1.43-.14-.15,1.43,1.43.14.14-1.43Zm-1.43-.15L136.17,73l1.43.14.15-1.43Zm-1.43-.15-.14,1.43,1.43.15.15-1.43Zm-1.44-.14-.14,1.43,1.43.14.14-1.43ZM132,71.13l-.15,1.43,1.43.14.14-1.43ZM130.59,71l-.14,1.44,1.43.14.15-1.43Zm-1.43-.14L129,72.27l1.43.15.14-1.44Zm-1.44-.15-.14,1.43,1.43.15.15-1.43Zm-1.43-.15L126.15,72l1.43.14.14-1.43Zm-1.43-.14-.14,1.44,1.43.14.15-1.44Zm-1.43-.14-.14,1.43,1.43.15.14-1.44ZM122,70.12l-.14,1.43,1.43.14.14-1.43ZM120.56,70l-.14,1.43,1.43.14.14-1.43Zm-1.43-.15L119,71.26l1.43.14.14-1.43Zm.14-1.44-.14,1.44,1.43.15.15-1.43Zm1.58-1.29-.14,1.44,1.43.14.14-1.44Zm1.58-1.28-.14,1.43,1.44.15.14-1.43ZM124,64.53,123.86,66l1.43.14.14-1.43ZM122.72,63l-.14,1.43,1.43.15.14-1.44Zm-1.43-.14-.14,1.43,1.43.14.14-1.43ZM120,61.24l-.14,1.43,1.43.14.15-1.43Zm-1.43-.14-.14,1.43,1.43.15.14-1.43Zm-1.29-1.58-.14,1.43,1.43.15.15-1.44Zm.14-1.43-.14,1.43,1.43.14.15-1.43ZM119,56.8l-.14,1.43,1.43.15.14-1.43Zm1.43.14-.14,1.43,1.43.14.15-1.43Zm1.29,1.57L121.57,60l1.43.14.15-1.43Zm1.44.15L123,60.09l1.43.14.14-1.43Zm1.28,1.57-.15,1.43,1.44.15.14-1.43Zm1.43.15-.14,1.43,1.43.14.14-1.43ZM126,59l-.15,1.43,1.43.15.15-1.44Zm.14-1.43L126,59l1.43.14.14-1.43Zm.15-1.43-.15,1.43,1.43.14.15-1.43Zm.14-1.43-.14,1.43,1.43.14.15-1.43Zm1.43.14-.15,1.43,1.43.15.15-1.43Zm1.29,1.58L129,57.81l1.43.14.14-1.43Zm1.29,1.57-.15,1.44,1.43.14.14-1.43Zm1.29,1.58L131.59,61l1.43.14.15-1.43ZM133,61.1l-.14,1.43,1.43.14.14-1.43Zm1.29,1.57-.15,1.44,1.43.14.15-1.43Zm1.29,1.58-.14,1.43,1.43.15L137,64.4Zm1.29,1.58-.14,1.43,1.43.14.14-1.43Zm1.29,1.58L138,68.84l1.43.14.15-1.43ZM139.47,69l-.14,1.43,1.43.14.15-1.43Zm1.29,1.57L140.61,72l1.43.14.15-1.44Z" transform="translate(-62.72 -50.68)"/><polygon class="cls-3" points="77.89 21.32 78.03 19.88 76.6 19.74 76.74 18.31 75.31 18.16 75.46 16.73 74.03 16.59 74.17 15.15 72.74 15 72.88 13.58 71.45 13.43 71.59 12 70.16 11.86 70.3 10.43 68.87 10.28 69.02 8.85 67.58 8.71 67.73 7.27 66.3 7.13 66.44 5.7 65.01 5.55 64.43 11.28 61.56 10.99 61.71 9.56 58.85 9.28 58.99 7.84 56.13 7.55 55.84 10.42 58.71 10.71 58.56 12.14 61.42 12.42 61.28 13.86 62.71 14.01 62.57 15.43 61.14 15.29 60.99 16.72 59.56 16.58 59.42 18.01 57.99 17.87 57.84 19.3 77.89 21.32"/><rect class="cls-1" x="167.83" y="82.85" width="30.39" height="46.73" transform="translate(-27.46 207.02) rotate(-75.84)"/><rect class="cls-1" x="168.35" y="83.18" width="29.34" height="46.07" transform="translate(-30.9 203.59) rotate(-74.53)"/><path class="cls-2" d="M204.58,111.85l.18,2.19-2.19.18-.18-2.19Zm-4.39.37.18,2.19,2.19-.19-.18-2.19Zm-2.19.18.18,2.19,2.19-.18-.18-2.19Zm-2.19.18.19,2.19,2.19-.18-.18-2.19Zm-2.19.18.18,2.2,2.2-.18-.19-2.19Zm-2.19.18.19,2.19,2.19-.18-.18-2.2Zm-2.19.18.18,2.19,2.2-.18-.19-2.19Zm-2.19.18.18,2.2,2.19-.18-.18-2.19Zm-2.19.19.18,2.19,2.19-.18-.18-2.2Zm-2.19.18.18,2.19,2.19-.18-.18-2.19Zm-2.19.18.18,2.19,2.2-.18-.18-2.19Zm-2.19.18.18,2.19,2.19-.18-.18-2.19Zm-2.2.18.18,2.2,2.19-.18-.18-2.19Zm-2.19.18.18,2.2,2.19-.18-.18-2.2Zm-2.19.18.18,2.2,2.19-.18-.18-2.2Zm-2.19.18.19,2.19,2.19-.18-.18-2.2Zm-2.19.19.18,2.19,2.2-.18-.19-2.19Zm-.18-2.19.18,2.19,2.19-.19-.18-2.19Zm2-2.37.18,2.19,2.19-.19-.18-2.19Zm2-2.37.18,2.19,2.19-.18-.18-2.2Zm2-2.38.19,2.19,2.19-.18-.18-2.19Zm-2.37-2,.18,2.19,2.2-.18-.18-2.2Zm-2.19.18.18,2.19,2.19-.18-.18-2.19Zm-2.38-2,.18,2.19,2.19-.18-.19-2.19ZM164,102l.18,2.19,2.2-.18-.18-2.19Zm-2.38-2,.18,2.19L164,102l-.19-2.2Zm-.18-2.19.18,2.19,2.19-.18-.18-2.19Zm2-2.38.18,2.19,2.19-.18-.18-2.19Zm2.19-.18.18,2.19,2.19-.18L167.86,95Zm2.37,2,.19,2.2,2.19-.18-.18-2.2Zm2.2-.18.18,2.2,2.19-.19-.18-2.19Zm2.37,2,.18,2.19,2.19-.19-.18-2.19Zm2.19-.18.18,2.19,2.2-.18L177,98.69Zm-.18-2.19.18,2.19,2.19-.19-.18-2.19Zm-.19-2.19.19,2.19,2.19-.18-.18-2.19Zm-.18-2.19.18,2.19,2.2-.18-.19-2.2Zm-.18-2.19.18,2.19,2.19-.18-.18-2.19Zm2.19-.19.18,2.19,2.19-.18-.18-2.19Zm2.38,2,.19,2.19,2.19-.18-.18-2.19Zm2.38,2,.18,2.2,2.19-.19-.18-2.19Zm2.37,2,.19,2.19,2.19-.18-.18-2.19Zm2.38,2,.19,2.19,2.19-.18L188,97.78Zm2.37,2,.19,2.19,2.19-.19-.18-2.19Zm2.38,2,.18,2.2,2.2-.18-.19-2.19Zm2.38,2,.18,2.19,2.19-.18-.18-2.19Zm2.37,2,.18,2.19,2.19-.19-.18-2.19Zm2.38,2,.19,2.2L200,110l-.18-2.19Zm2.38,2,.18,2.19,2.19-.18-.18-2.19Z" transform="translate(-62.72 -50.68)"/><polygon class="cls-3" points="137.47 61.53 137.29 59.34 135.09 59.53 134.91 57.33 132.72 57.52 132.53 55.32 130.34 55.5 130.16 53.31 127.97 53.49 127.79 51.3 125.59 51.48 125.41 49.29 123.22 49.47 123.03 47.28 120.84 47.46 120.66 45.27 118.47 45.46 118.29 43.26 116.1 43.44 115.91 41.25 113.72 41.43 114.45 50.2 110.06 50.57 109.88 48.38 105.5 48.74 105.31 46.55 100.93 46.91 101.3 51.3 105.68 50.94 105.86 53.13 110.25 52.76 110.43 54.95 112.62 54.77 112.8 56.97 110.61 57.15 110.79 59.34 108.6 59.52 108.78 61.71 106.59 61.9 106.77 64.09 137.47 61.53"/><polyline class="cls-1" points="194.25 182.49 171.85 144.65 230.03 110.2 252.43 148.03"/><polyline class="cls-1" points="251.59 148.53 193.46 181.17 172.68 144.16 230.8 111.51 251.59 148.53"/><rect class="cls-2" x="301.31" y="181.48" width="3.19" height="3.18" transform="translate(-95.57 244.36) rotate(-49.59)"/><polygon class="cls-2" points="235.87 134.99 238.3 137.06 240.36 134.63 237.94 132.58 235.87 134.99"/><rect class="cls-2" x="297.18" y="186.32" width="3.19" height="3.18" transform="translate(-100.85 242.48) rotate(-49.52)"/><rect class="cls-2" x="295.12" y="188.74" width="3.18" height="3.18" transform="translate(-103.18 242.54) rotate(-49.65)"/><polygon class="cls-2" points="229.68 142.25 232.1 144.32 234.17 141.9 231.75 139.84 229.68 142.25"/><rect class="cls-2" x="290.99" y="193.59" width="3.18" height="3.18" transform="translate(-108.55 240.3) rotate(-49.51)"/><rect class="cls-2" x="288.92" y="196.01" width="3.18" height="3.18" transform="translate(-111.11 239.61) rotate(-49.52)"/><rect class="cls-2" x="286.86" y="198.43" width="3.18" height="3.18" transform="translate(-113.74 238.65) rotate(-49.48)"/><polygon class="cls-2" points="221.41 151.95 223.84 154.01 225.9 151.59 223.49 149.52 221.41 151.95"/><rect class="cls-2" x="282.73" y="203.28" width="3.18" height="3.18" transform="translate(-118.64 238.16) rotate(-49.64)"/><rect class="cls-2" x="280.66" y="205.7" width="3.19" height="3.18" transform="translate(-121.39 236.69) rotate(-49.51)"/><polygon class="cls-2" points="215.22 159.22 217.64 161.29 219.7 158.86 217.28 156.79 215.22 159.22"/><rect class="cls-2" x="276.53" y="210.54" width="3.18" height="3.19" transform="translate(-126.53 235.2) rotate(-49.5)"/><rect class="cls-2" x="274.46" y="212.97" width="3.19" height="3.18" transform="translate(-129.22 233.87) rotate(-49.4)"/><polygon class="cls-2" points="209.02 166.48 211.44 168.55 213.5 166.13 211.09 164.06 209.02 166.48"/><rect class="cls-2" x="270.33" y="217.81" width="3.18" height="3.18" transform="translate(-134.07 233.86) rotate(-49.64)"/><polyline class="cls-2" points="207.31 173.39 209.38 170.97 206.95 168.91 204.89 171.33 207.31 173.39"/><rect class="cls-2" x="265.84" y="218.17" width="3.19" height="3.19" transform="translate(-136.01 230.1) rotate(-49.57)"/><rect class="cls-2" x="265.49" y="213.68" width="3.18" height="3.18" transform="translate(-132.71 228.3) rotate(-49.57)"/><polygon class="cls-2" points="201.76 160.29 204.18 162.35 206.24 159.92 203.82 157.86 201.76 160.29"/><rect class="cls-2" x="264.77" y="204.7" width="3.18" height="3.18" transform="translate(-126.19 224.29) rotate(-49.52)"/><rect class="cls-2" x="260.29" y="205.06" width="3.18" height="3.18" transform="translate(-127.98 221.3) rotate(-49.57)"/><rect class="cls-2" x="258.22" y="207.48" width="3.18" height="3.18" transform="translate(-130.61 220.3) rotate(-49.52)"/><rect class="cls-2" x="253.74" y="207.84" width="3.18" height="3.18" transform="matrix(0.65, -0.76, 0.76, 0.65, -132.33, 217.69)"/><rect class="cls-2" x="251.66" y="210.26" width="3.19" height="3.18" transform="translate(-134.97 216.55) rotate(-49.57)"/><rect class="cls-2" x="247.18" y="210.62" width="3.18" height="3.18" transform="translate(-136.88 212.92) rotate(-49.51)"/><rect class="cls-2" x="244.76" y="208.56" width="3.18" height="3.18" transform="translate(-136.14 210.43) rotate(-49.52)"/><rect class="cls-2" x="244.4" y="204.06" width="3.18" height="3.19" transform="translate(-132.87 208.5) rotate(-49.5)"/><rect class="cls-2" x="246.47" y="201.64" width="3.18" height="3.18" transform="translate(-130.24 209.56) rotate(-49.57)"/><rect class="cls-2" x="250.95" y="201.28" width="3.19" height="3.18" transform="translate(-128.34 213.13) rotate(-49.62)"/><rect class="cls-2" x="253.02" y="198.87" width="3.18" height="3.18" transform="translate(-125.87 213.31) rotate(-49.52)"/><rect class="cls-2" x="257.5" y="198.51" width="3.18" height="3.18" transform="translate(-123.97 216.86) rotate(-49.57)"/><polygon class="cls-2" points="196.2 147.18 198.62 149.24 200.69 146.82 198.26 144.76 196.2 147.18"/><rect class="cls-2" x="257.15" y="194.02" width="3.18" height="3.19" transform="translate(-120.68 215.03) rotate(-49.57)"/><rect class="cls-2" x="254.72" y="191.95" width="3.19" height="3.18" transform="translate(-119.97 212.4) rotate(-49.56)"/><rect class="cls-2" x="252.3" y="189.89" width="3.19" height="3.18" transform="translate(-119.31 209.57) rotate(-49.51)"/><rect class="cls-2" x="249.88" y="187.82" width="3.18" height="3.18" transform="matrix(0.65, -0.76, 0.76, 0.65, -118.56, 207.11)"/><rect class="cls-2" x="251.95" y="185.4" width="3.19" height="3.18" transform="translate(-116.02 207.74) rotate(-49.51)"/><polygon class="cls-2" points="193.06 136.13 195.48 138.2 197.54 135.77 195.13 133.71 193.06 136.13"/><polygon class="cls-2" points="197.54 135.77 199.97 137.85 202.03 135.42 199.61 133.36 197.54 135.77"/><rect class="cls-2" x="265.41" y="184.33" width="3.18" height="3.18" transform="translate(-110.49 217.55) rotate(-49.5)"/><rect class="cls-2" x="269.9" y="183.97" width="3.18" height="3.18" transform="translate(-108.54 221.24) rotate(-49.58)"/><rect class="cls-2" x="274.39" y="183.62" width="3.18" height="3.18" transform="translate(-106.79 224.19) rotate(-49.52)"/><rect class="cls-2" x="278.87" y="183.26" width="3.18" height="3.18" transform="translate(-104.86 227.78) rotate(-49.57)"/><rect class="cls-2" x="283.36" y="182.9" width="3.18" height="3.18" transform="translate(-103 231.09) rotate(-49.57)"/><polygon class="cls-2" points="224.47 133.64 226.9 135.7 228.96 133.28 226.55 131.22 224.47 133.64"/><rect class="cls-2" x="292.34" y="182.18" width="3.18" height="3.19" transform="translate(-99.35 237.52) rotate(-49.55)"/><polygon class="cls-2" points="233.45 132.93 235.87 134.99 237.94 132.58 235.51 130.5 233.45 132.93"/><polygon class="cls-4" points="235.87 134.99 233.45 132.93 231.39 135.35 228.96 133.28 226.9 135.7 224.47 133.64 222.41 136.06 219.99 134 217.92 136.42 215.5 134.35 213.43 136.78 211.01 134.71 208.94 137.13 206.52 135.06 204.46 137.49 202.03 135.42 199.97 137.85 197.54 135.77 195.48 138.2 193.06 136.13 190.99 138.56 200.69 146.82 196.55 151.67 194.13 149.6 190 154.45 187.57 152.38 183.45 157.23 188.29 161.36 192.42 156.51 194.85 158.58 198.97 153.73 201.4 155.79 203.46 153.37 205.88 155.44 203.82 157.86 206.24 159.92 204.18 162.35 206.6 164.42 204.53 166.84 206.95 168.91 235.87 134.99"/><rect class="cls-1" x="115.77" y="188.45" width="99.94" height="64.98" transform="translate(-75.43 -40.55) rotate(-3.37)"/><rect class="cls-1" x="116.47" y="189.57" width="98.53" height="62.74" transform="translate(-70.56 -44.58) rotate(-2.06)"/><path class="cls-2" d="M213.31,218.53l1.79,4.35-4.36,1.79L209,220.32Zm-8.71,3.57,1.78,4.35,4.36-1.78L209,220.32Zm-4.35,1.79,1.78,4.35,4.35-1.79-1.78-4.35Zm-4.36,1.78,1.79,4.36,4.34-1.79-1.78-4.35Zm-4.35,1.78,1.78,4.36,4.36-1.78-1.79-4.36Zm-4.35,1.79,1.79,4.35,4.35-1.78-1.78-4.36ZM182.84,231l1.78,4.36,4.36-1.79-1.79-4.35Zm-4.36,1.79,1.78,4.35,4.36-1.78L182.84,231Zm-4.35,1.79,1.78,4.35,4.35-1.79-1.78-4.35Zm-4.35,1.78,1.79,4.36,4.35-1.78-1.78-4.35Zm-4.35,1.79,1.77,4.35,4.36-1.78-1.79-4.36Zm-4.36,1.78,1.78,4.36,4.35-1.79-1.77-4.35Zm-4.35,1.78,1.78,4.36,4.35-1.79-1.78-4.36Zm-4.35,1.78,1.78,4.36,4.36-1.78-1.78-4.36ZM148,245.29l1.79,4.35,4.35-1.78-1.78-4.36Zm-4.35,1.79,1.78,4.35,4.36-1.79L148,245.29Zm-4.35,1.78,1.78,4.35,4.35-1.78-1.78-4.35Zm-1.79-4.36,1.79,4.36,4.35-1.78-1.78-4.36Zm2.58-6.14,1.78,4.36,4.35-1.78-1.78-4.35Zm2.56-6.14,1.79,4.36,4.36-1.79L147,230.45Zm2.57-6.14,1.79,4.35,4.35-1.78-1.78-4.35Zm-6.13-2.57,1.78,4.35,4.35-1.79-1.78-4.35Zm-4.35,1.78,1.78,4.36,4.35-1.79-1.78-4.35Zm-6.14-2.57,1.79,4.36,4.35-1.79L133,221Zm-4.36,1.78,1.78,4.35,4.36-1.78-1.79-4.36ZM118.11,222l1.78,4.35,4.36-1.78-1.78-4.35Zm-1.78-4.35,1.78,4.35,4.35-1.78-1.79-4.35Zm2.57-6.13,1.78,4.35L125,214l-1.79-4.35Zm4.35-1.78L125,214l4.35-1.78-1.78-4.36Zm6.14,2.57,1.79,4.36,4.35-1.79-1.79-4.36Zm4.36-1.79,1.79,4.36,4.34-1.78-1.78-4.35Zm6.13,2.57,1.78,4.35L146,215.6l-1.78-4.35Zm4.36-1.78L146,215.6l4.36-1.78-1.79-4.35Zm-1.79-4.35,1.79,4.35,4.35-1.78-1.78-4.36Zm-1.79-4.36,1.79,4.36,4.35-1.79L145,200.76Zm-1.78-4.35,1.78,4.35,4.36-1.78-1.79-4.35Zm-1.78-4.35,1.78,4.35,4.35-1.78L141.44,192Zm4.35-1.79,1.79,4.36,4.35-1.78-1.79-4.35Zm6.14,2.57,1.78,4.35,4.36-1.78-1.78-4.36Zm6.14,2.57,1.78,4.36,4.35-1.79-1.78-4.35Zm6.13,2.57,1.79,4.36,4.36-1.78L164.21,198Zm6.14,2.57,1.79,4.34,4.35-1.78-1.78-4.35Zm6.14,2.57,1.79,4.35,4.35-1.78-1.78-4.36Zm6.14,2.57,1.78,4.35,4.36-1.79-1.78-4.35Zm6.14,2.57,1.78,4.35,4.35-1.78-1.78-4.35Zm6.14,2.57,1.79,4.35,4.35-1.79-1.78-4.35Zm6.14,2.57,1.79,4.36,4.35-1.79L201,213.39Zm6.14,2.57,1.78,4.35,4.36-1.78L207.18,216Z" transform="translate(-62.72 -50.68)"/><polygon class="cls-3" points="141.88 171.42 140.1 167.07 135.75 168.86 133.96 164.5 129.61 166.28 127.82 161.93 123.47 163.71 121.68 159.36 117.33 161.15 115.55 156.79 111.2 158.58 109.41 154.22 105.06 156 103.27 151.66 98.92 153.44 97.13 149.08 92.78 150.87 91 146.51 86.64 148.3 84.86 143.94 80.5 145.73 87.64 163.15 78.93 166.71 77.15 162.36 68.45 165.93 66.66 161.57 57.95 165.15 61.52 173.85 70.23 170.28 72.01 174.63 80.72 171.06 82.5 175.42 86.86 173.64 88.64 177.99 84.29 179.77 86.08 184.13 81.72 185.91 83.5 190.26 79.15 192.05 80.93 196.41 141.88 171.42"/><rect class="cls-1" x="151.42" y="113.35" width="66.44" height="102.19" transform="translate(-89.48 242.01) rotate(-72.93)"/><rect class="cls-1" x="152.57" y="114.07" width="64.15" height="100.74" transform="translate(-92.37 237.11) rotate(-71.61)"/><path class="cls-2" d="M231.08,179.13l.16,4.81-4.81.16-.16-4.81Zm-9.61.31.15,4.82,4.81-.16-.16-4.81Zm-4.81.16.16,4.81,4.81-.15-.15-4.82Zm-4.81.16.17,4.81,4.8-.16-.16-4.81Zm-4.81.15.15,4.81,4.82-.15-.17-4.81Zm-4.81.16.15,4.81,4.8-.15L207,179.9Zm-4.81.16.15,4.81,4.81-.16-.15-4.81Zm-4.81.15.16,4.82,4.81-.16-.15-4.81Zm-4.81.16.16,4.81,4.81-.15-.16-4.82Zm-4.8.15.16,4.81,4.8-.16-.16-4.81Zm-4.81.16.15,4.8,4.82-.15-.16-4.81Zm-4.81.15.16,4.81,4.8-.16-.15-4.8Zm-4.81.15.15,4.81,4.81-.16-.16-4.81Zm-4.81.15.15,4.81,4.81-.15-.15-4.81Zm-4.81.15.16,4.81,4.81-.15-.15-4.81Zm-4.81.15.15,4.81,4.81-.15-.16-4.81Zm-4.81.16.16,4.81,4.8-.16-.15-4.81Zm-.16-4.81.16,4.81,4.81-.16-.15-4.8Zm4.66-5,.15,4.81,4.8-.16-.15-4.81Zm4.65-5,.15,4.81,4.82-.15-.16-4.81Zm4.66-5,.15,4.8,4.81-.15-.15-4.8Zm-5-4.65.15,4.8,4.81-.15-.16-4.81Zm-4.81.15.16,4.8,4.81-.15-.15-4.8Zm-5-4.66.15,4.81,4.81-.15-.16-4.81Zm-4.82.15.16,4.81,4.81-.15-.15-4.81Zm-5-4.65.15,4.81,4.81-.16-.15-4.81Zm-.15-4.81.15,4.81,4.81-.16-.16-4.81Zm4.65-5,.15,4.81,4.81-.16-.15-4.81Zm4.81-.16.15,4.81,4.81-.16-.15-4.81Zm5,4.65.16,4.81,4.81-.15-.15-4.81Zm4.82-.15.15,4.81,4.8-.16-.15-4.81Zm5,4.65.15,4.81,4.81-.15-.16-4.81Zm4.81-.15.16,4.81,4.81-.15-.16-4.81Zm-.15-4.81.15,4.81,4.81-.16-.15-4.8Zm-.15-4.82.15,4.82,4.81-.16-.15-4.81Zm-.16-4.81.16,4.81,4.81-.15-.16-4.81Zm-.15-4.81.15,4.81,4.81-.15-.15-4.81Zm4.81-.15.15,4.81,4.81-.16-.16-4.81Zm5,4.65.16,4.81,4.81-.15-.15-4.81Zm5,4.66.15,4.81,4.81-.16-.15-4.81Zm5,4.66.15,4.8,4.81-.15-.15-4.8Zm5,4.65.16,4.81,4.81-.15-.15-4.81Zm5,4.66.16,4.81,4.81-.16-.16-4.81Zm5,4.66.15,4.8,4.81-.15-.16-4.8Zm5,4.65.15,4.81,4.81-.15-.15-4.81Zm5,4.65.16,4.81,4.8-.16-.15-4.8Zm5,4.65.16,4.82,4.8-.16-.15-4.81Zm5,4.66.16,4.8,4.8-.15-.15-4.81Z" transform="translate(-62.72 -50.68)"/><polygon class="cls-3" points="158.75 128.76 158.59 123.95 153.79 124.11 153.63 119.3 148.82 119.45 148.66 114.64 143.86 114.8 143.7 109.99 138.89 110.14 138.74 105.34 133.93 105.5 133.78 100.68 128.97 100.84 128.81 96.03 124 96.18 123.85 91.38 119.04 91.54 118.89 86.72 114.08 86.87 113.92 82.06 109.11 82.22 109.74 101.46 100.11 101.77 99.96 96.96 90.34 97.27 90.19 92.46 80.57 92.77 80.88 102.39 90.5 102.08 90.65 106.89 100.27 106.57 100.43 111.39 105.24 111.23 105.39 116.04 100.58 116.19 100.74 121 95.93 121.16 96.08 125.97 91.28 126.12 91.43 130.92 158.75 128.76"/><path class="cls-2" d="M119.38,138.4l-1.86,3.23-3.23-1.86,1.86-3.22Zm-6.45-3.72-1.86,3.23,3.22,1.86,1.86-3.22Zm-3.23-1.86L107.85,136l3.22,1.86,1.86-3.23ZM106.48,131l-1.86,3.23,3.22,1.86,1.85-3.23Zm-3.22-1.86-1.86,3.23,3.23,1.86,1.86-3.23ZM100,127.25l-1.86,3.23,3.22,1.86,1.86-3.23Zm-3.22-1.86-1.86,3.23,3.23,1.86,1.86-3.23Zm-3.22-1.86-1.85,3.23,3.21,1.86,1.86-3.23Zm-3.23-1.85-1.86,3.23,3.23,1.86,1.85-3.23Zm-3.22-1.86L85.28,123l3.22,1.86,1.86-3.23Zm-3.22-1.86-1.86,3.22L85.28,123l1.86-3.23Zm-3.22-1.86-1.87,3.23,3.22,1.85,1.86-3.22Zm-3.23-1.86-1.86,3.23,3.23,1.86,1.87-3.23Zm-3.22-1.86-1.86,3.22,3.22,1.87,1.86-3.23ZM71,110.51l-1.86,3.23,3.22,1.86,1.86-3.22Zm-3.22-1.86-1.86,3.22,3.23,1.86L71,110.51Zm-3.23-1.86L62.72,110l3.22,1.86,1.86-3.22Zm1.86-3.23-1.86,3.23,3.23,1.86,1.86-3.22Zm5.09-1.37-1.87,3.23,3.23,1.86,1.86-3.22Zm5.08-1.35-1.86,3.22L78,105.92l1.86-3.22Zm5.08-1.37-1.85,3.23,3.22,1.86,1.86-3.22Zm-1.36-5.08-1.86,3.22,3.22,1.86,1.86-3.22ZM77.1,92.53l-1.86,3.22,3.23,1.86,1.86-3.22Zm-1.36-5.09-1.86,3.23,3.22,1.86L79,89.31Zm-3.23-1.86-1.86,3.22,3.23,1.87,1.86-3.23ZM71.15,80.5l-1.86,3.23,3.22,1.86,1.87-3.23ZM73,77.28,71.15,80.5l3.23,1.86,1.86-3.22Zm5.09-1.37-1.86,3.23L79.46,81l1.85-3.23Zm3.22,1.86L79.46,81l3.22,1.86,1.86-3.22Zm1.36,5.08-1.86,3.22L84,87.95l1.86-3.23Zm3.23,1.86L84,87.95l3.22,1.85,1.85-3.22Zm1.36,5.08L85.41,93l3.23,1.86,1.86-3.22Zm3.22,1.86-1.86,3.22,3.22,1.87,1.86-3.23Zm1.86-3.22-1.86,3.22,3.22,1.86,1.86-3.22Zm1.86-3.23-1.86,3.23,3.22,1.86,1.86-3.22ZM96.07,82l-1.86,3.22,3.23,1.86,1.86-3.23Zm1.86-3.22L96.07,82l3.23,1.86,1.86-3.22Zm3.23,1.86-1.86,3.22,3.22,1.86,1.86-3.22Zm1.36,5.08-1.86,3.22,3.23,1.86,1.86-3.23Zm1.37,5.09L102,94l3.23,1.85,1.86-3.22Zm1.36,5.08-1.86,3.23,3.22,1.86,1.87-3.21Zm1.36,5.08-1.85,3.23L108,106l1.86-3.22ZM108,106l-1.86,3.23,3.22,1.86,1.86-3.23Zm1.37,5.09-1.86,3.22,3.22,1.86,1.86-3.22Zm1.36,5.08-1.86,3.22,3.22,1.86,1.86-3.22Zm1.36,5.08-1.86,3.23,3.23,1.86,1.85-3.22Zm1.38,5.09-1.87,3.23,3.22,1.86,1.87-3.23Zm1.35,5.08-1.85,3.22,3.22,1.87,1.86-3.23Z" transform="translate(-62.72 -50.68)"/><polygon class="cls-5" points="50.21 84 52.06 80.78 48.84 78.93 50.71 75.7 47.48 73.84 49.34 70.62 46.12 68.76 47.97 65.54 44.75 63.67 46.61 60.45 43.39 58.59 45.25 55.37 42.03 53.51 43.88 50.28 40.66 48.43 42.52 45.2 39.29 43.34 41.16 40.12 37.93 38.25 39.79 35.03 36.57 33.17 29.13 46.07 22.68 42.34 24.54 39.12 18.1 35.41 19.95 32.18 13.51 28.46 9.79 34.91 16.23 38.64 14.37 41.86 20.82 45.58 18.96 48.8 22.19 50.66 20.33 53.88 17.11 52.02 15.25 55.24 12.02 53.39 10.16 56.61 6.93 54.75 5.08 57.97 50.21 84"/></svg>