<?xml version="1.0" encoding="utf-8"?>
<!-- Generator: Adobe Illustrator 20.0.0, SVG Export Plug-In . SVG Version: 6.00 Build 0)  -->
<svg version="1.1" id="Kronkorken" xmlns="http://www.w3.org/2000/svg" xmlns:xlink="http://www.w3.org/1999/xlink" x="0px" y="0px"
	 viewBox="256 377 88 88" xml:space="preserve">
<path id="kronkorken" d="M339.6,414.6c0-0.4-0.1-0.7-0.2-1c-3.9-22.4-25.3-37.3-47.7-33.4c-9.6,1.7-17.8,6.6-23.8,13.4
	c0,0,0,0.1-0.1,0.1c-0.2,0.2-0.5,0.4-0.6,0.6c-0.4,0.4-0.7,0.7-0.7,0.8c0,0.1-0.3,0.5-0.6,1l-3.2,4.9c-0.3,0.5-0.8,0.9-1,0.9
	c-0.3,0-0.7,0.4-1,0.9l-0.8,1.4c-0.3,0.5-0.3,1.2-0.1,1.5c0.2,0.3,0.3,1,0.1,1.6l-1.3,4.5c-0.1,0.6-0.7,1.2-1.2,1.3
	c-0.5,0.1-1,0.7-1.2,1.3l-0.3,1.6c-0.1,0.6,0.2,1.4,0.7,1.7l0.1,0.1c0.5,0.3,0.9,1.1,0.9,1.7l0.1,3.7c0,0.6-0.4,1.3-0.9,1.6
	l-0.5,0.3c-0.5,0.3-0.9,1-0.9,1.6l0.2,1.6c0.1,0.6,0.6,1.3,1.2,1.4l1,0.3c0.6,0.2,1.2,0.8,1.4,1.4l0.8,2.8c0.2,0.6,0,1.4-0.4,1.8
	l-0.9,0.9c-0.4,0.4-0.6,1.3-0.3,1.8l0.6,1.5c0.2,0.6,0.9,1,1.5,1l1.6,0c0.6,0,1.4,0.4,1.7,0.9l1.3,1.9c0.3,0.5,0.4,1.4,0.1,1.9
	l-0.8,1.6c-0.3,0.5-0.2,1.4,0.2,1.8l1.1,1.3c0.4,0.5,1.2,0.7,1.8,0.5l1.9-0.6c0.6-0.2,1.4,0,1.9,0.4l1.5,1.3
	c0.5,0.4,0.8,1.2,0.7,1.8l-0.4,2c-0.1,0.6,0.2,1.4,0.7,1.7l1.4,0.9c0.5,0.3,1.3,0.3,1.9,0l1.7-1.1c0.5-0.3,1.4-0.4,1.9-0.1l1.8,0.9
	c0.6,0.2,1.1,0.9,1.2,1.6l0.2,1.9c0.1,0.6,0.6,1.2,1.2,1.4l1.6,0.4c0.6,0.2,1.4-0.1,1.8-0.6l1.1-1.4c0.4-0.5,1.2-0.8,1.8-0.7
	l2.3,0.4c0.6,0.1,1.3,0.6,1.6,1.2l0.6,1.4c0.3,0.6,1,1,1.6,1l1.6,0c0.6,0,1.3-0.5,1.5-1.1l0.4-1.1c0.2-0.6,0.9-1.1,1.5-1.1
	c0,0,2-0.2,3.6-0.5c0.2,0,0.2,0,0.2,0c0.2,0,0.6,0.3,1,0.8l0.6,0.7c0.4,0.5,1.2,0.7,1.8,0.5l1.6-0.5c0.6-0.2,1.1-0.9,1.1-1.5l0-0.5
	c0-0.6,0.5-1.3,1.1-1.5l3.5-1.5c0.6-0.3,1.4-0.2,2,0.1c0.5,0.3,1.4,0.3,1.8-0.1l1.3-1c0.5-0.4,0.8-1,0.7-1.5
	c-0.1-0.5,0.2-1.2,0.7-1.5l3.7-3.1c0.5-0.4,1.1-0.7,1.4-0.6c0.3,0.1,0.9-0.3,1.3-0.7l1-1.3c0.4-0.5,0.6-1,0.5-1.2
	c-0.1-0.2,0.1-0.7,0.5-1.2l3.2-5c0.3-0.5,0.6-1,0.6-1c0,0,0.1-0.1,0.2-0.3c0.1-0.1,0.2-0.6,0.4-1.1c0.6-1.1,1.1-2.3,1.7-3.9
	C340,428.1,340.7,421.4,339.6,414.6z"/>
</svg>
