<?xml version="1.0" encoding="utf-8"?>
<!-- Generator: Adobe Illustrator 21.1.0, SVG Export Plug-In . SVG Version: 6.00 Build 0)  -->
<svg version="1.1" id="Ebene_1" xmlns="http://www.w3.org/2000/svg" xmlns:xlink="http://www.w3.org/1999/xlink" x="0px" y="0px"
	 viewBox="0 0 158.1 224.8" style="enable-background:new 0 0 158.1 224.8;" xml:space="preserve">
<style type="text/css">
	.st0{clip-path:url(#SVGID_2_);fill:#1A171B;}
	.st1{clip-path:url(#SVGID_2_);fill:#FFEC00;}
	.st2{clip-path:url(#SVGID_2_);fill:#5CCCBB;}
	.st3{clip-path:url(#SVGID_2_);fill:#FFFFFF;}
	.st4{clip-path:url(#SVGID_2_);fill:#B0DA50;}
	.st5{clip-path:url(#SVGID_2_);fill:#FCE000;}
	.st6{clip-path:url(#SVGID_2_);fill:#6ED685;}
	.st7{clip-path:url(#SVGID_2_);fill:#FFB039;}
	.st8{clip-path:url(#SVGID_2_);fill:#99C464;}
	.st9{clip-path:url(#SVGID_2_);}
	.st10{clip-path:url(#SVGID_4_);fill:#1A171B;}
	.st11{clip-path:url(#SVGID_6_);fill:none;stroke:#FFFFFF;stroke-width:1.591;stroke-miterlimit:10;}
	
		.st12{clip-path:url(#SVGID_2_);fill:none;stroke:#FFFFFF;stroke-width:1.591;stroke-linecap:round;stroke-linejoin:round;stroke-miterlimit:10;}
	.st13{clip-path:url(#SVGID_8_);fill:#1A171B;}
	.st14{clip-path:url(#SVGID_10_);fill:#FFFFFF;}
	.st15{clip-path:url(#SVGID_10_);fill:none;stroke:#1A171B;stroke-width:0.419;stroke-miterlimit:10;}
	.st16{clip-path:url(#SVGID_12_);fill:#1A171B;}
	.st17{clip-path:url(#SVGID_14_);fill:#1A171B;}
	
		.st18{clip-path:url(#SVGID_16_);fill:none;stroke:#FFFFFF;stroke-width:1.591;stroke-linecap:round;stroke-linejoin:round;stroke-miterlimit:10;}
	.st19{clip-path:url(#SVGID_16_);fill:none;stroke:#FFFFFF;stroke-width:1.591;stroke-miterlimit:10;}
	.st20{filter:url(#Adobe_OpacityMaskFilter);}
	.st21{clip-path:url(#SVGID_16_);}
	.st22{clip-path:url(#SVGID_16_);mask:url(#SVGID_17_);}
	.st23{opacity:0.25;clip-path:url(#SVGID_21_);fill:#1A171B;}
	
		.st24{clip-path:url(#SVGID_2_);fill:none;stroke:#F4F4F4;stroke-width:1.591;stroke-linecap:round;stroke-linejoin:round;stroke-miterlimit:10;}
	.st25{filter:url(#Adobe_OpacityMaskFilter_1_);}
	.st26{clip-path:url(#SVGID_23_);}
	.st27{clip-path:url(#SVGID_23_);mask:url(#SVGID_24_);}
	.st28{opacity:0.25;clip-path:url(#SVGID_28_);fill:#1A171B;}
</style>
<g>
	<defs>
		<rect id="SVGID_1_" width="158.1" height="224.8"/>
	</defs>
	<clipPath id="SVGID_2_">
		<use xlink:href="#SVGID_1_"  style="overflow:visible;"/>
	</clipPath>
	<path class="st0" d="M19.5,221.4l1.1,2.3l2.3-1.1l-1.1-2.3L19.5,221.4z M35.7,219.6l1.1,2.3l2.3-1.1l-1.1-2.3L35.7,219.6z
		 M38,218.5l1.1,2.3l2.3-1.1l-1.1-2.3L38,218.5z M20.8,218l1.1,2.3l2.3-1.1l-1.1-2.3L20.8,218z M31.2,216l1.1,2.3l1.1,2.3l2.3-1.1
		l-1.1-2.3l-1.1-2.3L31.2,216z M39.2,215.1l1.1,2.3l2.3-1.1l-1.1-2.3L39.2,215.1z M22,214.6l1.1,2.3l2.3-1.1l-1.1-2.3L22,214.6z
		 M38.2,212.8l1.1,2.3l2.3-1.1l-1.1-2.3L38.2,212.8z M26.7,212.4l1.1,2.3l1.1,2.3l2.3-1.1l-1.1-2.3l-1.1-2.3L26.7,212.4z
		 M34.8,211.6l1.1,2.3l2.3-1.1l-1.1-2.3L34.8,211.6z M23.3,211.2l1.1,2.3l2.3-1.1l-1.1-2.3L23.3,211.2z M33.7,209.2l1.1,2.3l2.3-1.1
		l-1.1-2.3L33.7,209.2z M30.3,208l1.1,2.3l2.3-1.1l-1.1-2.3L30.3,208z M29.2,205.6l1.1,2.3l2.3-1.1l-1.1-2.3L29.2,205.6z
		 M31.5,204.6l1.1,2.3l2.3-1.1l-1.1-2.3L31.5,204.6z M33.9,203.5l1.1,2.3l2.3-1.1l-1.1-2.3L33.9,203.5z M36.2,202.4l1.1,2.3l2.3-1.1
		l-1.1-2.3L36.2,202.4z M38.5,201.3l1.1,2.3l2.3-1.1l-1.1-2.3L38.5,201.3z M37.4,199l1.1,2.3l2.3-1.1l-1.1-2.3L37.4,199z M34,197.8
		l1.1,2.3l2.3-1.1l-1.1-2.3L34,197.8z M30.6,196.5l1.1,2.3l2.3-1.1l-1.1-2.3L30.6,196.5z M27.2,195.2l1.1,2.3l2.3-1.1l-1.1-2.3
		L27.2,195.2z M23.8,194l1.1,2.3l2.3-1.1l-1.1-2.3L23.8,194z M20.4,192.7l1.1,2.3l2.3-1.1l-1.1-2.3L20.4,192.7z M17,191.5l1.1,2.3
		l2.3-1.1l-1.1-2.3L17,191.5z M13.6,190.2l1.1,2.3l2.3-1.1l-1.1-2.3L13.6,190.2z M10.2,189l1.1,2.3l2.3-1.1l-1.1-2.3L10.2,189z
		 M6.8,187.7l1.1,2.3l2.3-1.1l-1.1-2.3L6.8,187.7z M3.4,186.5l-2.3,1.1l1.1,2.3l1.1,2.3l1.1,2.3l1.1,2.3l1.1,2.3l1.1,2.3l1.1,2.3
		l1.1,2.3l1.1,2.3l1.1,2.3l1.1,2.3l1.1,2.3l1.1,2.3l1.1,2.3l1.1,2.3l1.1,2.3l2.3-1.1l-1.1-2.3l-1.1-2.3l-1.1-2.3l-1.1-2.3l-1.1-2.3
		l-1.1-2.3l-1.1-2.3l-1.1-2.3l-1.1-2.3l-1.1-2.3l-1.1-2.3l-1.1-2.3l-1.1-2.3l-1.1-2.3l-1.1-2.3L3.4,186.5z M3.4,186.5l1.1,2.3
		l2.3-1.1l-1.1-2.3L3.4,186.5z M0,185.2l1.1,2.3l2.3-1.1l-1.1-2.3L0,185.2z"/>
	<polygon class="st1" points="4.5,188.8 6.8,187.7 7.9,190.1 10.2,189 11.3,191.3 13.6,190.2 14.7,192.6 17,191.5 18.1,193.8 
		20.4,192.7 21.5,195.1 23.8,194 24.9,196.3 27.2,195.3 28.3,197.6 30.6,196.5 31.7,198.8 34,197.8 35.1,200.1 37.4,199 38.5,201.3 
		29.2,205.6 31.4,210.3 33.7,209.2 35.8,213.9 38.2,212.8 40.3,217.5 35.7,219.6 33.5,215 31.2,216 29,211.4 26.7,212.5 25.6,210.1 
		23.3,211.2 24.4,213.5 22,214.6 23.1,216.9 20.8,218 21.9,220.3 19.5,221.4 	"/>
	<path class="st0" d="M0,145.1l1.2,1.2l1.2-1.2l-1.2-1.2L0,145.1z M1.2,143.9l1.2,1.2l1.2-1.2l-1.2-1.2L1.2,143.9z M2.5,142.6
		l1.2,1.2l1.2-1.2l-1.2-1.2L2.5,142.6z M3.7,141.4l1.2,1.2l1.2-1.2l-1.2-1.2L3.7,141.4z M4.9,140.2l1.2,1.2l1.2-1.2L6.2,139
		L4.9,140.2z M6.2,139l1.2,1.2l1.2-1.2l-1.2-1.2L6.2,139z M7.4,137.7l1.2,1.2l1.2-1.2l-1.2-1.2L7.4,137.7z M8.6,136.5l1.2,1.2
		l1.2-1.2l-1.2-1.2L8.6,136.5z M9.9,135.3l1.2,1.2l1.2-1.2l-1.2-1.2L9.9,135.3z M11.1,134.1l1.2,1.2l1.2-1.2l-1.2-1.2L11.1,134.1z
		 M12.3,132.8l1.2,1.2l1.2-1.2l-1.2-1.2L12.3,132.8z M13.6,131.6l1.2,1.2l1.2-1.2l-1.2-1.2L13.6,131.6z M14.8,130.4l1.2,1.2l1.2-1.2
		l-1.2-1.2L14.8,130.4z M16,129.1l1.2,1.2l1.2-1.2l-1.2-1.2L16,129.1z M17.3,127.9l1.2,1.2l1.2-1.2l-1.2-1.2L17.3,127.9z
		 M18.5,126.7l1.2,1.2l1.2-1.2l-1.2-1.2L18.5,126.7z M19.7,125.5l1.2,1.2l1.2-1.2l-1.2-1.2L19.7,125.5z M18.5,124.2l1.2,1.2l1.2-1.2
		l-1.2-1.2L18.5,124.2z M16,124.2l1.2,1.2l1.2-1.2l-1.2-1.2L16,124.2z M13.6,124.2l1.2,1.2l1.2-1.2l-1.2-1.2L13.6,124.2z
		 M11.1,124.2l1.2,1.2l1.2-1.2l-1.2-1.2L11.1,124.2z M11.1,121.7l1.2,1.2l1.2-1.2l-1.2-1.2L11.1,121.7z M12.4,120.5l1.2,1.2l1.2-1.2
		l-1.2-1.2L12.4,120.5z M5,120.5l1.2,1.2l1.2-1.2l-1.2-1.2L5,120.5z M3.7,119.3l1.2,1.2l1.2-1.2L5,118L3.7,119.3z M12.4,118.1
		l1.2,1.2l1.2-1.2l-1.2-1.2L12.4,118.1z M2.5,118l1.2,1.2L5,118l-1.2-1.2L2.5,118z M13.6,116.8l1.2,1.2l1.2-1.2l-1.2-1.2L13.6,116.8
		z M1.3,116.8L0.1,118l1.2,1.2L0,120.5l1.2,1.2L0,123l1.2,1.2L0,125.4l1.2,1.2L0,127.9l1.2,1.2L0,130.3l1.2,1.2L0,132.8l1.2,1.2
		L0,135.3l1.2,1.2L0,137.7l1.2,1.2L0,140.2l1.2,1.2L0,142.6l1.2,1.2l1.2-1.2l-1.2-1.2l1.2-1.2L1.2,139l1.2-1.2l-1.2-1.2l1.2-1.2
		L1.3,134l1.2-1.2l-1.2-1.2l1.2-1.2l-1.2-1.2l1.2-1.2l-1.2-1.2l1.2-1.2l-1.2-1.2l1.2-1.2l-1.2-1.2l1.2-1.2l-1.2-1.2l1.2-1.2l1.2-1.2
		l-1.2-1.2L1.3,116.8z M13.6,114.4l1.2,1.2l1.2-1.2l-1.2-1.2L13.6,114.4z M12.4,113.1l1.2,1.2l1.2-1.2l-1.2-1.2L12.4,113.1z
		 M9.9,113.1l-1.2,1.2l1.2,1.2l-1.2,1.2L7.4,118l1.2,1.2l-1.2,1.2l-1.2,1.2l1.2,1.2l1.2-1.2l1.2-1.2l-1.2-1.2l1.2-1.2l1.2-1.2
		l-1.2-1.2l1.2-1.2l1.2-1.2l-1.2-1.2L9.9,113.1z"/>
	<polygon class="st2" points="2.5,142.6 1.2,141.4 2.5,140.2 1.2,139 2.5,137.7 1.2,136.5 2.5,135.3 1.3,134 2.5,132.8 1.3,131.6 
		2.5,130.3 1.3,129.1 2.5,127.9 1.3,126.6 2.5,125.4 1.3,124.2 2.5,123 1.3,121.7 2.5,120.5 1.3,119.3 2.5,118 7.4,123 9.9,120.5 
		8.7,119.3 11.1,116.8 9.9,115.6 12.4,113.1 14.8,115.6 12.4,118.1 13.6,119.3 11.1,121.7 12.4,123 11.1,124.2 12.3,125.4 
		13.6,124.2 14.8,125.4 16,124.2 17.3,125.4 18.5,124.2 19.7,125.5 	"/>
	<path class="st0" d="M15.3,161.2l0.1,1.4l1.4-0.1l-0.1-1.4L15.3,161.2z M16.6,159.6l0.1,1.4l1.4-0.1l-0.1-1.4L16.6,159.6z
		 M17.9,158.1l0.1,1.4l1.4-0.1l-0.1-1.4L17.9,158.1z M19.3,156.5l0.1,1.4l1.4-0.1l-0.1-1.4L19.3,156.5z M20.6,155l0.1,1.4l1.4-0.1
		l-0.1-1.4L20.6,155z M21.9,153.4l0.1,1.4l1.4-0.1l-0.1-1.4L21.9,153.4z M23.2,151.9l0.1,1.4l1.4-0.1l-0.1-1.4L23.2,151.9z
		 M24.5,150.3l0.1,1.4l1.4-0.1l-0.1-1.4L24.5,150.3z M25.8,148.8l0.1,1.4l1.4-0.1l-0.1-1.4L25.8,148.8z M27.2,147.2l0.1,1.4l1.4-0.1
		l-0.1-1.4L27.2,147.2z M28.5,145.7l0.1,1.4L30,147l-0.1-1.4L28.5,145.7z M29.9,145.6L30,147l1.4-0.1l-0.1-1.4L29.9,145.6z M30,147
		l0.1,1.4l1.4-0.1l-0.1-1.4L30,147z M30.1,148.4l0.1,1.4l1.4-0.1l-0.1-1.4L30.1,148.4z M30.2,149.9l0.1,1.4l1.4-0.1l-0.1-1.4
		L30.2,149.9z M30.4,151.3l0.1,1.4l1.4-0.1l-0.1-1.4L30.4,151.3z M31.8,151.2l0.1,1.4l1.4-0.1l-0.1-1.4L31.8,151.2z M33.1,149.6
		l0.1,1.4l1.4-0.1l-0.1-1.4L33.1,149.6z M34.5,149.5l0.1,1.4l1.4-0.1l-0.1-1.4L34.5,149.5z M35.9,148l0.1,1.4l1.4-0.1l-0.1-1.4
		L35.9,148z M37.3,147.9l0.1,1.4l1.4-0.1l-0.1-1.4L37.3,147.9z M38.8,149.2l0.1,1.4l1.4-0.1l-0.1-1.4L38.8,149.2z M39,150.6l0.1,1.4
		l1.4-0.1l-0.1-1.4L39,150.6z M37.6,152.2l0.1,1.4l1.4-0.1l-0.1-1.4L37.6,152.2z M36.2,152.3l0.1,1.4l1.4-0.1l-0.1-1.4L36.2,152.3z
		 M34.9,153.8l0.1,1.4l1.4-0.1l-0.1-1.4L34.9,153.8z M33.5,153.9l0.1,1.4l1.4-0.1l-0.1-1.4L33.5,153.9z M32.1,155.5l0.1,1.4l1.4-0.1
		l-0.1-1.4L32.1,155.5z M33.7,156.8l0.1,1.4l1.4-0.1l-0.1-1.4L33.7,156.8z M35.2,158.1l0.1,1.4l1.4-0.1l-0.1-1.4L35.2,158.1z
		 M36.8,159.4l0.1,1.4l1.4-0.1l-0.1-1.4L36.8,159.4z M36.9,160.9l0.1,1.4l1.4-0.1l-0.1-1.4L36.9,160.9z M35.5,161l0.1,1.4l1.4-0.1
		l-0.1-1.4L35.5,161z M34,161.1l0.1,1.4l1.4-0.1l-0.1-1.4L34,161.1z M32.6,161.2l0.1,1.4l1.4-0.1l-0.1-1.4L32.6,161.2z M31.2,161.3
		l0.1,1.4l1.4-0.1l-0.1-1.4L31.2,161.3z M29.8,161.4l0.1,1.4l1.4-0.1l-0.1-1.4L29.8,161.4z M28.3,161.6l0.1,1.4l1.4-0.1l-0.1-1.4
		L28.3,161.6z M26.9,161.7l0.1,1.4l1.4-0.1l-0.1-1.4L26.9,161.7z M25.5,161.8l0.1,1.4l1.4-0.1l-0.1-1.4L25.5,161.8z M24,161.9
		l0.1,1.4l1.4-0.1l-0.1-1.4L24,161.9z M22.6,162l0.1,1.4l1.4-0.1l-0.1-1.4L22.6,162z M21.2,162.1l0.1,1.4l1.4-0.1l-0.1-1.4
		L21.2,162.1z M19.7,162.3l0.1,1.4l1.4-0.1l-0.1-1.4L19.7,162.3z M18.3,162.4l0.1,1.4l1.4-0.1l-0.1-1.4L18.3,162.4z M16.9,162.5
		l0.1,1.4l1.4-0.1l-0.1-1.4L16.9,162.5z M15.4,162.6l0.1,1.4l1.4-0.1l-0.1-1.4L15.4,162.6z M15.4,162.6l0.1,1.4l-1.4,0.1l-0.1-1.4
		L15.4,162.6z"/>
	<polygon class="st3" points="16.9,162.5 16.7,161.1 18.2,161 18.1,159.5 19.5,159.4 19.4,158 20.8,157.9 20.7,156.4 22.1,156.3 
		22,154.9 23.4,154.8 23.3,153.3 24.8,153.2 24.6,151.8 26.1,151.7 26,150.2 27.4,150.1 27.3,148.7 28.7,148.6 28.6,147.1 30,147 
		30.5,152.7 33.3,152.5 33.2,151.1 36.1,150.8 36,149.4 38.8,149.2 39.1,152 36.2,152.3 36.3,153.7 33.5,153.9 33.6,155.4 
		32.1,155.5 32.3,156.9 33.7,156.8 33.8,158.2 35.2,158.1 35.4,159.5 36.8,159.4 36.9,160.9 	"/>
	<path class="st0" d="M12.3,173.9l-0.7,0.8l0.8,0.7l0.7-0.8L12.3,173.9z M13.8,173.8l-0.7,0.8l0.8,0.7l0.7-0.8L13.8,173.8z
		 M15.3,173.7l-0.7,0.8l0.8,0.7l0.7-0.8L15.3,173.7z M16.8,173.7l-0.7,0.8l0.8,0.7l0.7-0.8L16.8,173.7z M18.3,173.6l-0.7,0.8
		l0.8,0.7l0.7-0.8L18.3,173.6z M19.8,173.5l-0.7,0.8l0.8,0.7l0.7-0.8L19.8,173.5z M21.3,173.4l-0.7,0.8l0.8,0.7l0.7-0.8L21.3,173.4z
		 M22.8,173.3l-0.7,0.8l0.8,0.7l0.7-0.8L22.8,173.3z M24.3,173.2l-0.7,0.8l0.8,0.7l0.7-0.8L24.3,173.2z M25.8,173.1l-0.7,0.8
		l0.8,0.7l0.7-0.8L25.8,173.1z M27.3,173l-0.7,0.8l0.8,0.7l0.7-0.8L27.3,173z M28.1,173.7l-0.7,0.8l0.8,0.7l0.7-0.8L28.1,173.7z
		 M27.4,174.5l-0.7,0.8l0.8,0.7l0.7-0.8L27.4,174.5z M26.7,175.3l-0.7,0.8l0.8,0.7l0.7-0.8L26.7,175.3z M26,176.1l-0.7,0.8l0.8,0.7
		l0.7-0.8L26,176.1z M25.3,176.9l-0.7,0.8l0.8,0.7l0.7-0.8L25.3,176.9z M26.1,177.6l-0.7,0.8l0.8,0.7l0.7-0.8L26.1,177.6z
		 M27.6,177.5l-0.7,0.8l0.8,0.7l0.7-0.8L27.6,177.5z M28.4,178.2l-0.7,0.8l0.8,0.7l0.7-0.8L28.4,178.2z M29.9,178.1l-0.7,0.8
		l0.8,0.7l0.7-0.8L29.9,178.1z M30.7,178.8l-0.7,0.8l0.8,0.7l0.7-0.8L30.7,178.8z M30.8,180.3l-0.7,0.8l0.8,0.7l0.7-0.8L30.8,180.3z
		 M30.1,181.1l-0.7,0.8l0.8,0.7l0.7-0.8L30.1,181.1z M28.6,181.2l-0.7,0.8l0.8,0.7l0.7-0.8L28.6,181.2z M27.8,180.5l-0.7,0.8
		l0.8,0.7l0.7-0.8L27.8,180.5z M26.3,180.6l-0.7,0.8l0.8,0.7l0.7-0.8L26.3,180.6z M25.5,179.9l-0.7,0.8l0.8,0.7l0.7-0.8L25.5,179.9z
		 M24,180l-0.7,0.8l0.8,0.7l0.7-0.8L24,180z M24.1,181.5l-0.7,0.8l0.8,0.7l0.7-0.8L24.1,181.5z M24.2,183l-0.7,0.8l0.8,0.7l0.7-0.8
		L24.2,183z M24.3,184.5l-0.7,0.8l0.8,0.7l0.7-0.8L24.3,184.5z M23.5,185.3l-0.7,0.8l0.8,0.7l0.7-0.8L23.5,185.3z M22.8,184.6
		l-0.7,0.8l0.8,0.7l0.7-0.8L22.8,184.6z M22,183.9l-0.7,0.8l0.8,0.7l0.7-0.8L22,183.9z M21.2,183.2l-0.7,0.8l0.8,0.7l0.7-0.8
		L21.2,183.2z M20.4,182.5l-0.7,0.8l0.8,0.7l0.7-0.8L20.4,182.5z M19.6,181.8l-0.7,0.8l0.8,0.7l0.7-0.8L19.6,181.8z M18.8,181.1
		l-0.7,0.8l0.8,0.7l0.7-0.8L18.8,181.1z M18,180.3l-0.7,0.8l0.8,0.7l0.7-0.8L18,180.3z M17.2,179.6l-0.7,0.8l0.8,0.7l0.7-0.8
		L17.2,179.6z M16.4,178.9l-0.7,0.8l0.8,0.7l0.7-0.8L16.4,178.9z M15.6,178.2l-0.7,0.8l0.8,0.7l0.7-0.8L15.6,178.2z M14.8,177.5
		l-0.7,0.8l0.8,0.7l0.7-0.8L14.8,177.5z M14,176.8l-0.7,0.8l0.8,0.7l0.7-0.8L14,176.8z M13.2,176.1l-0.7,0.8l0.8,0.7l0.7-0.8
		L13.2,176.1z M12.4,175.4l-0.7,0.8l0.8,0.7l0.7-0.8L12.4,175.4z M11.6,174.7l-0.7,0.8l0.8,0.7l0.7-0.8L11.6,174.7z M11.6,174.7
		l-0.7,0.8l-0.8-0.7l0.7-0.8L11.6,174.7z"/>
	<polygon class="st4" points="12.4,175.4 13.1,174.6 13.9,175.3 14.6,174.5 15.4,175.2 16.1,174.4 16.9,175.2 17.6,174.4 
		18.4,175.1 19.1,174.3 19.9,175 20.6,174.2 21.4,174.9 22.1,174.1 22.9,174.8 23.6,174 24.4,174.7 25.1,173.9 25.9,174.6 
		26.6,173.8 27.4,174.5 24.6,177.7 26.2,179.1 26.9,178.3 28.5,179.7 29.2,178.9 30.8,180.3 29.4,181.9 27.8,180.5 27.1,181.3 
		25.5,179.9 24.8,180.7 24,180 23.3,180.8 24.1,181.5 23.4,182.3 24.2,183 23.5,183.8 24.3,184.5 23.5,185.3 	"/>
	<path class="st0" d="M7.1,150l0.2,0.5l0.5-0.2l-0.2-0.5L7.1,150z M7.4,149.3l0.2,0.5l0.5-0.2L7.8,149L7.4,149.3z M7.6,148.6
		l0.2,0.5l0.5-0.2l-0.2-0.5L7.6,148.6z M7.8,147.9l0.2,0.5l0.5-0.2l-0.2-0.5L7.8,147.9z M8,147.2l0.2,0.5l0.5-0.2l-0.2-0.5L8,147.2z
		 M8.3,146.4l0.2,0.5l0.5-0.2l-0.2-0.5L8.3,146.4z M8.5,145.7l0.2,0.5l0.5-0.2L9,145.5L8.5,145.7z M8.7,145l0.2,0.5l0.5-0.2
		l-0.2-0.5L8.7,145z M9,144.3l0.2,0.5l0.5-0.2l-0.2-0.5L9,144.3z M9.2,143.6l0.2,0.5l0.5-0.2l-0.2-0.5L9.2,143.6z M9.4,142.9
		l0.2,0.5l0.5-0.2l-0.2-0.5L9.4,142.9z M9.9,142.6l0.2,0.5l0.5-0.2l-0.2-0.5L9.9,142.6z M10.1,143.1l0.2,0.5l0.5-0.2l-0.2-0.5
		L10.1,143.1z M10.4,143.6l0.2,0.5l0.5-0.2l-0.2-0.5L10.4,143.6z M10.6,144l0.2,0.5l0.5-0.2l-0.2-0.5L10.6,144z M10.8,144.5l0.2,0.5
		l0.5-0.2l-0.2-0.5L10.8,144.5z M11.3,144.3l0.2,0.5l0.5-0.2l-0.2-0.5L11.3,144.3z M11.5,143.6l0.2,0.5l0.5-0.2l-0.2-0.5L11.5,143.6
		z M12,143.3l0.2,0.5l0.5-0.2l-0.2-0.5L12,143.3z M12.2,142.6l0.2,0.5l0.5-0.2l-0.2-0.5L12.2,142.6z M12.7,142.4l0.2,0.5l0.5-0.2
		l-0.2-0.5L12.7,142.4z M13.4,142.6l0.2,0.5l0.5-0.2l-0.2-0.5L13.4,142.6z M13.7,143.1l0.2,0.5l0.5-0.2l-0.2-0.5L13.7,143.1z
		 M13.4,143.8l0.2,0.5l0.5-0.2l-0.2-0.5L13.4,143.8z M13,144l0.2,0.5l0.5-0.2l-0.2-0.5L13,144z M12.7,144.7l0.2,0.5l0.5-0.2
		l-0.2-0.5L12.7,144.7z M12.3,145l0.2,0.5l0.5-0.2l-0.2-0.5L12.3,145z M12,145.7l0.2,0.5l0.5-0.2l-0.2-0.5L12,145.7z M12.8,145.9
		l0.2,0.5l0.5-0.2l-0.2-0.5L12.8,145.9z M13.5,146.1l0.2,0.5l0.5-0.2l-0.2-0.5L13.5,146.1z M14.2,146.4l0.2,0.5l0.5-0.2l-0.2-0.5
		L14.2,146.4z M14.4,146.8l0.2,0.5l0.5-0.2l-0.2-0.5L14.4,146.8z M14,147.1l0.2,0.5l0.5-0.2l-0.2-0.5L14,147.1z M13.5,147.3l0.2,0.5
		l0.5-0.2l-0.2-0.5L13.5,147.3z M13,147.6l0.2,0.5l0.5-0.2l-0.2-0.5L13,147.6z M12.5,147.8l0.2,0.5l0.5-0.2l-0.2-0.5L12.5,147.8z
		 M12.1,148l0.2,0.5l0.5-0.2l-0.2-0.5L12.1,148z M11.6,148.3l0.2,0.5l0.5-0.2l-0.2-0.5L11.6,148.3z M11.1,148.5l0.2,0.5l0.5-0.2
		l-0.2-0.5L11.1,148.5z M10.7,148.8l0.2,0.5l0.5-0.2l-0.2-0.5L10.7,148.8z M10.2,149l0.2,0.5l0.5-0.2l-0.2-0.5L10.2,149z M9.7,149.3
		l0.2,0.5l0.5-0.2l-0.2-0.5L9.7,149.3z M9.3,149.5l0.2,0.5l0.5-0.2l-0.2-0.5L9.3,149.5z M8.8,149.7l0.2,0.5l0.5-0.2l-0.2-0.5
		L8.8,149.7z M8.3,150l0.2,0.5l0.5-0.2l-0.2-0.5L8.3,150z M7.9,150.2l0.2,0.5l0.5-0.2L8.3,150L7.9,150.2z M7.4,150.5l0.2,0.5
		l0.5-0.2l-0.2-0.5L7.4,150.5z M7.4,150.5l0.2,0.5l-0.5,0.2l-0.2-0.5L7.4,150.5z"/>
	<polygon class="st3" points="7.8,150.2 7.6,149.8 8.1,149.5 7.8,149 8.3,148.8 8.1,148.3 8.5,148.1 8.3,147.6 8.8,147.4 8.5,146.9 
		9,146.7 8.7,146.2 9.2,146 9,145.5 9.4,145.2 9.2,144.8 9.7,144.5 9.4,144.1 9.9,143.8 9.7,143.4 10.1,143.1 11.1,145 12,144.5 
		11.8,144 12.7,143.5 12.5,143.1 13.4,142.6 13.9,143.5 13,144 13.2,144.5 12.3,145 12.5,145.4 12,145.7 12.3,146.2 12.8,145.9 
		13,146.4 13.5,146.1 13.7,146.6 14.2,146.4 14.4,146.8 	"/>
	<path class="st0" d="M48.2,152.9l0.1,1.3l1.3-0.1l-0.1-1.3L48.2,152.9z M49.4,151.6l0.1,1.3l1.3-0.1l-0.1-1.3L49.4,151.6z
		 M50.6,150.2l0.1,1.3l1.3-0.1l-0.1-1.3L50.6,150.2z M51.8,148.9l0.1,1.3l1.3-0.1l-0.1-1.3L51.8,148.9z M53,147.5l0.1,1.3l1.3-0.1
		l-0.1-1.3L53,147.5z M54.2,146.2l0.1,1.3l1.3-0.1l-0.1-1.3L54.2,146.2z M55.4,144.9l0.1,1.3l1.3-0.1l-0.1-1.3L55.4,144.9z
		 M56.6,143.5l0.1,1.3l1.3-0.1l-0.1-1.3L56.6,143.5z M57.8,142.2l0.1,1.3l1.3-0.1l-0.1-1.3L57.8,142.2z M59,140.8l0.1,1.3l1.3-0.1
		l-0.1-1.3L59,140.8z M60.2,139.5l0.1,1.3l1.3-0.1l-0.1-1.3L60.2,139.5z M61.4,139.4l0.1,1.3l1.3-0.1l-0.1-1.3L61.4,139.4z
		 M61.5,140.7l0.1,1.3l1.3-0.1l-0.1-1.3L61.5,140.7z M61.6,141.9l0.1,1.3l1.3-0.1l-0.1-1.3L61.6,141.9z M61.6,143.2l0.1,1.3l1.3-0.1
		l-0.1-1.3L61.6,143.2z M61.7,144.5l0.1,1.3l1.3-0.1l-0.1-1.3L61.7,144.5z M63,144.4l0.1,1.3l1.3-0.1l-0.1-1.3L63,144.4z M64.2,143
		l0.1,1.3l1.3-0.1l-0.1-1.3L64.2,143z M65.4,143l0.1,1.3l1.3-0.1l-0.1-1.3L65.4,143z M66.6,141.6l0.1,1.3l1.3-0.1l-0.1-1.3
		L66.6,141.6z M67.9,141.6l0.1,1.3l1.3-0.1l-0.1-1.3L67.9,141.6z M69.3,142.7l0.1,1.3l1.3-0.1l-0.1-1.3L69.3,142.7z M69.3,144
		l0.1,1.3l1.3-0.1l-0.1-1.3L69.3,144z M68.1,145.4l0.1,1.3l1.3-0.1l-0.1-1.3L68.1,145.4z M66.9,145.4l0.1,1.3l1.3-0.1l-0.1-1.3
		L66.9,145.4z M65.7,146.8l0.1,1.3L67,148l-0.1-1.3L65.7,146.8z M64.4,146.9l0.1,1.3l1.3-0.1l-0.1-1.3L64.4,146.9z M63.2,148.2
		l0.1,1.3l1.3-0.1l-0.1-1.3L63.2,148.2z M64.6,149.4l0.1,1.3l1.3-0.1l-0.1-1.3L64.6,149.4z M65.9,150.6l0.1,1.3l1.3-0.1l-0.1-1.3
		L65.9,150.6z M67.2,151.8l0.1,1.3l1.3-0.1l-0.1-1.3L67.2,151.8z M67.3,153l0.1,1.3l1.3-0.1l-0.1-1.3L67.3,153z M66.1,153.1l0.1,1.3
		l1.3-0.1l-0.1-1.3L66.1,153.1z M64.8,153.2l0.1,1.3l1.3-0.1l-0.1-1.3L64.8,153.2z M63.5,153.3l0.1,1.3l1.3-0.1l-0.1-1.3L63.5,153.3
		z M62.3,153.3l0.1,1.3l1.3-0.1l-0.1-1.3L62.3,153.3z M61,153.4l0.1,1.3l1.3-0.1l-0.1-1.3L61,153.4z M59.7,153.5l0.1,1.3l1.3-0.1
		l-0.1-1.3L59.7,153.5z M58.5,153.6l0.1,1.3l1.3-0.1l-0.1-1.3L58.5,153.6z M57.2,153.6l0.1,1.3l1.3-0.1l-0.1-1.3L57.2,153.6z
		 M55.9,153.7L56,155l1.3-0.1l-0.1-1.3L55.9,153.7z M54.7,153.8l0.1,1.3L56,155l-0.1-1.3L54.7,153.8z M53.4,153.9l0.1,1.3l1.3-0.1
		l-0.1-1.3L53.4,153.9z M52.1,154l0.1,1.3l1.3-0.1l-0.1-1.3L52.1,154z M50.9,154l0.1,1.3l1.3-0.1l-0.1-1.3L50.9,154z M49.6,154.1
		l0.1,1.3l1.3-0.1l-0.1-1.3L49.6,154.1z M48.3,154.2l0.1,1.3l1.3-0.1l-0.1-1.3L48.3,154.2z M48.3,154.2l0.1,1.3l-1.3,0.1l-0.1-1.3
		L48.3,154.2z"/>
	<polygon class="st3" points="49.6,154.1 49.5,152.8 50.8,152.8 50.7,151.5 52,151.4 51.9,150.1 53.2,150.1 53.1,148.8 54.3,148.7 
		54.3,147.5 55.5,147.4 55.5,146.1 56.7,146 56.7,144.8 57.9,144.7 57.8,143.4 59.1,143.4 59,142.1 60.3,142 60.2,140.7 61.5,140.7 
		61.8,145.7 64.3,145.6 64.3,144.3 66.8,144.2 66.7,142.9 69.3,142.7 69.4,145.3 66.9,145.4 66.9,146.7 64.4,146.9 64.5,148.1 
		63.2,148.2 63.3,149.5 64.6,149.4 64.6,150.7 65.9,150.6 66,151.8 67.3,151.8 67.3,153 	"/>
	<path class="st0" d="M79.4,138.3l0.4,0.8l0.8-0.4l-0.4-0.8L79.4,138.3z M79.9,137.1l0.4,0.8l0.8-0.4l-0.4-0.8L79.9,137.1z
		 M80.4,135.9l0.4,0.8l0.8-0.4l-0.4-0.8L80.4,135.9z M80.8,134.7l0.4,0.8l0.8-0.4l-0.4-0.8L80.8,134.7z M81.3,133.5l0.4,0.8l0.8-0.4
		l-0.4-0.8L81.3,133.5z M81.8,132.3l0.4,0.8l0.8-0.4l-0.4-0.8L81.8,132.3z M82.3,131.1l0.4,0.8l0.8-0.4l-0.4-0.8L82.3,131.1z
		 M82.8,129.9l0.4,0.8l0.8-0.4l-0.4-0.8L82.8,129.9z M83.2,128.6l0.4,0.8l0.8-0.4l-0.4-0.8L83.2,128.6z M83.7,127.4l0.4,0.8l0.8-0.4
		l-0.4-0.8L83.7,127.4z M84.2,126.2l0.4,0.8l0.8-0.4l-0.4-0.8L84.2,126.2z M85,125.9l0.4,0.8l0.8-0.4l-0.4-0.8L85,125.9z
		 M85.4,126.7l0.4,0.8l0.8-0.4l-0.4-0.8L85.4,126.7z M85.8,127.6l0.4,0.8L87,128l-0.4-0.8L85.8,127.6z M86.1,128.4l0.4,0.8l0.8-0.4
		L87,128L86.1,128.4z M86.5,129.2l0.4,0.8l0.8-0.4l-0.4-0.8L86.5,129.2z M87.3,128.9l0.4,0.8l0.8-0.4l-0.4-0.8L87.3,128.9z
		 M87.8,127.7l0.4,0.8l0.8-0.4l-0.4-0.8L87.8,127.7z M88.7,127.3l0.4,0.8l0.8-0.4l-0.4-0.8L88.7,127.3z M89.1,126.1l0.4,0.8l0.8-0.4
		l-0.4-0.8L89.1,126.1z M90,125.7l0.4,0.8l0.8-0.4l-0.4-0.8L90,125.7z M91.2,126.2l0.4,0.8l0.8-0.4l-0.4-0.8L91.2,126.2z M91.6,127
		l0.4,0.8l0.8-0.4l-0.4-0.8L91.6,127z M91.1,128.3l0.4,0.8l0.8-0.4l-0.4-0.8L91.1,128.3z M90.2,128.6l0.4,0.8l0.8-0.4l-0.4-0.8
		L90.2,128.6z M89.8,129.8l0.4,0.8l0.8-0.4l-0.4-0.8L89.8,129.8z M88.9,130.2l0.4,0.8l0.8-0.4l-0.4-0.8L88.9,130.2z M88.4,131.4
		l0.4,0.8l0.8-0.4l-0.4-0.8L88.4,131.4z M89.7,131.9l0.4,0.8l0.8-0.4l-0.4-0.8L89.7,131.9z M90.9,132.4l0.4,0.8l0.8-0.4l-0.4-0.8
		L90.9,132.4z M92.1,132.8l0.4,0.8l0.8-0.4l-0.4-0.8L92.1,132.8z M92.4,133.7l0.4,0.8l0.8-0.4l-0.4-0.8L92.4,133.7z M91.6,134.1
		l0.4,0.8l0.8-0.4l-0.4-0.8L91.6,134.1z M90.7,134.4l0.4,0.8l0.8-0.4l-0.4-0.8L90.7,134.4z M89.9,134.8l0.4,0.8l0.8-0.4l-0.4-0.8
		L89.9,134.8z M89.1,135.2l0.4,0.8l0.8-0.4l-0.4-0.8L89.1,135.2z M88.2,135.5l0.4,0.8l0.8-0.4l-0.4-0.8L88.2,135.5z M87.4,135.9
		l0.4,0.8l0.8-0.4l-0.4-0.8L87.4,135.9z M86.5,136.2l0.4,0.8l0.8-0.4l-0.4-0.8L86.5,136.2z M85.7,136.6l0.4,0.8l0.8-0.4l-0.4-0.8
		L85.7,136.6z M84.8,137l0.4,0.8l0.8-0.4l-0.4-0.8L84.8,137z M84,137.3l0.4,0.8l0.8-0.4l-0.4-0.8L84,137.3z M83.1,137.7l0.4,0.8
		l0.8-0.4l-0.4-0.8L83.1,137.7z M82.3,138.1l0.4,0.8l0.8-0.4l-0.4-0.8L82.3,138.1z M81.5,138.4l0.4,0.8l0.8-0.4l-0.4-0.8L81.5,138.4
		z M80.6,138.8l0.4,0.8l0.8-0.4l-0.4-0.8L80.6,138.8z M79.8,139.2l0.4,0.8l0.8-0.4l-0.4-0.8L79.8,139.2z M79.8,139.2l0.4,0.8
		l-0.8,0.4l-0.4-0.8L79.8,139.2z"/>
	<polygon class="st5" points="80.6,138.8 80.2,138 81.1,137.6 80.7,136.8 81.6,136.4 81.2,135.5 82.1,135.2 81.7,134.3 82.5,134 
		82.2,133.1 83,132.8 82.6,131.9 83.5,131.5 83.1,130.7 84,130.3 83.6,129.5 84.4,129.1 84.1,128.3 84.9,127.9 84.6,127.1 
		85.4,126.7 86.9,130.1 88.5,129.4 88.2,128.5 89.9,127.8 89.5,126.9 91.2,126.2 91.9,127.9 90.2,128.6 90.6,129.5 88.9,130.2 
		89.3,131 88.4,131.4 88.8,132.2 89.7,131.9 90,132.7 90.9,132.4 91.2,133.2 92.1,132.8 92.4,133.7 	"/>
	<path class="st0" d="M28.8,140.1l0.2,0.4l0.4-0.2l-0.2-0.4L28.8,140.1z M29,139.5l0.2,0.4l0.4-0.2l-0.2-0.4L29,139.5z M29.2,138.9
		l0.2,0.4l0.4-0.2l-0.2-0.4L29.2,138.9z M29.5,138.3l0.2,0.4l0.4-0.2l-0.2-0.4L29.5,138.3z M29.7,137.7l0.2,0.4l0.4-0.2l-0.2-0.4
		L29.7,137.7z M29.9,137l0.2,0.4l0.4-0.2l-0.2-0.4L29.9,137z M30.1,136.4l0.2,0.4l0.4-0.2l-0.2-0.4L30.1,136.4z M30.3,135.8l0.2,0.4
		L31,136l-0.2-0.4L30.3,135.8z M30.6,135.2l0.2,0.4l0.4-0.2L31,135L30.6,135.2z M30.8,134.6L31,135l0.4-0.2l-0.2-0.4L30.8,134.6z
		 M31,133.9l0.2,0.4l0.4-0.2l-0.2-0.4L31,133.9z M31.4,133.7l0.2,0.4L32,134l-0.2-0.4L31.4,133.7z M31.6,134.2l0.2,0.4l0.4-0.2
		L32,134L31.6,134.2z M31.8,134.6L32,135l0.4-0.2l-0.2-0.4L31.8,134.6z M32,135l0.2,0.4l0.4-0.2l-0.2-0.4L32,135z M32.2,135.4
		l0.2,0.4l0.4-0.2l-0.2-0.4L32.2,135.4z M32.6,135.2l0.2,0.4l0.4-0.2l-0.2-0.4L32.6,135.2z M32.9,134.6l0.2,0.4l0.4-0.2l-0.2-0.4
		L32.9,134.6z M33.3,134.4l0.2,0.4l0.4-0.2l-0.2-0.4L33.3,134.4z M33.5,133.8l0.2,0.4l0.4-0.2l-0.2-0.4L33.5,133.8z M33.9,133.6
		l0.2,0.4l0.4-0.2l-0.2-0.4L33.9,133.6z M34.5,133.8l0.2,0.4l0.4-0.2l-0.2-0.4L34.5,133.8z M34.7,134.2l0.2,0.4l0.4-0.2l-0.2-0.4
		L34.7,134.2z M34.5,134.8l0.2,0.4l0.4-0.2l-0.2-0.4L34.5,134.8z M34.1,135l0.2,0.4l0.4-0.2l-0.2-0.4L34.1,135z M33.9,135.7l0.2,0.4
		l0.4-0.2l-0.2-0.4L33.9,135.7z M33.5,135.9l0.2,0.4l0.4-0.2l-0.2-0.4L33.5,135.9z M33.2,136.5l0.2,0.4l0.4-0.2l-0.2-0.4L33.2,136.5
		z M33.9,136.7l0.2,0.4l0.4-0.2l-0.2-0.4L33.9,136.7z M34.5,136.9l0.2,0.4l0.4-0.2l-0.2-0.4L34.5,136.9z M35.1,137.1l0.2,0.4
		l0.4-0.2l-0.2-0.4L35.1,137.1z M35.3,137.6l0.2,0.4l0.4-0.2l-0.2-0.4L35.3,137.6z M34.9,137.8l0.2,0.4l0.4-0.2l-0.2-0.4L34.9,137.8
		z M34.5,138l0.2,0.4l0.4-0.2l-0.2-0.4L34.5,138z M34,138.2l0.2,0.4l0.4-0.2l-0.2-0.4L34,138.2z M33.6,138.4l0.2,0.4l0.4-0.2
		l-0.2-0.4L33.6,138.4z M33.2,138.6l0.2,0.4l0.4-0.2l-0.2-0.4L33.2,138.6z M32.8,138.8l0.2,0.4l0.4-0.2l-0.2-0.4L32.8,138.8z
		 M32.4,139l0.2,0.4l0.4-0.2l-0.2-0.4L32.4,139z M31.9,139.2l0.2,0.4l0.4-0.2l-0.2-0.4L31.9,139.2z M31.5,139.4l0.2,0.4l0.4-0.2
		l-0.2-0.4L31.5,139.4z M31.1,139.6l0.2,0.4l0.4-0.2l-0.2-0.4L31.1,139.6z M30.7,139.8l0.2,0.4l0.4-0.2l-0.2-0.4L30.7,139.8z
		 M30.3,140l0.2,0.4l0.4-0.2l-0.2-0.4L30.3,140z M29.8,140.2l0.2,0.4l0.4-0.2l-0.2-0.4L29.8,140.2z M29.4,140.4l0.2,0.4l0.4-0.2
		l-0.2-0.4L29.4,140.4z M29,140.6l0.2,0.4l0.4-0.2l-0.2-0.4L29,140.6z M29,140.6l0.2,0.4l-0.4,0.2l-0.2-0.4L29,140.6z"/>
	<polygon class="st3" points="29.4,140.4 29.2,139.9 29.6,139.7 29.4,139.3 29.9,139.1 29.7,138.7 30.1,138.5 29.9,138.1 
		30.3,137.9 30.1,137.5 30.5,137.3 30.3,136.8 30.7,136.6 30.5,136.2 31,136 30.8,135.6 31.2,135.4 31,135 31.4,134.8 31.2,134.4 
		31.6,134.2 32.4,135.8 33.3,135.4 33.1,135 33.9,134.6 33.7,134.2 34.5,133.8 34.9,134.7 34.1,135 34.3,135.5 33.5,135.9 
		33.7,136.3 33.2,136.5 33.4,136.9 33.9,136.7 34.1,137.1 34.5,136.9 34.7,137.3 35.1,137.1 35.3,137.6 	"/>
	<path class="st0" d="M92,157.1l0.4,1.1l1.1-0.4l-0.4-1.1L92,157.1z M92.7,155.6l0.4,1.1l1.1-0.4l-0.4-1.1L92.7,155.6z M93.4,154.1
		l0.4,1.1l1.1-0.4l-0.4-1.1L93.4,154.1z M94.1,152.6l0.4,1.1l1.1-0.4l-0.4-1.1L94.1,152.6z M94.8,151.1l0.4,1.1l1.1-0.4l-0.4-1.1
		L94.8,151.1z M95.5,149.6l0.4,1.1l1.1-0.4l-0.4-1.1L95.5,149.6z M96.2,148.1l0.4,1.1l1.1-0.4l-0.4-1.1L96.2,148.1z M96.9,146.7
		l0.4,1.1l1.1-0.4l-0.4-1.1L96.9,146.7z M97.6,145.2l0.4,1.1l1.1-0.4l-0.4-1.1L97.6,145.2z M98.3,143.7l0.4,1.1l1.1-0.4l-0.4-1.1
		L98.3,143.7z M99.1,142.2l0.4,1.1l1.1-0.4l-0.4-1.1L99.1,142.2z M100.2,141.8l0.4,1.1l1.1-0.4l-0.4-1.1L100.2,141.8z M100.5,142.9
		l0.4,1.1l1.1-0.4l-0.4-1.1L100.5,142.9z M100.9,144l0.4,1.1l1.1-0.4l-0.4-1.1L100.9,144z M101.3,145.1l0.4,1.1l1.1-0.4l-0.4-1.1
		L101.3,145.1z M101.7,146.2l0.4,1.1l1.1-0.4l-0.4-1.1L101.7,146.2z M102.8,145.8l0.4,1.1l1.1-0.4l-0.4-1.1L102.8,145.8z
		 M103.5,144.3l0.4,1.1l1.1-0.4l-0.4-1.1L103.5,144.3z M104.6,143.9l0.4,1.1l1.1-0.4l-0.4-1.1L104.6,143.9z M105.3,142.4l0.4,1.1
		l1.1-0.4l-0.4-1.1L105.3,142.4z M106.4,142l0.4,1.1l1.1-0.4l-0.4-1.1L106.4,142z M107.9,142.7l0.4,1.1l1.1-0.4l-0.4-1.1
		L107.9,142.7z M108.3,143.8l0.4,1.1l1.1-0.4l-0.4-1.1L108.3,143.8z M107.6,145.3l0.4,1.1l1.1-0.4l-0.4-1.1L107.6,145.3z
		 M106.5,145.7l0.4,1.1l1.1-0.4l-0.4-1.1L106.5,145.7z M105.8,147.2l0.4,1.1l1.1-0.4l-0.4-1.1L105.8,147.2z M104.7,147.6l0.4,1.1
		l1.1-0.4l-0.4-1.1L104.7,147.6z M104,149.1l0.4,1.1l1.1-0.4l-0.4-1.1L104,149.1z M105.5,149.8l0.4,1.1l1.1-0.4l-0.4-1.1
		L105.5,149.8z M107,150.5l0.4,1.1l1.1-0.4l-0.4-1.1L107,150.5z M108.5,151.2l0.4,1.1l1.1-0.4l-0.4-1.1L108.5,151.2z M108.9,152.3
		l0.4,1.1l1.1-0.4l-0.4-1.1L108.9,152.3z M107.8,152.7l0.4,1.1l1.1-0.4l-0.4-1.1L107.8,152.7z M106.7,153.1l0.4,1.1l1.1-0.4
		l-0.4-1.1L106.7,153.1z M105.6,153.5l0.4,1.1l1.1-0.4l-0.4-1.1L105.6,153.5z M104.5,153.9l0.4,1.1l1.1-0.4l-0.4-1.1L104.5,153.9z
		 M103.4,154.3l0.4,1.1l1.1-0.4l-0.4-1.1L103.4,154.3z M102.3,154.6l0.4,1.1l1.1-0.4l-0.4-1.1L102.3,154.6z M101.2,155l0.4,1.1
		l1.1-0.4l-0.4-1.1L101.2,155z M100.1,155.4l0.4,1.1l1.1-0.4l-0.4-1.1L100.1,155.4z M99,155.8l0.4,1.1l1.1-0.4l-0.4-1.1L99,155.8z
		 M97.9,156.2l0.4,1.1l1.1-0.4l-0.4-1.1L97.9,156.2z M96.8,156.6l0.4,1.1l1.1-0.4l-0.4-1.1L96.8,156.6z M95.7,157l0.4,1.1l1.1-0.4
		l-0.4-1.1L95.7,157z M94.6,157.4l0.4,1.1l1.1-0.4l-0.4-1.1L94.6,157.4z M93.5,157.8l0.4,1.1l1.1-0.4l-0.4-1.1L93.5,157.8z
		 M92.4,158.2l0.4,1.1l1.1-0.4l-0.4-1.1L92.4,158.2z M92.4,158.2l0.4,1.1l-1.1,0.4l-0.4-1.1L92.4,158.2z"/>
	<polygon class="st3" points="93.5,157.8 93.1,156.7 94.2,156.3 93.8,155.2 94.9,154.8 94.5,153.7 95.6,153.3 95.2,152.2 
		96.3,151.8 95.9,150.7 97,150.3 96.6,149.2 97.7,148.8 97.3,147.7 98.4,147.4 98,146.3 99.1,145.9 98.7,144.8 99.8,144.4 
		99.4,143.3 100.5,142.9 102.1,147.3 104.3,146.5 103.9,145.4 106.1,144.6 105.7,143.5 107.9,142.7 108.7,144.9 106.5,145.7 
		106.9,146.8 104.7,147.6 105.1,148.7 104,149.1 104.4,150.2 105.5,149.8 105.9,150.9 107,150.5 107.4,151.6 108.5,151.2 
		108.9,152.3 	"/>
	<path class="st0" d="M73.5,158.3l0.1,0.6l0.6-0.1l-0.1-0.6L73.5,158.3z M74,157.6l0.1,0.6l0.6-0.1l-0.1-0.6L74,157.6z M74.5,157
		l0.1,0.6l0.6-0.1l-0.1-0.6L74.5,157z M75,156.3l0.1,0.6l0.6-0.1l-0.1-0.6L75,156.3z M75.5,155.6l0.1,0.6l0.6-0.1l-0.1-0.6
		L75.5,155.6z M75.9,155l0.1,0.6l0.6-0.1l-0.1-0.6L75.9,155z M76.4,154.3l0.1,0.6l0.6-0.1l-0.1-0.6L76.4,154.3z M76.9,153.7l0.1,0.6
		l0.6-0.1l-0.1-0.6L76.9,153.7z M77.4,153l0.1,0.6l0.6-0.1l-0.1-0.6L77.4,153z M77.9,152.4l0.1,0.6l0.6-0.1l-0.1-0.6L77.9,152.4z
		 M78.4,151.7l0.1,0.6l0.6-0.1l-0.1-0.6L78.4,151.7z M79,151.6l0.1,0.6l0.6-0.1l-0.1-0.6L79,151.6z M79.1,152.2l0.1,0.6l0.6-0.1
		l-0.1-0.6L79.1,152.2z M79.2,152.8l0.1,0.6l0.6-0.1l-0.1-0.6L79.2,152.8z M79.2,153.3l0.1,0.6l0.6-0.1l-0.1-0.6L79.2,153.3z
		 M79.3,153.9l0.1,0.6l0.6-0.1l-0.1-0.6L79.3,153.9z M79.9,153.8l0.1,0.6l0.6-0.1l-0.1-0.6L79.9,153.8z M80.4,153.2l0.1,0.6l0.6-0.1
		l-0.1-0.6L80.4,153.2z M81,153.1l0.1,0.6l0.6-0.1l-0.1-0.6L81,153.1z M81.5,152.4l0.1,0.6l0.6-0.1l-0.1-0.6L81.5,152.4z
		 M82.1,152.4l0.1,0.6l0.6-0.1l-0.1-0.6L82.1,152.4z M82.7,152.9l0.1,0.6l0.6-0.1l-0.1-0.6L82.7,152.9z M82.8,153.4l0.1,0.6l0.6-0.1
		l-0.1-0.6L82.8,153.4z M82.3,154.1l0.1,0.6l0.6-0.1l-0.1-0.6L82.3,154.1z M81.7,154.2l0.1,0.6l0.6-0.1l-0.1-0.6L81.7,154.2z
		 M81.2,154.8l0.1,0.6l0.6-0.1l-0.1-0.6L81.2,154.8z M80.6,154.9l0.1,0.6l0.6-0.1l-0.1-0.6L80.6,154.9z M80.2,155.6l0.1,0.6l0.6-0.1
		l-0.1-0.6L80.2,155.6z M80.8,156.1l0.1,0.6l0.6-0.1l-0.1-0.6L80.8,156.1z M81.5,156.6l0.1,0.6l0.6-0.1l-0.1-0.6L81.5,156.6z
		 M82.1,157.1l0.1,0.6l0.6-0.1l-0.1-0.6L82.1,157.1z M82.2,157.6l0.1,0.6l0.6-0.1l-0.1-0.6L82.2,157.6z M81.6,157.7l0.1,0.6l0.6-0.1
		l-0.1-0.6L81.6,157.7z M81.1,157.8l0.1,0.6l0.6-0.1l-0.1-0.6L81.1,157.8z M80.5,157.9l0.1,0.6l0.6-0.1l-0.1-0.6L80.5,157.9z
		 M79.9,158l0.1,0.6l0.6-0.1l-0.1-0.6L79.9,158z M79.3,158l0.1,0.6l0.6-0.1l-0.1-0.6L79.3,158z M78.7,158.1l0.1,0.6l0.6-0.1
		l-0.1-0.6L78.7,158.1z M78.2,158.2l0.1,0.6l0.6-0.1l-0.1-0.6L78.2,158.2z M77.6,158.3l0.1,0.6l0.6-0.1l-0.1-0.6L77.6,158.3z
		 M77,158.4l0.1,0.6l0.6-0.1l-0.1-0.6L77,158.4z M76.4,158.5l0.1,0.6l0.6-0.1l-0.1-0.6L76.4,158.5z M75.9,158.5l0.1,0.6l0.6-0.1
		l-0.1-0.6L75.9,158.5z M75.3,158.6l0.1,0.6l0.6-0.1l-0.1-0.6L75.3,158.6z M74.7,158.7l0.1,0.6l0.6-0.1l-0.1-0.6L74.7,158.7z
		 M74.1,158.8l0.1,0.6l0.6-0.1l-0.1-0.6L74.1,158.8z M73.5,158.9l0.1,0.6l0.6-0.1l-0.1-0.6L73.5,158.9z M73.5,158.9l0.1,0.6
		l-0.6,0.1l-0.1-0.6L73.5,158.9z"/>
	<polygon class="st6" points="74.1,158.8 74,158.2 74.6,158.1 74.5,157.5 75.1,157.5 75,156.9 75.6,156.8 75.5,156.2 76.1,156.1 
		76,155.6 76.6,155.5 76.5,154.9 77.1,154.8 77,154.2 77.6,154.2 77.5,153.6 78.1,153.5 78,152.9 78.6,152.9 78.5,152.3 79.1,152.2 
		79.4,154.5 80.6,154.3 80.5,153.8 81.6,153.6 81.6,153 82.7,152.9 82.9,154 81.7,154.2 81.8,154.8 80.6,154.9 80.7,155.5 
		80.1,155.6 80.2,156.2 80.8,156.1 80.9,156.6 81.5,156.6 81.5,157.1 82.1,157.1 82.2,157.6 	"/>
	<path class="st0" d="M88.4,114.6l0.3,0.7l0.7-0.3l-0.3-0.7L88.4,114.6z M88.8,113.5l0.3,0.7l0.7-0.3l-0.3-0.7L88.8,113.5z
		 M89.2,112.5l0.3,0.7l0.7-0.3l-0.3-0.7L89.2,112.5z M89.6,111.5l0.3,0.7l0.7-0.3l-0.3-0.7L89.6,111.5z M90,110.5l0.3,0.7l0.7-0.3
		l-0.3-0.7L90,110.5z M90.4,109.5l0.3,0.7l0.7-0.3l-0.3-0.7L90.4,109.5z M90.7,108.4l0.3,0.7l0.7-0.3l-0.3-0.7L90.7,108.4z
		 M91.1,107.4l0.3,0.7l0.7-0.3l-0.3-0.7L91.1,107.4z M91.5,106.4l0.3,0.7l0.7-0.3l-0.3-0.7L91.5,106.4z M91.9,105.4l0.3,0.7l0.7-0.3
		l-0.3-0.7L91.9,105.4z M92.3,104.4l0.3,0.7l0.7-0.3L93,104L92.3,104.4z M93,104l0.3,0.7l0.7-0.3l-0.3-0.7L93,104z M93.3,104.8
		l0.3,0.7l0.7-0.3l-0.3-0.7L93.3,104.8z M93.6,105.4l0.3,0.7l0.7-0.3l-0.3-0.7L93.6,105.4z M93.9,106.2l0.3,0.7l0.7-0.3l-0.3-0.7
		L93.9,106.2z M94.3,106.9l0.3,0.7l0.7-0.3l-0.3-0.7L94.3,106.9z M94.9,106.5l0.3,0.7l0.7-0.3l-0.3-0.7L94.9,106.5z M95.3,105.5
		l0.3,0.7l0.7-0.3l-0.3-0.7L95.3,105.5z M96,105.2l0.3,0.7l0.7-0.3l-0.3-0.7L96,105.2z M96.4,104.2l0.3,0.7l0.7-0.3l-0.3-0.7
		L96.4,104.2z M97.1,103.9l0.3,0.7l0.7-0.3l-0.3-0.7L97.1,103.9z M98.1,104.2l0.3,0.7l0.7-0.3l-0.3-0.7L98.1,104.2z M98.5,104.9
		l0.3,0.7l0.7-0.3l-0.3-0.7L98.5,104.9z M98.1,106l0.3,0.7l0.7-0.3l-0.3-0.7L98.1,106z M97.4,106.3l0.3,0.7l0.7-0.3l-0.3-0.7
		L97.4,106.3z M97,107.3l0.3,0.7l0.7-0.3l-0.3-0.7L97,107.3z M96.3,107.6l0.3,0.7l0.7-0.3l-0.3-0.7L96.3,107.6z M95.9,108.6l0.3,0.7
		l0.7-0.3l-0.3-0.7L95.9,108.6z M96.9,109l0.3,0.7l0.7-0.3l-0.3-0.7L96.9,109z M97.9,109.4l0.3,0.7l0.7-0.3l-0.3-0.7L97.9,109.4z
		 M99,109.8l0.3,0.7l0.7-0.3l-0.3-0.7L99,109.8z M99.3,110.5l0.3,0.7l0.7-0.3l-0.3-0.7L99.3,110.5z M98.6,110.8l0.3,0.7l0.7-0.3
		l-0.3-0.7L98.6,110.8z M97.9,111.1l0.3,0.7l0.7-0.3l-0.3-0.7L97.9,111.1z M97.2,111.4l0.3,0.7l0.7-0.3l-0.3-0.7L97.2,111.4z
		 M96.5,111.8l0.3,0.7l0.7-0.3l-0.3-0.7L96.5,111.8z M95.8,112.1l0.3,0.7l0.7-0.3l-0.3-0.7L95.8,112.1z M95.1,112.4l0.3,0.7l0.7-0.3
		l-0.3-0.7L95.1,112.4z M94.4,112.7l0.3,0.7l0.7-0.3l-0.3-0.7L94.4,112.7z M93.7,113l0.3,0.7l0.7-0.3l-0.3-0.7L93.7,113z M93,113.3
		l0.3,0.7l0.7-0.3l-0.3-0.7L93,113.3z M92.3,113.7l0.3,0.7l0.7-0.3l-0.3-0.7L92.3,113.7z M91.6,114l0.3,0.7l0.7-0.3l-0.3-0.7
		L91.6,114z M90.9,114.3l0.3,0.7l0.7-0.3l-0.3-0.7L90.9,114.3z M90.2,114.6l0.3,0.7l0.7-0.3l-0.3-0.7L90.2,114.6z M89.5,114.9
		l0.3,0.7l0.7-0.3l-0.3-0.7L89.5,114.9z M88.8,115.3l0.3,0.7l0.7-0.3l-0.3-0.7L88.8,115.3z M88.8,115.3l0.3,0.7l-0.7,0.3l-0.3-0.7
		L88.8,115.3z"/>
	<polygon class="st3" points="89.5,114.9 89.1,114.2 89.8,113.9 89.5,113.2 90.2,112.9 89.9,112.2 90.6,111.9 90.3,111.2 91,110.9 
		90.7,110.2 91.4,109.8 91.1,109.1 91.8,108.8 91.4,108.1 92.1,107.8 91.8,107.1 92.5,106.8 92.2,106.1 92.9,105.8 92.6,105.1 
		93.3,104.8 94.6,107.6 96,106.9 95.7,106.2 97.1,105.6 96.7,104.9 98.1,104.2 98.8,105.7 97.4,106.3 97.7,107 96.3,107.6 
		96.6,108.3 95.9,108.6 96.2,109.3 96.9,109 97.2,109.7 97.9,109.4 98.3,110.1 99,109.8 99.3,110.5 	"/>
	<path class="st0" d="M74.7,74.8l0.2,1.1l1.1-0.2l-0.2-1.1L74.7,74.8z M75.6,73.6l0.2,1.1l1.1-0.2l-0.2-1.1L75.6,73.6z M76.5,72.3
		l0.2,1.1l1.1-0.2l-0.2-1.1L76.5,72.3z M77.4,71.1l0.2,1.1l1.1-0.2l-0.2-1.1L77.4,71.1z M78.2,69.8l0.2,1.1l1.1-0.2l-0.2-1.1
		L78.2,69.8z M79.1,68.5l0.2,1.1l1.1-0.2l-0.2-1.1L79.1,68.5z M80,67.3l0.2,1.1l1.1-0.2l-0.2-1.1L80,67.3z M80.9,66l0.2,1.1l1.1-0.2
		L82,65.8L80.9,66z M81.8,64.8l0.2,1.1l1.1-0.2l-0.2-1.1L81.8,64.8z M82.7,63.5l0.2,1.1l1.1-0.2l-0.2-1.1L82.7,63.5z M83.6,62.2
		l0.2,1.1l1.1-0.2l-0.2-1.1L83.6,62.2z M84.7,62.1l0.2,1.1l1.1-0.2l-0.2-1.1L84.7,62.1z M84.8,63.1l0.2,1.1l1.1-0.2l-0.2-1.1
		L84.8,63.1z M85,64.2l0.2,1.1l1.1-0.2L86.1,64L85,64.2z M85.2,65.3l0.2,1.1l1.1-0.2l-0.2-1.1L85.2,65.3z M85.4,66.4l0.2,1.1
		l1.1-0.2l-0.2-1.1L85.4,66.4z M86.5,66.2l0.2,1.1l1.1-0.2L87.5,66L86.5,66.2z M87.4,64.9l0.2,1.1l1.1-0.2l-0.2-1.1L87.4,64.9z
		 M88.4,64.7l0.2,1.1l1.1-0.2l-0.2-1.1L88.4,64.7z M89.3,63.5l0.2,1.1l1.1-0.2l-0.2-1.1L89.3,63.5z M90.4,63.3l0.2,1.1l1.1-0.2
		l-0.2-1.1L90.4,63.3z M91.7,64.2l0.2,1.1l1.1-0.2L92.7,64L91.7,64.2z M91.8,65.2l0.2,1.1l1.1-0.2l-0.2-1.1L91.8,65.2z M90.9,66.5
		l0.2,1.1l1.1-0.2L92,66.3L90.9,66.5z M89.9,66.7l0.2,1.1l1.1-0.2l-0.2-1.1L89.9,66.7z M89,67.9l0.2,1.1l1.1-0.2l-0.2-1.1L89,67.9z
		 M87.9,68.1l0.2,1.1l1.1-0.2L89,67.9L87.9,68.1z M87,69.4l0.2,1.1l1.1-0.2l-0.2-1.1L87,69.4z M88.3,70.3l0.2,1.1l1.1-0.2l-0.2-1.1
		L88.3,70.3z M89.5,71.2l0.2,1.1l1.1-0.2L90.6,71L89.5,71.2z M90.8,72.1l0.2,1.1l1.1-0.2l-0.2-1.1L90.8,72.1z M91,73.1l0.2,1.1
		l1.1-0.2l-0.2-1.1L91,73.1z M89.9,73.3l0.2,1.1l1.1-0.2L91,73.1L89.9,73.3z M88.8,73.5l0.2,1.1l1.1-0.2l-0.2-1.1L88.8,73.5z
		 M87.8,73.7l0.2,1.1l1.1-0.2l-0.2-1.1L87.8,73.7z M86.7,73.9l0.2,1.1l1.1-0.2l-0.2-1.1L86.7,73.9z M85.6,74.1l0.2,1.1l1.1-0.2
		l-0.2-1.1L85.6,74.1z M84.5,74.2l0.2,1.1l1.1-0.2l-0.2-1.1L84.5,74.2z M83.5,74.4l0.2,1.1l1.1-0.2l-0.2-1.1L83.5,74.4z M82.4,74.6
		l0.2,1.1l1.1-0.2l-0.2-1.1L82.4,74.6z M81.3,74.8l0.2,1.1l1.1-0.2l-0.2-1.1L81.3,74.8z M80.2,75l0.2,1.1l1.1-0.2l-0.2-1.1L80.2,75z
		 M79.2,75.2l0.2,1.1l1.1-0.2L80.2,75L79.2,75.2z M78.1,75.4l0.2,1.1l1.1-0.2l-0.2-1.1L78.1,75.4z M77,75.5l0.2,1.1l1.1-0.2
		l-0.2-1.1L77,75.5z M75.9,75.7l0.2,1.1l1.1-0.2L77,75.5L75.9,75.7z M74.9,75.9l0.2,1.1l1.1-0.2l-0.2-1.1L74.9,75.9z M74.9,75.9
		l0.2,1.1L74,77.2l-0.2-1.1L74.9,75.9z"/>
	<polygon class="st7" points="75.9,75.7 75.8,74.7 76.8,74.5 76.7,73.4 77.7,73.2 77.5,72.1 78.6,71.9 78.4,70.9 79.5,70.7 
		79.3,69.6 80.4,69.4 80.2,68.4 81.3,68.2 81.1,67.1 82.2,66.9 82,65.8 83.1,65.6 82.9,64.6 83.9,64.4 83.8,63.3 84.8,63.1 
		85.6,67.4 87.7,67.1 87.5,66 89.7,65.6 89.5,64.5 91.7,64.2 92,66.3 89.9,66.7 90.1,67.8 87.9,68.1 88.1,69.2 87,69.4 87.2,70.5 
		88.3,70.3 88.5,71.4 89.5,71.2 89.7,72.2 90.8,72.1 91,73.1 	"/>
	<path class="st0" d="M102.6,128.6l-0.2,1.2l1.2,0.2l0.2-1.2L102.6,128.6z M104,127.6l-0.2,1.2l1.2,0.2l0.2-1.2L104,127.6z
		 M105.3,126.6l-0.2,1.2l1.2,0.2l0.2-1.2L105.3,126.6z M106.7,125.7l-0.2,1.2l1.2,0.2l0.2-1.2L106.7,125.7z M108.1,124.7l-0.2,1.2
		l1.2,0.2l0.2-1.2L108.1,124.7z M109.5,123.7l-0.2,1.2l1.2,0.2l0.2-1.2L109.5,123.7z M110.9,122.8l-0.2,1.2l1.2,0.2l0.2-1.2
		L110.9,122.8z M112.3,121.8l-0.2,1.2l1.2,0.2l0.2-1.2L112.3,121.8z M113.6,120.8l-0.2,1.2l1.2,0.2l0.2-1.2L113.6,120.8z M115,119.9
		l-0.2,1.2l1.2,0.2l0.2-1.2L115,119.9z M116.4,118.9l-0.2,1.2l1.2,0.2l0.2-1.2L116.4,118.9z M117.6,119.1l-0.2,1.2l1.2,0.2l0.2-1.2
		L117.6,119.1z M117.4,120.3l-0.2,1.2l1.2,0.2l0.2-1.2L117.4,120.3z M117.2,121.4l-0.2,1.2l1.2,0.2l0.2-1.2L117.2,121.4z M117,122.6
		l-0.2,1.2l1.2,0.2l0.2-1.2L117,122.6z M116.8,123.8l-0.2,1.2l1.2,0.2l0.2-1.2L116.8,123.8z M117.9,124l-0.2,1.2l1.2,0.2l0.2-1.2
		L117.9,124z M119.3,123l-0.2,1.2l1.2,0.2l0.2-1.2L119.3,123z M120.5,123.2l-0.2,1.2l1.2,0.2l0.2-1.2L120.5,123.2z M121.9,122.3
		l-0.2,1.2l1.2,0.2l0.2-1.2L121.9,122.3z M123.1,122.5l-0.2,1.2l1.2,0.2l0.2-1.2L123.1,122.5z M124,123.9l-0.2,1.2l1.2,0.2l0.2-1.2
		L124,123.9z M123.8,125l-0.2,1.2l1.2,0.2l0.2-1.2L123.8,125z M122.4,126l-0.2,1.2l1.2,0.2l0.2-1.2L122.4,126z M121.3,125.8L121,127
		l1.2,0.2l0.2-1.2L121.3,125.8z M119.9,126.8l-0.2,1.2l1.2,0.2l0.2-1.2L119.9,126.8z M118.7,126.6l-0.2,1.2l1.2,0.2l0.2-1.2
		L118.7,126.6z M117.3,127.5l-0.2,1.2l1.2,0.2l0.2-1.2L117.3,127.5z M118.3,128.9l-0.2,1.2l1.2,0.2l0.2-1.2L118.3,128.9z
		 M119.3,130.3l-0.2,1.2l1.2,0.2l0.2-1.2L119.3,130.3z M120.2,131.7l-0.2,1.2l1.2,0.2l0.2-1.2L120.2,131.7z M120,132.9l-0.2,1.2
		l1.2,0.2l0.2-1.2L120,132.9z M118.8,132.7l-0.2,1.2l1.2,0.2l0.2-1.2L118.8,132.7z M117.7,132.4l-0.2,1.2l1.2,0.2l0.2-1.2
		L117.7,132.4z M116.5,132.2l-0.2,1.2l1.2,0.2l0.2-1.2L116.5,132.2z M115.3,132l-0.2,1.2l1.2,0.2l0.2-1.2L115.3,132z M114.1,131.8
		l-0.2,1.2l1.2,0.2l0.2-1.2L114.1,131.8z M113,131.6l-0.2,1.2l1.2,0.2l0.2-1.2L113,131.6z M111.8,131.4l-0.2,1.2l1.2,0.2l0.2-1.2
		L111.8,131.4z M110.6,131.2l-0.2,1.2l1.2,0.2l0.2-1.2L110.6,131.2z M109.4,131l-0.2,1.2l1.2,0.2l0.2-1.2L109.4,131z M108.2,130.8
		L108,132l1.2,0.2l0.2-1.2L108.2,130.8z M107.1,130.6l-0.2,1.2l1.2,0.2l0.2-1.2L107.1,130.6z M105.9,130.4l-0.2,1.2l1.2,0.2l0.2-1.2
		L105.9,130.4z M104.7,130.2l-0.2,1.2l1.2,0.2l0.2-1.2L104.7,130.2z M103.5,130l-0.2,1.2l1.2,0.2l0.2-1.2L103.5,130z M102.4,129.8
		l-0.2,1.2l1.2,0.2l0.2-1.2L102.4,129.8z M102.4,129.8l-0.2,1.2l-1.2-0.2l0.2-1.2L102.4,129.8z"/>
	<polygon class="st8" points="103.5,130 103.8,128.8 104.9,129 105.1,127.8 106.3,128 106.5,126.8 107.7,127.1 107.9,125.9 
		109.1,126.1 109.3,124.9 110.5,125.1 110.7,123.9 111.8,124.1 112.1,123 113.2,123.2 113.4,122 114.6,122.2 114.8,121 116,121.2 
		116.2,120.1 117.4,120.3 116.5,125 118.9,125.4 119.1,124.2 121.5,124.6 121.7,123.4 124,123.9 123.6,126.2 121.3,125.8 121,127 
		118.7,126.6 118.5,127.7 117.3,127.5 117.1,128.7 118.3,128.9 118.1,130.1 119.2,130.3 119,131.5 120.2,131.7 120,132.9 	"/>
	<path class="st0" d="M118.8,104l0.6,0.8l0.8-0.6l-0.6-0.8L118.8,104z M119,102.7l0.6,0.8l0.8-0.6l-0.6-0.8L119,102.7z M119.2,101.3
		l0.6,0.8l0.8-0.6l-0.6-0.8L119.2,101.3z M119.4,100l0.6,0.8l0.8-0.6l-0.6-0.8L119.4,100z M119.6,98.7l0.6,0.8l0.8-0.6l-0.6-0.8
		L119.6,98.7z M119.8,97.3l0.6,0.8l0.8-0.6l-0.6-0.8L119.8,97.3z M120,96l0.6,0.8l0.8-0.6l-0.6-0.8L120,96z M120.2,94.7l0.6,0.8
		l0.8-0.6l-0.6-0.8L120.2,94.7z M120.4,93.3l0.6,0.8l0.8-0.6l-0.6-0.8L120.4,93.3z M120.6,92l0.6,0.8l0.8-0.6l-0.6-0.8L120.6,92z
		 M120.8,90.7l0.6,0.8l0.8-0.6l-0.6-0.8L120.8,90.7z M121.6,90.1l0.6,0.8l0.8-0.6l-0.6-0.8L121.6,90.1z M122.1,90.9l0.6,0.8l0.8-0.6
		l-0.6-0.8L122.1,90.9z M122.7,91.6l0.6,0.8l0.8-0.6l-0.6-0.8L122.7,91.6z M123.3,92.4l0.6,0.8l0.8-0.6l-0.6-0.8L123.3,92.4z
		 M123.8,93.2l0.6,0.8l0.8-0.6l-0.6-0.8L123.8,93.2z M124.6,92.6l0.6,0.8l0.8-0.6l-0.6-0.8L124.6,92.6z M124.8,91.3l0.6,0.8l0.8-0.6
		l-0.6-0.8L124.8,91.3z M125.6,90.7l0.6,0.8l0.8-0.6l-0.6-0.8L125.6,90.7z M125.8,89.4l0.6,0.8l0.8-0.6l-0.6-0.8L125.8,89.4z
		 M126.5,88.8l0.6,0.8l0.8-0.6l-0.6-0.8L126.5,88.8z M127.9,89l0.6,0.8l0.8-0.6l-0.6-0.8L127.9,89z M128.4,89.8l0.6,0.8l0.8-0.6
		l-0.6-0.8L128.4,89.8z M128.2,91.1l0.6,0.8l0.8-0.6l-0.6-0.8L128.2,91.1z M127.5,91.7l0.6,0.8l0.8-0.6l-0.6-0.8L127.5,91.7z
		 M127.3,93l0.6,0.8l0.8-0.6l-0.6-0.8L127.3,93z M126.5,93.6l0.6,0.8l0.8-0.6l-0.6-0.8L126.5,93.6z M126.3,94.9l0.6,0.8l0.8-0.6
		l-0.6-0.8L126.3,94.9z M127.6,95.1l0.6,0.8l0.8-0.6l-0.6-0.8L127.6,95.1z M129,95.3l0.6,0.8l0.8-0.6l-0.6-0.8L129,95.3z
		 M130.3,95.5l0.6,0.8l0.8-0.6l-0.6-0.8L130.3,95.5z M130.9,96.2l0.6,0.8l0.8-0.6l-0.6-0.8L130.9,96.2z M130.1,96.8l0.6,0.8l0.8-0.6
		l-0.6-0.8L130.1,96.8z M129.3,97.4l0.6,0.8l0.8-0.6l-0.6-0.8L129.3,97.4z M128.6,98l0.6,0.8l0.8-0.6l-0.6-0.8L128.6,98z
		 M127.8,98.5l0.6,0.8l0.8-0.6l-0.6-0.8L127.8,98.5z M127.1,99.1l0.6,0.8l0.8-0.6l-0.6-0.8L127.1,99.1z M126.3,99.6l0.6,0.8l0.8-0.6
		l-0.6-0.8L126.3,99.6z M125.5,100.2l0.6,0.8l0.8-0.6l-0.6-0.8L125.5,100.2z M124.8,100.8l0.6,0.8l0.8-0.6l-0.6-0.8L124.8,100.8z
		 M124,101.3l0.6,0.8l0.8-0.6l-0.6-0.8L124,101.3z M123.2,101.9l0.6,0.8l0.8-0.6l-0.6-0.8L123.2,101.9z M122.5,102.5l0.6,0.8
		l0.8-0.6l-0.6-0.8L122.5,102.5z M121.7,103l0.6,0.8l0.8-0.6l-0.6-0.8L121.7,103z M120.9,103.6l0.6,0.8l0.8-0.6l-0.6-0.8
		L120.9,103.6z M120.2,104.2l0.6,0.8l0.8-0.6l-0.6-0.8L120.2,104.2z M119.4,104.7l0.6,0.8l0.8-0.6l-0.6-0.8L119.4,104.7z
		 M119.4,104.7l0.6,0.8l-0.8,0.6l-0.6-0.8L119.4,104.7z"/>
	<polygon class="st3" points="120.2,104.2 119.6,103.4 120.4,102.9 119.8,102.1 120.6,101.5 120,100.8 120.8,100.2 120.2,99.4 
		121,98.9 120.4,98.1 121.2,97.5 120.6,96.8 121.4,96.2 120.8,95.4 121.6,94.9 121,94.1 121.8,93.5 121.2,92.8 122,92.2 121.4,91.4 
		122.1,90.9 124.4,93.9 125.9,92.8 125.4,92 126.9,90.9 126.3,90.1 127.9,89 129,90.5 127.5,91.7 128,92.4 126.5,93.6 127.1,94.3 
		126.3,94.9 126.9,95.7 127.6,95.1 128.2,95.9 129,95.3 129.5,96.1 130.3,95.5 130.9,96.2 	"/>
	<path class="st0" d="M121.8,109.4l1.1,1.4l1.4-1.1l-1.1-1.4L121.8,109.4z M122.2,106.9l1.1,1.4l1.4-1.1l-1.1-1.4L122.2,106.9z
		 M122.5,104.3l1.1,1.4l1.4-1.1l-1.1-1.4L122.5,104.3z M122.8,101.8l1.1,1.4l1.4-1.1l-1.1-1.4L122.8,101.8z M123.1,99.3l1.1,1.4
		l1.4-1.1l-1.1-1.4L123.1,99.3z M123.4,96.7l1.1,1.4l1.4-1.1l-1.1-1.4L123.4,96.7z M123.8,94.2l1.1,1.4l1.4-1.1l-1.1-1.4L123.8,94.2
		z M124.1,91.7l1.1,1.4l1.4-1.1l-1.1-1.4L124.1,91.7z M124.4,89.2l1.1,1.4l1.4-1.1l-1.1-1.4L124.4,89.2z M124.7,86.6l1.1,1.4
		l1.4-1.1l-1.1-1.4L124.7,86.6z M125.1,84.1l1.1,1.4l1.4-1.1l-1.1-1.4L125.1,84.1z M126.5,83l1.1,1.4l1.4-1.1l-1.1-1.4L126.5,83z
		 M127.6,84.4l1.1,1.4l1.4-1.1l-1.1-1.4L127.6,84.4z M128.7,85.8l1.1,1.4l1.4-1.1l-1.1-1.4L128.7,85.8z M129.8,87.3l1.1,1.4l1.4-1.1
		l-1.1-1.4L129.8,87.3z M130.9,88.7l1.1,1.4l1.4-1.1l-1.1-1.4L130.9,88.7z M132.3,87.6l1.1,1.4l1.4-1.1l-1.1-1.4L132.3,87.6z
		 M132.7,85.1l1.1,1.4l1.4-1.1l-1.1-1.4L132.7,85.1z M134.1,84l1.1,1.4l1.4-1.1l-1.1-1.4L134.1,84z M134.4,81.4l1.1,1.4l1.4-1.1
		l-1.1-1.4L134.4,81.4z M135.8,80.3l1.1,1.4l1.4-1.1l-1.1-1.4L135.8,80.3z M138.4,80.6l1.1,1.4l1.4-1.1l-1.1-1.4L138.4,80.6z
		 M139.5,82.1l1.1,1.4l1.4-1.1l-1.1-1.4L139.5,82.1z M139.2,84.6l1.1,1.4l1.4-1.1l-1.1-1.4L139.2,84.6z M137.7,85.7l1.1,1.4l1.4-1.1
		l-1.1-1.4L137.7,85.7z M137.4,88.2l1.1,1.4l1.4-1.1l-1.1-1.4L137.4,88.2z M136,89.3l1.1,1.4l1.4-1.1l-1.1-1.4L136,89.3z
		 M135.7,91.9l1.1,1.4l1.4-1.1l-1.1-1.4L135.7,91.9z M138.2,92.2l1.1,1.4l1.4-1.1l-1.1-1.4L138.2,92.2z M140.7,92.5l1.1,1.4l1.4-1.1
		l-1.1-1.4L140.7,92.5z M143.2,92.8l1.1,1.4l1.4-1.1l-1.1-1.4L143.2,92.8z M144.3,94.3l1.1,1.4l1.4-1.1l-1.1-1.4L144.3,94.3z
		 M142.9,95.4l1.1,1.4l1.4-1.1l-1.1-1.4L142.9,95.4z M141.5,96.5l1.1,1.4l1.4-1.1l-1.1-1.4L141.5,96.5z M140.1,97.6l1.1,1.4l1.4-1.1
		l-1.1-1.4L140.1,97.6z M138.6,98.7l1.1,1.4l1.4-1.1l-1.1-1.4L138.6,98.7z M137.2,99.8l1.1,1.4l1.4-1.1l-1.1-1.4L137.2,99.8z
		 M135.8,100.9l1.1,1.4l1.4-1.1l-1.1-1.4L135.8,100.9z M134.4,102l1.1,1.4l1.4-1.1l-1.1-1.4L134.4,102z M132.9,103.1l1.1,1.4
		l1.4-1.1l-1.1-1.4L132.9,103.1z M131.5,104.2l1.1,1.4l1.4-1.1l-1.1-1.4L131.5,104.2z M130.1,105.3l1.1,1.4l1.4-1.1l-1.1-1.4
		L130.1,105.3z M128.6,106.4l1.1,1.4l1.4-1.1l-1.1-1.4L128.6,106.4z M127.2,107.5l1.1,1.4l1.4-1.1l-1.1-1.4L127.2,107.5z
		 M125.8,108.6l1.1,1.4l1.4-1.1l-1.1-1.4L125.8,108.6z M124.4,109.7l1.1,1.4l1.4-1.1l-1.1-1.4L124.4,109.7z M122.9,110.8l1.1,1.4
		l1.4-1.1l-1.1-1.4L122.9,110.8z M122.9,110.8l1.1,1.4l-1.4,1.1l-1.1-1.4L122.9,110.8z"/>
	<polygon class="st3" points="124.4,109.7 123.3,108.3 124.7,107.2 123.6,105.8 125,104.7 123.9,103.2 125.3,102.1 124.2,100.7 
		125.7,99.6 124.6,98.2 126,97.1 124.9,95.6 126.3,94.5 125.2,93.1 126.6,92 125.5,90.6 127,89.5 125.8,88 127.3,86.9 126.2,85.5 
		127.6,84.4 132,90.1 134.9,87.9 133.8,86.5 136.6,84.3 135.5,82.8 138.4,80.6 140.6,83.5 137.7,85.7 138.8,87.1 136,89.3 
		137.1,90.8 135.7,91.9 136.8,93.3 138.2,92.2 139.3,93.6 140.7,92.5 141.8,93.9 143.2,92.8 144.3,94.3 	"/>
	<path class="st0" d="M148.5,79.1l1.3,0.5l0.5-1.3l-1.3-0.5L148.5,79.1z M149,77.8l1.3,0.5l0.5-1.3l-1.3-0.5L149,77.8z M149.5,76.5
		l1.3,0.5l0.5-1.3l-1.3-0.5L149.5,76.5z M150,75.1l1.3,0.5l0.5-1.3l-1.3-0.5L150,75.1z M150.5,73.8l1.3,0.5l0.5-1.3l-1.3-0.5
		L150.5,73.8z M151,72.5l1.3,0.5l0.5-1.3l-1.3-0.5L151,72.5z M151.5,71.2l1.3,0.5l0.5-1.3l-1.3-0.5L151.5,71.2z M152,69.9l1.3,0.5
		l0.5-1.3l-1.3-0.5L152,69.9z M152.4,68.6l1.3,0.5l0.5-1.3l-1.3-0.5L152.4,68.6z M152.9,67.3l1.3,0.5l0.5-1.3l-1.3-0.5L152.9,67.3z
		 M153.4,66l1.3,0.5l0.5-1.3l-1.3-0.5L153.4,66z M153.9,64.7l1.3,0.5l0.5-1.3l-1.3-0.5L153.9,64.7z M154.4,63.4l1.3,0.5l0.5-1.3
		l-1.3-0.5L154.4,63.4z M154.9,62.1l1.3,0.5l0.5-1.3l-1.3-0.5L154.9,62.1z M155.4,60.8l1.3,0.5l0.5-1.3l-1.3-0.5L155.4,60.8z
		 M149.6,60.1l1.3,0.5l0.5-1.3l-1.3-0.5L149.6,60.1z M143.9,59.5l1.3,0.5l0.5-1.3l-1.3-0.5L143.9,59.5z M155.9,59.5l1.3,0.5l0.5-1.3
		l-1.3-0.5L155.9,59.5z M151.4,59.3l1.3,0.5l0.5-1.3l-1.3-0.5L151.4,59.3z M142.6,59l1.3,0.5l0.5-1.3l-1.3-0.5L142.6,59z
		 M141.3,58.5l1.3,0.5l0.5-1.3l-1.3-0.5L141.3,58.5z M153.2,58.5l1.3,0.5l0.5-1.3l-1.3-0.5L153.2,58.5z M148.8,58.3l1.3,0.5l0.5-1.3
		l-1.3-0.5L148.8,58.3z M156.3,58.1l1.3,0.5l0.5-1.3l-1.3-0.5L156.3,58.1z M140,58l-0.5,1.3l1.3,0.5l-0.5,1.3l1.3,0.5l-0.5,1.3
		l1.3,0.5l-0.5,1.3l1.3,0.5l-0.5,1.3l1.3,0.5l-0.5,1.3l1.3,0.5l-0.5,1.3l1.3,0.5l-0.5,1.3l1.3,0.5l-0.5,1.3l1.3,0.5l-0.5,1.3
		l1.3,0.5l-0.5,1.3l1.3,0.5l0.5-1.3l-1.3-0.5l0.5-1.3l-1.3-0.5l0.5-1.3l-1.3-0.5l0.5-1.3l-1.3-0.5l0.5-1.3l-1.3-0.5l0.5-1.3
		l-1.3-0.5l0.5-1.3l-1.3-0.5l0.5-1.3l-1.3-0.5l0.5-1.3l-1.3-0.5l0.5-1.3l-1.3-0.5l0.5-1.3l0.5-1.3l-1.3-0.5L140,58z M155,57.7
		l1.3,0.5l0.5-1.3l-1.3-0.5L155,57.7z M149.3,57l1.3,0.5l0.5-1.3l-1.3-0.5L149.3,57z M148.5,55.2l1.3,0.5l0.5-1.3l-1.3-0.5
		L148.5,55.2z M149,53.9l1.3,0.5l0.5-1.3l-1.3-0.5L149,53.9z M145.1,52.4l-0.5,1.3l1.3,0.5l-0.5,1.3l-0.5,1.3l1.3,0.5l-0.5,1.3
		l-0.5,1.3l1.3,0.5l0.5-1.3l0.5-1.3l-1.3-0.5l0.5-1.3l0.5-1.3l-1.3-0.5l0.5-1.3l0.5-1.3l-1.3-0.5L145.1,52.4z M148.2,52.1l1.3,0.5
		l0.5-1.3l-1.3-0.5L148.2,52.1z M146.9,51.6l1.3,0.5l0.5-1.3l-1.3-0.5L146.9,51.6z"/>
	<polygon class="st5" points="149.5,76.5 148.2,76 148.7,74.7 147.4,74.2 147.9,72.9 146.6,72.4 147.1,71.1 145.7,70.6 146.2,69.3 
		144.9,68.8 145.4,67.5 144.1,67 144.6,65.7 143.3,65.2 143.8,63.9 142.5,63.4 143,62.1 141.6,61.6 142.1,60.3 140.8,59.8 
		141.3,58.5 146.5,60.4 147.5,57.8 146.2,57.3 147.2,54.7 145.9,54.2 146.9,51.6 149.5,52.6 148.5,55.2 149.8,55.7 148.8,58.3 
		150.1,58.8 149.6,60.1 151,60.6 151.4,59.3 152.8,59.8 153.2,58.5 154.5,59 155,57.7 156.3,58.1 	"/>
	<path class="st0" d="M119.4,62.4l0.4,0.4l0.4-0.4l-0.4-0.4L119.4,62.4z M119.4,61.6l0.4,0.4l0.4-0.4l-0.4-0.4L119.4,61.6z
		 M119.4,60.9l0.4,0.4l0.4-0.4l-0.4-0.4L119.4,60.9z M119.4,60.1l0.4,0.4l0.4-0.4l-0.4-0.4L119.4,60.1z M119.3,59.3l0.4,0.4l0.4-0.4
		l-0.4-0.4L119.3,59.3z M119.3,58.6l0.4,0.4l0.4-0.4l-0.4-0.4L119.3,58.6z M119.3,57.8l0.4,0.4l0.4-0.4l-0.4-0.4L119.3,57.8z
		 M119.3,57l0.4,0.4l0.4-0.4l-0.4-0.4L119.3,57z M119.3,56.3l0.4,0.4l0.4-0.4l-0.4-0.4L119.3,56.3z M119.3,55.5l0.4,0.4l0.4-0.4
		l-0.4-0.4L119.3,55.5z M119.3,54.7l0.4,0.4l0.4-0.4l-0.4-0.4L119.3,54.7z M119.7,54.4l0.4,0.4l0.4-0.4l-0.4-0.4L119.7,54.4z
		 M120.1,54.7l0.4,0.4l0.4-0.4l-0.4-0.4L120.1,54.7z M120.5,55.1l0.4,0.4l0.4-0.4l-0.4-0.4L120.5,55.1z M120.9,55.5l0.4,0.4l0.4-0.4
		l-0.4-0.4L120.9,55.5z M121.2,55.9l0.4,0.4l0.4-0.4l-0.4-0.4L121.2,55.9z M121.6,55.5l0.4,0.4l0.4-0.4l-0.4-0.4L121.6,55.5z
		 M121.6,54.7l0.4,0.4l0.4-0.4l-0.4-0.4L121.6,54.7z M122,54.3l0.4,0.4l0.4-0.4l-0.4-0.4L122,54.3z M122,53.6l0.4,0.4l0.4-0.4
		l-0.4-0.4L122,53.6z M122.4,53.2l0.4,0.4l0.4-0.4l-0.4-0.4L122.4,53.2z M123.1,53.2l0.4,0.4l0.4-0.4l-0.4-0.4L123.1,53.2z
		 M123.5,53.6l0.4,0.4l0.4-0.4l-0.4-0.4L123.5,53.6z M123.5,54.3l0.4,0.4l0.4-0.4l-0.4-0.4L123.5,54.3z M123.1,54.7l0.4,0.4l0.4-0.4
		l-0.4-0.4L123.1,54.7z M123.1,55.5l0.4,0.4l0.4-0.4l-0.4-0.4L123.1,55.5z M122.8,55.9l0.4,0.4l0.4-0.4l-0.4-0.4L122.8,55.9z
		 M122.8,56.6l0.4,0.4l0.4-0.4l-0.4-0.4L122.8,56.6z M123.5,56.6l0.4,0.4l0.4-0.4l-0.4-0.4L123.5,56.6z M124.3,56.6l0.4,0.4l0.4-0.4
		l-0.4-0.4L124.3,56.6z M125.1,56.6l0.4,0.4l0.4-0.4l-0.4-0.4L125.1,56.6z M125.4,57l0.4,0.4l0.4-0.4l-0.4-0.4L125.4,57z
		 M125.1,57.4l0.4,0.4l0.4-0.4l-0.4-0.4L125.1,57.4z M124.7,57.8l0.4,0.4l0.4-0.4l-0.4-0.4L124.7,57.8z M124.3,58.2l0.4,0.4l0.4-0.4
		l-0.4-0.4L124.3,58.2z M123.9,58.5l0.4,0.4l0.4-0.4l-0.4-0.4L123.9,58.5z M123.5,58.9l0.4,0.4l0.4-0.4l-0.4-0.4L123.5,58.9z
		 M123.2,59.3l0.4,0.4l0.4-0.4l-0.4-0.4L123.2,59.3z M122.8,59.7l0.4,0.4l0.4-0.4l-0.4-0.4L122.8,59.7z M122.4,60.1l0.4,0.4l0.4-0.4
		l-0.4-0.4L122.4,60.1z M122,60.5l0.4,0.4l0.4-0.4l-0.4-0.4L122,60.5z M121.6,60.8l0.4,0.4l0.4-0.4l-0.4-0.4L121.6,60.8z
		 M121.3,61.2l0.4,0.4l0.4-0.4l-0.4-0.4L121.3,61.2z M120.9,61.6l0.4,0.4l0.4-0.4l-0.4-0.4L120.9,61.6z M120.5,62l0.4,0.4l0.4-0.4
		l-0.4-0.4L120.5,62z M120.1,62.4l0.4,0.4l0.4-0.4l-0.4-0.4L120.1,62.4z M119.7,62.8l0.4,0.4l0.4-0.4l-0.4-0.4L119.7,62.8z
		 M119.7,62.8l0.4,0.4l-0.4,0.4l-0.4-0.4L119.7,62.8z"/>
	<polygon class="st3" points="120.1,62.4 119.7,62 120.1,61.6 119.7,61.2 120.1,60.9 119.7,60.5 120.1,60.1 119.7,59.7 120.1,59.3 
		119.7,58.9 120.1,58.6 119.7,58.2 120.1,57.8 119.7,57.4 120.1,57 119.7,56.7 120.1,56.3 119.7,55.9 120.1,55.5 119.7,55.1 
		120.1,54.7 121.6,56.3 122.4,55.5 122,55.1 122.8,54.3 122.4,54 123.1,53.2 123.9,54 123.1,54.7 123.5,55.1 122.8,55.9 123.1,56.3 
		122.8,56.6 123.2,57 123.5,56.6 123.9,57 124.3,56.6 124.7,57 125.1,56.6 125.4,57 	"/>
	<path class="st0" d="M113.3,87.1l0.5,0.7l0.7-0.5l-0.5-0.7L113.3,87.1z M113.5,86l0.5,0.7l0.7-0.5l-0.5-0.7L113.5,86z M113.7,84.8
		l0.5,0.7l0.7-0.5l-0.5-0.7L113.7,84.8z M113.9,83.7l0.5,0.7l0.7-0.5l-0.5-0.7L113.9,83.7z M114.1,82.5l0.5,0.7l0.7-0.5l-0.5-0.7
		L114.1,82.5z M114.3,81.4l0.5,0.7l0.7-0.5l-0.5-0.7L114.3,81.4z M114.5,80.2l0.5,0.7l0.7-0.5l-0.5-0.7L114.5,80.2z M114.8,79.1
		l0.5,0.7l0.7-0.5l-0.5-0.7L114.8,79.1z M115,77.9l0.5,0.7l0.7-0.5l-0.5-0.7L115,77.9z M115.2,76.8l0.5,0.7l0.7-0.5l-0.5-0.7
		L115.2,76.8z M115.4,75.6l0.5,0.7l0.7-0.5l-0.5-0.7L115.4,75.6z M116,75.1l0.5,0.7l0.7-0.5l-0.5-0.7L116,75.1z M116.5,75.8l0.5,0.7
		l0.7-0.5l-0.5-0.7L116.5,75.8z M117,76.5l0.5,0.7l0.7-0.5l-0.5-0.7L117,76.5z M117.5,77.2l0.5,0.7l0.7-0.5l-0.5-0.7L117.5,77.2z
		 M117.9,77.9l0.5,0.7l0.7-0.5l-0.5-0.7L117.9,77.9z M118.6,77.4l0.5,0.7l0.7-0.5l-0.5-0.7L118.6,77.4z M118.8,76.2l0.5,0.7l0.7-0.5
		l-0.5-0.7L118.8,76.2z M119.5,75.8l0.5,0.7l0.7-0.5l-0.5-0.7L119.5,75.8z M119.7,74.6l0.5,0.7l0.7-0.5l-0.5-0.7L119.7,74.6z
		 M120.4,74.2l0.5,0.7l0.7-0.5l-0.5-0.7L120.4,74.2z M121.5,74.4L122,75l0.7-0.5l-0.5-0.7L121.5,74.4z M122,75l0.5,0.7l0.7-0.5
		l-0.5-0.7L122,75z M121.8,76.2l0.5,0.7l0.7-0.5l-0.5-0.7L121.8,76.2z M121.1,76.7l0.5,0.7l0.7-0.5l-0.5-0.7L121.1,76.7z
		 M120.9,77.8l0.5,0.7l0.7-0.5l-0.5-0.7L120.9,77.8z M120.2,78.3l0.5,0.7l0.7-0.5l-0.5-0.7L120.2,78.3z M120,79.4l0.5,0.7l0.7-0.5
		l-0.5-0.7L120,79.4z M121.2,79.6l0.5,0.7l0.7-0.5l-0.5-0.7L121.2,79.6z M122.3,79.8l0.5,0.7l0.7-0.5l-0.5-0.7L122.3,79.8z
		 M123.5,80l0.5,0.7l0.7-0.5l-0.5-0.7L123.5,80z M123.9,80.7l0.5,0.7l0.7-0.5l-0.5-0.7L123.9,80.7z M123.3,81.2l0.5,0.7l0.7-0.5
		l-0.5-0.7L123.3,81.2z M122.6,81.7l0.5,0.7l0.7-0.5l-0.5-0.7L122.6,81.7z M121.9,82.1l0.5,0.7l0.7-0.5l-0.5-0.7L121.9,82.1z
		 M121.2,82.6l0.5,0.7l0.7-0.5l-0.5-0.7L121.2,82.6z M120.6,83.1l0.5,0.7l0.7-0.5l-0.5-0.7L120.6,83.1z M119.9,83.5l0.5,0.7l0.7-0.5
		l-0.5-0.7L119.9,83.5z M119.2,84l0.5,0.7l0.7-0.5l-0.5-0.7L119.2,84z M118.5,84.5l0.5,0.7l0.7-0.5l-0.5-0.7L118.5,84.5z M117.8,85
		l0.5,0.7l0.7-0.5l-0.5-0.7L117.8,85z M117.2,85.4l0.5,0.7l0.7-0.5l-0.5-0.7L117.2,85.4z M116.5,85.9l0.5,0.7l0.7-0.5l-0.5-0.7
		L116.5,85.9z M115.8,86.4l0.5,0.7l0.7-0.5l-0.5-0.7L115.8,86.4z M115.1,86.8l0.5,0.7l0.7-0.5l-0.5-0.7L115.1,86.8z M114.5,87.3
		l0.5,0.7l0.7-0.5l-0.5-0.7L114.5,87.3z M113.8,87.8l0.5,0.7l0.7-0.5l-0.5-0.7L113.8,87.8z M113.8,87.8l0.5,0.7l-0.7,0.5l-0.5-0.7
		L113.8,87.8z"/>
	<polygon class="st3" points="114.5,87.3 114,86.6 114.7,86.2 114.2,85.5 114.9,85 114.4,84.3 115.1,83.9 114.6,83.2 115.3,82.7 
		114.8,82 115.5,81.6 115,80.9 115.7,80.4 115.2,79.7 115.9,79.3 115.4,78.6 116.1,78.1 115.6,77.4 116.3,77 115.8,76.3 116.5,75.8 
		118.4,78.5 119.8,77.6 119.3,76.9 120.6,76 120.2,75.3 121.5,74.4 122.5,75.7 121.1,76.7 121.6,77.3 120.2,78.3 120.7,79 120,79.4 
		120.5,80.1 121.2,79.6 121.6,80.3 122.3,79.8 122.8,80.5 123.5,80 123.9,80.7 	"/>
	<g class="st9">
		<defs>
			
				<rect id="SVGID_3_" x="37.9" y="100.8" transform="matrix(0.9962 -8.715528e-02 8.715528e-02 0.9962 -10.1355 5.3347)" width="36.2" height="35.9"/>
		</defs>
		<clipPath id="SVGID_4_">
			<use xlink:href="#SVGID_3_"  style="overflow:visible;"/>
		</clipPath>
		<path class="st10" d="M74,120.3c0-0.1,0-0.3,0.1-0.4c0.8-9.6-6.3-18.2-15.9-19c-4.1-0.4-8,0.7-11.2,2.9l0,0
			c-0.1,0.1-0.2,0.1-0.3,0.2c-0.2,0.1-0.4,0.2-0.4,0.2c0,0-0.2,0.2-0.4,0.3l-1.8,1.7c-0.2,0.2-0.4,0.3-0.5,0.3
			c-0.1,0-0.3,0.1-0.5,0.3l-0.5,0.5c-0.2,0.2-0.3,0.5-0.2,0.6c0.1,0.1,0,0.4-0.1,0.7l-1,1.7c-0.1,0.2-0.4,0.4-0.6,0.4
			c-0.2,0-0.5,0.2-0.6,0.4l-0.3,0.6c-0.1,0.2-0.1,0.6,0.1,0.8l0,0c0.2,0.2,0.3,0.6,0.2,0.8l-0.4,1.5c-0.1,0.3-0.3,0.5-0.6,0.6
			l-0.2,0.1c-0.3,0.1-0.5,0.3-0.5,0.6l-0.1,0.7c0,0.3,0.1,0.6,0.3,0.7l0.4,0.2c0.2,0.1,0.4,0.5,0.4,0.7l0,1.2c0,0.3-0.2,0.6-0.4,0.7
			l-0.5,0.3c-0.2,0.1-0.4,0.5-0.3,0.7L38,122c0,0.3,0.3,0.5,0.5,0.6l0.7,0.2c0.3,0.1,0.5,0.3,0.6,0.6l0.3,0.9c0.1,0.2,0,0.6-0.2,0.8
			l-0.5,0.6c-0.2,0.2-0.2,0.5-0.1,0.8l0.3,0.6c0.1,0.2,0.4,0.4,0.7,0.4l0.8,0c0.3,0,0.6,0.2,0.7,0.4l0.5,0.7
			c0.2,0.2,0.2,0.6,0.1,0.8l-0.4,0.8c-0.1,0.2-0.1,0.6,0.1,0.8l0.5,0.5c0.2,0.2,0.5,0.3,0.8,0.2l0.8-0.3c0.2-0.1,0.6,0,0.8,0.2
			l0.7,0.6c0.2,0.2,0.3,0.5,0.3,0.8l-0.1,0.8c0,0.3,0.1,0.6,0.3,0.7l0.6,0.4c0.2,0.1,0.6,0.1,0.8,0l0.6-0.4c0.2-0.2,0.6-0.2,0.8-0.1
			l0.9,0.4c0.2,0.1,0.5,0.4,0.5,0.6l0.1,0.7c0,0.3,0.3,0.5,0.5,0.6l0.7,0.2c0.3,0.1,0.6-0.1,0.7-0.3l0.3-0.4
			c0.2-0.2,0.5-0.3,0.7-0.3c0,0,0.9,0.2,1.5,0.2l0.1,0c0.1,0,0.2,0.2,0.3,0.4l0.2,0.3c0.1,0.2,0.4,0.4,0.7,0.4l0.7,0
			c0.3,0,0.5-0.2,0.6-0.5l0.1-0.2c0.1-0.2,0.4-0.5,0.6-0.5l1.6-0.2c0.3,0,0.6,0.1,0.8,0.3c0.2,0.2,0.5,0.3,0.8,0.2l0.7-0.2
			c0.2-0.1,0.4-0.3,0.5-0.5c0-0.2,0.2-0.5,0.5-0.6l1.9-0.9c0.2-0.1,0.5-0.2,0.6-0.1c0.1,0.1,0.4,0,0.6-0.2l0.6-0.4
			c0.2-0.2,0.4-0.4,0.3-0.5c0-0.1,0.1-0.3,0.3-0.5l1.9-1.7c0.2-0.2,0.3-0.3,0.4-0.3c0,0,0.1,0,0.1-0.1c0-0.1,0.1-0.2,0.3-0.4
			c0.4-0.4,0.7-0.8,1.1-1.4C72.6,125.8,73.7,123.2,74,120.3"/>
	</g>
	<g class="st9">
		<defs>
			<rect id="SVGID_5_" width="158.1" height="224.8"/>
		</defs>
		<clipPath id="SVGID_6_">
			<use xlink:href="#SVGID_5_"  style="overflow:visible;"/>
		</clipPath>
		<path class="st11" d="M51.4,118h10.2c0.3,0,0.5,0.2,0.5,0.5v6.4c0,0.3-0.2,0.5-0.5,0.5H51.4c-0.3,0-0.5-0.2-0.5-0.5v-6.4
			C50.9,118.2,51.1,118,51.4,118z"/>
		<path class="st11" d="M62.1,121.8v-5.5c0-3.1-2.5-5.6-5.6-5.6s-5.6,2.5-5.6,5.6v4.4"/>
	</g>
	<line class="st12" x1="56.5" y1="121.3" x2="56.5" y2="122.8"/>
	<g class="st9">
		<defs>
			
				<rect id="SVGID_7_" x="110.1" y="7.1" transform="matrix(0.9962 -8.718283e-02 8.718283e-02 0.9962 -1.6968 11.2708)" width="36.2" height="35.9"/>
		</defs>
		<clipPath id="SVGID_8_">
			<use xlink:href="#SVGID_7_"  style="overflow:visible;"/>
		</clipPath>
		<path class="st13" d="M146.1,26.6c0-0.1,0-0.3,0.1-0.4c0.8-9.6-6.3-18.2-15.9-19c-4.1-0.4-8,0.7-11.2,2.9l0,0
			c-0.1,0.1-0.2,0.1-0.3,0.2c-0.2,0.1-0.4,0.2-0.4,0.2c0,0-0.2,0.2-0.4,0.3l-1.8,1.7c-0.2,0.2-0.4,0.3-0.5,0.3
			c-0.1,0-0.3,0.1-0.5,0.3l-0.5,0.5c-0.2,0.2-0.3,0.5-0.2,0.6c0.1,0.1,0,0.4-0.1,0.7l-1,1.7c-0.1,0.2-0.4,0.4-0.6,0.4
			c-0.2,0-0.5,0.2-0.6,0.4l-0.3,0.6c-0.1,0.2-0.1,0.6,0.1,0.8l0,0c0.2,0.2,0.3,0.6,0.2,0.8l-0.4,1.5c-0.1,0.3-0.3,0.5-0.6,0.6
			l-0.2,0.1c-0.3,0.1-0.5,0.3-0.5,0.6l-0.1,0.7c0,0.3,0.1,0.6,0.3,0.7l0.4,0.2c0.2,0.1,0.4,0.5,0.4,0.7l0,1.2c0,0.3-0.2,0.6-0.4,0.7
			l-0.5,0.3c-0.2,0.1-0.4,0.5-0.3,0.7l0.1,0.7c0,0.3,0.3,0.5,0.5,0.6l0.7,0.2c0.3,0.1,0.5,0.3,0.6,0.6l0.3,0.9
			c0.1,0.2,0,0.6-0.2,0.8l-0.5,0.6c-0.2,0.2-0.2,0.5-0.1,0.8l0.3,0.6c0.1,0.2,0.4,0.4,0.7,0.4l0.8,0c0.3,0,0.6,0.2,0.7,0.4l0.5,0.7
			c0.2,0.2,0.2,0.6,0.1,0.8l-0.4,0.8c-0.1,0.2-0.1,0.6,0.1,0.8l0.5,0.5c0.2,0.2,0.5,0.3,0.8,0.2l0.8-0.3c0.2-0.1,0.6,0,0.8,0.2
			l0.7,0.6c0.2,0.2,0.3,0.5,0.3,0.8l-0.1,0.8c0,0.3,0.1,0.6,0.3,0.7l0.6,0.4c0.2,0.1,0.6,0.1,0.8,0l0.6-0.4c0.2-0.2,0.6-0.2,0.8-0.1
			l0.9,0.4c0.2,0.1,0.5,0.4,0.5,0.6l0.1,0.7c0,0.3,0.3,0.5,0.5,0.6l0.7,0.2c0.3,0.1,0.6-0.1,0.7-0.3l0.3-0.4
			c0.2-0.2,0.5-0.3,0.7-0.3c0,0,0.9,0.2,1.5,0.2l0.1,0c0.1,0,0.2,0.2,0.3,0.4l0.2,0.3c0.1,0.2,0.4,0.4,0.7,0.4l0.7,0
			c0.3,0,0.5-0.2,0.6-0.5l0.1-0.2c0.1-0.2,0.4-0.5,0.6-0.5l1.6-0.2c0.3,0,0.6,0.1,0.8,0.3c0.2,0.2,0.5,0.3,0.8,0.2l0.7-0.2
			c0.2-0.1,0.4-0.3,0.5-0.5c0-0.2,0.2-0.5,0.4-0.6l1.9-0.9c0.2-0.1,0.5-0.2,0.6-0.1c0.1,0.1,0.4,0,0.6-0.2l0.6-0.4
			c0.2-0.2,0.4-0.4,0.3-0.5c0-0.1,0.1-0.3,0.3-0.5l1.9-1.7c0.2-0.2,0.3-0.3,0.4-0.3c0,0,0.1,0,0.1-0.1c0-0.1,0.1-0.2,0.3-0.4
			c0.4-0.4,0.7-0.8,1.1-1.4C144.8,32.2,145.8,29.5,146.1,26.6"/>
	</g>
	<g class="st9">
		<defs>
			<rect id="SVGID_9_" width="158.1" height="224.8"/>
		</defs>
		<clipPath id="SVGID_10_">
			<use xlink:href="#SVGID_9_"  style="overflow:visible;"/>
		</clipPath>
		<path class="st14" d="M130.2,30.7h-12.5v-7.8h12.5V30.7z M130.2,21.3h-12.5c-0.9,0-1.6,0.7-1.6,1.6v7.8c0,0.9,0.7,1.6,1.6,1.6h2.3
			v2.3c0,0.9,0.4,1,1,0.3l2.1-2.7h7.1c0.9,0,1.6-0.7,1.6-1.6v-7.8C131.8,22,131.1,21.3,130.2,21.3"/>
		<path class="st14" d="M127.7,26.2h12.5v-7.8h-12.5V26.2z M127.7,16.9h12.5c0.9,0,1.6,0.7,1.6,1.6v7.8c0,0.9-0.7,1.6-1.6,1.6h-2.3
			v2.3c0,0.9-0.4,1-1,0.3l-2.1-2.7h-7.1c-0.9,0-1.6-0.7-1.6-1.6v-7.8C126.1,17.6,126.8,16.9,127.7,16.9"/>
		<path class="st15" d="M121.7,5.9c-3.9-0.2-6.5,2.5-8.5,5.6c-3.4,5.1-5.3,11.7-4.6,17.9c1.4,12.7,14.4,18.2,25.8,14.8
			c9.7-3,16.2-12,16.3-22.1c0-6.1-2.5-12.4-7.7-15.8c-5.5-3.6-12.4-3-18.4-1.2c-11.1,3.3-21.6,10.6-19.4,23.5
			c2.2,12.5,17,21.9,29.3,19.3c10.9-2.3,16.6-16.9,14.3-26.8c-1.4-6-4.8-12.2-9.2-16.6c-4-4-8.9-4.6-14.3-4
			c-7,0.8-15.3,3.1-19.3,9.3c-3.2,4.9-4.1,12.7-3.1,18.4c1.5,8.3,10.6,11.7,18,13c8.1,1.5,15.5,0.6,20.7-6.1"/>
	</g>
	<g class="st9">
		<defs>
			
				<rect id="SVGID_11_" x="119.4" y="136.9" transform="matrix(0.9962 -8.712510e-02 8.712510e-02 0.9962 -12.9645 12.5701)" width="36.2" height="35.9"/>
		</defs>
		<clipPath id="SVGID_12_">
			<use xlink:href="#SVGID_11_"  style="overflow:visible;"/>
		</clipPath>
		<path class="st16" d="M155.5,156.3c0-0.1,0-0.3,0.1-0.4c0.8-9.6-6.3-18.2-15.9-19c-4.1-0.4-8,0.7-11.2,2.9l0,0
			c-0.1,0.1-0.2,0.1-0.3,0.2c-0.2,0.1-0.4,0.2-0.4,0.2c0,0-0.2,0.2-0.4,0.3l-1.8,1.7c-0.2,0.2-0.4,0.3-0.5,0.3
			c-0.1,0-0.3,0.1-0.5,0.3l-0.5,0.5c-0.2,0.2-0.3,0.5-0.2,0.6c0.1,0.1,0,0.4-0.1,0.7l-1,1.7c-0.1,0.2-0.4,0.4-0.6,0.4
			c-0.2,0-0.5,0.2-0.6,0.4l-0.3,0.6c-0.1,0.2-0.1,0.6,0.1,0.8l0,0c0.2,0.2,0.3,0.6,0.2,0.8l-0.4,1.5c-0.1,0.3-0.3,0.5-0.6,0.6
			l-0.2,0.1c-0.3,0.1-0.5,0.3-0.5,0.6l-0.1,0.7c0,0.3,0.1,0.6,0.3,0.7l0.4,0.2c0.2,0.1,0.4,0.5,0.4,0.7l0,1.2c0,0.3-0.2,0.6-0.4,0.7
			l-0.5,0.3c-0.2,0.1-0.4,0.5-0.3,0.7l0.1,0.7c0,0.3,0.3,0.5,0.5,0.6l0.7,0.2c0.3,0.1,0.5,0.3,0.6,0.6l0.3,0.9
			c0.1,0.2,0,0.6-0.2,0.8l-0.5,0.6c-0.2,0.2-0.2,0.5-0.1,0.8l0.3,0.6c0.1,0.2,0.4,0.4,0.7,0.4l0.8,0c0.3,0,0.6,0.2,0.7,0.4l0.5,0.7
			c0.2,0.2,0.2,0.6,0.1,0.8l-0.4,0.8c-0.1,0.2-0.1,0.6,0.1,0.8l0.5,0.5c0.2,0.2,0.5,0.3,0.8,0.2l0.8-0.3c0.2-0.1,0.6,0,0.8,0.2
			l0.7,0.6c0.2,0.2,0.3,0.5,0.3,0.8l-0.1,0.8c0,0.3,0.1,0.6,0.3,0.7l0.6,0.4c0.2,0.1,0.6,0.1,0.8,0l0.6-0.4c0.2-0.2,0.6-0.2,0.8-0.1
			l0.9,0.4c0.2,0.1,0.5,0.4,0.5,0.6l0.1,0.7c0,0.3,0.3,0.5,0.5,0.6l0.7,0.2c0.3,0.1,0.6-0.1,0.7-0.3l0.3-0.4
			c0.2-0.2,0.5-0.3,0.7-0.3c0,0,0.9,0.2,1.5,0.2l0.1,0c0.1,0,0.2,0.2,0.3,0.4l0.2,0.3c0.1,0.2,0.4,0.4,0.7,0.4l0.7,0
			c0.3,0,0.5-0.2,0.6-0.5l0.1-0.2c0.1-0.2,0.4-0.5,0.6-0.5l1.6-0.2c0.3,0,0.6,0.1,0.8,0.3c0.2,0.2,0.5,0.3,0.8,0.2l0.7-0.2
			c0.2-0.1,0.4-0.3,0.5-0.5c0-0.2,0.2-0.5,0.4-0.6l1.9-0.9c0.2-0.1,0.5-0.2,0.6-0.1c0.1,0.1,0.4,0,0.6-0.2l0.6-0.4
			c0.2-0.2,0.4-0.4,0.3-0.5c0-0.1,0.1-0.3,0.3-0.5l1.9-1.7c0.2-0.2,0.3-0.3,0.4-0.3c0,0,0.1,0,0.1-0.1c0-0.1,0.1-0.2,0.3-0.4
			c0.4-0.4,0.7-0.8,1.1-1.4C154.1,161.9,155.2,159.2,155.5,156.3"/>
	</g>
	<rect x="131.4" y="148.7" class="st0" width="12.2" height="12.2"/>
	<rect x="131.4" y="148.7" class="st12" width="12.2" height="12.2"/>
	<line class="st12" x1="129.4" y1="162.3" x2="145.7" y2="147.4"/>
	<line class="st12" x1="130.1" y1="146.7" x2="145" y2="163"/>
	<g class="st9">
		<defs>
			
				<rect id="SVGID_13_" x="35.1" y="161" transform="matrix(0.9962 -8.712510e-02 8.712510e-02 0.9962 -15.3844 5.3144)" width="36.2" height="35.9"/>
		</defs>
		<clipPath id="SVGID_14_">
			<use xlink:href="#SVGID_13_"  style="overflow:visible;"/>
		</clipPath>
		<path class="st17" d="M71.2,180.4c0-0.1,0-0.3,0.1-0.4c0.8-9.6-6.3-18.2-15.9-19c-4.1-0.4-8,0.7-11.2,2.9l0,0
			c-0.1,0.1-0.2,0.1-0.3,0.2c-0.2,0.1-0.4,0.2-0.4,0.2c0,0-0.2,0.2-0.4,0.3l-1.8,1.7c-0.2,0.2-0.4,0.3-0.5,0.3
			c-0.1,0-0.3,0.1-0.5,0.3l-0.5,0.5c-0.2,0.2-0.3,0.5-0.2,0.6c0.1,0.1,0,0.4-0.1,0.7l-1,1.7c-0.1,0.2-0.4,0.4-0.6,0.4
			c-0.2,0-0.5,0.2-0.6,0.4l-0.3,0.6c-0.1,0.2-0.1,0.6,0.1,0.8l0,0c0.2,0.2,0.3,0.6,0.2,0.8l-0.4,1.5c-0.1,0.3-0.3,0.5-0.6,0.6
			l-0.2,0.1c-0.3,0.1-0.5,0.3-0.5,0.6l-0.1,0.7c0,0.3,0.1,0.6,0.3,0.7l0.4,0.2c0.2,0.1,0.4,0.5,0.4,0.7l0,1.2c0,0.3-0.2,0.6-0.4,0.7
			l-0.5,0.3c-0.2,0.1-0.4,0.5-0.3,0.7l0.1,0.7c0,0.3,0.3,0.5,0.5,0.6l0.7,0.2c0.3,0.1,0.5,0.3,0.6,0.6l0.3,0.9
			c0.1,0.2,0,0.6-0.2,0.8l-0.5,0.6c-0.2,0.2-0.2,0.5-0.1,0.8l0.3,0.6c0.1,0.2,0.4,0.4,0.7,0.4l0.8,0c0.3,0,0.6,0.2,0.7,0.4l0.5,0.7
			c0.2,0.2,0.2,0.6,0.1,0.8l-0.4,0.8c-0.1,0.2-0.1,0.6,0.1,0.8l0.5,0.5c0.2,0.2,0.5,0.3,0.8,0.2l0.8-0.3c0.2-0.1,0.6,0,0.8,0.2
			l0.7,0.6c0.2,0.2,0.3,0.5,0.3,0.8l-0.1,0.8c0,0.3,0.1,0.6,0.3,0.7l0.6,0.4c0.2,0.1,0.6,0.1,0.8,0l0.6-0.4c0.2-0.2,0.6-0.2,0.8-0.1
			l0.9,0.4c0.2,0.1,0.5,0.4,0.5,0.6l0.1,0.7c0,0.3,0.3,0.5,0.5,0.6l0.7,0.2c0.3,0.1,0.6-0.1,0.7-0.3l0.3-0.4
			c0.2-0.2,0.5-0.3,0.7-0.3c0,0,0.9,0.2,1.5,0.2l0.1,0c0.1,0,0.2,0.2,0.3,0.4l0.2,0.3c0.1,0.2,0.4,0.4,0.7,0.4l0.7,0
			c0.3,0,0.5-0.2,0.6-0.5l0.1-0.2c0.1-0.2,0.4-0.5,0.6-0.5l1.6-0.2c0.3,0,0.6,0.1,0.8,0.3c0.2,0.2,0.5,0.3,0.8,0.2l0.7-0.2
			c0.2-0.1,0.4-0.3,0.5-0.5c0-0.2,0.2-0.5,0.5-0.6l1.9-0.9c0.2-0.1,0.5-0.2,0.6-0.1c0.1,0.1,0.4,0,0.6-0.2l0.6-0.4
			c0.2-0.2,0.4-0.4,0.3-0.5c0-0.1,0.1-0.3,0.3-0.5l1.9-1.7c0.2-0.2,0.3-0.3,0.4-0.3c0,0,0.1,0,0.1-0.1c0-0.1,0.1-0.2,0.3-0.4
			c0.4-0.4,0.7-0.8,1.1-1.4C69.8,186,70.8,183.3,71.2,180.4"/>
	</g>
	<g class="st9">
		<defs>
			<rect id="SVGID_15_" width="158.1" height="224.8"/>
		</defs>
		<clipPath id="SVGID_16_">
			<use xlink:href="#SVGID_15_"  style="overflow:visible;"/>
		</clipPath>
		<path class="st18" d="M54.8,182.3l0.4,1c0.3,0.7-0.1,1.5-0.9,1.8l-1.7,0.6c-0.7,0.3-1.5-0.1-1.8-0.9l-0.3-1"/>
		<path class="st19" d="M46.2,181.5c0.6,0.8,1.2,1.6,1.8,2.4c4.2-1.4,8.3-2.7,12.5-4.1c-2.2-2.9-4.5-5.9-6.7-8.8
			C51.3,174.5,48.8,178,46.2,181.5z"/>
		<defs>
			<filter id="Adobe_OpacityMaskFilter" filterUnits="userSpaceOnUse" x="45.8" y="159.7" width="26.4" height="28.8">
				<feColorMatrix  type="matrix" values="1 0 0 0 0  0 1 0 0 0  0 0 1 0 0  0 0 0 1 0"/>
			</filter>
		</defs>
		<mask maskUnits="userSpaceOnUse" x="45.8" y="159.7" width="26.4" height="28.8" id="SVGID_17_">
			<g class="st20">
				<g>
					<defs>
						<rect id="SVGID_18_" x="34.3" y="150.1" width="49.9" height="42.7"/>
					</defs>
					<clipPath id="SVGID_19_" class="st21">
						<use xlink:href="#SVGID_18_"  style="overflow:visible;"/>
					</clipPath>
					<g style="clip-path:url(#SVGID_19_);">
						
							<image style="overflow:visible;" width="104" height="89" xlink:href="50EB7986.jpg"  transform="matrix(0.48 0 0 0.48 34.3027 150.0895)">
						</image>
					</g>
				</g>
			</g>
		</mask>
		<g class="st22">
			<g>
				<defs>
					<rect id="SVGID_20_" x="45.8" y="159.7" width="26.4" height="28.8"/>
				</defs>
				<clipPath id="SVGID_21_">
					<use xlink:href="#SVGID_20_"  style="overflow:visible;"/>
				</clipPath>
				<rect x="45.8" y="159.7" class="st23" width="26.4" height="28.8"/>
			</g>
		</g>
	</g>
	<line class="st24" x1="54.8" y1="168.6" x2="63.2" y2="179.6"/>
	<g class="st9">
		<defs>
			<rect id="SVGID_22_" width="158.1" height="224.8"/>
		</defs>
		<clipPath id="SVGID_23_">
			<use xlink:href="#SVGID_22_"  style="overflow:visible;"/>
		</clipPath>
		<defs>
			<filter id="Adobe_OpacityMaskFilter_1_" filterUnits="userSpaceOnUse" x="35.4" y="173.9" width="20.2" height="20.2">
				<feColorMatrix  type="matrix" values="1 0 0 0 0  0 1 0 0 0  0 0 1 0 0  0 0 0 1 0"/>
			</filter>
		</defs>
		<mask maskUnits="userSpaceOnUse" x="35.4" y="173.9" width="20.2" height="20.2" id="SVGID_24_">
			<g class="st25">
				<g>
					<defs>
						<rect id="SVGID_25_" x="23.9" y="164.3" width="44.2" height="34.6"/>
					</defs>
					<clipPath id="SVGID_26_" class="st26">
						<use xlink:href="#SVGID_25_"  style="overflow:visible;"/>
					</clipPath>
					<g transform="matrix(1 0 0 1 0 0)" style="clip-path:url(#SVGID_26_);">
						
							<image style="overflow:visible;" width="92" height="72" xlink:href="50EB798A.jpg"  transform="matrix(0.48 0 0 0.48 23.8889 164.2681)">
						</image>
					</g>
				</g>
			</g>
		</mask>
		<g class="st27">
			<g>
				<defs>
					<rect id="SVGID_27_" x="35.4" y="173.9" width="20.2" height="20.2"/>
				</defs>
				<clipPath id="SVGID_28_">
					<use xlink:href="#SVGID_27_"  style="overflow:visible;"/>
				</clipPath>
				<rect x="35.4" y="173.9" class="st28" width="20.2" height="20.2"/>
			</g>
		</g>
	</g>
	<line class="st24" x1="44.4" y1="182.8" x2="46.3" y2="185.2"/>
</g>
</svg>
