<svg id="Ebene_1" data-name="Ebene 1" xmlns="http://www.w3.org/2000/svg" viewBox="0 0 339.15 473.64"><defs><style>.cls-1{fill:#1d1d1b;}.cls-2{fill:#fff;}.cls-3{fill:#6cc1b2;}.cls-4{fill:#aecc4e;}.cls-5{fill:#fde006;}.cls-6{fill:#77be7e;}.cls-7{fill:#f8ac36;}.cls-8{fill:#62c3d6;}.cls-9{fill:#ffed00;}.cls-10,.cls-12,.cls-14,.cls-16,.cls-18,.cls-20{fill:none;stroke-miterlimit:10;}.cls-10,.cls-14,.cls-16,.cls-18,.cls-20{stroke:#1d1d1b;}.cls-10,.cls-12{stroke-width:1.5px;}.cls-11{fill:#e30615;}.cls-12{stroke:#1c1c1a;}.cls-13{fill:#60c4e0;}.cls-14{stroke-width:1.25px;}.cls-15{fill:#c49669;}.cls-16{stroke-width:1.69px;}.cls-17{fill:#7e6450;}.cls-18{stroke-width:1.56px;}.cls-19{fill:#deac82;}.cls-20{stroke-width:1.23px;}</style></defs><title>161012_wemoda3_website_header_01</title><path class="cls-1" d="M46.36,392.94l-5,2.32,2.31,5,5-2.31Zm7.33,2.71-5,2.32L51,403l5-2.31ZM61,398.35l-5,2.31,2.31,5,5-2.31Zm7.34,2.7-5,2.32,2.32,5,5-2.31Zm7.33,2.7-5,2.32,2.31,5,5-2.31Zm7.33,2.7-5,2.32,2.31,5,5-2.32Zm7.33,2.7-5,2.31,2.31,5,5-2.31Zm7.33,2.7-5,2.32,2.32,5,5-2.32Zm7.34,2.7-5,2.32,2.3,5,5-2.32Zm7.33,2.7-5,2.32,2.32,5,5-2.32Zm7.33,2.71-5,2.31,2.32,5,5-2.31Zm2.31,5-5,2.31,2.31,5,5-2.31Zm-5,2.31-5,2.32,2.31,5,5-2.31Zm-5,2.32-5,2.32,2.32,5,5-2.32Zm-5,2.32-5,2.32,2.32,5,5-2.31Zm-5,2.32-5,2.31,2.32,5,5-2.31Zm2.32,5-5,2.31,2.31,5,5-2.32Zm7.34,2.71-5,2.31,2.31,5,5-2.32Zm2.31,5-5,2.32,2.32,5,5-2.31Zm7.34,2.7-5,2.32,2.31,5,5-2.31Zm2.3,5-5,2.31,2.32,5,5-2.32ZM120.84,462l-5,2.32,2.31,5,5-2.32Zm-5,2.32-5,2.32,2.32,5,5-2.32Zm-7.33-2.7-5,2.32,2.32,5,5-2.32Zm-2.32-5-5,2.31,2.31,5,5-2.32Zm-7.34-2.71-5,2.32,2.31,5,5-2.31Zm-2.31-5-5,2.32,2.32,5,5-2.32Zm-7.33-2.7-5,2.32,2.32,5,5-2.31Zm-2.7,7.33-5,2.31,2.32,5,5-2.32Zm-2.7,7.33-5,2.32,2.31,5,5-2.32Zm-2.7,7.33-5,2.31,2.32,5,5-2.3Zm-5,2.31-5,2.32,2.32,5,5-2.32Zm-2.32-5-5,2.31,2.32,5,5-2.32Zm-2.32-5-5,2.32,2.31,5,5-2.31Zm-2.31-5-5,2.32,2.32,5,5-2.32Zm-2.32-5-5,2.32,2.31,5,5-2.32Zm-2.32-5-5,2.32,2.31,5,5-2.32Zm-2.31-5-5,2.32,2.33,5,5-2.32Zm-2.32-5-5,2.31,2.31,5,5-2.32Zm-2.31-5-5,2.32,2.31,5,5-2.31Zm-2.31-5-5,2.32,2.32,5,5-2.32Zm-2.32-5-5,2.32,2.31,5,5-2.32Zm-2.31-5-5,2.32,2.32,5,5-2.32Zm-2.31-5-5,2.32,2.32,5,5-2.32Zm-2.32-5-5,2.31,2.31,5,5-2.32Zm-2.32-5-5,2.32,2.31,5,5-2.31Zm-2.31-5-5,2.32,2.31,5,5-2.32Zm0,0-5,2.32-2.32-5,5-2.32Z" transform="translate(-34.01 -4.2)"/><polygon class="cls-2" points="9.64 396.07 14.66 393.76 16.98 398.77 22 396.46 24.31 401.48 29.33 399.16 31.64 404.18 36.66 401.87 38.98 406.88 44 404.57 46.3 409.59 51.33 407.27 53.64 412.29 58.66 409.97 60.98 414.99 66 412.67 68.3 417.69 73.32 415.37 75.64 420.4 80.66 418.08 82.97 423.1 62.9 432.35 67.53 442.39 72.55 440.08 77.18 450.11 82.2 447.8 86.83 457.83 76.79 462.46 72.16 452.43 67.15 454.74 62.51 444.7 57.5 447.02 55.18 442 50.16 444.32 52.48 449.34 47.46 451.64 49.77 456.67 44.76 458.99 47.07 464 42.06 466.32 9.64 396.07"/><path class="cls-1" d="M34,300.85l2.65,2.66,2.66-2.65-2.64-2.65Zm0-5.3,2.65,2.66,2.65-2.65-2.65-2.66Zm0-5.3,2.65,2.65,2.66-2.64L36.7,287.6Zm0-5.31,2.65,2.66L39.36,285l-2.64-2.66Zm0-5.3,2.65,2.65,2.65-2.64L36.72,277Zm0-5.3L36.72,277l2.66-2.64-2.65-2.66Zm0-5.31,2.64,2.65,2.65-2.64-2.65-2.65Zm0-5.29,2.65,2.65,2.66-2.65-2.65-2.66Zm0-5.31,2.65,2.65,2.66-2.63-2.65-2.66Zm0-5.3,2.65,2.66,2.66-2.65-2.65-2.65Zm0-5.3,2.65,2.66,2.66-2.65-2.64-2.65Zm2.66-2.65,2.64,2.65,2.66-2.65-2.64-2.65Zm2.64,2.65,2.65,2.66,2.65-2.65-2.64-2.66Zm2.65,2.66,2.65,2.65,2.65-2.64-2.65-2.66Zm2.65,2.65,2.64,2.66L50,253.17l-2.64-2.66Zm2.64,2.66L50,258.48l2.66-2.65L50,253.17ZM50,253.17l2.65,2.65,2.66-2.65-2.65-2.65Zm0-5.31,2.65,2.66,2.66-2.65-2.65-2.65Zm2.66-2.64,2.65,2.65L58,245.24l-2.65-2.66Zm0-5.31,2.65,2.66L58,239.94l-2.65-2.65Zm2.66-2.64L58,239.94l2.65-2.65L58,234.63Zm5.3,0,2.65,2.66L66,237.3l-2.64-2.66Zm2.65,2.66,2.65,2.65L68.6,240,66,237.3Zm0,5.3,2.65,2.66,2.66-2.65-2.65-2.66Zm-2.65,2.65,2.65,2.66,2.65-2.64-2.65-2.66Zm0,5.31,2.65,2.65,2.65-2.65-2.64-2.65ZM58,255.84l2.65,2.65,2.66-2.65-2.65-2.65Zm0,5.3,2.65,2.66,2.66-2.65-2.65-2.66Zm5.31,0,2.64,2.66,2.66-2.65-2.64-2.65Zm5.29,0,2.65,2.66,2.66-2.64-2.65-2.66Zm5.31,0,2.65,2.65,2.65-2.64-2.64-2.66Zm2.65,2.65,2.65,2.66,2.65-2.64-2.65-2.66Zm-2.66,2.65,2.64,2.66,2.66-2.65-2.65-2.66Zm-2.65,2.65,2.64,2.66,2.65-2.64-2.64-2.66Zm-2.66,2.65,2.65,2.66,2.65-2.65-2.64-2.66Zm-2.66,2.65,2.65,2.65,2.66-2.64-2.65-2.66Zm-2.66,2.65,2.65,2.65,2.66-2.64-2.65-2.65Zm-2.66,2.65,2.65,2.66,2.65-2.66-2.65-2.65Zm-2.65,2.65L60.57,285l2.65-2.64-2.65-2.66ZM55.26,285l2.65,2.66L60.57,285l-2.65-2.65Zm-2.66,2.65,2.65,2.65,2.65-2.64L55.26,285ZM50,290.28l2.65,2.65,2.65-2.65-2.65-2.65Zm-2.67,2.65,2.66,2.65,2.66-2.65L50,290.28Zm-2.65,2.64,2.65,2.66,2.66-2.65-2.66-2.65ZM42,298.22l2.65,2.65,2.66-2.64-2.65-2.66Zm-2.65,2.64L42,303.52l2.65-2.65L42,298.22Zm-2.66,2.65,2.65,2.66L42,303.52l-2.65-2.66Zm0,0,2.65,2.66-2.65,2.64L34,306.15Z" transform="translate(-34.01 -4.2)"/><polygon class="cls-3" points="5.32 296.66 2.67 294.01 5.32 291.36 2.68 288.7 5.34 286.06 2.69 283.4 5.34 280.76 2.7 278.1 5.35 275.46 2.71 272.8 5.37 270.16 2.72 267.5 5.38 264.85 2.73 262.2 5.39 259.55 2.74 256.89 5.4 254.26 2.75 251.6 5.41 248.95 2.76 246.3 5.42 243.65 16 254.27 21.31 248.98 18.67 246.33 23.98 241.04 21.33 238.38 26.64 233.08 31.94 238.4 26.62 243.69 29.27 246.35 23.95 251.64 26.6 254.29 23.95 256.94 26.59 259.6 29.25 256.95 31.89 259.61 34.55 256.96 37.2 259.62 39.85 256.97 42.5 259.62 5.32 296.66"/><path class="cls-1" d="M67,340.79l.25,3.09,3.08-.25-.25-3.08Zm2.83-3.33.25,3.08,3.08-.25-.25-3.09Zm2.83-3.33.26,3.08L76,337l-.25-3.09Zm2.84-3.34.25,3.08,3.08-.25-.25-3.08Zm2.83-3.33.26,3.08,3.08-.25-.25-3.08Zm2.84-3.34.25,3.09,3.08-.25-.26-3.09ZM84,320.78l.25,3.09,3.09-.26-.25-3.08Zm2.83-3.33.26,3.08,3.08-.25-.25-3.08Zm2.83-3.33.25,3.08,3.08-.25-.26-3.09Zm2.83-3.34.25,3.08,3.08-.25-.25-3.09Zm2.83-3.34.25,3.09,3.09-.25-.25-3.08Zm3.09-.25.25,3.08,3.08-.25-.25-3.08Zm.25,3.08.25,3.09,3.09-.26-.25-3.08Zm.25,3.09.25,3.08,3.09-.25L102,313.1Zm.25,3.08.26,3.08,3.08-.25-.25-3.08Zm.26,3.08.25,3.08,3.08-.25-.25-3.08Zm3.08-.25.25,3.08,3.08-.25-.25-3.09Zm2.83-3.34.25,3.08,3.08-.25-.25-3.08Zm3.08-.25.25,3.08,3.08-.25-.25-3.09Zm2.83-3.33.26,3.08,3.08-.25-.25-3.08Zm3.09-.25.25,3.08,3.08-.25-.25-3.09Zm3.33,2.83.25,3.08,3.09-.25-.25-3.08Zm.25,3.08.25,3.08,3.08-.25-.25-3.09Zm-2.83,3.33.25,3.09,3.09-.25-.25-3.08Zm-3.08.26.25,3.08,3.08-.25-.25-3.09Zm-2.83,3.33.25,3.08,3.08-.25-.25-3.08Zm-3.09.25.25,3.09,3.09-.25-.25-3.08Zm-2.83,3.34.25,3.08,3.08-.25-.25-3.08Zm3.34,2.83.25,3.08,3.09-.25-.25-3.09Zm3.34,2.83.25,3.08,3.08-.25-.25-3.09Zm3.33,2.83.26,3.08,3.08-.25-.25-3.08Zm.26,3.08.25,3.08,3.08-.25-.25-3.08Zm-3.09.25.25,3.09,3.08-.25-.25-3.08Zm-3.08.26.26,3.08,3.08-.25-.25-3.09Zm-3.08.25.26,3.08,3.08-.26-.26-3.08Zm-3.08.25.26,3.09,3.08-.25-.26-3.08Zm-3.08.26.26,3.08,3.08-.25-.26-3.09Zm-3.08.25.25,3.09,3.09-.26-.26-3.08Zm-3.08.26.25,3.08,3.08-.25L95,341.61Zm-3.08.25.25,3.08,3.08-.25-.25-3.08Zm-3.08.25.25,3.08,3.08-.25-.25-3.08Zm-3.08.26.25,3.08,3.08-.25-.25-3.08Zm-3.09.25.26,3.08,3.08-.26-.25-3.08Zm-3.08.25.24,3.09,3.09-.25-.26-3.08Zm-3.09.25.25,3.08,3.08-.25-.24-3.09Zm-3.09.25.25,3.08,3.08-.25-.25-3.08Zm-3.08.25.26,3.08,3.08-.25-.25-3.08Zm0,0,.26,3.08-3.09.25-.25-3.08Z" transform="translate(-34.01 -4.2)"/><polygon class="cls-2" points="36.33 339.43 36.08 336.34 39.16 336.1 38.91 333 41.99 332.76 41.75 329.67 44.83 329.42 44.58 326.34 47.66 326.08 47.41 323 50.49 322.75 50.24 319.67 53.33 319.41 53.08 316.33 56.16 316.07 55.91 312.99 58.99 312.75 58.73 309.65 61.82 309.4 61.57 306.32 64.66 306.07 65.66 318.41 71.83 317.9 71.58 314.81 77.74 314.32 77.49 311.23 83.66 310.73 84.17 316.89 78 317.4 78.25 320.48 72.08 320.99 72.33 324.07 69.25 324.32 69.5 327.41 72.58 327.15 72.83 330.24 75.92 329.99 76.17 333.07 79.25 332.82 79.51 335.9 36.33 339.43"/><path class="cls-1" d="M60.58,368.24l-1.52,1.71,1.71,1.52,1.52-1.71Zm3.22-.2-1.51,1.71L64,371.27l1.52-1.71Zm3.22-.19-1.51,1.71,1.71,1.52,1.52-1.71Zm3.23-.2-1.51,1.71,1.71,1.51L72,369.17Zm3.23-.2L72,369.17l1.71,1.52L75.2,369Zm3.23-.2L75.2,369l1.71,1.52,1.51-1.71Zm3.22-.2-1.52,1.71,1.72,1.51,1.51-1.71Zm3.23-.19-1.52,1.71,1.71,1.52,1.51-1.71Zm3.23-.2-1.52,1.71,1.71,1.52,1.52-1.71Zm3.23-.2-1.52,1.71,1.71,1.51L91.34,368Zm3.23-.19L91.34,368l1.71,1.51,1.52-1.71Zm1.71,1.51-1.52,1.71L94.76,371l1.52-1.71Zm-1.52,1.71-1.52,1.71,1.71,1.52L94.76,371Zm-1.52,1.71L90,372.93l1.71,1.52,1.52-1.72ZM90,372.93l-1.52,1.71,1.71,1.52,1.51-1.71Zm-1.52,1.71L87,376.36l1.72,1.52,1.51-1.71Zm1.71,1.52-1.51,1.71,1.71,1.51,1.52-1.71Zm3.22-.2-1.51,1.71,1.71,1.52,1.51-1.72Zm1.71,1.51-1.51,1.72,1.71,1.51L96.86,379Zm3.23-.19L96.86,379l1.71,1.52,1.51-1.71Zm1.71,1.52-1.51,1.71,1.71,1.52,1.52-1.71Zm.19,3.23-1.51,1.72,1.71,1.51,1.51-1.71Zm-1.51,1.72-1.52,1.71L99,387l1.52-1.71Zm-3.23.19L94,385.65l1.71,1.52,1.52-1.71Zm-1.71-1.51-1.51,1.71L94,385.65l1.52-1.71Zm-3.22.19-1.52,1.71,1.71,1.52,1.52-1.71Zm-1.71-1.52-1.52,1.71,1.71,1.52,1.52-1.71Zm-3.23.2L84.15,383l1.71,1.52,1.52-1.71Zm.19,3.23-1.52,1.71,1.71,1.52L87.57,386Zm.19,3.23-1.51,1.71L86.25,391l1.52-1.71Zm.2,3.22-1.51,1.72,1.71,1.51L88,392.49Zm-1.51,1.72-1.52,1.71,1.71,1.51,1.52-1.71ZM83,391.17l-1.52,1.71,1.71,1.52,1.52-1.71Zm-1.72-1.52-1.51,1.71,1.71,1.52L83,391.17Zm-1.71-1.51-1.52,1.71,1.72,1.51,1.51-1.71Zm-1.71-1.52-1.51,1.72,1.71,1.51,1.52-1.71Zm-1.71-1.51-1.51,1.72,1.71,1.52,1.51-1.72Zm-1.71-1.51L73,385.31l1.71,1.52,1.51-1.72Zm-1.71-1.52-1.52,1.71L73,385.31l1.51-1.71ZM71,380.56l-1.51,1.71,1.71,1.52,1.52-1.71ZM69.34,379l-1.52,1.71,1.72,1.51L71,380.56Zm-1.71-1.51-1.51,1.71,1.7,1.52L69.34,379ZM65.91,376l-1.51,1.71,1.71,1.51,1.51-1.71Zm-1.71-1.51-1.52,1.72,1.71,1.51L65.91,376ZM62.49,373,61,374.69l1.71,1.52,1.52-1.72Zm-1.71-1.52-1.52,1.71L61,374.69,62.49,373Zm-1.71-1.52-1.52,1.71,1.71,1.51,1.52-1.71Zm0,0-1.52,1.71-1.71-1.52,1.52-1.71Z" transform="translate(-34.01 -4.2)"/><polygon class="cls-4" points="26.77 367.27 28.29 365.56 29.99 367.07 31.51 365.36 33.22 366.88 34.74 365.16 36.45 366.68 37.97 364.97 39.68 366.49 41.19 364.77 42.9 366.29 44.41 364.58 46.14 366.09 47.65 364.38 49.36 365.9 50.87 364.18 52.59 365.7 54.1 363.99 55.81 365.5 57.33 363.79 59.04 365.31 52.97 372.16 56.4 375.19 57.92 373.48 61.33 376.5 62.85 374.8 66.27 377.83 63.24 381.25 59.82 378.22 58.31 379.93 54.88 376.9 53.37 378.61 51.66 377.1 50.14 378.81 51.85 380.32 50.33 382.03 52.04 383.55 50.53 385.26 52.24 386.77 50.73 388.49 26.77 367.27"/><path class="cls-1" d="M49.38,316.71l.53,1,1-.53-.52-1Zm.49-1.53.52,1,1-.52-.52-1Zm.49-1.53.52,1,1-.52-.52-1Zm.49-1.53.52,1,1-.52-.52-1Zm.49-1.53.52,1,1-.53-.52-1Zm.49-1.54.52,1,1-.52-.52-1Zm.49-1.53.52,1,1-.52-.52-1Zm.49-1.53.52,1,1-.52-.52-1Zm.49-1.54.52,1,1-.52-.52-1Zm.49-1.53.52,1,1-.52-.52-1Zm.49-1.53.52,1,1-.53-.52-1Zm1-.52.52,1,1-.52-.52-1Zm.52,1,.52,1,1-.52-.52-1Zm.52,1,.52,1,1-.52-.52-1Zm.52,1,.52,1,1-.52-.52-1Zm.52,1,.52,1,1-.53-.52-1Zm1-.52.52,1,1-.52-.52-1Zm.49-1.53.52,1,1-.52-.52-1Zm1-.52.52,1,1-.52-.52-1Zm.49-1.54.52,1,1-.52-.52-1Zm1-.52.52,1,1-.53-.52-1Zm1.53.49.52,1,1-.52-.52-1Zm.52,1,.52,1,1-.52-.52-1ZM63,303.29l.52,1,1-.52-.52-1Zm-1,.52.52,1,1-.52-.52-1Zm-.49,1.54.52,1,1-.52-.52-1Zm-1,.52.52,1,1-.52-.52-1ZM60,307.41l.53,1,1-.52-.52-1Zm1.54.49.52,1,1-.52-.52-1Zm1.53.49.52,1,1-.52-.52-1Zm1.53.49.52,1,1-.52-.52-1Zm.52,1,.52,1,1-.52-.52-1Zm-1,.52.52,1,1-.52-.52-1Zm-1,.53.52,1,1-.52-.52-1Zm-1,.52.52,1,1-.52-.52-1ZM61,312l.52,1,1-.52-.52-1Zm-1,.52.52,1,1-.52L61,312ZM59,313l.52,1,1-.52-.52-1Zm-1,.52.52,1,1-.52L59,313Zm-1,.52.52,1,1-.52-.52-1Zm-1,.52.52,1,1-.52-.52-1Zm-1,.52.52,1,1-.52-.52-1Zm-1,.52.52,1,1-.52-.52-1Zm-1,.52.52,1,1-.53-.52-1Zm-1,.52.52,1,1-.52-.52-1Zm-1,.52.52,1,1-.52-.52-1Zm-1,.53.52,1,1-.53-.52-1Zm0,0,.52,1-1,.52-.52-1Z" transform="translate(-34.01 -4.2)"/><polygon class="cls-2" points="16.91 312.99 16.39 311.98 17.4 311.46 16.88 310.45 17.89 309.93 17.37 308.92 18.38 308.39 17.86 307.38 18.86 306.86 18.34 305.85 19.36 305.33 18.83 304.32 19.84 303.79 19.32 302.79 20.33 302.26 19.81 301.25 20.82 300.73 20.3 299.71 21.31 299.19 20.79 298.18 21.8 297.66 23.89 301.71 25.91 300.66 25.39 299.65 27.41 298.6 26.89 297.59 28.91 296.55 29.96 298.57 27.93 299.62 28.45 300.63 26.43 301.67 26.95 302.68 25.94 303.2 26.47 304.22 27.48 303.69 28 304.71 29.01 304.19 29.53 305.19 30.54 304.67 31.07 305.68 16.91 312.99"/><path class="cls-1" d="M137.92,323l.17,2.73,2.73-.17-.16-2.73Zm2.57-2.89.17,2.73,2.73-.16-.17-2.74Zm2.57-2.89.16,2.72,2.73-.16-.16-2.73Zm2.57-2.9.16,2.73,2.73-.16-.17-2.73Zm2.57-2.89.16,2.73,2.73-.17-.17-2.72Zm2.56-2.9.17,2.73,2.73-.17-.17-2.73Zm2.57-2.89.16,2.73,2.73-.16-.16-2.73Zm2.57-2.9.17,2.73,2.73-.17-.16-2.73Zm2.57-2.89.17,2.72,2.73-.16-.16-2.73Zm2.56-2.9.17,2.73,2.73-.17-.16-2.73Zm2.57-2.9.16,2.73,2.73-.16-.16-2.73Zm2.73-.16.16,2.73,2.73-.16-.16-2.73Zm.16,2.73.16,2.73,2.73-.17-.17-2.73Zm.16,2.73.17,2.73,2.73-.16-.17-2.73Zm.17,2.73.16,2.73,2.73-.16-.16-2.73Zm.16,2.73.16,2.73,2.73-.17-.17-2.72Zm2.73-.16.17,2.72,2.73-.17-.16-2.73Zm2.57-2.9.17,2.73,2.72-.16-.16-2.73Zm2.73-.16.16,2.73,2.73-.16-.16-2.73Zm2.57-2.9.17,2.74,2.73-.17-.16-2.73Zm2.73-.16.16,2.73,2.73-.16-.17-2.74Zm2.9,2.57.16,2.73,2.73-.17-.16-2.73Zm.16,2.73.17,2.72,2.73-.16-.17-2.73Zm-2.57,2.89.16,2.73,2.73-.16-.16-2.74Zm-2.73.17.16,2.73,2.73-.17-.16-2.73Zm-2.57,2.9.16,2.73,2.73-.16-.17-2.73Zm-2.73.16.16,2.73,2.73-.17-.16-2.73Zm-2.57,2.9.17,2.73,2.73-.17-.16-2.73Zm2.9,2.57.16,2.73,2.73-.16-.16-2.74Zm2.89,2.57.17,2.72,2.73-.16-.16-2.74Zm2.9,2.56.17,2.73,2.73-.17-.16-2.73Zm.17,2.73.17,2.73,2.72-.17-.16-2.73Zm-2.73.16.16,2.73,2.73-.16-.17-2.73Zm-2.73.17.17,2.73,2.73-.17-.16-2.73Zm-2.73.16.17,2.73,2.73-.17-.17-2.73Zm-2.73.16.17,2.73,2.73-.16-.17-2.73Zm-2.73.17.17,2.73,2.73-.16-.17-2.73Zm-2.73.16.17,2.73,2.73-.17-.17-2.73Zm-2.73.17.16,2.73,2.73-.17-.17-2.73Zm-2.73.17.17,2.73,2.73-.16-.16-2.73Zm-2.73.16.17,2.73,2.73-.17-.17-2.73Zm-2.74.17.17,2.73,2.73-.16-.17-2.73Zm-2.72.16.17,2.73,2.73-.16-.17-2.73Zm-2.73.17.16,2.73,2.73-.17-.17-2.73Zm-2.73.16.16,2.73,2.73-.17-.16-2.73Zm-2.73.16.17,2.73,2.73-.16-.16-2.73Zm-2.73.17.16,2.73,2.73-.16-.17-2.73Zm0,0,.16,2.73-2.73.16-.17-2.73Z" transform="translate(-34.01 -4.2)"/><polygon class="cls-2" points="106.81 321.34 106.64 318.61 109.37 318.45 109.2 315.72 111.93 315.55 111.77 312.82 114.5 312.66 114.34 309.93 117.07 309.76 116.9 307.04 119.64 306.87 119.47 304.14 122.2 303.98 122.04 301.25 124.76 301.08 124.6 298.35 127.33 298.19 127.16 295.46 129.89 295.29 129.73 292.56 132.46 292.4 133.12 303.32 138.58 302.98 138.42 300.26 143.87 299.93 143.71 297.2 149.17 296.87 149.5 302.32 144.04 302.66 144.2 305.39 138.75 305.72 138.91 308.45 136.17 308.61 136.34 311.34 139.07 311.18 139.24 313.91 141.97 313.75 142.13 316.47 144.86 316.31 145.03 319.04 106.81 321.34"/><path class="cls-1" d="M129.94,312.87l.37.87.87-.38-.37-.87Zm.49-1.24.37.87.87-.37-.37-.87Zm.49-1.24.37.86.87-.37-.37-.87Zm.49-1.24.37.87.87-.37-.37-.87Zm.49-1.24.37.86.87-.38-.37-.86Zm.49-1.24.37.87.87-.37-.37-.87Zm.49-1.24.37.87.87-.37-.37-.87Zm.49-1.24.38.87.86-.37-.38-.87Zm.49-1.24.37.86.87-.37-.37-.87Zm.49-1.24.37.87.87-.37-.37-.87Zm.49-1.24.37.87.87-.37-.37-.86Zm.86-.37.37.86.87-.37-.37-.87Zm.37.86.37.87.87-.38-.37-.86Zm.37.87.37.86.87-.37-.38-.87Zm.37.86.38.87.86-.37-.37-.86Zm.38.87.37.87.87-.38-.38-.87Zm.86-.37.38.87.86-.37-.37-.87Zm.49-1.24.38.87.86-.37-.37-.87Zm.86-.37.37.87.87-.37-.38-.87Zm.5-1.24.37.87.87-.37-.37-.87Zm.86-.38.37.87.87-.38-.38-.86Zm1.24.49.37.87.87-.38-.37-.87Zm.37.87.37.86.87-.38-.37-.87Zm-.49,1.24.37.87.87-.37-.37-.87Zm-.87.37.37.87.87-.37-.37-.87Zm-.49,1.24.37.86.87-.37-.37-.87Zm-.87.37.37.86.87-.37-.37-.86Zm-.5,1.24.38.87.87-.37-.38-.87Zm1.25.49.37.87.87-.37-.37-.87Zm1.24.49.37.86.87-.37-.37-.87Zm1.24.49.37.87.87-.38-.37-.86Zm.37.87.37.87.87-.38-.37-.87Zm-.87.37.37.87.87-.37-.37-.87Zm-.87.37.37.87.87-.37-.37-.87Zm-.87.38.37.86.87-.38-.37-.87Zm-.86.37.37.87.87-.38-.37-.86ZM139,310l.37.86.86-.37-.37-.87Zm-.87.37.37.86.87-.38L139,310Zm-.87.37.37.87.87-.38-.37-.86Zm-.87.37.38.87.87-.37-.37-.87Zm-.87.37.38.87.87-.37-.38-.87Zm-.86.37.38.87.87-.37-.38-.87Zm-.87.37.38.86.87-.37-.38-.87Zm-.86.37.37.87.87-.38-.38-.86ZM132,313l.38.87.86-.37-.37-.87Zm-.87.37.37.87.87-.37L132,313Zm-.87.38.37.87.87-.38-.37-.87Zm0,0,.37.87-.87.37-.37-.87Z" transform="translate(-34.01 -4.2)"/><polygon class="cls-5" points="97.17 309.15 96.79 308.29 97.66 307.92 97.28 307.05 98.15 306.68 97.78 305.81 98.64 305.44 98.27 304.57 99.13 304.19 98.76 303.33 99.62 302.95 99.25 302.09 100.11 301.71 99.74 300.85 100.61 300.47 100.23 299.6 101.09 299.24 100.72 298.36 101.59 297.99 101.21 297.12 102.08 296.75 103.58 300.22 105.3 299.46 104.94 298.6 106.67 297.85 106.29 296.98 108.03 296.23 108.77 297.96 107.04 298.71 107.42 299.58 105.69 300.33 106.06 301.19 105.19 301.57 105.57 302.43 106.44 302.06 106.81 302.93 107.67 302.55 108.05 303.42 108.92 303.04 109.29 303.91 97.17 309.15"/><path class="cls-1" d="M96,295.45l.43.9.9-.43L97,295Zm.48-1.33.43.9.9-.42-.43-.91Zm.48-1.33.42.9.91-.43-.43-.9Zm.48-1.33.43.9.9-.43-.43-.9Zm.47-1.34.43.9.91-.43-.43-.91Zm.47-1.33.43.9.91-.43-.43-.9Zm.48-1.33.43.9.9-.43-.43-.9Zm.48-1.33.43.9.9-.43-.43-.9Zm.48-1.33.43.9.9-.43-.43-.91Zm.47-1.33.43.9.91-.43-.43-.9Zm.47-1.34.43.9.91-.43-.43-.9Zm.91-.43.43.9.9-.43-.42-.91Zm.43.9.42.91.9-.43-.43-.9Zm.42.91.43.9.9-.43-.43-.9Zm.43.9.43.91.9-.43-.43-.91Zm.43.91.42.9.91-.43-.43-.9Zm.9-.43.43.9.9-.43-.43-.9Zm.48-1.34.43.91.9-.43-.43-.9Zm.9-.42.43.9.91-.43-.43-.9Zm.47-1.34.43.91.9-.43-.43-.9Zm.91-.42.43.9.9-.43-.43-.9Zm1.33.47.43.91.9-.43-.43-.9Zm.43.91.43.9.9-.43-.43-.9Zm-.48,1.33.43.91.9-.43-.43-.91Zm-.9.43.43.9.9-.43-.43-.91Zm-.48,1.34.43.9.9-.43-.43-.9Zm-.9.42.43.9.9-.43-.43-.9Zm-.48,1.34.43.9.9-.42-.43-.91Zm1.33.48.43.9.9-.43-.43-.91Zm1.33.48.43.9.9-.43-.43-.9Zm1.33.47.43.9.91-.43-.43-.9Zm.43.9.43.9.9-.43-.42-.91Zm-.9.43.43.91.9-.43-.43-.9Zm-.9.43.43.91.9-.43-.43-.91Zm-.9.43.43.91.9-.43-.43-.91Zm-.91.43.43.9.9-.42-.43-.91Zm-.9.43.43.9.9-.43-.43-.9Zm-.9.43.43.91.9-.43-.43-.9Zm-.9.43.43.91.9-.43-.43-.91Zm-.91.43.43.9.9-.43-.43-.91Zm-.9.43.43.9.9-.43-.43-.9Zm-.9.43.43.9.9-.42-.43-.9Zm-.9.43.43.9.9-.43-.43-.9Zm-.9.43.43.9.91-.43-.43-.9Zm-.9.43.43.9.9-.43-.43-.9Zm-.91.43.43.9.91-.43-.43-.9Zm-.9.43.43.9.9-.43-.43-.9Zm0,0,.43.9-.9.43-.43-.9Z" transform="translate(-34.01 -4.2)"/><polygon class="cls-2" points="63.37 291.72 62.95 290.81 63.85 290.39 63.41 289.49 64.32 289.06 63.89 288.16 64.8 287.72 64.37 286.82 65.27 286.39 64.84 285.49 65.75 285.06 65.32 284.16 66.22 283.73 65.8 282.82 66.69 282.39 66.27 281.49 67.17 281.06 66.74 280.16 67.65 279.73 67.22 278.83 68.12 278.4 69.83 282.01 71.64 281.15 71.22 280.25 73.02 279.39 72.59 278.49 74.4 277.63 75.26 279.44 73.45 280.3 73.88 281.2 72.08 282.06 72.5 282.96 71.6 283.39 72.03 284.29 72.93 283.87 73.36 284.77 74.26 284.34 74.69 285.24 75.59 284.81 76.03 285.72 63.37 291.72"/><path class="cls-1" d="M232.24,332l.86,2.37,2.37-.86-.85-2.36Zm1.51-3.22.86,2.37,2.37-.86-.86-2.37Zm1.51-3.22.86,2.36,2.37-.85-.85-2.37Zm1.52-3.22.85,2.37,2.37-.86-.85-2.37Zm1.51-3.22.85,2.36,2.37-.86-.85-2.36Zm1.51-3.22.86,2.37,2.37-.86-.86-2.37Zm1.51-3.22.86,2.36,2.37-.85-.85-2.37Zm1.51-3.22.86,2.37,2.37-.86-.85-2.37Zm1.52-3.22.85,2.37,2.37-.85-.86-2.37Zm1.51-3.22.86,2.36,2.37-.85-.86-2.37Zm1.52-3.22.85,2.37,2.37-.86-.85-2.37Zm2.37-.86.85,2.37,2.37-.86-.86-2.37Zm.85,2.37.85,2.37,2.37-.85-.85-2.37Zm.85,2.37.86,2.37,2.37-.86-.86-2.37Zm.86,2.37.86,2.36,2.37-.85-.86-2.37Zm.86,2.36.86,2.37,2.36-.86-.85-2.36Zm2.37-.85.85,2.36,2.37-.86-.85-2.37Zm1.51-3.22.86,2.36,2.36-.85-.85-2.37Zm2.37-.85.85,2.37,2.37-.85-.85-2.37Zm1.51-3.22.86,2.37,2.37-.86-.85-2.37Zm2.37-.85.85,2.37,2.37-.85-.86-2.37Zm3.22,1.51.85,2.37,2.37-.85-.86-2.37Zm.85,2.37.86,2.37,2.37-.85-.86-2.37Zm-1.51,3.22.86,2.37,2.37-.85-.86-2.37Zm-2.36.85.85,2.37,2.37-.86-.86-2.37ZM262,310.61l.85,2.36,2.37-.85-.86-2.37Zm-2.37.85.86,2.37,2.36-.85-.85-2.36Zm-1.51,3.22.86,2.37,2.36-.86-.85-2.37Zm3.22,1.51.85,2.37,2.37-.86-.86-2.37Zm3.22,1.51.85,2.37,2.37-.85-.86-2.37Zm3.22,1.51.86,2.37,2.37-.85-.86-2.37Zm.86,2.37.86,2.37,2.36-.86-.85-2.36Zm-2.37.85.86,2.37,2.37-.86-.86-2.37Zm-2.37.86.85,2.36,2.37-.85-.86-2.37Zm-2.37.85.86,2.37,2.36-.86-.85-2.36Zm-2.37.85.86,2.37,2.37-.85-.86-2.37Zm-2.37.86.86,2.36,2.37-.85-.86-2.37Zm-2.37.85.85,2.37,2.37-.86-.86-2.36Zm-2.37.86.86,2.37,2.37-.85-.85-2.37Zm-2.37.85.86,2.37,2.37-.86-.86-2.37Zm-2.37.86.85,2.37,2.37-.85-.86-2.37Zm-2.37.86.85,2.37,2.37-.86-.85-2.37Zm-2.37.85.86,2.37,2.36-.85-.85-2.37Zm-2.37.86.85,2.37,2.37-.86-.86-2.37Zm-2.37.86.86,2.36,2.36-.85-.85-2.37Zm-2.37.85.86,2.37,2.37-.85-.86-2.36Zm-2.37.86.85,2.37,2.37-.86-.86-2.37Zm0,0,.85,2.37-2.37.85-.86-2.36Z" transform="translate(-34.01 -4.2)"/><polygon class="cls-2" points="201.45 329.35 200.6 326.99 202.97 326.13 202.11 323.76 204.48 322.91 203.63 320.54 205.99 319.68 205.14 317.32 207.5 316.46 206.65 314.1 209.02 313.24 208.16 310.87 210.53 310.02 209.68 307.65 212.05 306.8 211.19 304.43 213.56 303.58 212.71 301.21 215.07 300.35 214.22 297.99 216.59 297.13 220 306.61 224.74 304.89 223.89 302.53 228.62 300.82 227.77 298.45 232.5 296.75 234.21 301.48 229.47 303.19 230.32 305.56 225.59 307.26 226.45 309.63 224.08 310.49 224.93 312.86 227.3 312 228.15 314.37 230.52 313.51 231.37 315.88 233.74 315.03 234.6 317.39 201.45 329.35"/><path class="cls-1" d="M138,362.79l.23,1.63,1.63-.23-.23-1.63Zm1.4-1.86.23,1.63,1.63-.23L141,360.7Zm1.4-1.86.23,1.63,1.63-.23-.23-1.63Zm1.4-1.87.23,1.63,1.63-.23-.23-1.64Zm1.4-1.86.23,1.63,1.64-.23-.23-1.63Zm1.4-1.87.23,1.63,1.63-.23-.23-1.63Zm1.41-1.86.23,1.63,1.63-.23-.23-1.63Zm1.4-1.86.23,1.63,1.63-.23-.23-1.63Zm1.41-1.87.23,1.63,1.63-.23-.23-1.63Zm1.4-1.86.23,1.63,1.63-.23-.23-1.63Zm1.41-1.87.23,1.63,1.63-.23-.23-1.63Zm1.63-.23.23,1.63,1.63-.23-.23-1.63Zm.23,1.63.22,1.63,1.64-.23-.23-1.63Zm.22,1.63.23,1.63,1.63-.23-.23-1.63Zm.23,1.63.23,1.63,1.63-.23L156,348.6Zm.23,1.63.23,1.63,1.63-.23-.23-1.63Zm1.63-.23.23,1.63,1.63-.23-.23-1.63Zm1.4-1.87.23,1.63,1.63-.23-.23-1.63Zm1.63-.23.23,1.63,1.64-.23-.23-1.63Zm1.41-1.87.23,1.64,1.63-.23-.23-1.63Zm1.63-.23.23,1.63,1.63-.23-.23-1.63Zm1.86,1.4.23,1.63,1.64-.23-.24-1.63Zm.23,1.63.23,1.63,1.63-.23-.23-1.63ZM163,351l.23,1.63,1.63-.23-.23-1.63Zm-1.63.23.22,1.63,1.64-.23L163,351Zm-1.4,1.86.22,1.63,1.63-.23-.23-1.63Zm-1.63.23.23,1.63,1.63-.23-.22-1.63Zm-1.41,1.86.23,1.63,1.63-.23-.23-1.63Zm1.86,1.4.23,1.64,1.64-.23-.23-1.63Zm1.87,1.41.23,1.63,1.63-.23-.23-1.63Zm1.86,1.4.23,1.64,1.63-.23-.23-1.63Zm.23,1.64.23,1.63,1.63-.23-.23-1.63Zm-1.63.23.23,1.64,1.63-.23-.23-1.63Zm-1.63.23.23,1.63,1.63-.22-.23-1.64Zm-1.63.23.23,1.63,1.63-.23-.23-1.63Zm-1.63.23.23,1.64,1.63-.23-.23-1.63Zm-1.63.23.23,1.63,1.63-.23-.23-1.64Zm-1.63.23.23,1.63,1.64-.23-.23-1.63Zm-1.63.23.23,1.64,1.63-.23-.23-1.63Zm-1.64.23.23,1.64,1.63-.23-.23-1.64ZM148,363l.23,1.64,1.63-.23-.23-1.64Zm-1.63.23.23,1.63,1.64-.22L148,363Zm-1.63.23.23,1.64,1.63-.23-.23-1.63Zm-1.63.23.23,1.63,1.63-.23-.23-1.64Zm-1.63.23.23,1.63,1.63-.23-.23-1.63Zm-1.63.23.23,1.63,1.63-.23-.23-1.63Zm-1.63.23.23,1.63,1.63-.23-.23-1.63Zm0,0,.23,1.63-1.63.23-.23-1.63Z" transform="translate(-34.01 -4.2)"/><polygon class="cls-2" points="105.83 359.99 105.6 358.36 107.23 358.13 107 356.5 108.63 356.27 108.4 354.63 110.04 354.4 109.81 352.77 111.45 352.54 111.21 350.91 112.85 350.68 112.61 349.04 114.25 348.81 114.02 347.18 115.66 346.95 115.43 345.32 117.06 345.09 116.83 343.45 118.46 343.23 118.23 341.59 119.87 341.36 120.79 347.9 124.06 347.44 123.82 345.8 127.09 345.35 126.86 343.71 130.13 343.25 130.59 346.52 127.32 346.98 127.55 348.61 124.28 349.07 124.51 350.7 122.88 350.94 123.11 352.57 124.74 352.34 124.97 353.98 126.61 353.74 126.83 355.37 128.47 355.15 128.7 356.78 105.83 359.99"/><path class="cls-1" d="M192.26,334.54l.18,1.24,1.24-.17-.17-1.24Zm1.07-1.42.18,1.25,1.24-.17-.17-1.24Zm1.07-1.42.17,1.24,1.24-.17-.17-1.25Zm1.07-1.42.17,1.24,1.25-.17-.18-1.24Zm1.07-1.42.17,1.24,1.25-.17-.18-1.25Zm1.07-1.42.17,1.24,1.25-.17-.18-1.25Zm1.07-1.42.17,1.24,1.25-.18-.17-1.24Zm1.07-1.42.17,1.24,1.24-.17-.17-1.25Zm1.07-1.42.18,1.24,1.24-.17-.17-1.24Zm1.07-1.42.17,1.24,1.24-.17-.17-1.25Zm1.07-1.42.17,1.24,1.24-.18-.18-1.24Zm1.24-.18.18,1.24,1.24-.17-.18-1.24Zm.18,1.24.17,1.25,1.24-.17-.17-1.24Zm.17,1.25.17,1.24,1.25-.17-.18-1.25Zm.17,1.24.18,1.25,1.24-.18-.17-1.24Zm.18,1.25.17,1.24,1.25-.17-.17-1.25Zm1.24-.18.17,1.25,1.25-.18-.18-1.24Zm1.07-1.42.17,1.24,1.24-.17-.17-1.25Zm1.24-.17.17,1.25,1.25-.17-.17-1.24Zm1.07-1.42.17,1.24,1.24-.17-.17-1.25Zm1.25-.17.17,1.25,1.24-.18-.17-1.24Zm1.42,1.07.18,1.25,1.24-.18-.17-1.24Zm.18,1.25.17,1.24,1.24-.17-.17-1.25Zm-1.07,1.42.18,1.24,1.24-.17-.17-1.25Zm-1.24.18.17,1.24,1.25-.18-.18-1.24ZM209,327.12l.17,1.24,1.25-.17-.18-1.24Zm-1.24.18.17,1.24,1.24-.18-.17-1.24Zm-1.07,1.42.17,1.24,1.24-.17-.17-1.24Zm1.42,1.07.17,1.24,1.25-.17-.18-1.25Zm1.42,1.07.17,1.24,1.24-.17-.17-1.25Zm1.42,1.07.18,1.24,1.24-.18-.17-1.25Zm.18,1.24.17,1.25,1.24-.18-.17-1.24Zm-1.25.17.17,1.25,1.25-.17-.17-1.25Zm-1.24.18.17,1.24,1.24-.17-.17-1.25Zm-1.24.17.17,1.24,1.25-.17-.17-1.24Zm-1.25.17.18,1.25,1.24-.18-.17-1.24Zm-1.24.17.17,1.25,1.24-.17-.18-1.25Zm-1.25.18.17,1.24,1.25-.17-.17-1.25Zm-1.24.17.17,1.25,1.24-.18-.17-1.24Zm-1.24.18.17,1.24,1.25-.17-.17-1.25Zm-1.25.17.18,1.25,1.24-.18-.17-1.24Zm-1.24.18.17,1.24,1.25-.17-.18-1.25Zm-1.25.17.18,1.24,1.24-.17-.17-1.24Zm-1.24.17.17,1.25,1.25-.18-.18-1.24Zm-1.24.18.17,1.24,1.25-.18-.17-1.25Zm-1.25.17.18,1.24,1.24-.17-.17-1.24Zm-1.24.17.17,1.25,1.25-.18-.18-1.24Zm0,0,.17,1.25-1.25.17L191.2,336Z" transform="translate(-34.01 -4.2)"/><polygon class="cls-6" points="159.67 331.4 159.5 330.16 160.74 329.99 160.57 328.75 161.81 328.57 161.63 327.33 162.88 327.15 162.7 325.91 163.95 325.74 163.77 324.49 165.02 324.32 164.84 323.07 166.08 322.9 165.91 321.66 167.15 321.48 166.98 320.24 168.22 320.06 168.04 318.82 169.29 318.65 169.12 317.4 170.36 317.23 171.05 322.2 173.54 321.85 173.37 320.61 175.85 320.26 175.68 319.01 178.16 318.67 178.52 321.15 176.03 321.5 176.2 322.75 173.72 323.1 173.89 324.34 172.65 324.51 172.82 325.75 174.06 325.58 174.24 326.83 175.48 326.65 175.66 327.89 176.9 327.72 177.08 328.96 159.67 331.4"/><path class="cls-1" d="M224.52,240.34l.69,1.51,1.51-.68-.68-1.51Zm.83-2.19.68,1.51,1.51-.68-.68-1.51Zm.82-2.19.68,1.51,1.51-.68-.68-1.51Zm.83-2.2.68,1.51,1.51-.68-.68-1.51Zm.82-2.19.68,1.51,1.51-.68-.69-1.51Zm.82-2.2.68,1.51,1.51-.68-.68-1.51Zm.83-2.19.68,1.51,1.51-.68L231,226.5Zm.82-2.2.68,1.51,1.51-.69-.68-1.51Zm.82-2.19.68,1.51,1.51-.68-.68-1.51Zm.82-2.19.68,1.51,1.51-.68-.69-1.51Zm.83-2.19.68,1.51,1.51-.68-.69-1.51Zm1.51-.68.69,1.51,1.51-.69-.69-1.51Zm.69,1.51.68,1.5,1.52-.68-.68-1.51Zm.68,1.5.69,1.51,1.51-.68-.68-1.51Zm.69,1.51.68,1.51,1.5-.68-.68-1.51Zm.68,1.51.68,1.51,1.51-.68-.68-1.51Zm1.5-.68.68,1.51,1.51-.69-.68-1.51Zm.83-2.2.68,1.51,1.51-.68-.69-1.51Zm1.51-.68.69,1.51,1.51-.69-.68-1.51Zm.83-2.2.68,1.52,1.51-.68-.68-1.51Zm1.51-.68.68,1.51,1.51-.68-.68-1.51Zm2.19.82.68,1.51,1.51-.68-.68-1.51Zm.68,1.51.68,1.51,1.51-.68L247.6,219Zm-.82,2.19.68,1.51,1.51-.68-.69-1.51Zm-1.51.68.68,1.51,1.51-.68-.68-1.51Zm-.83,2.2.68,1.51,1.51-.68-.69-1.51Zm-1.51.68.68,1.51,1.51-.68-.68-1.51Zm-.83,2.19.68,1.51,1.51-.68-.68-1.51Zm2.19.83.68,1.51,1.51-.68-.68-1.51Zm2.19.82.68,1.51,1.51-.68-.68-1.51Zm2.19.83.68,1.51,1.51-.69-.68-1.51Zm.68,1.51.68,1.51,1.51-.68-.68-1.51Zm-1.51.68.68,1.52,1.51-.69-.68-1.51Zm-1.51.69.68,1.5,1.51-.68-.68-1.52Zm-1.51.67.69,1.51,1.51-.68-.68-1.5Zm-1.51.69.69,1.51,1.51-.68-.69-1.51Zm-1.51.68.69,1.51,1.51-.68-.69-1.51Zm-1.51.69.68,1.51,1.51-.68-.69-1.51Zm-1.51.68.68,1.51,1.51-.68-.68-1.51Zm-1.51.68.68,1.51,1.51-.68-.68-1.51Zm-1.51.68.68,1.51,1.51-.68-.68-1.51Zm-1.51.68.68,1.51,1.51-.68-.68-1.51Zm-1.51.69.69,1.51,1.51-.68-.68-1.51Zm-1.51.68.68,1.51,1.51-.69-.69-1.51Zm-1.51.68.69,1.51,1.51-.68-.68-1.51Zm-1.51.68.69,1.51,1.51-.68-.69-1.51Zm-1.51.68.68,1.51,1.51-.69-.69-1.51Zm0,0,.68,1.51-1.51.68-.68-1.51Z" transform="translate(-34.01 -4.2)"/><polygon class="cls-2" points="192.7 236.97 192.02 235.46 193.53 234.78 192.85 233.27 194.36 232.58 193.67 231.07 195.19 230.39 194.5 228.88 196.01 228.2 195.32 226.69 196.84 226 196.15 224.49 197.66 223.81 196.98 222.3 198.49 221.61 197.81 220.1 199.32 219.42 198.63 217.91 200.14 217.22 199.46 215.71 200.97 215.03 203.7 221.08 206.72 219.71 206.04 218.19 209.06 216.82 208.38 215.32 211.4 213.95 212.77 216.97 209.75 218.34 210.43 219.85 207.41 221.22 208.09 222.72 206.58 223.41 207.27 224.92 208.78 224.24 209.46 225.75 210.97 225.06 211.66 226.57 213.17 225.89 213.85 227.4 192.7 236.97"/><path class="cls-1" d="M194.89,154.79l.4,2.32,2.31-.4-.4-2.31Zm1.92-2.71.4,2.32,2.31-.4-.4-2.32Zm1.91-2.71.4,2.31,2.31-.4L201,149Zm1.92-2.71L201,149l2.31-.4-.4-2.32Zm1.92-2.72.4,2.31,2.32-.4-.4-2.31Zm1.91-2.71.4,2.32,2.31-.4-.4-2.31Zm1.91-2.71.4,2.31,2.31-.4-.4-2.31Zm1.92-2.71.4,2.31,2.31-.4-.4-2.31Zm1.92-2.71.4,2.31,2.31-.4-.4-2.31Zm1.91-2.71.4,2.32,2.31-.4-.4-2.31Zm1.92-2.71.4,2.32,2.31-.4-.4-2.31Zm2.31-.4.4,2.31,2.31-.39-.4-2.32Zm.4,2.31.4,2.32,2.32-.4-.4-2.31Zm.4,2.32.4,2.31,2.32-.4-.4-2.31Zm.4,2.31.4,2.32,2.31-.4-.4-2.31Zm.4,2.32.4,2.31,2.32-.4-.4-2.31Zm2.31-.4.4,2.31L223,138l-.4-2.32Zm1.92-2.71.4,2.31,2.31-.4-.4-2.32Zm2.31-.4.4,2.32,2.31-.4-.4-2.31Zm1.92-2.71.4,2.32,2.31-.4-.4-2.31Zm2.31-.39.4,2.31,2.32-.39-.4-2.32Zm2.72,1.92.4,2.31,2.31-.4-.4-2.32Zm.4,2.31.4,2.31,2.31-.4-.4-2.31Zm-1.92,2.71.4,2.32,2.31-.4-.4-2.32Zm-2.31.4.4,2.31,2.31-.39-.4-2.32ZM225.69,140l.4,2.31,2.32-.4-.4-2.31Zm-2.31.4.4,2.31,2.31-.4-.4-2.31Zm-1.92,2.71.4,2.31,2.31-.39-.4-2.32Zm2.72,1.92.4,2.31,2.31-.39-.4-2.32Zm2.71,1.91.4,2.31,2.31-.4-.4-2.32Zm2.71,1.91.4,2.31,2.31-.4-.4-2.31Zm.4,2.31.39,2.32,2.31-.41-.39-2.31Zm-2.32.4.4,2.32,2.31-.39-.39-2.32Zm-2.31.4.4,2.31,2.31-.4-.4-2.32Zm-2.32.4.4,2.32,2.32-.4-.4-2.31Zm-2.31.4.4,2.31,2.31-.4-.4-2.32Zm-2.31.4.4,2.31,2.32-.4-.4-2.31Zm-2.31.4.4,2.32,2.32-.41-.4-2.31Zm-2.31.4.4,2.31,2.31-.39-.4-2.32Zm-2.31.4.4,2.32,2.32-.4-.4-2.31Zm-2.31.39.4,2.32,2.31-.39-.4-2.32Zm-2.31.4.4,2.31,2.32-.4-.4-2.32Zm-2.31.4.4,2.31,2.31-.4-.4-2.31Zm-2.31.4.4,2.32,2.32-.4-.4-2.31Zm-2.31.4.4,2.31,2.31-.4-.4-2.32Zm-2.31.4L198,159l2.31-.4-.4-2.31Zm-2.31.4.4,2.31L198,159l-.4-2.31Zm0,0,.4,2.31-2.31.4-.4-2.31Z" transform="translate(-34.01 -4.2)"/><polygon class="cls-7" points="163.6 152.5 163.2 150.19 165.51 149.79 165.12 147.48 167.43 147.08 167.03 144.76 169.35 144.37 168.94 142.05 171.26 141.65 170.86 139.34 173.17 138.94 172.77 136.63 175.09 136.22 174.69 133.92 177 133.51 176.61 131.2 178.92 130.8 178.52 128.49 180.83 128.09 180.43 125.78 182.74 125.37 184.34 134.63 188.97 133.83 188.57 131.52 193.2 130.72 192.8 128.41 197.43 127.62 198.22 132.24 193.6 133.04 193.99 135.35 189.37 136.15 189.77 138.46 187.45 138.86 187.85 141.17 190.17 140.78 190.56 143.09 192.88 142.7 193.28 145 195.59 144.6 195.99 146.92 163.6 152.5"/><path class="cls-1" d="M255,270.56l-.44,2.54,2.53.44.45-2.53Zm3-2.09L257.5,271l2.53.45.45-2.54Zm3-2.08-.44,2.52,2.53.45.45-2.53Zm3-2.09-.45,2.53,2.53.45.45-2.53Zm3-2.09-.44,2.53,2.53.45.45-2.54Zm3-2.09-.45,2.53,2.53.45.45-2.53Zm3-2.09-.44,2.53,2.53.44.45-2.53Zm3-2.09-.45,2.53,2.54.45.45-2.54Zm3-2.09-.44,2.53,2.53.45.44-2.54Zm3-2.09-.44,2.53,2.54.45.44-2.54Zm3-2.09-.45,2.53,2.54.45.44-2.53Zm2.53.45-.44,2.53,2.53.44.44-2.53Zm-.44,2.53-.45,2.53,2.54.45.45-2.54Zm-.45,2.53-.44,2.53,2.54.45.45-2.54Zm-.44,2.53-.45,2.54,2.53.45.45-2.53Zm-.45,2.54-.45,2.54,2.54.44.44-2.53Zm2.53.45-.44,2.53,2.53.45.45-2.54Zm3-2.09-.45,2.53,2.53.45.44-2.53Zm2.53.44-.44,2.53,2.53.45.45-2.54Zm3-2.09-.44,2.53,2.53.45.45-2.54Zm2.53.45-.45,2.54,2.54.45.44-2.54Zm2.09,3-.45,2.53,2.53.45.45-2.53Zm-.45,2.53-.44,2.53,2.53.45.44-2.54Zm-3,2.09-.45,2.53,2.54.45.45-2.54Zm-2.53-.45-.45,2.54,2.53.44.45-2.53Zm-3,2.09-.45,2.53,2.54.44.44-2.53Zm-2.53-.45-.45,2.53,2.53.45.45-2.53Zm-3,2.09-.45,2.54,2.53.44.44-2.53Zm2.09,3-.45,2.53,2.54.45.44-2.53Zm2.09,3-.45,2.53,2.53.45.45-2.53Zm2.09,3-.44,2.54,2.53.44.45-2.54Zm-.44,2.54-.45,2.53,2.53.44.45-2.53Zm-2.53-.45-.45,2.54,2.53.44.45-2.53Zm-2.54-.44-.44,2.53,2.53.45.45-2.54Zm-2.53-.45-.45,2.54,2.54.45.44-2.53Zm-2.53-.44-.45,2.54,2.53.44.45-2.54Zm-2.53-.45-.45,2.54,2.53.45.45-2.54Zm-2.53-.44-.45,2.53,2.54.45.45-2.54Zm-2.53-.45-.45,2.54,2.53.44.45-2.53Zm-2.54-.44-.44,2.53,2.53.45.45-2.54Zm-2.53-.45-.45,2.53,2.53.44.44-2.53Zm-2.53-.45-.45,2.54,2.53.44.45-2.53Zm-2.53-.45-.45,2.54,2.53.45.45-2.54Zm-2.53-.44-.45,2.53,2.54.45.45-2.54Zm-2.53-.45-.44,2.53,2.53.44.45-2.53Zm-2.54-.45-.45,2.54,2.54.45.44-2.53Zm-2.53-.44-.45,2.53,2.53.45.45-2.54Zm0,0-.45,2.53-2.54-.45.45-2.53Z" transform="translate(-34.01 -4.2)"/><polygon class="cls-8" points="223.04 269.34 223.49 266.81 226.02 267.25 226.47 264.71 229 265.16 229.45 262.63 231.98 263.07 232.43 260.54 234.96 260.99 235.41 258.45 237.94 258.9 238.39 256.37 240.92 256.81 241.37 254.28 243.9 254.72 244.35 252.19 246.88 252.64 247.32 250.1 249.86 250.55 250.3 248.01 252.84 248.46 251.05 258.6 256.12 259.49 256.57 256.95 261.63 257.85 262.08 255.31 267.15 256.21 266.26 261.27 261.19 260.38 260.74 262.92 255.68 262.02 255.23 264.55 252.69 264.11 252.25 266.64 254.78 267.09 254.33 269.62 256.87 270.07 256.43 272.6 258.96 273.05 258.52 275.58 223.04 269.34"/><path class="cls-1" d="M290,217.58l1.22,1.65,1.65-1.22-1.22-1.65Zm.42-2.86,1.22,1.64,1.64-1.21-1.22-1.65Zm.43-2.86,1.22,1.64,1.65-1.22-1.22-1.65Zm.43-2.87,1.21,1.64,1.65-1.22-1.22-1.65Zm.42-2.86,1.22,1.64,1.64-1.22-1.21-1.65Zm.42-2.87,1.23,1.65,1.64-1.22L293.78,202Zm.43-2.86,1.21,1.65,1.65-1.22-1.22-1.65Zm.42-2.86,1.22,1.65,1.65-1.22-1.22-1.64Zm.43-2.86,1.22,1.64,1.64-1.22-1.22-1.65Zm.42-2.87,1.22,1.65,1.65-1.22-1.22-1.65Zm.43-2.87,1.22,1.65,1.64-1.22-1.22-1.64Zm1.64-1.21,1.22,1.64,1.64-1.22-1.21-1.64Zm1.22,1.64,1.22,1.65,1.65-1.22-1.22-1.65Zm1.22,1.65,1.22,1.65,1.64-1.22L300,189.78Zm1.22,1.65,1.22,1.65,1.64-1.22-1.22-1.64Zm1.22,1.65,1.22,1.64,1.65-1.23-1.22-1.64Zm1.64-1.22,1.22,1.64,1.65-1.22-1.22-1.64Zm.43-2.87,1.22,1.65,1.64-1.22L304.5,189ZM304.5,189l1.22,1.65,1.64-1.22-1.22-1.65Zm.43-2.86,1.22,1.64,1.64-1.22-1.22-1.65Zm1.65-1.23,1.22,1.65,1.65-1.22-1.22-1.65Zm2.86.43,1.22,1.64,1.65-1.22-1.22-1.64Zm1.22,1.64,1.22,1.64,1.65-1.22-1.22-1.65Zm-.42,2.87,1.21,1.65,1.65-1.22-1.22-1.65Zm-1.65,1.22,1.22,1.65,1.64-1.22-1.21-1.65Zm-.42,2.86,1.22,1.65,1.64-1.22-1.22-1.64Zm-1.65,1.22,1.22,1.64,1.64-1.22-1.22-1.65Zm-.42,2.87,1.22,1.65,1.64-1.23-1.22-1.65Zm2.86.42,1.22,1.65,1.65-1.22-1.22-1.65Zm2.87.43L313,200.5l1.65-1.22-1.23-1.65Zm2.86.42,1.22,1.64,1.65-1.22-1.22-1.65Zm1.22,1.64,1.22,1.65,1.64-1.23-1.21-1.64Zm-1.65,1.22,1.22,1.65,1.65-1.22-1.22-1.65Zm-1.64,1.22,1.22,1.65,1.64-1.22-1.22-1.65ZM311,204.58l1.22,1.65,1.65-1.22-1.22-1.65Zm-1.64,1.22,1.22,1.65,1.64-1.22L311,204.58ZM307.69,207l1.22,1.64,1.65-1.22-1.22-1.65ZM306,208.24l1.22,1.65,1.65-1.22L307.69,207Zm-1.64,1.22,1.22,1.64,1.64-1.22L306,208.24Zm-1.65,1.22,1.22,1.64,1.64-1.22-1.22-1.64Zm-1.64,1.22,1.22,1.65,1.64-1.22-1.22-1.64Zm-1.65,1.22,1.22,1.64,1.65-1.22-1.22-1.65Zm-1.65,1.21L299,216l1.64-1.22-1.22-1.64Zm-1.64,1.22,1.22,1.65L299,216l-1.22-1.65Zm-1.64,1.22,1.22,1.65,1.64-1.22-1.22-1.65ZM292.89,218l1.22,1.64,1.65-1.21-1.22-1.65Zm-1.65,1.22,1.22,1.64,1.65-1.22L292.89,218Zm0,0,1.22,1.64-1.65,1.22-1.22-1.65Z" transform="translate(-34.01 -4.2)"/><polygon class="cls-2" points="258.88 213.81 257.66 212.16 259.3 210.95 258.08 209.3 259.73 208.08 258.5 206.43 260.15 205.21 258.93 203.57 260.57 202.35 259.35 200.71 261 199.48 259.77 197.84 261.42 196.62 260.2 194.98 261.85 193.75 260.63 192.11 262.27 190.89 261.05 189.24 262.69 188.02 261.47 186.38 263.12 185.16 268 191.74 271.29 189.3 270.07 187.65 273.36 185.21 272.14 183.57 275.43 181.13 277.87 184.41 274.58 186.86 275.8 188.5 272.51 190.94 273.73 192.59 272.08 193.81 273.3 195.45 274.95 194.23 276.17 195.88 277.82 194.66 279.03 196.3 280.68 195.08 281.9 196.72 258.88 213.81"/><path class="cls-1" d="M296.44,229.26l2.38,3.08,3.07-2.38-2.37-3.08Zm.7-5.45,2.38,3.07,3.07-2.37-2.38-3.08Zm.7-5.45,2.38,3.07,3.07-2.38L300.91,216Zm.69-5.46,2.38,3.07L304,213.6l-2.38-3.07Zm.7-5.45,2.38,3.07,3.08-2.38-2.38-3.07Zm.7-5.46,2.38,3.08,3.08-2.38L303,199.61Zm.69-5.45,2.38,3.07,3.07-2.38-2.38-3.08Zm.7-5.45,2.38,3.07,3.08-2.38-2.38-3.07Zm.7-5.46,2.38,3.08,3.08-2.38-2.38-3.08Zm.7-5.45,2.38,3.07,3.07-2.38-2.38-3.08Zm.7-5.46,2.38,3.08,3.08-2.38-2.38-3.07Zm3.08-2.38,2.38,3.07,3.08-2.38L309.56,170Zm2.38,3.07,2.38,3.08,3.08-2.38L311.94,173Zm2.38,3.08,2.38,3.08,3.08-2.38-2.38-3.08Zm2.38,3.08,2.38,3.07,3.08-2.38-2.38-3.08Zm2.38,3.07,2.38,3.08,3.08-2.38-2.38-3.07Zm3.08-2.38,2.38,3.07,3.07-2.38-2.38-3.07Zm.69-5.46,2.38,3.08,3.07-2.38-2.38-3.07Zm3.07-2.37,2.38,3.07,3.08-2.38-2.38-3.08Zm.7-5.46,2.38,3.07,3.07-2.38-2.38-3.07Zm3.08-2.38,2.38,3.07,3.08-2.38-2.38-3.07Zm5.46.7,2.38,3.08,3.08-2.38-2.38-3.07Zm2.38,3.08,2.38,3.07,3.08-2.38L337.53,168Zm-.7,5.46,2.38,3.08,3.07-2.38-2.38-3.08Zm-3.07,2.38,2.38,3.07,3.07-2.38-2.38-3.08Zm-.7,5.46,2.38,3.07,3.07-2.38-2.37-3.07ZM326.91,186l2.38,3.08,3.08-2.38L330,183.66Zm-.7,5.46,2.38,3.07,3.07-2.38-2.38-3.07Zm5.45.69,2.38,3.08,3.08-2.38-2.38-3.08Zm5.46.7L339.5,196l3.07-2.38-2.38-3.08Zm5.45.7,2.38,3.07,3.08-2.38-2.38-3.08Zm2.38,3.07,2.38,3.07,3.07-2.37L348,194.28ZM341.88,199l2.38,3.08,3.07-2.38-2.38-3.07Zm-3.08,2.38,2.38,3.08,3.07-2.38L341.88,199Zm-3.07,2.38,2.38,3.08,3.07-2.38-2.38-3.08Zm-3.07,2.38,2.38,3.08,3.08-2.38-2.38-3.08Zm-3.07,2.38,2.38,3.07,3.07-2.37-2.38-3.08Zm-3.08,2.38,2.38,3.08,3.08-2.39-2.38-3.07Zm-3.07,2.38,2.38,3.08,3.07-2.37-2.38-3.08Zm-3.08,2.38,2.38,3.08,3.08-2.38-2.38-3.08Zm-3.07,2.38,2.38,3.07,3.07-2.38-2.38-3.08Zm-3.08,2.38,2.38,3.07,3.08-2.38-2.38-3.07Zm-3.07,2.38,2.38,3.07,3.07-2.38-2.38-3.07ZM308,225.2l2.37,3.08,3.08-2.39-2.38-3.07ZM305,227.58l2.38,3.08,3.07-2.37L308,225.2ZM301.89,230l2.38,3.08,3.07-2.38L305,227.58Zm-3.07,2.38,2.38,3.08,3.08-2.38L301.89,230Zm0,0,2.38,3.08-3.08,2.38-2.37-3.08Z" transform="translate(-34.01 -4.2)"/><polygon class="cls-2" points="267.88 225.75 265.51 222.68 268.58 220.31 266.2 217.23 269.27 214.85 266.9 211.77 269.98 209.39 267.6 206.32 270.67 203.94 268.29 200.87 271.37 198.49 268.99 195.41 272.07 193.03 269.69 189.96 272.76 187.58 270.38 184.51 273.46 182.13 271.08 179.05 274.15 176.67 271.77 173.59 274.86 171.22 284.37 183.52 290.52 178.76 288.14 175.69 294.29 170.93 291.91 167.85 298.06 163.1 302.82 169.25 296.67 174 299.05 177.08 292.9 181.84 295.27 184.92 292.2 187.3 294.58 190.37 297.65 187.99 300.03 191.07 303.11 188.69 305.49 191.76 308.56 189.38 310.94 192.46 267.88 225.75"/><path class="cls-1" d="M336.23,153.44l2.82,1,1-2.82-2.81-1.05Zm-1.77-3.87,2.82,1,1-2.81-2.82-1Zm-1.76-3.87,2.81,1.06,1.05-2.82-2.82-1.06Zm-1.77-3.87,2.82,1,1-2.82L332,139ZM329.17,138l2.82,1L333,136.2l-2.82-1Zm-1.77-3.87,2.82,1.05,1-2.82-2.82-1.06Zm-1.76-3.87,2.82,1,1-2.81-2.82-1.06Zm-1.77-3.87,2.82,1,1-2.81-2.82-1.06Zm-1.77-3.87,2.82,1,1.05-2.82-2.82-1.05Zm-1.77-3.87,2.82,1.05,1.05-2.82-2.82-1Zm-1.76-3.87,2.82,1.05,1-2.82-2.82-1Zm1-2.81,2.82,1,1.06-2.82-2.82-1Zm2.82,1,2.82,1.06,1.05-2.82-2.82-1.05Zm2.82,1.06,2.82,1,1-2.82-2.82-1.05Zm2.82,1,2.82,1,1-2.82-2.82-1Zm2.82,1,2.82,1.05,1-2.82-2.82-1.05Zm1-2.82,2.82,1.05,1-2.82-2.82-1Zm-1.76-3.87,2.81,1,1.06-2.81-2.82-1Zm1-2.81,2.82,1,1-2.82-2.82-1.05Zm-1.76-3.87,2.82,1.05,1-2.82-2.82-1.06Zm1-2.82,2.82,1.06,1-2.82-2.82-1.06Zm3.87-1.76,2.82,1,1.06-2.82-2.82-1.05Zm2.82,1,2.82,1.05,1-2.82-2.82-1.05ZM339,103.1l2.82,1.06,1.05-2.83-2.82-1Zm-1,2.82,2.82,1,1-2.81L339,103.1Zm1.76,3.87,2.82,1,1.06-2.82-2.82-1Zm-1,2.82,2.82,1,1-2.82-2.82-1Zm1.77,3.87,2.82,1,1.05-2.81-2.82-1.06Zm3.87-1.76,2.82,1,1.06-2.82-2.82-1Zm3.87-1.77,2.82,1,1.05-2.82-2.83-1.06Zm3.87-1.77,2.81,1,1.05-2.82L353,108.35Zm2.81,1,2.82,1.05,1.05-2.82-2.81-1.06ZM353.77,115l2.82,1.05,1-2.82-2.82-1.05Zm-1,2.82,2.82,1,1-2.81L353.77,115Zm-1,2.82,2.82,1.05,1-2.82-2.82-1Zm-1.06,2.82,2.82,1,1.06-2.82-2.82-1.05Zm-1,2.82,2.82,1,1.06-2.82-2.82-1Zm-1,2.82,2.82,1.05,1-2.82-2.82-1Zm-1.05,2.82,2.82,1.05,1-2.82-2.82-1.05Zm-1.06,2.82,2.82,1.06,1.06-2.82-2.82-1.05Zm-1,2.82,2.82,1.05,1-2.82-2.82-1.06Zm-1,2.82,2.82,1.05,1.05-2.82-2.82-1.05Zm-1.06,2.82,2.82,1.05,1.05-2.81-2.82-1.05Zm-1,2.82,2.82,1.06,1.05-2.82-2.82-1.05Zm-1,2.82,2.82,1.06,1.05-2.82L342.21,146Zm-1.06,2.82,2.82,1.05,1-2.82-2.82-1.06Zm-1,2.82,2.82,1,1-2.82-2.82-1.05Zm0,0,2.82,1-1.06,2.82L338,157.31Z" transform="translate(-34.01 -4.2)"/><polygon class="cls-5" points="306.09 147.47 303.28 146.42 304.33 143.61 301.51 142.56 302.56 139.74 299.74 138.68 300.79 135.87 297.98 134.82 299.03 132 296.21 130.95 297.26 128.13 294.44 127.08 295.49 124.26 292.67 123.21 293.73 120.39 290.91 119.34 291.96 116.52 289.14 115.47 290.19 112.65 287.37 111.6 288.42 108.78 299.7 112.99 301.8 107.35 298.98 106.3 301.08 100.67 298.27 99.62 300.36 93.98 306 96.08 303.9 101.72 306.72 102.77 304.62 108.41 307.43 109.45 306.38 112.28 309.2 113.33 310.25 110.51 313.07 111.56 314.12 108.74 316.94 109.79 318 106.97 320.81 108.02 306.09 147.47"/><path class="cls-1" d="M291.12,128l.83.82.82-.83-.83-.82Zm0-1.65.83.82.82-.82-.83-.82Zm0-1.64.83.81.82-.82-.83-.82Zm0-1.65.82.82.82-.82-.83-.82Zm0-1.64.83.82.81-.83-.82-.81Zm0-1.65.83.82.82-.83-.83-.82Zm0-1.65.82.82.82-.82-.82-.82Zm0-1.64.83.82.82-.83-.83-.82Zm0-1.65.82.82.82-.82-.83-.82Zm0-1.64.82.82.82-.82-.82-.82Zm0-1.65.83.82.82-.83-.83-.82Zm.82-.83.83.82.82-.83-.82-.82Zm.83.82.83.82.82-.82-.83-.82Zm.83.82.82.82.82-.82-.83-.82Zm.82.82.83.82.82-.83-.83-.82Zm.83.82.83.82.82-.82-.83-.82Zm.82-.83.83.82.82-.83-.83-.82Zm0-1.64.83.82.82-.82-.83-.82Zm.81-.82.83.82.82-.83-.83-.82Zm0-1.65.83.82.82-.82-.82-.82Zm.82-.83.82.82.82-.83-.82-.82Zm1.64,0,.83.82.82-.83-.82-.82Zm.83.82.83.82.81-.83-.82-.82Zm0,1.65.83.82.82-.83-.82-.82Zm-.82.83.83.81.82-.82-.83-.82Zm0,1.64.82.82.82-.83-.82-.82Zm-.82.82.83.82.82-.83-.82-.82Zm0,1.65.82.81.82-.82-.83-.82Zm1.64,0,.82.82.82-.83-.82-.81Zm1.65,0,.83.82.82-.82-.82-.82Zm1.64,0,.83.82.82-.83-.83-.82Zm.83.82.82.82.82-.83-.82-.82Zm-.82.82.82.82.82-.82-.82-.82Zm-.82.83.82.82.82-.82-.82-.82Zm-.82.83.83.82.81-.83-.82-.82Zm-.82.83.83.82.82-.83-.83-.82Zm-.81.82.82.82.82-.82-.83-.82Zm-.82.83.83.82.81-.83-.82-.82Zm-.82.82.83.82.82-.83-.83-.82Zm-.82.83.83.82.82-.82-.83-.82Zm-.82.83.82.82.82-.83-.83-.82Zm-.82.82.83.82.82-.83-.82-.82Zm-.82.83.83.82.81-.82-.83-.82Zm-.82.83.83.81.82-.83-.83-.82Zm-.82.82.82.82.82-.83-.83-.81Zm-.82.83.82.82.82-.82-.82-.82Zm-.82.83.83.81.82-.82-.82-.82Zm0,0,.83.81-.82.83-.83-.81Z" transform="translate(-34.01 -4.2)"/><polygon class="cls-2" points="258.76 123.76 257.93 122.94 258.75 122.11 257.93 121.29 258.74 120.47 257.91 119.65 258.74 118.82 257.91 118 258.72 117.17 257.9 116.36 258.72 115.53 257.89 114.71 258.71 113.89 257.88 113.07 258.7 112.24 257.87 111.42 258.69 110.6 257.86 109.78 258.68 108.95 257.86 108.13 258.67 107.31 261.98 110.58 263.62 108.92 262.79 108.11 264.43 106.45 263.6 105.63 265.23 103.98 266.89 105.62 265.25 107.27 266.08 108.09 264.44 109.74 265.27 110.56 264.45 111.39 265.28 112.21 266.1 111.38 266.92 112.2 267.74 111.37 268.57 112.19 269.38 111.37 270.22 112.18 258.76 123.76"/><path class="cls-1" d="M278.08,181.23l1,1.46,1.46-1-1-1.46Zm.44-2.47,1,1.46,1.46-1-1-1.46Zm.45-2.47,1,1.46,1.46-1-1-1.46Zm.44-2.48,1,1.46,1.46-1-1-1.46Zm.44-2.47,1,1.46,1.46-1-1-1.46Zm.45-2.47,1,1.46,1.46-1-1-1.46Zm.44-2.47,1,1.45,1.45-1-1-1.46Zm.44-2.48,1,1.46,1.46-1-1-1.46Zm.45-2.48,1,1.46,1.46-1-1-1.46Zm.44-2.47,1,1.46,1.46-1-1-1.46Zm.45-2.48,1,1.46,1.46-1-1-1.46Zm1.46-1,1,1.46,1.46-1-1-1.46Zm1,1.46,1,1.47,1.46-1-1-1.46Zm1,1.47,1,1.46,1.46-1-1-1.46Zm1,1.46,1,1.46,1.46-1-1-1.46Zm1,1.46,1,1.46,1.46-1-1-1.45Zm1.46-1,1,1.45,1.46-1-1-1.46Zm.45-2.48,1,1.46,1.46-1-1-1.46Zm1.46-1,1,1.46,1.46-1-1-1.46Zm.44-2.48,1,1.46,1.46-1-1-1.46Zm1.46-1,1,1.46,1.46-1-1-1.46Zm2.47.44,1,1.46,1.46-1-1-1.46Zm1,1.46,1,1.46,1.46-1-1-1.46Zm-.45,2.48,1,1.46,1.46-1-1-1.46Zm-1.46,1,1,1.46,1.46-1-1-1.46Zm-.44,2.47,1,1.46,1.45-1-1-1.46Zm-1.46,1,1,1.46,1.46-1-1-1.46Zm-.44,2.48,1,1.46,1.46-1-1-1.46Zm2.47.44,1,1.46,1.46-1-1-1.46Zm2.48.45,1,1.46,1.46-1-1-1.46ZM300,166l1,1.46,1.46-1-1-1.46Zm1,1.46,1,1.46,1.46-1-1-1.45Zm-1.46,1,1,1.46,1.46-1-1-1.46Zm-1.46,1,1,1.46,1.46-1-1-1.46Zm-1.46,1,1,1.46,1.46-1-1-1.46Zm-1.46,1,1,1.46,1.46-1-1-1.46Zm-1.46,1,1,1.46,1.46-1-1-1.46Zm-1.46,1,1,1.46,1.46-1-1-1.46Zm-1.46,1,1,1.46,1.46-1-1-1.46Zm-1.46,1,1,1.46,1.46-1-1-1.46Zm-1.46,1,1,1.46,1.46-1-1-1.46Zm-1.46,1,1,1.46,1.46-1-1-1.46Zm-1.46,1,1,1.46,1.46-1-1-1.46Zm-1.46,1,1,1.46,1.46-1-1-1.46Zm-1.46,1,1,1.46,1.46-1-1-1.46Zm-1.46,1,1,1.46,1.46-1-1-1.46Zm-1.46,1,1,1.46,1.46-1-1-1.46Zm0,0,1,1.46-1.46,1-1-1.46Z" transform="translate(-34.01 -4.2)"/><polygon class="cls-2" points="246.54 177.48 245.53 176.02 246.99 175.01 245.97 173.54 247.43 172.53 246.42 171.07 247.88 170.05 246.86 168.59 248.32 167.58 247.3 166.12 248.76 165.1 247.75 163.64 249.21 162.63 248.2 161.17 249.65 160.15 248.64 158.69 250.1 157.68 249.08 156.22 250.54 155.21 249.53 153.75 250.99 152.73 255.05 158.57 257.97 156.54 256.95 155.08 259.87 153.05 258.86 151.59 261.78 149.56 263.81 152.48 260.89 154.51 261.9 155.97 258.98 158 260 159.46 258.54 160.48 259.56 161.93 261.01 160.92 262.03 162.38 263.49 161.37 264.5 162.82 265.96 161.81 266.98 163.27 246.54 177.48"/><path class="cls-9" d="M372.64,320.92c0-.35-.1-.71-.16-1.05A41.65,41.65,0,0,0,300,300.16l-.05.09-.64.61a2.63,2.63,0,0,0-.65.81,4.55,4.55,0,0,1-.61,1l-3.16,5c-.3.54-.76,1-1,.93s-.7.4-1,.95l-.79,1.46a1.59,1.59,0,0,0-.11,1.52,2,2,0,0,1,.08,1.59l-1.28,4.62a1.77,1.77,0,0,1-1.19,1.29,1.72,1.72,0,0,0-1.15,1.3l-.31,1.63a1.83,1.83,0,0,0,.72,1.74l.11.06a2.33,2.33,0,0,1,.92,1.76l.09,3.75a2,2,0,0,1-.92,1.68l-.51.28a1.84,1.84,0,0,0-.87,1.67l.18,1.65a1.83,1.83,0,0,0,1.21,1.44l1,.28a2.33,2.33,0,0,1,1.4,1.41l.88,2.77a2,2,0,0,1-.41,1.87l-.91.95a1.82,1.82,0,0,0-.33,1.84l.66,1.53a1.85,1.85,0,0,0,1.57,1l1.62,0a2.29,2.29,0,0,1,1.73.94l1.3,2a2.06,2.06,0,0,1,.15,1.92l-.82,1.61a1.85,1.85,0,0,0,.24,1.87l1.07,1.26a1.86,1.86,0,0,0,1.8.51l1.89-.61a2.2,2.2,0,0,1,1.92.42l1.55,1.32a2.13,2.13,0,0,1,.68,1.81l-.34,2a1.84,1.84,0,0,0,.77,1.71l1.4.89a1.85,1.85,0,0,0,1.87,0l1.66-1.16a2.1,2.1,0,0,1,1.94-.13l1.87.84a2.2,2.2,0,0,1,1.18,1.56l.25,1.93a1.85,1.85,0,0,0,1.23,1.43l1.6.44a1.85,1.85,0,0,0,1.78-.59l1.07-1.38a2.08,2.08,0,0,1,1.81-.7l2.37.36a2.24,2.24,0,0,1,1.59,1.16l.65,1.42a1.86,1.86,0,0,0,1.59,1l1.66-.07a1.8,1.8,0,0,0,1.52-1.08l.45-1.15a2,2,0,0,1,1.52-1.15s2-.2,3.65-.49l.15,0c.16,0,.64.31,1,.78l.61.68a1.86,1.86,0,0,0,1.82.47l1.57-.55a1.83,1.83,0,0,0,1.14-1.49l0-.48a1.94,1.94,0,0,1,1.12-1.53l3.55-1.57a2.35,2.35,0,0,1,2,.09,1.83,1.83,0,0,0,1.87-.08l1.34-1a1.7,1.7,0,0,0,.7-1.55,1.76,1.76,0,0,1,.68-1.57l3.72-3.19a2,2,0,0,1,1.4-.62c.32.08.89-.26,1.26-.75l1-1.34c.37-.5.58-1.07.47-1.25s.09-.76.44-1.26l3.23-5.08a9.18,9.18,0,0,1,.6-1,.68.68,0,0,0,.15-.3c.05-.14.2-.61.36-1.11a22.85,22.85,0,0,0,1.69-4,41.45,41.45,0,0,0,1.66-19.81" transform="translate(-34.01 -4.2)"/><path class="cls-2" d="M354.69,336.1a22.53,22.53,0,1,1-45.06,0Z" transform="translate(-34.01 -4.2)"/><path class="cls-10" d="M355.1,335.69a23.43,23.43,0,0,1-10.85,19.85,22.63,22.63,0,0,1-25.34-.79,23.44,23.44,0,0,1-9.69-19.06Z" transform="translate(-34.01 -4.2)"/><path class="cls-11" d="M338.36,348.83c3.44,1.15,5.67,6.43,5.67,6.43a22.55,22.55,0,0,1-24.89-.76s3.57-4.94,6.17-5.56,6.44,1,6.44,1,3.17-2.29,6.6-1.15" transform="translate(-34.01 -4.2)"/><path class="cls-12" d="M338.64,348.44c3.6,1.24,5.93,6.94,5.93,6.94a23,23,0,0,1-26-.82s3.73-5.34,6.46-6,6.73,1.13,6.73,1.13S335,347.21,338.64,348.44Z" transform="translate(-34.01 -4.2)"/><path class="cls-10" d="M308.12,315.24a9.24,9.24,0,1,1,18.46,0m11.15,0a9.24,9.24,0,1,1,18.46,0" transform="translate(-34.01 -4.2)"/><path class="cls-13" d="M311.07,343.29a10,10,0,1,1-14.16-14.16c3.91-3.91,21.68-7.53,21.68-7.53s-3.61,17.77-7.52,21.68" transform="translate(-34.01 -4.2)"/><path class="cls-13" d="M353.25,343.29a10,10,0,0,0,14.16-14.16c-3.91-3.91-21.68-7.53-21.68-7.53s3.61,17.77,7.52,21.68" transform="translate(-34.01 -4.2)"/><path class="cls-9" d="M240.93,267.45c0-.22-.06-.45-.1-.68a26.78,26.78,0,0,0-46.58-12.66l0,.05-.41.39a1.72,1.72,0,0,0-.42.52,2.77,2.77,0,0,1-.39.65l-2,3.19c-.19.35-.49.61-.65.6s-.45.26-.64.61l-.5.94a1,1,0,0,0-.07,1,1.28,1.28,0,0,1,0,1l-.82,3a1.13,1.13,0,0,1-.76.83,1.11,1.11,0,0,0-.75.83l-.2,1a1.18,1.18,0,0,0,.46,1.12l.07,0a1.48,1.48,0,0,1,.59,1.13l.06,2.41a1.26,1.26,0,0,1-.59,1.08l-.33.18a1.18,1.18,0,0,0-.56,1.07l.12,1.06a1.17,1.17,0,0,0,.77.92l.62.18a1.49,1.49,0,0,1,.89.9l.57,1.78a1.31,1.31,0,0,1-.26,1.21l-.59.61a1.18,1.18,0,0,0-.22,1.18l.42,1a1.17,1.17,0,0,0,1,.66l1,0a1.47,1.47,0,0,1,1.11.61l.84,1.25a1.33,1.33,0,0,1,.09,1.24l-.53,1a1.18,1.18,0,0,0,.15,1.2l.69.81a1.2,1.2,0,0,0,1.16.33l1.21-.39a1.42,1.42,0,0,1,1.23.27l1,.85a1.36,1.36,0,0,1,.44,1.17l-.22,1.28a1.18,1.18,0,0,0,.49,1.1l.9.58a1.19,1.19,0,0,0,1.2,0l1.06-.75a1.35,1.35,0,0,1,1.25-.09l1.2.54a1.41,1.41,0,0,1,.75,1l.16,1.25a1.2,1.2,0,0,0,.79.92l1,.28a1.18,1.18,0,0,0,1.15-.38l.69-.88a1.33,1.33,0,0,1,1.16-.45l1.52.23a1.45,1.45,0,0,1,1,.75l.42.91a1.19,1.19,0,0,0,1,.64l1.07,0a1.16,1.16,0,0,0,1-.7L216,299a1.27,1.27,0,0,1,1-.74s1.32-.13,2.35-.31l.09,0c.1,0,.41.2.67.5l.39.44a1.19,1.19,0,0,0,1.17.31l1-.35a1.2,1.2,0,0,0,.73-1l0-.3a1.26,1.26,0,0,1,.72-1l2.29-1a1.49,1.49,0,0,1,1.27.06,1.19,1.19,0,0,0,1.2-.06l.86-.63a1.1,1.1,0,0,0,.45-1,1.12,1.12,0,0,1,.44-1l2.39-2.05a1.26,1.26,0,0,1,.9-.4c.21.06.57-.17.81-.48l.64-.86c.24-.32.37-.68.3-.8s.06-.49.29-.81l2.07-3.27c.2-.35.37-.63.37-.63s.08-.09.11-.2l.23-.71a14.88,14.88,0,0,0,1.09-2.56,26.64,26.64,0,0,0,1.06-12.73" transform="translate(-34.01 -4.2)"/><path class="cls-14" d="M218,263.8a5.82,5.82,0,0,1,11.63,0m-30.29,0a5.82,5.82,0,0,1,11.63,0" transform="translate(-34.01 -4.2)"/><path class="cls-2" d="M228.95,277.25a14.44,14.44,0,0,1-28.88,0Z" transform="translate(-34.01 -4.2)"/><path class="cls-14" d="M228.95,277.25a14.44,14.44,0,0,1-28.88,0Z" transform="translate(-34.01 -4.2)"/><path class="cls-15" d="M194.84,241.29c0-.35-.09-.7-.15-1a41.15,41.15,0,0,0-71.59-19.47l0,.09c-.24.22-.47.44-.64.6a2.48,2.48,0,0,0-.64.79,4.31,4.31,0,0,1-.6,1l-3.13,4.9c-.3.54-.76,1-1,.93s-.69.4-1,.94l-.78,1.45a1.54,1.54,0,0,0-.1,1.49,2,2,0,0,1,.08,1.57L114,239.1a1.75,1.75,0,0,1-1.18,1.27,1.73,1.73,0,0,0-1.15,1.29l-.3,1.61a1.83,1.83,0,0,0,.71,1.72l.11.06a2.26,2.26,0,0,1,.9,1.74l.09,3.7a1.92,1.92,0,0,1-.91,1.65l-.51.27a1.82,1.82,0,0,0-.85,1.65l.18,1.64a1.81,1.81,0,0,0,1.18,1.42l1,.28a2.3,2.3,0,0,1,1.38,1.39l.86,2.74a2,2,0,0,1-.4,1.85l-.9.93a1.81,1.81,0,0,0-.34,1.82l.65,1.51a1.81,1.81,0,0,0,1.55,1l1.6,0a2.3,2.3,0,0,1,1.71.92l1.28,1.93a2,2,0,0,1,.14,1.91L120,275a1.81,1.81,0,0,0,.23,1.84l1.06,1.25a1.84,1.84,0,0,0,1.78.51l1.86-.6a2.18,2.18,0,0,1,1.9.4l1.53,1.31a2.1,2.1,0,0,1,.68,1.8l-.34,2a1.82,1.82,0,0,0,.76,1.7l1.38.88a1.82,1.82,0,0,0,1.85,0l1.64-1.15a2.11,2.11,0,0,1,1.92-.14l1.84.84a2.15,2.15,0,0,1,1.16,1.54l.25,1.91a1.81,1.81,0,0,0,1.22,1.4l1.57.44a1.86,1.86,0,0,0,1.77-.59l1.06-1.36a2.06,2.06,0,0,1,1.78-.69l2.34.36a2.21,2.21,0,0,1,1.57,1.15l.64,1.41a1.83,1.83,0,0,0,1.58,1l1.64-.06a1.8,1.8,0,0,0,1.5-1.07l.44-1.14a2,2,0,0,1,1.49-1.14s2-.2,3.61-.48l.15,0c.16,0,.63.31,1,.76l.6.68a1.82,1.82,0,0,0,1.79.46l1.56-.53a1.82,1.82,0,0,0,1.12-1.48l0-.47a1.9,1.9,0,0,1,1.11-1.51l3.51-1.55a2.27,2.27,0,0,1,1.95.09,1.81,1.81,0,0,0,1.85-.08l1.32-1a1.65,1.65,0,0,0,.7-1.52,1.72,1.72,0,0,1,.67-1.55l3.68-3.16a1.92,1.92,0,0,1,1.38-.62c.33.08.88-.25,1.25-.75l1-1.32c.37-.49.58-1.05.47-1.24s.09-.75.44-1.24l3.19-5a8.73,8.73,0,0,1,.59-1,.94.94,0,0,0,.14-.3c0-.14.2-.6.35-1.09a23.07,23.07,0,0,0,1.67-3.93,40.78,40.78,0,0,0,1.63-19.57" transform="translate(-34.01 -4.2)"/><path class="cls-1" d="M147.94,240.26a3.8,3.8,0,1,1-3.8-3.8,3.79,3.79,0,0,1,3.8,3.8" transform="translate(-34.01 -4.2)"/><path class="cls-1" d="M168.13,240.26a3.8,3.8,0,1,1-3.8-3.8,3.8,3.8,0,0,1,3.8,3.8" transform="translate(-34.01 -4.2)"/><path class="cls-16" d="M175.69,262.78a22.58,22.58,0,0,1-9.63,12.56,22.3,22.3,0,0,1-24.79-.76,22.69,22.69,0,0,1-8.49-11.78" transform="translate(-34.01 -4.2)"/><path class="cls-13" d="M154.16,198.91c-23.32,0-42.22,5.61-42.22,12.53S130.84,224,154.16,224s42.23-5.61,42.23-12.53-18.9-12.53-42.23-12.53m0,19.26c-15.2,0-27.53-3.08-27.53-6.88s12.32-6.88,27.53-6.88,27.53,3.08,27.53,6.88-12.33,6.88-27.53,6.88" transform="translate(-34.01 -4.2)"/><path class="cls-17" d="M351.88,39.36c0-.35-.09-.71-.16-1.05A41.65,41.65,0,0,0,279.26,18.6l-.05.09c-.25.22-.48.44-.64.61a2.68,2.68,0,0,0-.65.8,4.36,4.36,0,0,1-.61,1l-3.16,5c-.3.54-.76,1-1,.93s-.7.4-1,.95l-.79,1.46a1.59,1.59,0,0,0-.11,1.52,2,2,0,0,1,.08,1.59L270,37.14a1.78,1.78,0,0,1-1.19,1.29,1.74,1.74,0,0,0-1.16,1.3l-.31,1.63a1.85,1.85,0,0,0,.72,1.74l.11.06a2.3,2.3,0,0,1,.92,1.76l.09,3.75a2,2,0,0,1-.92,1.68l-.52.27a1.87,1.87,0,0,0-.86,1.68l.18,1.65a1.84,1.84,0,0,0,1.2,1.44l1,.28a2.33,2.33,0,0,1,1.39,1.41l.88,2.77a2,2,0,0,1-.41,1.88l-.91.95a1.83,1.83,0,0,0-.34,1.84l.65,1.53a1.85,1.85,0,0,0,1.57,1l1.62,0a2.31,2.31,0,0,1,1.73.94l1.3,1.95a2.08,2.08,0,0,1,.15,1.93l-.82,1.61a1.85,1.85,0,0,0,.23,1.86l1.07,1.26a1.86,1.86,0,0,0,1.8.51l1.88-.61a2.23,2.23,0,0,1,1.92.41l1.54,1.32a2.11,2.11,0,0,1,.69,1.81l-.34,2a1.84,1.84,0,0,0,.76,1.71l1.4.89a1.86,1.86,0,0,0,1.88,0l1.65-1.17a2.12,2.12,0,0,1,1.94-.14l1.86.85a2.2,2.2,0,0,1,1.18,1.56l.26,1.93a1.86,1.86,0,0,0,1.23,1.42l1.6.44a1.84,1.84,0,0,0,1.78-.59l1.07-1.37a2.06,2.06,0,0,1,1.8-.7l2.37.36a2.23,2.23,0,0,1,1.59,1.16l.66,1.42a1.83,1.83,0,0,0,1.59,1l1.67-.07a1.8,1.8,0,0,0,1.52-1.08l.44-1.15a2,2,0,0,1,1.52-1.15s2-.2,3.65-.49l.15,0c.16,0,.64.31,1,.77l.61.68a1.84,1.84,0,0,0,1.81.47l1.58-.54a1.84,1.84,0,0,0,1.14-1.49l0-.47a1.91,1.91,0,0,1,1.12-1.54l3.55-1.57a2.31,2.31,0,0,1,2,.09,1.84,1.84,0,0,0,1.87-.08l1.33-1a1.67,1.67,0,0,0,.7-1.54,1.75,1.75,0,0,1,.68-1.57l3.72-3.19a2,2,0,0,1,1.41-.62c.32.08.89-.26,1.26-.75l1-1.34c.36-.49.58-1.06.47-1.25s.09-.76.45-1.26l3.22-5.09a9.79,9.79,0,0,1,.6-1,.73.73,0,0,0,.15-.3c.05-.15.2-.61.36-1.1a23.68,23.68,0,0,0,1.69-4,41.42,41.42,0,0,0,1.65-19.81" transform="translate(-34.01 -4.2)"/><path class="cls-18" d="M332.64,61a23.19,23.19,0,0,1-9.81,12.88,22.65,22.65,0,0,1-25.27-.78,23.23,23.23,0,0,1-8.65-12.08" transform="translate(-34.01 -4.2)"/><path class="cls-11" d="M293.74,47.18c5-3.41,13.38-8.7,13.38-15.52,0-3.39-1.64-7.65-6.69-7.65-4.31,0-6.69,3.94-6.69,3.94S291.24,24,287.05,24c-5.05,0-6.69,4.26-6.69,7.65,0,6.82,8.19,12.11,13.38,15.52" transform="translate(-34.01 -4.2)"/><path class="cls-18" d="M293.74,47.18c5-3.41,13.38-8.7,13.38-15.52,0-3.39-1.64-7.65-6.69-7.65-4.31,0-6.69,3.94-6.69,3.94S291.24,24,287.05,24c-5.05,0-6.69,4.26-6.69,7.65C280.36,38.48,288.55,43.78,293.74,47.18Z" transform="translate(-34.01 -4.2)"/><path class="cls-11" d="M327.8,47.18c5-3.41,13.39-8.7,13.39-15.52,0-3.39-1.65-7.65-6.69-7.65C330.18,24,327.8,28,327.8,28S325.3,24,321.12,24c-5,0-6.68,4.26-6.68,7.65,0,6.82,8.19,12.11,13.37,15.52" transform="translate(-34.01 -4.2)"/><path class="cls-18" d="M327.8,47.18c5-3.41,13.39-8.7,13.39-15.52,0-3.39-1.65-7.65-6.69-7.65C330.18,24,327.8,28,327.8,28S325.3,24,321.12,24c-5,0-6.68,4.26-6.68,7.65C314.43,38.48,322.62,43.78,327.8,47.18Z" transform="translate(-34.01 -4.2)"/><path class="cls-19" d="M168.88,380.32c0-.23-.06-.46-.1-.68a26.78,26.78,0,0,0-31.2-21.48A27.5,27.5,0,0,0,122.2,367l0,.05-.42.39a1.8,1.8,0,0,0-.42.52,2.72,2.72,0,0,1-.39.65l-2,3.19c-.19.35-.49.62-.65.6s-.45.26-.64.61l-.51.94a1,1,0,0,0-.06,1,1.29,1.29,0,0,1,0,1l-.82,3a1.14,1.14,0,0,1-.76.83,1.12,1.12,0,0,0-.75.83l-.2,1a1.18,1.18,0,0,0,.47,1.12l.07,0a1.51,1.51,0,0,1,.59,1.13l.06,2.41a1.26,1.26,0,0,1-.59,1.08l-.33.18a1.19,1.19,0,0,0-.56,1.07l.12,1.06a1.17,1.17,0,0,0,.77.93l.62.18a1.48,1.48,0,0,1,.89.9l.56,1.78a1.3,1.3,0,0,1-.26,1.2l-.58.61a1.19,1.19,0,0,0-.22,1.19l.42,1a1.17,1.17,0,0,0,1,.66l1,0a1.47,1.47,0,0,1,1.11.6l.84,1.26a1.33,1.33,0,0,1,.09,1.24l-.53,1a1.18,1.18,0,0,0,.15,1.2l.69.81a1.21,1.21,0,0,0,1.16.33l1.21-.39a1.4,1.4,0,0,1,1.23.26l1,.85a1.36,1.36,0,0,1,.44,1.17l-.22,1.29a1.19,1.19,0,0,0,.49,1.11l.9.57a1.18,1.18,0,0,0,1.2,0l1.07-.75a1.35,1.35,0,0,1,1.25-.09l1.2.55a1.41,1.41,0,0,1,.76,1l.16,1.24a1.19,1.19,0,0,0,.8.92l1,.28a1.2,1.2,0,0,0,1.15-.38l.69-.89a1.33,1.33,0,0,1,1.16-.45l1.52.23a1.42,1.42,0,0,1,1,.75l.42.92a1.2,1.2,0,0,0,1,.64l1.07,0a1.17,1.17,0,0,0,1-.7l.29-.74a1.28,1.28,0,0,1,1-.75s1.32-.13,2.35-.31l.09,0c.11,0,.41.2.67.5l.39.44a1.18,1.18,0,0,0,1.17.31l1-.35a1.19,1.19,0,0,0,.73-1l0-.3a1.25,1.25,0,0,1,.72-1l2.29-1a1.49,1.49,0,0,1,1.27.06,1.17,1.17,0,0,0,1.2-.06l.86-.63a1.09,1.09,0,0,0,.45-1,1.12,1.12,0,0,1,.44-1l2.39-2.05a1.26,1.26,0,0,1,.9-.41c.21.06.57-.16.81-.48l.64-.86c.24-.31.37-.68.3-.8s.06-.49.28-.81l2.07-3.27a6.14,6.14,0,0,1,.38-.63.5.5,0,0,0,.1-.2l.23-.7a14.89,14.89,0,0,0,1.09-2.56,26.64,26.64,0,0,0,1.06-12.73" transform="translate(-34.01 -4.2)"/><path class="cls-20" d="M157,370.76l-7.88-4.55M128,371l7.88-4.55" transform="translate(-34.01 -4.2)"/><path class="cls-2" d="M141.68,379.62a5.83,5.83,0,1,1-5.83-5.83,5.83,5.83,0,0,1,5.83,5.83" transform="translate(-34.01 -4.2)"/><path class="cls-1" d="M137.21,379.62a2.47,2.47,0,1,1-2.47-2.47,2.47,2.47,0,0,1,2.47,2.47" transform="translate(-34.01 -4.2)"/><path class="cls-2" d="M154.91,379.62a5.83,5.83,0,1,1-5.83-5.83,5.83,5.83,0,0,1,5.83,5.83" transform="translate(-34.01 -4.2)"/><path class="cls-1" d="M150.34,379.62a2.47,2.47,0,1,1-2.47-2.47,2.47,2.47,0,0,1,2.47,2.47" transform="translate(-34.01 -4.2)"/><path class="cls-11" d="M161.73,400l-5-5a1.71,1.71,0,0,0-.5-.31,14.49,14.49,0,0,1-6.1,7.72,14.28,14.28,0,0,1-4.82,1.87,2,2,0,0,0,.49,1.65l5,5A7.72,7.72,0,0,0,161.73,400" transform="translate(-34.01 -4.2)"/><path class="cls-20" d="M156.92,390A14.46,14.46,0,0,1,128,390" transform="translate(-34.01 -4.2)"/></svg>